<?xml version="1.0" encoding="utf-8"?>
<!-- Generator: Adobe Illustrator 21.1.0, SVG Export Plug-In . SVG Version: 6.00 Build 0)  -->
<svg version="1.1" id="Capa_1" xmlns="http://www.w3.org/2000/svg" xmlns:xlink="http://www.w3.org/1999/xlink" x="0px" y="0px"
	 viewBox="0 0 480 480" style="enable-background:new 0 0 480 480;" xml:space="preserve">
<style type="text/css">
	.st0{fill:#FFFFFF;}
</style>
<g>
	<g>
		<path class="st0" d="M424,16H56C25.1,16,0,41.1,0,72v256c0,30.9,25.1,56,56,56h125.2L162,448h-26v16h208v-16h-26l-19.2-64H424
			c30.9,0,56-25.1,56-56V72C480,41.1,454.9,16,424,16z M301.2,448H178.8l19.2-64H282L301.2,448z M464,328c0,22.1-17.9,40-40,40H56
			c-22.1,0-40-17.9-40-40v-8h448V328z M464,304H16V72c0-22.1,17.9-40,40-40h368c22.1,0,40,17.9,40,40V304z"/>
	</g>
</g>
<g>
	<g>
		<path class="st0" d="M336,128h-20l-21.6-28.8c-1.5-2-3.9-3.2-6.4-3.2h-80c-2.5,0-4.9,1.2-6.4,3.2l-22.2,29.6l-37,7.4
			c-3.7,0.8-6.4,4-6.4,7.8v40c0,4.4,3.6,8,8,8h25.5c4.3,12.4,17.9,19,30.4,14.7c6.9-2.4,12.3-7.8,14.7-14.7h50.9
			c4.3,12.4,17.9,19,30.4,14.7c6.9-2.4,12.3-7.8,14.7-14.7H336c4.4,0,8-3.6,8-8v-48C344,131.6,340.4,128,336,128z M192,192
			c-4.4,0-8-3.6-8-8s3.6-8,8-8s8,3.6,8,8S196.4,192,192,192z M288,192c-4.4,0-8-3.6-8-8s3.6-8,8-8s8,3.6,8,8S292.4,192,288,192z
			 M328,176h-17.4c-0.1-0.3-0.2-0.5-0.3-0.8c-0.2-0.4-0.4-0.9-0.6-1.3c-0.4-0.9-0.9-1.7-1.4-2.6c-0.2-0.4-0.5-0.8-0.7-1.2
			c-0.7-0.9-1.4-1.8-2.2-2.7c-0.2-0.2-0.3-0.4-0.5-0.5c-1-1-2.1-1.9-3.2-2.7c-0.3-0.2-0.7-0.4-1-0.6c-0.9-0.5-1.8-1-2.7-1.5
			c-0.4-0.2-0.9-0.4-1.3-0.6c-0.9-0.4-1.9-0.7-2.9-0.9c-0.4-0.1-0.9-0.2-1.3-0.3c-2.9-0.6-5.9-0.6-8.8,0c-0.4,0.1-0.9,0.2-1.3,0.3
			c-1,0.2-1.9,0.5-2.9,0.9c-0.5,0.2-0.9,0.4-1.3,0.6c-0.9,0.4-1.8,0.9-2.7,1.5c-0.3,0.2-0.7,0.4-1,0.6c-1.1,0.8-2.2,1.7-3.2,2.7
			c-0.2,0.2-0.3,0.4-0.5,0.5c-0.8,0.8-1.5,1.7-2.2,2.7c-0.3,0.4-0.5,0.8-0.7,1.2c-0.5,0.8-1,1.7-1.4,2.6c-0.2,0.4-0.4,0.9-0.6,1.3
			c-0.1,0.3-0.2,0.5-0.3,0.8h-50.8c-0.1-0.3-0.2-0.5-0.3-0.8c-0.2-0.4-0.4-0.9-0.6-1.3c-0.4-0.9-0.9-1.7-1.4-2.6
			c-0.2-0.4-0.5-0.8-0.7-1.2c-0.7-0.9-1.4-1.8-2.2-2.7c-0.2-0.2-0.3-0.4-0.5-0.5c-1-1-2.1-1.9-3.2-2.7c-0.3-0.2-0.7-0.4-1-0.6
			c-0.9-0.5-1.8-1-2.7-1.5c-0.4-0.2-0.9-0.4-1.3-0.6c-0.9-0.4-1.9-0.7-2.9-0.9c-0.4-0.1-0.9-0.2-1.3-0.3c-2.9-0.6-5.9-0.6-8.8,0
			c-0.4,0.1-0.9,0.2-1.3,0.3c-1,0.2-1.9,0.5-2.9,0.9c-0.5,0.2-0.9,0.4-1.3,0.6c-0.9,0.4-1.8,0.9-2.7,1.5c-0.3,0.2-0.7,0.4-1,0.6
			c-1.1,0.8-2.2,1.7-3.2,2.7c-0.2,0.2-0.3,0.4-0.5,0.5c-0.8,0.8-1.5,1.7-2.2,2.7c-0.3,0.4-0.5,0.8-0.7,1.2c-0.5,0.8-1,1.7-1.4,2.6
			c-0.2,0.4-0.4,0.9-0.6,1.3c-0.1,0.3-0.2,0.5-0.3,0.8H152v-25.5l33.6-6.7c1.9-0.4,3.6-1.5,4.8-3L212,112h72l21.6,28.8
			c1.5,2,3.9,3.2,6.4,3.2h16V176z"/>
	</g>
</g>
<g>
	<g>
		<path class="st0" d="M149.7,82.3c-1.5-1.5-3.5-2.3-5.7-2.3h-32v16h28.7l21.7,21.7l11.3-11.3L149.7,82.3z"/>
	</g>
</g>
<g>
	<g>
		<rect x="384" y="64" class="st0" width="64" height="16"/>
	</g>
</g>
<g>
	<g>
		<rect x="384" y="96" class="st0" width="64" height="16"/>
	</g>
</g>
<g>
	<g>
		<rect x="384" y="144" class="st0" width="64" height="16"/>
	</g>
</g>
<g>
	<g>
		<rect x="384" y="176" class="st0" width="64" height="16"/>
	</g>
</g>
<g>
	<g>
		<path class="st0" d="M336,80c-2.1,0-4.2,0.8-5.7,2.3l-16,16l11.3,11.3L339.3,96H368V80H336z"/>
	</g>
</g>
<g>
	<g>
		<rect x="32" y="64" class="st0" width="64" height="16"/>
	</g>
</g>
<g>
	<g>
		<rect x="32" y="96" class="st0" width="64" height="16"/>
	</g>
</g>
<g>
	<g>
		<rect x="32" y="144" class="st0" width="64" height="16"/>
	</g>
</g>
<g>
	<g>
		<rect x="32" y="176" class="st0" width="64" height="16"/>
	</g>
</g>
<g>
	<g>
		<path class="st0" d="M80,232H48c-4.4,0-8,3.6-8,8v32c0,4.4,3.6,8,8,8h32c4.4,0,8-3.6,8-8v-32C88,235.6,84.4,232,80,232z M72,264
			H56v-16h16V264z"/>
	</g>
</g>
<g>
	<g>
		<path class="st0" d="M176,224h-48c-4.4,0-8,3.6-8,8v48c0,4.4,3.6,8,8,8h48c4.4,0,8-3.6,8-8v-48C184,227.6,180.4,224,176,224z
			 M168,272h-32v-32h32V272z"/>
	</g>
</g>
<g>
	<g>
		<path class="st0" d="M256,232h-32c-4.4,0-8,3.6-8,8v32c0,4.4,3.6,8,8,8h32c4.4,0,8-3.6,8-8v-32C264,235.6,260.4,232,256,232z
			 M248,264h-16v-16h16V264z"/>
	</g>
</g>
<g>
	<g>
		<path class="st0" d="M344,232h-32c-4.4,0-8,3.6-8,8v32c0,4.4,3.6,8,8,8h32c4.4,0,8-3.6,8-8v-32C352,235.6,348.4,232,344,232z
			 M336,264h-16v-16h16V264z"/>
	</g>
</g>
<g>
	<g>
		<path class="st0" d="M432,232h-32c-4.4,0-8,3.6-8,8v32c0,4.4,3.6,8,8,8h32c4.4,0,8-3.6,8-8v-32C440,235.6,436.4,232,432,232z
			 M424,264h-16v-16h16V264z"/>
	</g>
</g>
<g>
	<g>
		<rect x="184" y="64" class="st0" width="112" height="16"/>
	</g>
</g>
</svg>
