<?xml version="1.0" encoding="utf-8"?>
<!-- Generator: Adobe Illustrator 21.1.0, SVG Export Plug-In . SVG Version: 6.00 Build 0)  -->
<svg version="1.1" id="Capa_1" xmlns="http://www.w3.org/2000/svg" xmlns:xlink="http://www.w3.org/1999/xlink" x="0px" y="0px"
	 viewBox="0 0 480 480" style="enable-background:new 0 0 480 480;" xml:space="preserve">
<style type="text/css">
	.st0{fill:#FFFFFF;}
</style>
<g>
	<g>
		<path class="st0" d="M290.5,184.4l-22.2-7.4l-22.7-22.7c-1.5-1.5-3.5-2.3-5.7-2.3h-72c-2.1,0-4.2,0.8-5.7,2.3l-22.4,22.4
			l-29.9,7.5c-3.6,0.9-6.1,4.1-6.1,7.8v40c0,4.4,3.6,8,8,8h17.5c4.3,12.4,17.9,19,30.4,14.7c6.9-2.4,12.3-7.8,14.7-14.7h50.9
			c4.3,12.4,17.9,19,30.4,14.7c6.9-2.4,12.3-7.8,14.7-14.7H288c4.4,0,8-3.6,8-8v-40C296,188.6,293.8,185.5,290.5,184.4z M152,240
			c-4.4,0-8-3.6-8-8s3.6-8,8-8s8,3.6,8,8S156.4,240,152,240z M248,240c-4.4,0-8-3.6-8-8s3.6-8,8-8s8,3.6,8,8S252.4,240,248,240z
			 M280,224h-9.4c-0.1-0.3-0.2-0.5-0.3-0.8c-0.2-0.4-0.4-0.9-0.6-1.3c-0.4-0.9-0.9-1.7-1.4-2.6c-0.2-0.4-0.5-0.8-0.7-1.2
			c-0.7-0.9-1.4-1.8-2.2-2.7c-0.2-0.2-0.3-0.4-0.5-0.5c-1-1-2.1-1.9-3.2-2.7c-0.3-0.2-0.7-0.4-1-0.6c-0.9-0.5-1.8-1-2.7-1.5
			c-0.4-0.2-0.9-0.4-1.3-0.6c-0.9-0.4-1.9-0.7-2.9-0.9c-0.4-0.1-0.9-0.2-1.3-0.3c-2.9-0.6-5.9-0.6-8.8,0c-0.4,0.1-0.9,0.2-1.3,0.3
			c-1,0.2-1.9,0.5-2.9,0.9c-0.5,0.2-0.9,0.4-1.3,0.6c-0.9,0.4-1.8,0.9-2.7,1.5c-0.3,0.2-0.7,0.4-1,0.6c-1.1,0.8-2.2,1.7-3.2,2.7
			c-0.2,0.2-0.3,0.4-0.5,0.5c-0.8,0.8-1.5,1.7-2.2,2.7c-0.3,0.4-0.5,0.8-0.7,1.2c-0.5,0.8-1,1.7-1.4,2.6c-0.2,0.4-0.4,0.9-0.6,1.3
			c-0.1,0.3-0.2,0.5-0.3,0.8h-50.8c-0.1-0.3-0.2-0.5-0.3-0.8c-0.2-0.4-0.4-0.9-0.6-1.3c-0.4-0.9-0.9-1.7-1.4-2.6
			c-0.2-0.4-0.5-0.8-0.7-1.2c-0.7-0.9-1.4-1.8-2.2-2.7c-0.2-0.2-0.3-0.4-0.5-0.5c-1-1-2.1-1.9-3.2-2.7c-0.3-0.2-0.7-0.4-1-0.6
			c-0.9-0.5-1.8-1-2.7-1.5c-0.4-0.2-0.9-0.4-1.3-0.6c-0.9-0.4-1.9-0.7-2.9-0.9c-0.4-0.1-0.9-0.2-1.3-0.3c-2.9-0.6-5.9-0.6-8.8,0
			c-0.4,0.1-0.9,0.2-1.3,0.3c-1,0.2-1.9,0.5-2.9,0.9c-0.5,0.2-0.9,0.4-1.3,0.6c-0.9,0.4-1.8,0.9-2.7,1.5c-0.3,0.2-0.7,0.4-1,0.6
			c-1.1,0.8-2.2,1.7-3.2,2.7c-0.2,0.2-0.3,0.4-0.5,0.5c-0.8,0.8-1.5,1.7-2.2,2.7c-0.3,0.4-0.5,0.8-0.7,1.2c-0.5,0.8-1,1.7-1.4,2.6
			c-0.2,0.4-0.4,0.9-0.6,1.3c-0.1,0.3-0.2,0.5-0.3,0.8H120v-25.8l25.9-6.5c1.4-0.4,2.7-1.1,3.7-2.1l21.7-21.7h65.4l21.7,21.7
			c0.9,0.9,2,1.5,3.1,1.9l18.5,6.2L280,224L280,224z"/>
	</g>
</g>
<g>
	<g>
		<path class="st0" d="M437.7,178.3l-24-24c-3.1-3.1-8.2-3.1-11.3,0L360,196.7V88c0-22.1-17.9-40-40-40h-88V32c0-17.7-14.3-32-32-32
			s-32,14.3-32,32v16H80c-22.1,0-40,17.9-40,40v352c0,22.1,17.9,40,40,40h240c22.1,0,40-17.9,40-40V267.3l77.7-77.7
			C440.8,186.5,440.8,181.5,437.7,178.3z M320,64c13.3,0,24,10.7,24,24v124.7l-16,16V88c0-4.4-3.6-8-8-8h-38.5l-6-16H320z
			 M250.3,341.7c0.7,0.7,1.5,1.2,2.3,1.6c0.2,0.1,0.4,0.2,0.6,0.3c0.9,0.3,1.8,0.5,2.7,0.5h0.1c0.7,0,1.3-0.1,1.9-0.2l32-8
			c1.4-0.4,2.7-1.1,3.7-2.1l18.3-18.3V368h-56c-4.4,0-8,3.6-8,8v56H88V96h24.5l-8,21.2c-1.6,4.1,0.5,8.7,4.7,10.3
			c0.9,0.3,1.9,0.5,2.8,0.5h176c4.4,0,8-3.6,8-8c0-1-0.2-1.9-0.5-2.8l-8-21.2H312v148.7l-53.7,53.7c-1,1-1.8,2.3-2.1,3.7l-8,32
			C247.6,336.8,248.4,339.7,250.3,341.7z M312,395.3V432h-36.7L312,395.3z M264,420.7V384h36.7L264,420.7z M131.5,90.8l10-26.8H176
			c4.4,0,8-3.6,8-8V32c0-8.8,7.2-16,16-16s16,7.2,16,16v24c0,4.4,3.6,8,8,8h34.5l10,26.8l8,21.2H123.5L131.5,90.8L131.5,90.8z
			 M344,440c0,13.3-10.7,24-24,24H80c-13.3,0-24-10.7-24-24V88c0-13.3,10.7-24,24-24h44.5l-6,16H80c-4.4,0-8,3.6-8,8v352
			c0,4.4,3.6,8,8,8h240c4.4,0,8-3.6,8-8V299.3l16-16V440z M346.3,258.3l-32,32l-30.4,30.4L267,325l4.2-16.9l54.4-54.4l32-32
			l26.3-26.3l12.7,12.7L346.3,258.3z M408,196.7L395.3,184l12.7-12.7l12.7,12.7L408,196.7z"/>
	</g>
</g>
<g>
	<g>
		<rect x="112" y="272" class="st0" width="136" height="16"/>
	</g>
</g>
<g>
	<g>
		<rect x="112" y="304" class="st0" width="112" height="16"/>
	</g>
</g>
<g>
	<g>
		<rect x="112" y="336" class="st0" width="112" height="16"/>
	</g>
</g>
<g>
	<g>
		<rect x="112" y="368" class="st0" width="112" height="16"/>
	</g>
</g>
</svg>
