<?xml version="1.0" encoding="utf-8"?>
<!-- Generator: Adobe Illustrator 21.1.0, SVG Export Plug-In . SVG Version: 6.00 Build 0)  -->
<svg version="1.1" id="Capa_1" xmlns="http://www.w3.org/2000/svg" xmlns:xlink="http://www.w3.org/1999/xlink" x="0px" y="0px"
	 viewBox="0 0 480 480" style="enable-background:new 0 0 480 480;" xml:space="preserve">
<style type="text/css">
	.st0{fill:#FFFFFF;}
</style>
<g>
	<g>
		<path class="st0" d="M105.2,146.3C105.2,146.3,105.2,146.3,105.2,146.3c-12.7-0.8-23.7,8.7-24.7,21.4
			c-0.9,12.7,8.7,23.8,21.4,24.7c0.5,0,1.1,0.1,1.6,0.1c12.1,0,22.2-9.4,23-21.5C127.6,158.3,118,147.2,105.2,146.3z M110.7,169.9
			c-0.3,3.9-3.7,6.9-7.6,6.6c-3.9-0.3-6.9-3.7-6.6-7.6c0.3-3.7,3.4-6.6,7.1-6.6c0.2,0,0.3,0,0.5,0C108,162.6,111,166,110.7,169.9z"
			/>
	</g>
</g>
<g>
	<g>
		<path class="st0" d="M472,176c4.4,0,8-3.6,8-8V99.5c0-10.3-6.6-19.5-16.4-22.7L428.2,65l-56.2-53.8C364.6,4,354.7,0,344.4,0H188.2
			c-9.8,0-19.3,3.6-26.6,10.1l-61.2,54.4l-67,11.2C14.1,78.9,0,95.6,0,115.1V168c0,4.4,3.6,8,8,8h40.6c1.7,12.2,7.5,23.4,16.2,32H8
			c-4.4,0-8,3.6-8,8v32c0,4.4,3.6,8,8,8h29.9l154,88l-154,88H8c-4.4,0-8,3.6-8,8v32c0,4.4,3.6,8,8,8h464c4.4,0,8-3.6,8-8v-32
			c0-4.4-3.6-8-8-8h-29.9l-154-88l154-88H472c4.4,0,8-3.6,8-8v-32c0-4.4-3.6-8-8-8h-40.9c8.8-8.6,14.5-19.8,16.2-32H472z M296,16
			h48.4c6.2,0,12.1,2.4,16.6,6.7L404.1,64H296V16z M172.2,22.1c4.4-3.9,10.1-6.1,16-6.1H280v48H125L172.2,22.1z M336.6,176
			c1.7,12.2,7.5,23.4,16.2,32H143.1c8.8-8.6,14.5-19.8,16.2-32H336.6z M60.6,132.6c-0.9,1.1-1.8,2.3-2.6,3.4
			c-0.2,0.2-0.4,0.5-0.5,0.7c-1,1.4-1.9,2.9-2.7,4.4c-0.2,0.4-0.4,0.8-0.6,1.2c-0.6,1.1-1.2,2.3-1.7,3.5c-0.3,0.6-0.5,1.2-0.7,1.8
			c-0.4,1-0.8,2.1-1.1,3.1c-0.2,0.7-0.4,1.4-0.6,2.1c-0.3,1-0.6,2-0.8,3c-0.2,0.7-0.3,1.5-0.4,2.2c-0.1,0.6-0.3,1.2-0.4,1.8H16v-32
			h16v-16H16.3c1.3-10.5,9.4-18.8,19.8-20.6L104.7,80H280v80H159.4c-0.1-0.6-0.2-1.2-0.4-1.8c-0.1-0.8-0.3-1.5-0.4-2.3
			c-0.2-1-0.5-2-0.8-3c-0.2-0.7-0.4-1.4-0.6-2.1c-0.3-1.1-0.7-2.1-1.1-3.1c-0.2-0.6-0.4-1.2-0.7-1.8c-0.5-1.2-1.1-2.3-1.7-3.5
			c-0.2-0.4-0.4-0.8-0.6-1.2c-0.8-1.5-1.7-3-2.7-4.4c-0.2-0.3-0.4-0.5-0.6-0.8c-0.8-1.2-1.6-2.3-2.5-3.4c-0.4-0.5-0.8-0.9-1.2-1.3
			c-0.7-0.9-1.5-1.7-2.3-2.5c-0.5-0.5-1-0.9-1.5-1.4c-0.8-0.7-1.5-1.4-2.3-2.1c-0.5-0.5-1.1-0.9-1.7-1.3c-0.8-0.6-1.6-1.2-2.4-1.8
			c-0.6-0.4-1.2-0.8-1.8-1.2c-0.8-0.5-1.7-1.1-2.6-1.6c-0.6-0.4-1.3-0.7-2-1.1c-0.9-0.5-1.8-0.9-2.7-1.3c-0.7-0.3-1.4-0.6-2-0.9
			c-1-0.4-1.9-0.7-2.9-1.1c-0.7-0.2-1.4-0.5-2.1-0.7c-1-0.3-2.1-0.6-3.1-0.8c-0.7-0.2-1.4-0.3-2-0.5c-1.2-0.2-2.4-0.4-3.6-0.6
			c-0.6-0.1-1.2-0.2-1.8-0.2c-1.8-0.1-3.6-0.2-5.5-0.2s-3.7,0.1-5.5,0.3c-0.6,0.1-1.2,0.2-1.8,0.2c-1.2,0.2-2.4,0.3-3.6,0.6
			c-0.7,0.1-1.4,0.3-2,0.5c-1.1,0.2-2.1,0.5-3.1,0.8c-0.7,0.2-1.4,0.5-2.1,0.7c-1,0.3-1.9,0.7-2.9,1.1c-0.7,0.3-1.4,0.6-2,0.9
			c-0.9,0.4-1.8,0.8-2.7,1.3c-0.7,0.3-1.3,0.7-2,1.1c-0.9,0.5-1.7,1-2.6,1.6c-0.6,0.4-1.2,0.8-1.8,1.2c-0.8,0.6-1.6,1.2-2.4,1.8
			c-0.6,0.4-1.1,0.9-1.7,1.3c-0.8,0.7-1.6,1.4-2.3,2.1c-0.5,0.5-1,0.9-1.5,1.4c-0.8,0.8-1.5,1.6-2.3,2.5
			C61.4,131.8,61,132.2,60.6,132.6L60.6,132.6z M64,168c0-22.1,17.9-40,40-40s40,17.9,40,40s-17.9,40-40,40
			C81.9,208,64,190.1,64,168z M202.1,356.6c0,0.1,0.1,0.2,0.1,0.3c0.8,2.2,1.7,4.3,2.9,6.3c0.2,0.4,0.4,0.7,0.6,1.1
			c1.2,2,2.5,3.9,4.1,5.7c0.1,0.1,0.1,0.2,0.2,0.3L101.9,432H70.1L202.1,356.6z M224.1,380.6c10.1,4.5,21.7,4.5,31.8,0l90,51.4
			H134.1L224.1,380.6z M464,448v16H16v-16H464z M409.9,432h-31.7l-118-67.4c-2.5-1.4-5.5-1.4-8,0c-7.4,4.5-16.7,4.5-24.1,0
			c-7.4-4.2-12-12.1-12-20.6c0-0.7-0.1-1.4-0.3-2.1c0-0.2-0.2-0.4-0.2-0.5c-0.1-0.5-0.3-0.9-0.6-1.4c-0.1-0.2-0.3-0.4-0.4-0.6
			c-0.2-0.4-0.5-0.8-0.8-1.1c-0.2-0.2-0.5-0.4-0.7-0.6c-0.3-0.3-0.6-0.5-0.9-0.7L70.1,256h31.7l118,67.4c2.5,1.4,5.5,1.4,8,0
			c7.4-4.5,16.7-4.5,24.1,0c7.4,4.2,12,12.1,12,20.6c0,0.7,0.1,1.4,0.3,2.1c0,0.2,0.2,0.4,0.2,0.5c0.1,0.5,0.3,0.9,0.6,1.4
			c0.1,0.2,0.3,0.4,0.4,0.6c0.2,0.4,0.5,0.8,0.8,1.1c0.2,0.2,0.5,0.4,0.7,0.6c0.3,0.3,0.6,0.5,0.9,0.7L409.9,432z M134.1,256h211.8
			l-90,51.4c-10.1-4.5-21.7-4.5-31.8,0L134.1,256z M277.9,331.4c0-0.1-0.1-0.2-0.1-0.3c-0.8-2.2-1.7-4.3-2.9-6.3
			c-0.2-0.4-0.4-0.7-0.6-1.1c-1.2-2-2.5-3.9-4.1-5.7c-0.1-0.1-0.1-0.2-0.2-0.3L378.1,256h31.7L277.9,331.4z M464,224v16H16v-16H464z
			 M392,208c-22.1,0-40-17.9-40-40s17.9-40,40-40s40,17.9,40,40C432,190.1,414.1,208,392,208z M446.6,155.9c-0.2-1-0.5-2-0.8-3
			c-0.2-0.7-0.4-1.4-0.6-2.1c-0.3-1.1-0.7-2.1-1.1-3.1c-0.2-0.6-0.4-1.2-0.7-1.8c-0.5-1.2-1.1-2.3-1.7-3.5c-0.2-0.4-0.4-0.8-0.6-1.2
			c-0.8-1.5-1.7-3-2.7-4.4c-0.2-0.3-0.4-0.5-0.6-0.8c-0.8-1.2-1.6-2.3-2.5-3.4c-0.4-0.5-0.8-0.9-1.2-1.3c-0.7-0.9-1.5-1.7-2.3-2.5
			c-0.5-0.5-1-0.9-1.5-1.4c-0.8-0.7-1.5-1.4-2.3-2.1c-0.5-0.5-1.1-0.9-1.7-1.3c-0.8-0.6-1.6-1.2-2.4-1.8c-0.6-0.4-1.2-0.8-1.8-1.2
			c-0.8-0.5-1.7-1.1-2.6-1.6c-0.6-0.4-1.3-0.7-2-1.1c-0.9-0.5-1.8-0.9-2.7-1.3c-0.7-0.3-1.4-0.6-2-0.9c-1-0.4-1.9-0.7-2.9-1.1
			c-0.7-0.2-1.4-0.5-2.1-0.7c-1-0.3-2.1-0.6-3.1-0.8c-0.7-0.2-1.4-0.3-2-0.5c-1.2-0.2-2.4-0.4-3.6-0.6c-0.6-0.1-1.2-0.2-1.8-0.2
			c-1.8-0.1-3.6-0.2-5.5-0.2s-3.7,0.1-5.5,0.3c-0.6,0.1-1.2,0.2-1.8,0.2c-1.2,0.2-2.4,0.3-3.6,0.6c-0.7,0.1-1.4,0.3-2,0.5
			c-1.1,0.2-2.1,0.5-3.1,0.8c-0.7,0.2-1.4,0.5-2.1,0.7c-1,0.3-1.9,0.7-2.9,1.1c-0.7,0.3-1.4,0.6-2,0.9c-0.9,0.4-1.8,0.8-2.7,1.3
			c-0.7,0.3-1.3,0.7-2,1.1c-0.9,0.5-1.7,1-2.6,1.6c-0.6,0.4-1.2,0.8-1.8,1.2c-0.8,0.6-1.6,1.2-2.4,1.8c-0.6,0.4-1.1,0.9-1.7,1.3
			c-0.8,0.7-1.6,1.4-2.3,2.1c-0.5,0.5-1,0.9-1.5,1.4c-0.8,0.8-1.5,1.6-2.3,2.5c-0.4,0.4-0.8,0.9-1.2,1.3c-0.9,1.1-1.8,2.3-2.6,3.4
			c-0.2,0.2-0.4,0.5-0.5,0.7c-1,1.4-1.9,2.9-2.7,4.4c-0.2,0.4-0.4,0.8-0.6,1.2c-0.6,1.1-1.2,2.3-1.7,3.5c-0.3,0.6-0.5,1.2-0.7,1.8
			c-0.4,1-0.8,2.1-1.1,3.1c-0.2,0.7-0.4,1.4-0.6,2.1c-0.3,1-0.6,2-0.8,3c-0.2,0.7-0.3,1.5-0.4,2.2c-0.1,0.6-0.3,1.2-0.4,1.8H296V80
			h126.7l35.8,11.9c3.3,1.1,5.5,4.1,5.5,7.6v4.5h-16v16h16v40h-16.6c-0.1-0.6-0.2-1.2-0.4-1.8C446.9,157.4,446.8,156.7,446.6,155.9z
			"/>
	</g>
</g>
<g>
	<g>
		<path class="st0" d="M393.2,146.3C393.2,146.3,393.2,146.3,393.2,146.3L393.2,146.3c-12.7-0.8-23.7,8.7-24.7,21.4
			c-0.9,12.7,8.7,23.8,21.4,24.7c0.5,0,1.1,0.1,1.6,0.1c12.1,0,22.2-9.4,23-21.5C415.6,158.3,406,147.2,393.2,146.3z M398.7,169.9
			c-0.3,3.9-3.7,6.9-7.6,6.6c-3.9-0.3-6.9-3.7-6.6-7.6c0.3-3.7,3.4-6.6,7.1-6.6c0.2,0,0.3,0,0.5,0C396,162.6,399,166,398.7,169.9z"
			/>
	</g>
</g>
<g>
	<g>
		<rect x="216" y="96" class="st0" width="48" height="16"/>
	</g>
</g>
<g>
	<g>
		<rect x="232" y="336" class="st0" width="16" height="16"/>
	</g>
</g>
</svg>
