<?xml version="1.0" encoding="utf-8"?>
<!-- Generator: Adobe Illustrator 21.1.0, SVG Export Plug-In . SVG Version: 6.00 Build 0)  -->
<svg version="1.1" id="Capa_1" xmlns="http://www.w3.org/2000/svg" xmlns:xlink="http://www.w3.org/1999/xlink" x="0px" y="0px"
	 viewBox="0 0 480 480" style="enable-background:new 0 0 480 480;" xml:space="preserve">
<style type="text/css">
	.st0{fill:#FFFFFF;}
</style>
<g>
	<g>
		<path class="st0" d="M471.8,416.7c-1-0.4-2.1-0.7-3.2-0.7h-65.3v-48h65.3c4.4,0,8-3.6,8-8c0-1.1-0.2-2.2-0.7-3.2
			c-19.2-44.4-70.8-64.8-115.2-45.6c-4.7,2-9.1,4.4-13.4,7.2V304h-16v27.7c-5.7,6-10.5,12.9-14.3,20.3h-65.7v-58.2l42.5-14.2
			c3.3-1.1,5.5-4.1,5.5-7.6v-24h40c22.1,0,40,17.9,40,40h16c0-30.9-25.1-56-56-56h-56v-26.8c24.7-14.3,40-40.6,40-69.2V96h40V80h-40
			V48c0-26.5-21.5-48-48-48h-64c-26.5,0-48,21.5-48,48v32h-32c-4.4,0-8,3.6-8,8v48c0,4.4,3.6,8,8,8h8v40c0,2.7,1.3,5.2,3.6,6.7
			l24,16l8.9-13.3l-20.4-13.6V144h8.4c2.6,25.6,17.3,48.3,39.6,61.2V232h-56c-30.9,0-56,25.1-56,56h16c0-22.1,17.9-40,40-40h40v24
			c0,3.4,2.2,6.5,5.5,7.6l42.5,14.2V352h-65.7c-3.8-7.4-8.6-14.2-14.3-20.3V304h-16v14.4c-40.7-26.5-95.2-15-121.7,25.7
			c-26.5,40.7-15,95.2,25.7,121.7c14.3,9.3,31,14.3,48,14.3c33.1,0,63.3-18.6,78.3-48H317c22.1,43.3,75,60.5,118.3,38.4
			c18.2-9.3,32.5-24.5,40.7-43.2C477.7,423.2,475.9,418.4,471.8,416.7z M163.3,128h-24V96h24V128z M283.3,266.2l-20.4,6.8l16.7-25
			h3.7V266.2z M219.3,232v-19.7c15.6,4.9,32.4,4.9,48,0V232H219.3z M179.3,48c0-17.7,14.3-32,32-32h64c17.7,0,32,14.3,32,32v32h-128
			L179.3,48L179.3,48z M179.3,136V96h128v40c0,35.3-28.7,64-64,64S179.3,171.3,179.3,136z M203.3,266.2V248h3.7l16.7,25L203.3,266.2
			z M226.3,248h34.1l-17.1,25.6L226.3,248z M355.4,451.9c-11.5-7.7-20.5-18.5-26-31.1c-1.3-2.9-4.1-4.8-7.3-4.8H164.6
			c-3.2,0-6.1,1.9-7.3,4.8c-15.9,36.4-58.3,53.1-94.8,37.2C26,442.1,9.4,399.6,25.3,363.2c11.5-26.3,37.4-43.2,66-43.2
			c28.6,0,54.5,17,65.9,43.2c1.3,2.9,4.1,4.8,7.3,4.8h157.5c3.2,0,6.1-1.9,7.3-4.8c15.9-36.4,58.2-53.1,94.6-37.2
			c12.7,5.5,23.5,14.5,31.1,26h-59.8c-4.4,0-8,3.6-8,8v64c0,4.4,3.6,8,8,8h59.8C433.1,465,388.5,474,355.4,451.9z"/>
	</g>
</g>
<g>
	<g>
		<path class="st0" d="M135.5,361.1l-40-24c-2.5-1.5-5.7-1.5-8.2,0l-40,24c-2.4,1.4-3.8,4-3.9,6.8l-0.7,50.7c0,3,1.6,5.8,4.3,7.2
			l40.7,21.3c2.5,1.3,5.4,1.2,7.8-0.2l40-24c2.4-1.4,3.9-4,3.9-6.9v-48C139.3,365.2,137.9,362.6,135.5,361.1z M123.3,411.5
			l-32.3,19.4l-32.3-17l0.6-41.3l32.1-19.2l32,19.2V411.5z"/>
	</g>
</g>
<g>
	<g>
		<rect x="163.3" y="384" class="st0" width="160" height="16"/>
	</g>
</g>
<g>
	<g>
		<rect x="235.3" y="112" class="st0" width="16" height="40"/>
	</g>
</g>
<g>
	<g>
		<rect x="267.3" y="320" class="st0" width="48" height="16"/>
	</g>
</g>
</svg>
