<?xml version="1.0" encoding="utf-8"?>
<!-- Generator: Adobe Illustrator 21.1.0, SVG Export Plug-In . SVG Version: 6.00 Build 0)  -->
<svg version="1.1" id="Слой_1" xmlns="http://www.w3.org/2000/svg" xmlns:xlink="http://www.w3.org/1999/xlink" x="0px" y="0px"
	 viewBox="0 0 496 496" style="enable-background:new 0 0 496 496;" xml:space="preserve">
<style type="text/css">
	.st0{fill:#FFFFFF;}
</style>
<path class="st0" d="M360,463.8c13.2,0,24-10.8,24-24s-10.8-24-24-24s-24,10.8-24,24S346.8,463.8,360,463.8z M360,431.8
	c4.4,0,8,3.6,8,8c0,4.4-3.6,8-8,8s-8-3.6-8-8C352,435.4,355.6,431.8,360,431.8z"/>
<path class="st0" d="M424,239.8c-2.1,0-4.2,0.8-5.7,2.3L366.4,294l-34.7-17.4l27-40.5c1.7-2.6,1.8-6,0.2-8.6s-4.6-4.2-7.8-3.7
	l-55,6.9v-38.9c0-3.2-1.9-6.2-4.9-7.4c-3-1.2-6.4-0.6-8.7,1.7L248,220.4l-34.3-34.3c-2.3-2.3-5.7-3-8.7-1.7c-3,1.2-4.9,4.2-4.9,7.4
	v38.9l-55-6.9c-3.2-0.4-6.2,1.1-7.8,3.7c-1.6,2.7-1.6,6,0.2,8.6l27,40.5L129.6,294l-51.9-51.9c-1.5-1.5-3.5-2.4-5.7-2.4H0v16h68.7
	l93.7,93.7c1.5,1.5,3.5,2.3,5.7,2.3h24v40c0,4.4,3.6,8,8,8h24v32h-32.6c-3.9-27.1-27.2-48-55.4-48s-51.5,20.9-55.4,48H0v16h80.6
	c3.9,27.1,27.2,48,55.4,48s51.5-20.9,55.4-48H232c4.4,0,8-3.6,8-8v-80c0-13.2-10.8-24-24-24h-12.7l18.3-18.3
	c1.9-1.9,2.7-4.6,2.2-7.2l-4.5-22.3l24.5,14.7c2.5,1.5,5.7,1.5,8.2,0l24.5-14.7l-4.5,22.3c-0.5,2.6,0.3,5.3,2.2,7.2l18.4,18.3H280
	c-13.2,0-24,10.8-24,24v80c0,4.4,3.6,8,8,8h40.6c3.9,27.1,27.2,48,55.4,48s51.5-20.9,55.4-48H496v-16h-80.6
	c-3.9-27.1-27.2-48-55.4-48s-51.5,20.9-55.4,48H272v-32h24c4.4,0,8-3.6,8-8v-40h24c2.1,0,4.2-0.8,5.7-2.3l93.7-93.7H496v-16H424z
	 M136,479.8c-22.1,0-40-17.9-40-40s17.9-40,40-40s40,17.9,40,40S158.1,479.8,136,479.8z M360,399.8c22.1,0,40,17.9,40,40
	s-17.9,40-40,40s-40-17.9-40-40S337.9,399.8,360,399.8z M224,359.8v24h-16v-32h8C220.4,351.8,224,355.4,224,359.8z M288,383.8h-16
	v-24c0-4.4,3.6-8,8-8h8V383.8z M324.7,335.8h-9.4l-26.6-26.6l7.2-35.8c0.6-3.1-0.6-6.3-3.2-8.1c-2.6-1.8-6-2-8.7-0.3L248,286.4
	l-35.9-21.5c-2.7-1.6-6.1-1.5-8.7,0.3c-2.6,1.8-3.9,5-3.2,8.1l7.2,35.8l-26.6,26.6h-9.4L141.5,306l38.1-19c2.1-1,3.6-2.9,4.2-5.1
	c0.6-2.2,0.2-4.6-1.1-6.5l-22.3-33.5l46.7,5.8c2.3,0.3,4.6-0.4,6.3-1.9c1.7-1.5,2.7-3.7,2.7-6v-28.7l26.3,26.3
	c3.1,3.1,8.2,3.1,11.3,0l26.3-26.3v28.7c0,2.3,1,4.5,2.7,6c1.7,1.5,4,2.3,6.3,1.9l46.7-5.8l-22.3,33.5c-1.3,1.9-1.7,4.3-1.1,6.5
	c0.6,2.2,2.1,4.1,4.2,5.1l38.1,19L324.7,335.8z"/>
<path class="st0" d="M434.3,274.1l-40,40c-1.5,1.5-2.3,3.5-2.3,5.7v24c0,4.4,3.6,8,8,8h96v-16h-88v-12.7l35.3-35.3H496v-16h-56
	C437.9,271.8,435.8,272.6,434.3,274.1z"/>
<path class="st0" d="M464,367.8h32v16h-32V367.8z"/>
<path class="st0" d="M136,415.8c-13.2,0-24,10.8-24,24s10.8,24,24,24s24-10.8,24-24S149.2,415.8,136,415.8z M136,447.8
	c-4.4,0-8-3.6-8-8c0-4.4,3.6-8,8-8s8,3.6,8,8C144,444.2,140.4,447.8,136,447.8z"/>
<path class="st0" d="M104,343.8v-24c0-2.1-0.8-4.2-2.3-5.7l-40-40c-1.5-1.5-3.5-2.3-5.7-2.3H0v16h52.7L88,323.1v12.7H0v16h96
	C100.4,351.8,104,348.2,104,343.8z"/>
<path class="st0" d="M0,367.8h32v16H0V367.8z"/>
<path class="st0" d="M144,175.8h208c2.9,0,5.6-1.6,7-4.2c1.4-2.6,1.3-5.7-0.3-8.2l-104-160c-2.9-4.5-10.5-4.5-13.4,0l-104,160
	c-1.6,2.5-1.7,5.6-0.3,8.2C138.4,174.2,141.1,175.8,144,175.8z M248,22.4l89.3,137.3H158.7L248,22.4z"/>
<path class="st0" d="M240,127.8h16v16h-16V127.8z"/>
<path class="st0" d="M240,63.8h16v48h-16V63.8z"/>
</svg>
