<?xml version="1.0" encoding="utf-8"?>
<!-- Generator: Adobe Illustrator 21.1.0, SVG Export Plug-In . SVG Version: 6.00 Build 0)  -->
<svg version="1.1" id="Capa_1" xmlns="http://www.w3.org/2000/svg" xmlns:xlink="http://www.w3.org/1999/xlink" x="0px" y="0px"
	 viewBox="0 0 496 496" style="enable-background:new 0 0 496 496;" xml:space="preserve">
<style type="text/css">
	.st0{fill:#FFFFFF;}
</style>
<g>
	<g>
		<path class="st0" d="M492.1,378.2L429.9,176h-29.1l-1.6-16H352v-32h80V0H224v128h80v32h-47.2l-1.6,16H208V67.1l-24,12l-16-8l-16,8
			l-16-8l-16,8l-24-12V176H66.1L3.9,378.2C1.3,386.6,0,395.3,0,404v60c0,17.6,14.4,32,32,32h432c17.6,0,32-14.4,32-32v-60
			C496,395.3,494.7,386.6,492.1,378.2z M240,112V16h176v96H240z M336,128v32h-16v-32H336z M271.2,176h113.5l6.4,64H264.8L271.2,176z
			 M112,92.9l8,4l16-8l16,8l16-8l16,8l8-4V232h-80V92.9z M480,464c0,8.8-7.2,16-16,16H32c-8.8,0-16-7.2-16-16v-60
			c0-7.2,1.1-14.3,3.2-21.2L77.9,192H96v40H80v16h144v-16h-16v-40h45.6l-6.4,64h161.7l-6.4-64h15.6l58.7,190.9
			c2.1,6.9,3.2,14,3.2,21.2L480,464L480,464z"/>
	</g>
</g>
<g>
	<g>
		<rect x="40" y="384" class="st0" width="416" height="16"/>
	</g>
</g>
<g>
	<g>
		<rect x="192" y="432" class="st0" width="112" height="16"/>
	</g>
</g>
<g>
	<g>
		<path class="st0" d="M406.6,272H280v96h145.8L406.6,272z M376,288h17.4l4.8,24H376V288z M320,352h-24v-24h24V352z M320,312h-24
			v-24h24V312z M360,352h-24v-24h24V352z M360,312h-24v-24h24V312z M376,352v-24h25.4l4.8,24H376z"/>
	</g>
</g>
<g>
	<g>
		<path class="st0" d="M89.4,272l-19.2,96H216v-96H89.4z M120,352H89.8l4.8-24H120V352z M120,312H97.8l4.8-24H120V312z M160,352h-24
			v-24h24V352z M160,312h-24v-24h24V312z M200,352h-24v-24h24V352z M200,312h-24v-24h24V312z"/>
	</g>
</g>
<g>
	<g>
		<rect x="128" y="112" class="st0" width="48" height="16"/>
	</g>
</g>
<g>
	<g>
		<rect x="128" y="144" class="st0" width="48" height="16"/>
	</g>
</g>
<g>
	<g>
		<rect x="128" y="176" class="st0" width="48" height="16"/>
	</g>
</g>
<g>
	<g>
		<path class="st0" d="M256,32v64h144V32H256z M384,80H272V48h112V80z"/>
	</g>
</g>
<g>
	<g>
		<rect x="288" y="200" class="st0" width="16" height="16"/>
	</g>
</g>
<g>
	<g>
		<rect x="352" y="200" class="st0" width="16" height="16"/>
	</g>
</g>
<g>
	<g>
		<rect x="240" y="352" class="st0" width="16" height="16"/>
	</g>
</g>
<g>
	<g>
		<rect x="240" y="312" class="st0" width="16" height="16"/>
	</g>
</g>
<g>
	<g>
		<rect x="240" y="272" class="st0" width="16" height="16"/>
	</g>
</g>
</svg>
