<?xml version="1.0" encoding="utf-8"?>
<!-- Generator: Adobe Illustrator 21.1.0, SVG Export Plug-In . SVG Version: 6.00 Build 0)  -->
<svg version="1.1" id="Capa_1" xmlns="http://www.w3.org/2000/svg" xmlns:xlink="http://www.w3.org/1999/xlink" x="0px" y="0px"
	 viewBox="0 0 427 427" style="enable-background:new 0 0 427 427;" xml:space="preserve">
<style type="text/css">
	.st0{fill:#FFFFFF;}
</style>
<g>
	<g>
		<path class="st0" d="M213.5,0C95.6,0,0,95.6,0,213.5S95.6,427,213.5,427S427,331.4,427,213.5C426.9,95.7,331.4,0.1,213.5,0z
			 M213.5,411C104.4,411,16,322.6,16,213.5S104.4,16,213.5,16S411,104.4,411,213.5C410.9,322.6,322.6,410.9,213.5,411z"/>
	</g>
</g>
<g>
	<g>
		<path class="st0" d="M213.5,30C112.2,30,30,112.2,30,213.5S112.2,397,213.5,397S397,314.9,397,213.5
			C396.8,112.3,314.8,30.3,213.5,30z M221.5,380.6v-25.1c0-4.4-3.6-8-8-8s-8,3.6-8,8v25.1c-86.1-4.2-154.9-73-159.1-159.1h25.1
			c4.4,0,8-3.6,8-8s-3.6-8-8-8H46.4c4.2-86.1,73-154.9,159.1-159.1v25.1c0,4.4,3.6,8,8,8s8-3.6,8-8V46.4
			c86.1,4.2,154.9,73,159.1,159.1h-25.1c-4.4,0-8,3.6-8,8s3.6,8,8,8h25.1C376.5,307.6,307.6,376.5,221.5,380.6z"/>
	</g>
</g>
<g>
	<g>
		<path class="st0" d="M213.5,121L213.5,121c-4.4,0-8,3.6-8,8v34.2l-22.1-67.7c-1.2-4.2-5.6-6.7-9.9-5.5s-6.7,5.6-5.5,9.9
			c0.1,0.2,0.1,0.4,0.2,0.6L205.5,216c1.1,3.4,4.4,5.7,8,5.5h1.3c3.9-0.6,6.8-4,6.7-8V129C221.5,124.6,217.9,121,213.5,121z"/>
	</g>
</g>
</svg>
