<?xml version="1.0" encoding="utf-8"?>
<!-- Generator: Adobe Illustrator 21.1.0, SVG Export Plug-In . SVG Version: 6.00 Build 0)  -->
<svg version="1.1" id="Capa_1" xmlns="http://www.w3.org/2000/svg" xmlns:xlink="http://www.w3.org/1999/xlink" x="0px" y="0px"
	 viewBox="0 0 480 480" style="enable-background:new 0 0 480 480;" xml:space="preserve">
<style type="text/css">
	.st0{fill:#FFFFFF;}
</style>
<g>
	<g>
		<path class="st0" d="M456,160h-16v-56c0-22.1-17.9-40-40-40H272c-12.6,0-24.5,6.1-32,16.2C232.5,70.1,220.6,64,208,64H80
			c-22.1,0-40,17.9-40,40v56H24c-13.3,0-24,10.7-24,24v176c0,4.4,3.6,8,8,8h56v32c0,4.4,3.6,8,8,8h32c4.4,0,8-3.6,8-8v-32h256v40
			c0,4.4,3.6,8,8,8h32c4.4,0,8-3.6,8-8v-40h56c4.4,0,8-3.6,8-8V184C480,170.7,469.3,160,456,160z M248,104c0-13.3,10.7-24,24-24h128
			c13.3,0,24,10.7,24,24v56c-13.3,0-24,10.7-24,24v40H248V104z M56,104c0-13.3,10.7-24,24-24h128c13.3,0,24,10.7,24,24v120H80v-40
			c0-13.3-10.7-24-24-24V104z M64,352H16V184c0-4.4,3.6-8,8-8h32c4.4,0,8,3.6,8,8v41.4c-0.3,0.1-0.5,0.2-0.8,0.3
			c-0.4,0.2-0.9,0.4-1.3,0.6c-0.9,0.4-1.7,0.9-2.6,1.4c-0.4,0.2-0.8,0.5-1.2,0.7c-0.9,0.7-1.8,1.4-2.7,2.2c-0.2,0.2-0.4,0.3-0.5,0.5
			c-1,1-1.9,2.1-2.7,3.2c-0.2,0.3-0.4,0.7-0.6,1c-0.5,0.9-1,1.8-1.5,2.7c-0.2,0.4-0.4,0.9-0.6,1.3c-0.4,0.9-0.7,1.9-0.9,2.9
			c-0.1,0.4-0.2,0.9-0.3,1.3c-0.3,1.5-0.4,2.9-0.4,4.4v32c0,1.5,0.2,3,0.4,4.4c0.1,0.4,0.2,0.9,0.3,1.3c0.2,1,0.5,1.9,0.9,2.9
			c0.2,0.4,0.4,0.9,0.6,1.3c0.4,0.9,0.9,1.8,1.5,2.7c0.2,0.3,0.4,0.7,0.6,1c0.8,1.1,1.7,2.2,2.7,3.2c0.2,0.2,0.4,0.3,0.5,0.5
			c0.8,0.8,1.7,1.5,2.7,2.2c0.4,0.3,0.8,0.5,1.2,0.7c0.8,0.5,1.7,1,2.6,1.4c0.4,0.2,0.8,0.4,1.3,0.6c0.3,0.1,0.5,0.3,0.8,0.4V352z
			 M64,280v-32c0-4.4,3.6-8,8-8h160v48H72C67.6,288,64,284.4,64,280z M96,392H80v-24h16V392z M400,400h-16v-32h16V400z M400,352H80
			v-48h320V352z M408,288H248v-48h160c4.4,0,8,3.6,8,8v32C416,284.4,412.4,288,408,288z M416,352v-49.4c0.3-0.1,0.5-0.2,0.8-0.3
			c0.4-0.2,0.9-0.4,1.3-0.6c0.9-0.4,1.7-0.9,2.6-1.4c0.4-0.2,0.8-0.5,1.2-0.7c0.9-0.7,1.8-1.4,2.7-2.2c0.2-0.2,0.4-0.3,0.5-0.5
			c1-1,1.9-2.1,2.7-3.2c0.2-0.3,0.4-0.7,0.6-1c0.5-0.9,1-1.8,1.5-2.7c0.2-0.4,0.4-0.9,0.6-1.3c0.4-0.9,0.7-1.9,0.9-2.9
			c0.1-0.4,0.2-0.9,0.3-1.3c0.3-1.5,0.4-2.9,0.4-4.4v-32c0-1.5-0.2-3-0.4-4.4c-0.1-0.4-0.2-0.9-0.3-1.3c-0.2-1-0.5-1.9-0.9-2.9
			c-0.2-0.5-0.4-0.9-0.6-1.3c-0.4-0.9-0.9-1.8-1.5-2.7c-0.2-0.3-0.4-0.7-0.6-1c-0.8-1.1-1.7-2.2-2.7-3.2c-0.2-0.2-0.4-0.3-0.5-0.5
			c-0.8-0.8-1.7-1.5-2.7-2.2c-0.4-0.3-0.8-0.5-1.2-0.7c-0.8-0.5-1.7-1-2.6-1.4c-0.4-0.2-0.9-0.4-1.3-0.6c-0.3-0.1-0.5-0.2-0.8-0.3
			V184c0-4.4,3.6-8,8-8h32c4.4,0,8,3.6,8,8l0,168H416z"/>
	</g>
</g>
</svg>
