<?xml version="1.0" encoding="utf-8"?>
<!-- Generator: Adobe Illustrator 21.1.0, SVG Export Plug-In . SVG Version: 6.00 Build 0)  -->
<svg version="1.1" id="Слой_1" xmlns="http://www.w3.org/2000/svg" xmlns:xlink="http://www.w3.org/1999/xlink" x="0px" y="0px"
	 viewBox="0 0 748 748" style="enable-background:new 0 0 748 748;" xml:space="preserve">
<style type="text/css">
	.st0{fill:#FFFFFF;}
</style>
<g id="surface1">
	<path class="st0" d="M392.7,282.8c-1.7-5.1-6.5-8.5-11.8-8.5h-10.1c38-30.2,60.2-76.1,60-124.7C430.9,85.9,394,28,336.2,1.1
		c-3.9-1.8-8.4-1.5-11.9,0.8c-3.6,2.3-5.7,6.2-5.7,10.5v124.7h-99.7V12.5c0-4.2-2.2-8.2-5.7-10.5c-3.6-2.3-8.1-2.6-11.9-0.8
		c-56.3,25.7-92.9,81.3-94.5,143.1c-1.5,61.9,32.3,119.2,87.2,147.7v57.1h-31.2c-17.7,0-33.7,10.8-40.4,27.2
		c-6.7,16.4-2.8,35.2,9.9,47.6c-8.4,8.2-13.1,19.4-13.1,31.2c0,11.7,4.7,23,13.1,31.2c-8.4,8.2-13.1,19.4-13.1,31.2
		c0,11.7,4.7,23,13.1,31.2c-12.7,12.4-16.6,31.2-9.9,47.6c6.7,16.4,22.6,27.1,40.4,27.2h31.2v49.9c0,41.3,33.5,74.8,74.8,74.8
		c41.3,0,74.8-33.5,74.8-74.8v-49.9h299.2v-24.9H418.3V374h224.4v-24.9H414.8L392.7,282.8z M388.6,349.1h-45v-49.9h28.4L388.6,349.1
		z M343.5,33.6c35.3,23.3,58,61.4,61.8,103.6h-61.8V33.6z M211.6,272.9c-45.5-20.7-76-64.6-79.7-114.5c-3.7-49.8,20.1-97.7,62-124.9
		v116c0,6.9,5.6,12.5,12.5,12.5h198.9c-4.5,48.6-34.9,90.9-79.4,110.8c-4.4,2-7.3,6.5-7.3,11.4v64.8h-37.4v-62.3h-24.9v62.3h-37.4
		v-64.8C218.9,279.3,216,274.9,211.6,272.9L211.6,272.9z M144,579.7c0-10.3,8.4-18.7,18.7-18.7c6.9,0,12.5-5.6,12.5-12.5
		c0-6.9-5.6-12.5-12.5-12.5c-10.3,0-18.7-8.4-18.7-18.7c0-10.3,8.4-18.7,18.7-18.7c6.9,0,12.5-5.6,12.5-12.5
		c0-6.9-5.6-12.5-12.5-12.5c-10.3,0-18.7-8.4-18.7-18.7c0-10.3,8.4-18.7,18.7-18.7c6.9,0,12.5-5.6,12.5-12.5s-5.6-12.5-12.5-12.5
		c-10.3,0-18.7-8.4-18.7-18.7c0-10.3,8.4-18.7,18.7-18.7h230.6v224.4H162.7C152.4,598.4,144,590,144,579.7z M318.6,673.2
		c0,27.6-22.3,49.9-49.9,49.9s-49.9-22.3-49.9-49.9v-49.9h99.7V673.2z"/>
	<path class="st0" d="M293.6,673.2c0,13.8-11.2,24.9-24.9,24.9c-13.8,0-24.9-11.2-24.9-24.9c0-13.8,11.2-24.9,24.9-24.9
		C282.5,648.3,293.6,659.4,293.6,673.2z"/>
	<path class="st0" d="M218.8,198.2h99.7v24.9h-99.7V198.2z"/>
	<path class="st0" d="M443.2,536.1c0,20.7,16.7,37.4,37.4,37.4c20.7,0,37.4-16.7,37.4-37.4s-16.7-37.4-37.4-37.4
		C460,498.7,443.2,515.4,443.2,536.1z M493.1,536.1c0,6.9-5.6,12.5-12.5,12.5c-6.9,0-12.5-5.6-12.5-12.5c0-6.9,5.6-12.5,12.5-12.5
		C487.5,523.6,493.1,529.2,493.1,536.1z"/>
</g>
</svg>
