<svg xmlns="http://www.w3.org/2000/svg" xmlns:xlink="http://www.w3.org/1999/xlink" width="628" height="643" viewBox="0 0 628 643"><defs><path id="9fi2a" d="M408 787V220h621v567z"/><path id="9fi2b" d="M890.996 213.47L1036 352.998V213.004z"/><path id="9fi2c" d="M1028.879 347.228L898.25 220.347v127.305z"/><path id="9fi2d" d="M719 600c70.692 0 128 57.308 128 128 0 70.692-57.308 128-128 128-70.692 0-128-57.308-128-128 0-70.692 57.308-128 128-128z"/><path id="9fi2e" d="M661 740.383s56.135-41.384 124 0"/><path id="9fi2f" d="M767 688a4 4 0 1 1 0 8 4 4 0 0 1 0-8z"/><path id="9fi2g" d="M680 688a4 4 0 1 1 0 8 4 4 0 0 1 0-8z"/></defs><g><g transform="translate(-408 -213)"><g><use fill="#eef0fe" xlink:href="#9fi2a"/></g><g><use fill="#fff" xlink:href="#9fi2b"/></g><g><use fill="#d3d9fd" xlink:href="#9fi2c"/></g></g><g transform="translate(-408 -213)"><g><use fill="#d3d9fd" xlink:href="#9fi2d"/></g><g><use fill="#fff" fill-opacity="0" stroke="#eef0fe" stroke-linecap="round" stroke-linejoin="round" stroke-miterlimit="50" stroke-width="3" xlink:href="#9fi2e"/></g><g><use fill="#eef0fe" xlink:href="#9fi2f"/></g><g><use fill="#eef0fe" xlink:href="#9fi2g"/></g></g></g></svg>