<svg xmlns="http://www.w3.org/2000/svg" viewBox="0 0 95.87 95.87">
  <defs>
    <style>
      .cls-1 {
        fill: #2c3e85;
      }

      .cls-2 {
        fill: #fff;
      }
    </style>
  </defs>
  <title>Ресурс 6</title>
  <g id="Слой_2" data-name="Слой 2">
    <g id="Слой_1-2" data-name="Слой 1">
      <g>
        <path class="cls-1" d="M95.86,43.94c.26,3.07-3.74,6-4.08,9s2.88,6.82,2,9.67-5.76,4.1-7.22,6.73.06,7.38-1.89,9.68-6.87,1.58-9.24,3.47S72.67,89.3,70,90.69s-6.92-1.18-9.86-.34S55,95.6,51.93,95.86s-6-3.74-9-4.08-6.82,2.88-9.67,2-4.1-5.76-6.73-7.22-7.38.06-9.68-1.89-1.58-6.87-3.47-9.24S6.57,72.67,5.18,70s1.18-6.92.34-9.86S.27,55,0,51.93s3.74-6,4.08-9-2.88-6.82-2-9.67,5.76-4.1,7.22-6.73-.06-7.38,1.89-9.68,6.87-1.58,9.24-3.46S23.2,6.57,25.9,5.18s6.92,1.18,9.86.34S40.87.27,43.94,0s6,3.74,9,4.08,6.82-2.88,9.67-2,4.1,5.76,6.73,7.22S76.7,9.28,79,11.22s1.58,6.87,3.46,9.24,6.84,2.74,8.23,5.44-1.18,6.92-.34,9.86S95.6,40.87,95.86,43.94Z"/>
        <g>
          <path class="cls-2" d="M15.87,36c1.14-.27,2.51-.29,2.85,1.13a1.55,1.55,0,0,1-.53,1.59,1.67,1.67,0,0,1,1.6,1.4c.38,1.61-.79,2.39-2.14,2.71L14,43.66l-1.64-6.87Zm-.79,3,1.19-.28c.4-.09.59-.34.51-.67s-.37-.48-.86-.37l-1.09.26Zm.63,2.62,1.3-.31c.53-.13.75-.4.65-.83s-.44-.59-1-.46l-1.3.31Z"/>
          <path class="cls-2" d="M27.47,40.45l-2.1.5-.65-2.71-2,.47.65,2.71-2.11.51-1.64-6.87,2.11-.5.55,2.3,2-.47-.55-2.3,2.1-.5Z"/>
          <path class="cls-2" d="M34.87,38.68l-2,.48-.62-2.59c-.1-.43-.29-1.29-.35-1.7l-1,4.75-2.26.54L27,33.29l2-.48.62,2.61c.09.39.25,1.12.34,1.64l1-4.71,2.25-.54Z"/>
          <path class="cls-2" d="M44,36.49l-2,.47-.25-1c-.31-1.3-.59-2.61-.86-3.93l-.11,5.25-1.57.38L36.8,33c.46,1.62.56,2,.94,3.6l.33,1.32-2,.47-1.64-6.87,3-.72.87,1.68c.42.82.81,1.63,1.15,2.48-.06-.94-.05-1.85-.05-2.79V30.33l3-.71Z"/>
          <path class="cls-2" d="M51.75,34.65l-2.13.51L49,34.26l-2.21.53-.11,1.05-2.13.51.9-7.47,2.08-.5Zm-4.17-2.84a9.62,9.62,0,0,1-.51-1c0,.5,0,.66,0,1.12,0,0,0,.51-.1,1.26l1.29-.31Z"/>
          <path class="cls-2" d="M58.5,33l-2.1.5-.65-2.71-2,.47L54.41,34l-2.11.51-1.64-6.87,2.11-.5.55,2.3,2-.47-.55-2.3,2.1-.5Z"/>
          <path class="cls-2" d="M65.9,31.27l-2,.48-.62-2.59c-.1-.43-.29-1.29-.35-1.7l-1,4.75-2.26.54-1.64-6.87,2-.48L60.7,28c.09.39.25,1.12.34,1.64l1-4.71,2.25-.54Z"/>
          <path class="cls-2" d="M71.56,24.42l-3.62.86.21.86,3.28-.79.38,1.59-3.28.78.24,1,3.71-.89.42,1.75L67.11,31l-1.64-6.87,5.69-1.36Z"/>
          <path class="cls-2" d="M74.65,23.56l.15,3-.93.22-1.19-2.67-.38-1.59,2-.47Zm1.27,5.31-2,.47-.47-2,2-.47Z"/>
        </g>
        <g>
          <path class="cls-2" d="M19.48,54.16a2.69,2.69,0,0,1-3.31-2.3,2.75,2.75,0,0,1,2-3.55,2.27,2.27,0,0,1,2.79,1.35l-1,.23a1.34,1.34,0,0,0-1.64-.75c-1.17.28-1.4,1.45-1.16,2.48s1,2,2.15,1.7a1.43,1.43,0,0,0,1.08-1.77l1-.23A2.37,2.37,0,0,1,19.48,54.16Z"/>
          <path class="cls-2" d="M27.32,52.15l-1,.23-1.13-4.73-2.55.61L23.78,53l-1,.23-1.33-5.58L26,46.57Z"/>
          <path class="cls-2" d="M31.41,46.14l-3,.73.35,1.48,2.83-.68.19.79-2.83.68.39,1.65L32.4,50l.2.84-4.07,1L27.2,46.28l4-1Z"/>
          <path class="cls-2" d="M38.42,48.6,39,50.83l-.95.23-.33-1.39-4.18,1-1.33-5.58,1-.23,1.13,4.73L36.83,49,35.7,44.24l1-.23,1.13,4.73Z"/>
          <path class="cls-2" d="M38,43.69l1-.23,1,4.28,1.38-4.85,1.14-.27,1.33,5.58-1,.23-1-4.28L40.47,49l-1.14.27Z"/>
          <path class="cls-2" d="M49.77,46.78,48.72,47l-.89-1.35-2.21.53-.2,1.61-1,.24.82-6.1,1-.25ZM46,42.85l-.31,2.56L47.4,45Z"/>
          <path class="cls-2" d="M53.75,45.83,52.61,41.1l-1.72.41.53,2.68c.31,1.58-.18,2.35-1,2.54a2,2,0,0,1-.61,0L49.65,46a1.28,1.28,0,0,0,.4,0c.4-.1.65-.4.36-1.83l-.66-3.26L53.39,40l1.33,5.58Z"/>
          <path class="cls-2" d="M58.41,44.72l-2.47.59-1.33-5.58,1-.23.51,2.13,1.49-.36a1.78,1.78,0,1,1,.82,3.45Zm-.69-2.64-1.43.34.44,1.85,1.45-.35a.85.85,0,0,0,.75-1.14A.91.91,0,0,0,57.73,42.08Z"/>
          <path class="cls-2" d="M65.73,43l-1,.23-.6-2.51-2.55.61.6,2.51-1,.23-1.33-5.58,1-.23.53,2.22,2.55-.61-.53-2.22,1-.23Z"/>
          <path class="cls-2" d="M71.65,41.55l-1,.25-.89-1.35L67.5,41l-.19,1.61-1,.24.82-6.1,1-.25Zm-3.76-3.93-.31,2.56,1.7-.41Z"/>
          <path class="cls-2" d="M75.46,40.64l-.55-2.3-1.11.27-1,2.68-1.22.29,1.14-2.81a1.56,1.56,0,0,1-1.6-1.35c-.22-.92.29-1.7,1.48-2l2.54-.61,1.33,5.58Zm-1.14-4.78-1.46.35c-.67.16-.91.48-.77,1.06a.85.85,0,0,0,1.17.67l1.47-.35Z"/>
        </g>
        <g>
          <path class="cls-2" d="M30.88,68.76l-3.72.89-1-1.56L22.3,69l-.18,1.84-3.72.89L20,58.69l3.64-.87Zm-7.27-5a16.49,16.49,0,0,1-.89-1.71c0,.87,0,1.16-.07,2,0,0-.05.88-.17,2.19l2.26-.54Z"/>
          <path class="cls-2" d="M37.34,59.47l6.79,6.12-4.6,1.1-4-4-.81,1.39.84,3.54-3.62.87L29,56.52l3.64-.87.56,2.43c.27,1.14.17.79.39,1.85L36,54.85l4.55-1.09Z"/>
          <path class="cls-2" d="M54.87,59.71l1.48-.36,1.42,5.93-3.42.82-.67-2.8L45,65.39l-2.87-12,3.69-.88,2.12,8.86,3.3-.79-2.12-8.86,3.67-.88Z"/>
          <path class="cls-2" d="M69.14,59.61l-3.5.84-1.08-4.51c-.18-.76-.5-2.25-.6-3l-1.7,8.29-3.94.94-2.87-12L59,49.37l1.09,4.55c.17.69.43,2,.6,2.87l1.7-8.22,3.92-.94Z"/>
          <path class="cls-2" d="M78.15,57.46l-1-4.35-1,.24-1.46,4.94-4.48,1.07,2.23-5.87a3.66,3.66,0,0,1-3.07-2.7c-.5-2.11.26-4,4.05-4.87l5.49-1.31,2.87,12ZM76,48.25l-1.87.45c-.91.22-1.3.74-1.12,1.48s.74,1,1.66.78l1.87-.45Z"/>
          <path class="cls-2" d="M85,46l.26,5.17-1.62.39L81.59,46.9l-.66-2.78,3.45-.82Zm2.22,9.28-3.45.82L83,52.66l3.45-.82Z"/>
        </g>
      </g>
    </g>
  </g>
</svg>
