<svg xmlns="http://www.w3.org/2000/svg" xmlns:xlink="http://www.w3.org/1999/xlink" viewBox="0 0 317.4 654.98">
  <defs>
    <style>
      .cls-1, .cls-32, .cls-33 {
        fill: none;
      }

      .cls-2 {
        fill: #919191;
      }

      .cls-3 {
        fill: #494949;
      }

      .cls-4 {
        fill: #ebb044;
      }

      .cls-5 {
        fill: #b4e1ef;
      }

      .cls-6 {
        opacity: 0.2;
      }

      .cls-7 {
        fill: #fffff1;
      }

      .cls-8 {
        opacity: 0.1;
      }

      .cls-9 {
        fill: #35383f;
      }

      .cls-10 {
        fill: #145566;
      }

      .cls-11 {
        fill: #d1e7f5;
      }

      .cls-12 {
        fill: #1a3151;
      }

      .cls-13 {
        fill: #eed5b9;
      }

      .cls-14 {
        fill: #d1d6d6;
      }

      .cls-15 {
        fill: #766a5a;
      }

      .cls-16 {
        fill: #383e49;
      }

      .cls-17 {
        fill: #abadb2;
      }

      .cls-18 {
        fill: #4f4141;
      }

      .cls-19 {
        fill: #8e999f;
      }

      .cls-20 {
        fill: #2e4661;
      }

      .cls-21 {
        fill: #5a5a5c;
      }

      .cls-22 {
        fill: #b1cfdf;
      }

      .cls-23 {
        opacity: 0.22;
      }

      .cls-24 {
        fill: #fff;
      }

      .cls-25 {
        opacity: 0.31;
      }

      .cls-26 {
        fill: #a16652;
      }

      .cls-27 {
        fill: #6a8478;
      }

      .cls-28 {
        fill: #737373;
      }

      .cls-29 {
        fill: #b3b5ba;
      }

      .cls-30 {
        clip-path: url(#clip-path);
      }

      .cls-31 {
        opacity: 0.74;
      }

      .cls-32 {
        stroke: #3b9386;
        stroke-width: 2.41px;
      }

      .cls-32, .cls-33 {
        stroke-linecap: round;
        stroke-linejoin: round;
      }

      .cls-33 {
        stroke: #46aa99;
        stroke-width: 1.81px;
      }
    </style>
    <clipPath id="clip-path">
      <rect class="cls-1" y="-314.75" width="317.4" height="257.36"/>
    </clipPath>
  </defs>
  <title>Монтажная область 32 копия</title>
  <g id="Слой_1" data-name="Слой 1">
    <g>
      <path class="cls-2" d="M33.05,127.54H28.54v-9.45h4.09a3,3,0,0,1,2,.61,2.08,2.08,0,0,1,.73,1.68,2.31,2.31,0,0,1-.33,1.26,1.78,1.78,0,0,1-.91.74,2.33,2.33,0,0,1,1.5.82,2.59,2.59,0,0,1,.55,1.7,2.4,2.4,0,0,1-.84,1.92A3.38,3.38,0,0,1,33.05,127.54ZM29.54,119v3.09h2.93a2.2,2.2,0,0,0,1.4-.39,1.36,1.36,0,0,0,.49-1.13,1.42,1.42,0,0,0-.49-1.16,2.15,2.15,0,0,0-1.4-.4Zm0,4v3.67h3.33a2.47,2.47,0,0,0,1.63-.49,1.68,1.68,0,0,0,.58-1.36,1.65,1.65,0,0,0-.58-1.34,2.5,2.5,0,0,0-1.63-.48Z"/>
      <path class="cls-2" d="M42.69,127.54h-1V121h1v2.74h4V121h1v6.52h-1v-2.9h-4Z"/>
      <path class="cls-2" d="M51.9,127.7a2.79,2.79,0,0,1-1.77-.57,2,2,0,0,1-.72-1.59,1.91,1.91,0,0,1,.76-1.58,3.06,3.06,0,0,1,1.92-.58,4.56,4.56,0,0,1,2.35.63v-.65q0-1.63-2.15-1.63a3.76,3.76,0,0,0-2.13.66v-.94a4.35,4.35,0,0,1,2.34-.59,3.32,3.32,0,0,1,2.13.63,2.15,2.15,0,0,1,.79,1.79V126a.94.94,0,0,0,.17.59.54.54,0,0,0,.45.22.83.83,0,0,0,.38-.08v.76a1.15,1.15,0,0,1-.65.15,1.27,1.27,0,0,1-.82-.26,1.18,1.18,0,0,1-.41-.78A3.29,3.29,0,0,1,51.9,127.7Zm.27-.88a2.78,2.78,0,0,0,1.28-.31,3,3,0,0,0,1-.78v-.9a3.83,3.83,0,0,0-2.12-.65,2.49,2.49,0,0,0-1.41.35,1.1,1.1,0,0,0-.52,1,1.14,1.14,0,0,0,.5,1A2.18,2.18,0,0,0,52.17,126.82Z"/>
      <path class="cls-2" d="M66.85,127.54H58V121h1v5.67h3V121h1v5.67h3V121h1Z"/>
      <path class="cls-2" d="M72.27,127.7a3.64,3.64,0,0,1-2.56-1,3.18,3.18,0,0,1-1-2.46,3.45,3.45,0,0,1,.92-2.44,3.14,3.14,0,0,1,2.39-1,3,3,0,0,1,1.39.32,2.59,2.59,0,0,1,1,.83,4,4,0,0,1,.53,1.09,3.92,3.92,0,0,1,.18,1.15v.27H69.68a2.31,2.31,0,0,0,.84,1.68,3,3,0,0,0,1.94.63,3.83,3.83,0,0,0,2.09-.61v.86A3.64,3.64,0,0,1,72.27,127.7Zm-2.58-4H74a2.22,2.22,0,0,0-.57-1.36,1.86,1.86,0,0,0-1.54-.62,2.21,2.21,0,0,0-1.59.59A2.13,2.13,0,0,0,69.69,123.72Z"/>
      <path class="cls-2" d="M77.8,127.54h-.95V121h.95l2.61,3L83,121H84v6.52H83v-5.18l-2.43,2.82h-.38l-2.42-2.82Z"/>
      <path class="cls-2" d="M92.83,127.7a3.42,3.42,0,0,1-2.48-1,3.33,3.33,0,0,1-1-2.46,3.25,3.25,0,0,1,1-2.43,3.37,3.37,0,0,1,2.48-1,4,4,0,0,1,2,.47v.9a3.66,3.66,0,0,0-1.84-.5,2.57,2.57,0,0,0-1.88.73,2.39,2.39,0,0,0-.74,1.82,2.45,2.45,0,0,0,.74,1.82,2.63,2.63,0,0,0,1.88.72,3.53,3.53,0,0,0,2-.57v.89A4,4,0,0,1,92.83,127.7Z"/>
      <path class="cls-2" d="M95.91,127.54v-.89h.26q.85,0,1.16-1.08a10.8,10.8,0,0,0,.32-2.48L97.7,121h4.87v6.52h-1v-5.67h-3l0,1.26c0,.49,0,.84-.05,1.05a6.74,6.74,0,0,1-.39,1.94,2.46,2.46,0,0,1-.74,1.06,1.69,1.69,0,0,1-1.21.37Z"/>
      <path class="cls-2" d="M105.23,130.29a2.2,2.2,0,0,1-1-.19v-.9a1.92,1.92,0,0,0,.89.22,1.32,1.32,0,0,0,1-.49,6.19,6.19,0,0,0,.9-1.63l-2.9-6.28h1.08l2.31,5.13,2.24-5.13h1.05l-3.23,7.25Q106.69,130.29,105.23,130.29Z"/>
      <path class="cls-2" d="M117.67,127.54h-1v-2.61a5.05,5.05,0,0,1-2,.4,2.29,2.29,0,0,1-2.65-2.69V121h1v1.55a1.57,1.57,0,0,0,1.86,1.89,3.91,3.91,0,0,0,1.82-.43v-3h1Z"/>
      <path class="cls-2" d="M121.89,127.7a2.79,2.79,0,0,1-1.77-.57,2,2,0,0,1-.71-1.59,1.91,1.91,0,0,1,.76-1.58,3.06,3.06,0,0,1,1.92-.58,4.56,4.56,0,0,1,2.35.63v-.65q0-1.63-2.15-1.63a3.75,3.75,0,0,0-2.13.66v-.94a4.35,4.35,0,0,1,2.33-.59,3.32,3.32,0,0,1,2.13.63,2.15,2.15,0,0,1,.79,1.79V126a.94.94,0,0,0,.17.59.54.54,0,0,0,.45.22.83.83,0,0,0,.38-.08v.76a1.15,1.15,0,0,1-.65.15,1.27,1.27,0,0,1-.82-.26,1.18,1.18,0,0,1-.41-.78A3.3,3.3,0,0,1,121.89,127.7Zm.27-.88a2.78,2.78,0,0,0,1.28-.31,3,3,0,0,0,1-.78v-.9a3.83,3.83,0,0,0-2.12-.65,2.49,2.49,0,0,0-1.41.35,1.1,1.1,0,0,0-.52,1,1.13,1.13,0,0,0,.5,1A2.18,2.18,0,0,0,122.16,126.82Z"/>
      <path class="cls-2" d="M131.1,127.7a3.64,3.64,0,0,1-2.56-1,3.18,3.18,0,0,1-1-2.46,3.45,3.45,0,0,1,.92-2.44,3.14,3.14,0,0,1,2.39-1,3,3,0,0,1,1.39.32,2.59,2.59,0,0,1,1,.83,4,4,0,0,1,.53,1.09,3.92,3.92,0,0,1,.18,1.15v.27h-5.36a2.31,2.31,0,0,0,.84,1.68,3,3,0,0,0,1.94.63,3.83,3.83,0,0,0,2.09-.61v.86A3.64,3.64,0,0,1,131.1,127.7Zm-2.58-4h4.36a2.22,2.22,0,0,0-.57-1.36,1.86,1.86,0,0,0-1.54-.62,2.21,2.21,0,0,0-1.59.59A2.13,2.13,0,0,0,128.52,123.72Z"/>
      <path class="cls-2" d="M141,127.7a4,4,0,0,1-2.08-.55v-.9a3.35,3.35,0,0,0,2,.58,2.75,2.75,0,0,0,1.77-.59,2.24,2.24,0,0,0,.82-1.55h-3.15v-.85h3.15a2.36,2.36,0,0,0-.86-1.52,2.67,2.67,0,0,0-1.73-.57,3.77,3.77,0,0,0-1.82.49v-.9a3.93,3.93,0,0,1,1.94-.46,3.35,3.35,0,0,1,2.47,1,3.27,3.27,0,0,1,1,2.43,3.33,3.33,0,0,1-1,2.46A3.38,3.38,0,0,1,141,127.7Z"/>
      <path class="cls-2" d="M146.26,121h1v2.69l3.1-2.69h1.32L148.22,124l3.93,3.58h-1.39l-3.52-3.21v3.21h-1Z"/>
      <path class="cls-2" d="M153.63,121.87a3.69,3.69,0,0,1,5.08,0,3.46,3.46,0,0,1,0,4.83,3.72,3.72,0,0,1-5.08,0,3.46,3.46,0,0,1,0-4.83Zm5.06,2.42a2.52,2.52,0,0,0-.72-1.82,2.4,2.4,0,0,0-1.81-.73,2.43,2.43,0,0,0-1.81.73,2.66,2.66,0,0,0,0,3.63,2.43,2.43,0,0,0,1.81.73,2.4,2.4,0,0,0,1.81-.73A2.51,2.51,0,0,0,158.69,124.29Z"/>
      <path class="cls-2" d="M162.47,127.54h-1V121h1v2.74h4V121h1v6.52h-1v-2.9h-4Z"/>
      <path class="cls-2" d="M170.26,121.87a3.69,3.69,0,0,1,5.08,0,3.46,3.46,0,0,1,0,4.83,3.72,3.72,0,0,1-5.08,0,3.46,3.46,0,0,1,0-4.83Zm5.06,2.42a2.52,2.52,0,0,0-.72-1.82,2.4,2.4,0,0,0-1.81-.73,2.43,2.43,0,0,0-1.81.73,2.66,2.66,0,0,0,0,3.63,2.43,2.43,0,0,0,1.81.73,2.4,2.4,0,0,0,1.81-.73A2.51,2.51,0,0,0,175.33,124.29Z"/>
      <path class="cls-2" d="M179.08,127.54h-.95V121h.95l2.61,3,2.62-3h.95v6.52h-.95v-5.18l-2.43,2.82h-.38l-2.42-2.82Z"/>
      <path class="cls-2" d="M188.45,127.54h-.9V121h1v5.09l4.17-5.09h.9v6.52h-1v-5.08Z"/>
      <path class="cls-2" d="M196.48,127.54h-1.11l1.94-2.61a2,2,0,0,1-1.22-.64,1.93,1.93,0,0,1-.43-1.29,1.83,1.83,0,0,1,.61-1.44A2.52,2.52,0,0,1,198,121h3.36v6.52h-1v-2.43H198.3Zm1.67-3.28h2.24v-2.39h-2.24a1.71,1.71,0,0,0-1.1.31,1.08,1.08,0,0,0-.38.89,1.06,1.06,0,0,0,.38.88A1.74,1.74,0,0,0,198.15,124.26Z"/>
      <path class="cls-2" d="M210.22,127.7a3.42,3.42,0,0,1-2.48-1,3.33,3.33,0,0,1-1-2.46,3.25,3.25,0,0,1,1-2.43,3.37,3.37,0,0,1,2.48-1,3.94,3.94,0,0,1,2,.47v.9a3.66,3.66,0,0,0-1.84-.5,2.57,2.57,0,0,0-1.88.73,2.4,2.4,0,0,0-.74,1.82,2.45,2.45,0,0,0,.74,1.82,2.62,2.62,0,0,0,1.88.72,3.53,3.53,0,0,0,2-.57v.89A4,4,0,0,1,210.22,127.7Z"/>
      <path class="cls-2" d="M214.68,121.87a3.69,3.69,0,0,1,5.08,0,3.45,3.45,0,0,1,0,4.83,3.72,3.72,0,0,1-5.08,0,3.45,3.45,0,0,1,0-4.83Zm5.06,2.42a2.53,2.53,0,0,0-.72-1.82,2.4,2.4,0,0,0-1.81-.73,2.43,2.43,0,0,0-1.81.73,2.66,2.66,0,0,0,0,3.63,2.43,2.43,0,0,0,1.81.73,2.4,2.4,0,0,0,1.81-.73A2.51,2.51,0,0,0,219.74,124.29Z"/>
      <path class="cls-2" d="M227.85,127.54h-1v-2.61a5.05,5.05,0,0,1-2,.4,2.29,2.29,0,0,1-2.65-2.69V121h1v1.55a1.57,1.57,0,0,0,1.86,1.89,3.91,3.91,0,0,0,1.82-.43v-3h1Z"/>
      <path class="cls-2" d="M233.27,127.7a3.64,3.64,0,0,1-2.56-1,3.18,3.18,0,0,1-1-2.46,3.45,3.45,0,0,1,.92-2.44,3.14,3.14,0,0,1,2.39-1,3,3,0,0,1,1.39.32,2.59,2.59,0,0,1,1,.83,4,4,0,0,1,.53,1.09,3.92,3.92,0,0,1,.18,1.15v.27h-5.36a2.31,2.31,0,0,0,.84,1.68,3,3,0,0,0,1.94.63,3.83,3.83,0,0,0,2.09-.61v.86A3.64,3.64,0,0,1,233.27,127.7Zm-2.58-4H235a2.22,2.22,0,0,0-.57-1.36,1.86,1.86,0,0,0-1.54-.62,2.21,2.21,0,0,0-1.59.59A2.13,2.13,0,0,0,230.69,123.72Z"/>
      <path class="cls-2" d="M240.22,127.54h-1v-5.67h-2.36V121h5.7v.85h-2.36Z"/>
      <path class="cls-2" d="M246,127.7a2.79,2.79,0,0,1-1.77-.57,2,2,0,0,1-.71-1.59,1.91,1.91,0,0,1,.76-1.58,3.06,3.06,0,0,1,1.92-.58,4.56,4.56,0,0,1,2.35.63v-.65q0-1.63-2.15-1.63a3.75,3.75,0,0,0-2.13.66v-.94a4.35,4.35,0,0,1,2.33-.59,3.32,3.32,0,0,1,2.13.63,2.15,2.15,0,0,1,.79,1.79V126a.94.94,0,0,0,.17.59.54.54,0,0,0,.45.22.83.83,0,0,0,.38-.08v.76a1.15,1.15,0,0,1-.65.15,1.27,1.27,0,0,1-.82-.26,1.18,1.18,0,0,1-.41-.78A3.3,3.3,0,0,1,246,127.7Zm.27-.88a2.78,2.78,0,0,0,1.28-.31,3,3,0,0,0,1-.78v-.9a3.83,3.83,0,0,0-2.12-.65,2.49,2.49,0,0,0-1.41.35,1.1,1.1,0,0,0-.52,1,1.13,1.13,0,0,0,.5,1A2.18,2.18,0,0,0,246.28,126.82Z"/>
      <path class="cls-2" d="M255.22,127.7a3.64,3.64,0,0,1-2.56-1,3.18,3.18,0,0,1-1-2.46,3.45,3.45,0,0,1,.92-2.44,3.14,3.14,0,0,1,2.39-1,3,3,0,0,1,1.39.32,2.59,2.59,0,0,1,1,.83,4,4,0,0,1,.53,1.09,3.92,3.92,0,0,1,.18,1.15v.27h-5.36a2.31,2.31,0,0,0,.84,1.68,3,3,0,0,0,1.94.63,3.83,3.83,0,0,0,2.09-.61v.86A3.64,3.64,0,0,1,255.22,127.7Zm-2.58-4H257a2.22,2.22,0,0,0-.57-1.36,1.86,1.86,0,0,0-1.54-.62,2.21,2.21,0,0,0-1.59.59A2.13,2.13,0,0,0,252.64,123.72Z"/>
      <path class="cls-2" d="M262.17,127.54h-1v-5.67h-2.36V121h5.7v.85h-2.36Z"/>
      <path class="cls-2" d="M268.85,127.7a3.42,3.42,0,0,1-2.48-1,3.33,3.33,0,0,1-1-2.46,3.25,3.25,0,0,1,1-2.43,3.37,3.37,0,0,1,2.48-1,4,4,0,0,1,2,.47v.9a3.66,3.66,0,0,0-1.84-.5,2.57,2.57,0,0,0-1.88.73,2.39,2.39,0,0,0-.74,1.82,2.45,2.45,0,0,0,.74,1.82,2.63,2.63,0,0,0,1.88.72,3.53,3.53,0,0,0,2-.57v.89A4,4,0,0,1,268.85,127.7Z"/>
      <path class="cls-2" d="M273.52,127.54h-1.11l1.94-2.61a2,2,0,0,1-1.22-.64,1.93,1.93,0,0,1-.43-1.29,1.83,1.83,0,0,1,.61-1.44A2.52,2.52,0,0,1,275,121h3.36v6.52h-1v-2.43h-2.09Zm1.67-3.28h2.24v-2.39H275.2a1.71,1.71,0,0,0-1.1.31,1.08,1.08,0,0,0-.38.89,1.06,1.06,0,0,0,.38.88A1.74,1.74,0,0,0,275.2,124.26Z"/>
      <path class="cls-2" d="M287.27,127.7a3.42,3.42,0,0,1-2.48-1,3.33,3.33,0,0,1-1-2.46,3.25,3.25,0,0,1,1-2.43,3.37,3.37,0,0,1,2.48-1,3.94,3.94,0,0,1,2,.47v.9a3.66,3.66,0,0,0-1.84-.5,2.57,2.57,0,0,0-1.88.73,2.4,2.4,0,0,0-.74,1.82,2.45,2.45,0,0,0,.74,1.82,2.62,2.62,0,0,0,1.88.72,3.53,3.53,0,0,0,2-.57v.89A4,4,0,0,1,287.27,127.7Z"/>
      <path class="cls-2" d="M61.11,138.27h1V141l3.1-2.69h1.32l-3.44,2.94L67,144.79H65.61l-3.52-3.21v3.21h-1Z"/>
      <path class="cls-2" d="M68.48,139.12a3.69,3.69,0,0,1,5.08,0,3.46,3.46,0,0,1,0,4.83,3.72,3.72,0,0,1-5.08,0,3.46,3.46,0,0,1,0-4.83Zm5.06,2.42a2.52,2.52,0,0,0-.72-1.82A2.4,2.4,0,0,0,71,139a2.43,2.43,0,0,0-1.81.73,2.66,2.66,0,0,0,0,3.63,2.43,2.43,0,0,0,1.81.73,2.4,2.4,0,0,0,1.81-.73A2.51,2.51,0,0,0,73.54,141.54Z"/>
      <path class="cls-2" d="M77.3,144.79h-.95v-6.52h.95l2.61,3,2.62-3h.95v6.52h-.95v-5.18l-2.43,2.82h-.38l-2.42-2.82Z"/>
      <path class="cls-2" d="M89,138.16v-2.82h1v2.82a4,4,0,0,1,2.74,1,3.39,3.39,0,0,1,0,4.82,4.18,4.18,0,0,1-2.75,1v2.59H89V144.9a4,4,0,0,1-2.75-.94,3.41,3.41,0,0,1,0-4.82A4.21,4.21,0,0,1,89,138.16ZM89,144v-5a3,3,0,0,0-2,.67,2.58,2.58,0,0,0,0,3.7A3,3,0,0,0,89,144Zm1-5v5a3,3,0,0,0,2-.66,2.55,2.55,0,0,0,0-3.7A3,3,0,0,0,90,139Z"/>
      <path class="cls-2" d="M96.09,139.12a3.69,3.69,0,0,1,5.08,0,3.45,3.45,0,0,1,0,4.83,3.72,3.72,0,0,1-5.08,0,3.45,3.45,0,0,1,0-4.83Zm5.06,2.42a2.53,2.53,0,0,0-.72-1.82,2.4,2.4,0,0,0-1.81-.73,2.43,2.43,0,0,0-1.81.73,2.66,2.66,0,0,0,0,3.63,2.43,2.43,0,0,0,1.81.73,2.4,2.4,0,0,0,1.81-.73A2.51,2.51,0,0,0,101.15,141.54Z"/>
      <path class="cls-2" d="M104.93,143.75v3.74h-1v-9.22h1v1a3,3,0,0,1,2.52-1.2,3.06,3.06,0,0,1,2.36,1,3.66,3.66,0,0,1,0,4.85,3.06,3.06,0,0,1-2.36,1A3,3,0,0,1,104.93,143.75Zm0-3.29v2.15a2.39,2.39,0,0,0,.92,1.06,2.48,2.48,0,0,0,1.38.41,2.39,2.39,0,0,0,1.8-.73,2.56,2.56,0,0,0,.71-1.82,2.51,2.51,0,0,0-.71-1.81,2.39,2.39,0,0,0-1.8-.73,2.58,2.58,0,0,0-2.29,1.47Z"/>
      <path class="cls-2" d="M114.85,144.79h-1v-5.67h-2.36v-.85h5.7v.85h-2.36Z"/>
      <path class="cls-2" d="M119.05,139.12a3.69,3.69,0,0,1,5.08,0,3.46,3.46,0,0,1,0,4.83,3.72,3.72,0,0,1-5.08,0,3.46,3.46,0,0,1,0-4.83Zm5.06,2.42a2.52,2.52,0,0,0-.72-1.82,2.4,2.4,0,0,0-1.81-.73,2.43,2.43,0,0,0-1.81.73,2.66,2.66,0,0,0,0,3.63,2.43,2.43,0,0,0,1.81.73,2.4,2.4,0,0,0,1.81-.73A2.51,2.51,0,0,0,124.11,141.54Z"/>
      <path class="cls-2" d="M127.87,144.79h-.95v-6.52h.95l2.61,3,2.62-3H134v6.52h-.95v-5.18l-2.43,2.82h-.38l-2.42-2.82Z"/>
      <path class="cls-2" d="M140.8,144.79h-.9v-6.52h1v5.09l4.17-5.09h.9v6.52h-1v-5.08Z"/>
      <path class="cls-2" d="M155,145a3.15,3.15,0,0,1-2.61-1.16,6,6,0,0,1,.38-6.93,4.77,4.77,0,0,1,1.55-.89,9.88,9.88,0,0,1,1-.3l1.07-.26.6-.12.6-.11v.9q-1.39.27-2.15.45a4.37,4.37,0,0,0-2.23,1.12,3.58,3.58,0,0,0-.81,2.42,2.86,2.86,0,0,1,1.17-1.11,3.61,3.61,0,0,1,1.72-.41,3,3,0,0,1,3,3.05,3.23,3.23,0,0,1-.95,2.4A3.2,3.2,0,0,1,155,145Zm0-.88a2.2,2.2,0,0,0,1.62-.66,2.34,2.34,0,0,0,.67-1.73,2.11,2.11,0,0,0-.65-1.62,2.19,2.19,0,0,0-1.59-.62,2.57,2.57,0,0,0-1.58.53,2.9,2.9,0,0,0-1,1.21,3.42,3.42,0,0,0,.72,2.13A2.27,2.27,0,0,0,155,144.07Z"/>
      <path class="cls-2" d="M163.2,145a3.64,3.64,0,0,1-2.57-1,3.19,3.19,0,0,1-1-2.46,3.45,3.45,0,0,1,.92-2.44,3.14,3.14,0,0,1,2.39-1,3,3,0,0,1,1.39.32,2.59,2.59,0,0,1,1,.83,4,4,0,0,1,.53,1.09,3.92,3.92,0,0,1,.18,1.15v.27H160.6a2.31,2.31,0,0,0,.84,1.68,3,3,0,0,0,1.94.63,3.83,3.83,0,0,0,2.09-.61v.86A3.64,3.64,0,0,1,163.2,145Zm-2.58-4H165a2.22,2.22,0,0,0-.57-1.36,1.86,1.86,0,0,0-1.54-.62,2.21,2.21,0,0,0-1.59.59A2.13,2.13,0,0,0,160.62,141Z"/>
      <path class="cls-2" d="M169.69,145a5.81,5.81,0,0,1-2.4-.45v-.94a5.3,5.3,0,0,0,2.28.51,3.27,3.27,0,0,0,1.57-.32,1,1,0,0,0,.57-.88.89.89,0,0,0-.47-.8,2.52,2.52,0,0,0-1.3-.28h-1.13v-.85h1.13a2.07,2.07,0,0,0,1.14-.26.79.79,0,0,0,.38-.69q0-1-1.84-1a5.45,5.45,0,0,0-2.15.45v-.9a5.71,5.71,0,0,1,2.33-.42,3.48,3.48,0,0,1,1.88.47,1.42,1.42,0,0,1,.76,1.24,1.61,1.61,0,0,1-.31,1,2,2,0,0,1-.74.52,1.65,1.65,0,0,1,1.32,1.65,1.68,1.68,0,0,1-.83,1.46A3.92,3.92,0,0,1,169.69,145Z"/>
      <path class="cls-2" d="M175.2,139.12a3.69,3.69,0,0,1,5.08,0,3.46,3.46,0,0,1,0,4.83,3.72,3.72,0,0,1-5.08,0,3.46,3.46,0,0,1,0-4.83Zm5.06,2.42a2.52,2.52,0,0,0-.72-1.82,2.4,2.4,0,0,0-1.81-.73,2.43,2.43,0,0,0-1.81.73,2.66,2.66,0,0,0,0,3.63,2.43,2.43,0,0,0,1.81.73,2.4,2.4,0,0,0,1.81-.73A2.51,2.51,0,0,0,180.26,141.54Z"/>
      <path class="cls-2" d="M184,144.79h-1v-6.52h5.86v6.52h-1v-5.67H184Z"/>
      <path class="cls-2" d="M193.15,145a2.79,2.79,0,0,1-1.77-.57,2,2,0,0,1-.72-1.59,1.91,1.91,0,0,1,.76-1.58,3.06,3.06,0,0,1,1.92-.58,4.56,4.56,0,0,1,2.35.63v-.65q0-1.63-2.15-1.63a3.76,3.76,0,0,0-2.13.66v-.94a4.35,4.35,0,0,1,2.34-.59,3.32,3.32,0,0,1,2.13.63,2.15,2.15,0,0,1,.79,1.79v2.69a.94.94,0,0,0,.17.59.54.54,0,0,0,.45.22.83.83,0,0,0,.38-.08v.76a1.15,1.15,0,0,1-.65.15,1.27,1.27,0,0,1-.82-.26,1.18,1.18,0,0,1-.41-.78A3.29,3.29,0,0,1,193.15,145Zm.27-.88a2.78,2.78,0,0,0,1.28-.31,3,3,0,0,0,1-.78v-.9a3.83,3.83,0,0,0-2.12-.65,2.49,2.49,0,0,0-1.41.35,1.1,1.1,0,0,0-.52,1,1.14,1.14,0,0,0,.5,1A2.18,2.18,0,0,0,193.42,144.07Z"/>
      <path class="cls-2" d="M202.24,145a3.42,3.42,0,0,1-2.48-1,3.33,3.33,0,0,1-1-2.46,3.25,3.25,0,0,1,1-2.43,3.37,3.37,0,0,1,2.48-1,3.94,3.94,0,0,1,2,.47v.9a3.66,3.66,0,0,0-1.84-.5,2.57,2.57,0,0,0-1.88.73,2.4,2.4,0,0,0-.74,1.82,2.45,2.45,0,0,0,.74,1.82,2.62,2.62,0,0,0,1.88.72,3.53,3.53,0,0,0,2-.57v.89A4,4,0,0,1,202.24,145Z"/>
      <path class="cls-2" d="M207.28,144.79h-1v-6.52h1V141h4v-2.74h1v6.52h-1v-2.9h-4Z"/>
      <path class="cls-2" d="M215.08,139.12a3.69,3.69,0,0,1,5.08,0,3.45,3.45,0,0,1,0,4.83,3.72,3.72,0,0,1-5.08,0,3.45,3.45,0,0,1,0-4.83Zm5.06,2.42a2.53,2.53,0,0,0-.72-1.82,2.4,2.4,0,0,0-1.81-.73,2.43,2.43,0,0,0-1.81.73,2.66,2.66,0,0,0,0,3.63,2.43,2.43,0,0,0,1.81.73,2.4,2.4,0,0,0,1.81-.73A2.51,2.51,0,0,0,220.14,141.54Z"/>
      <path class="cls-2" d="M225.94,145a3.42,3.42,0,0,1-2.48-1,3.33,3.33,0,0,1-1-2.46,3.25,3.25,0,0,1,1-2.43,3.37,3.37,0,0,1,2.48-1,4,4,0,0,1,2,.47v.9a3.66,3.66,0,0,0-1.84-.5,2.57,2.57,0,0,0-1.88.73,2.39,2.39,0,0,0-.74,1.82,2.45,2.45,0,0,0,.74,1.82,2.63,2.63,0,0,0,1.88.72,3.53,3.53,0,0,0,2-.57v.89A4,4,0,0,1,225.94,145Z"/>
      <path class="cls-2" d="M232.46,144.79h-1v-5.67h-2.36v-.85h5.7v.85h-2.36Z"/>
      <path class="cls-2" d="M239.62,144.79h-3.29v-6.52h1v2.19h2.28a2.66,2.66,0,0,1,1.81.59,2,2,0,0,1,.67,1.57,2,2,0,0,1-.65,1.58A2.55,2.55,0,0,1,239.62,144.79Zm-2.32-3.48v2.63h2.15a1.88,1.88,0,0,0,1.2-.34,1.16,1.16,0,0,0,.43-1,1.18,1.18,0,0,0-.43-1,1.88,1.88,0,0,0-1.2-.34Z"/>
      <path class="cls-2" d="M249.66,145a3,3,0,0,1-2.19-.85,3.3,3.3,0,0,1-1-2.16h-1.61v2.85h-1v-6.52h1v2.79h1.62a3.19,3.19,0,0,1,1-2.12,3.09,3.09,0,0,1,2.17-.84,3,3,0,0,1,2.34,1,3.65,3.65,0,0,1,0,4.87A3,3,0,0,1,249.66,145Zm0-.88a2.12,2.12,0,0,0,1.66-.73,2.87,2.87,0,0,0,0-3.63,2.24,2.24,0,0,0-3.31,0,2.87,2.87,0,0,0,0,3.63A2.11,2.11,0,0,0,249.66,144.07Z"/>
      <path class="cls-2" d="M255.52,144.87a.69.69,0,1,1,.5-.2A.68.68,0,0,1,255.52,144.87Zm.46-3h-.9l-.18-6.55h1.26Z"/>
    </g>
    <g>
      <path class="cls-3" d="M61.25,331.35H57.08V322.6h3.79a2.76,2.76,0,0,1,1.84.57,1.93,1.93,0,0,1,.67,1.56,2.14,2.14,0,0,1-.31,1.16,1.65,1.65,0,0,1-.84.69,2.16,2.16,0,0,1,1.39.76,2.41,2.41,0,0,1,.51,1.58,2.22,2.22,0,0,1-.77,1.78A3.13,3.13,0,0,1,61.25,331.35ZM58,323.44v2.86h2.71a2,2,0,0,0,1.29-.36,1.26,1.26,0,0,0,.46-1.05,1.31,1.31,0,0,0-.46-1.07,2,2,0,0,0-1.29-.37Zm0,3.67v3.4h3.09a2.29,2.29,0,0,0,1.51-.45,1.56,1.56,0,0,0,.54-1.26,1.52,1.52,0,0,0-.54-1.24,2.31,2.31,0,0,0-1.51-.44Z"/>
      <path class="cls-3" d="M69.38,331.35H66.15V322.6h.92v3.26h2.3a3.23,3.23,0,0,1,2.3.76,2.56,2.56,0,0,1,.84,2,2.53,2.53,0,0,1-.84,2A3.34,3.34,0,0,1,69.38,331.35Zm-2.3-4.65v3.81h2.24A2.57,2.57,0,0,0,71,330a1.72,1.72,0,0,0,.6-1.41A1.75,1.75,0,0,0,71,327.2a2.54,2.54,0,0,0-1.68-.5Zm7.7,4.65h-.92V322.6h.92Z"/>
      <path class="cls-3" d="M84.66,331.51a4.59,4.59,0,0,1-3.21-7.76,4.36,4.36,0,0,1,3.21-1.29,4.48,4.48,0,0,1,2.45.65v1a4.44,4.44,0,0,0-2.44-.74,3.43,3.43,0,0,0-2.54,1,3.86,3.86,0,0,0,0,5.24,3.48,3.48,0,0,0,2.56,1,4,4,0,0,0,2.6-.87v1A4.39,4.39,0,0,1,84.66,331.51Z"/>
      <path class="cls-3" d="M89.26,331.35h-1l3.9-8.8h.86l3.91,8.8H96l-1.09-2.41H90.33Zm3.36-7.64-2,4.41h4Z"/>
      <path class="cls-3" d="M99.49,331.35h-.91V322.6h.91l3.16,4.24,3.16-4.24h.9v8.75h-.91V324l-2.86,3.82h-.56L99.49,324Z"/>
      <path class="cls-3" d="M110,331.35h-.78V322.6h.91v7.2l5.44-7.2h.81v8.75h-.91v-7.22Z"/>
      <path class="cls-3" d="M126.27,331.35H122.1V322.6h3.79a2.76,2.76,0,0,1,1.84.57,1.93,1.93,0,0,1,.67,1.56,2.14,2.14,0,0,1-.31,1.16,1.65,1.65,0,0,1-.84.69,2.16,2.16,0,0,1,1.39.76,2.41,2.41,0,0,1,.51,1.58,2.22,2.22,0,0,1-.77,1.78A3.13,3.13,0,0,1,126.27,331.35ZM123,323.44v2.86h2.71a2,2,0,0,0,1.29-.36,1.26,1.26,0,0,0,.46-1.05,1.31,1.31,0,0,0-.46-1.07,2,2,0,0,0-1.29-.37Zm0,3.67v3.4h3.09a2.29,2.29,0,0,0,1.51-.45,1.56,1.56,0,0,0,.54-1.26,1.52,1.52,0,0,0-.54-1.24,2.31,2.31,0,0,0-1.51-.44Z"/>
      <path class="cls-3" d="M134.4,331.35h-3.23V322.6h.92v3.26h2.3a3.23,3.23,0,0,1,2.3.76,2.56,2.56,0,0,1,.84,2,2.53,2.53,0,0,1-.84,2A3.34,3.34,0,0,1,134.4,331.35Zm-2.3-4.65v3.81h2.24A2.57,2.57,0,0,0,136,330a1.72,1.72,0,0,0,.6-1.41,1.75,1.75,0,0,0-.59-1.41,2.54,2.54,0,0,0-1.68-.5Zm7.7,4.65h-.92V322.6h.92Z"/>
      <path class="cls-3" d="M145.84,331.35h-3.58V322.6h6v.84h-5.05v2.47h2.65a3.2,3.2,0,0,1,2.28.75,2.78,2.78,0,0,1,0,4A3.3,3.3,0,0,1,145.84,331.35Zm-2.65-4.6v3.76h2.56a2.54,2.54,0,0,0,1.67-.49,1.92,1.92,0,0,0,0-2.78,2.54,2.54,0,0,0-1.67-.49Z"/>
      <path class="cls-3" d="M151.75,331.35H151V322.6h.91v7.2l5.44-7.2h.81v8.75h-.91v-7.22Z"/>
      <path class="cls-3" d="M161.52,331.35h-.92V322.6h3.67a3,3,0,0,1,2.05.66,2.24,2.24,0,0,1,.75,1.76,2.28,2.28,0,0,1-.75,1.79,3,3,0,0,1-2.05.67h-2.75Zm0-7.91v3.21h2.69a2.21,2.21,0,0,0,1.44-.42,1.44,1.44,0,0,0,.51-1.18,1.46,1.46,0,0,0-.51-1.19,2.22,2.22,0,0,0-1.44-.42Z"/>
      <path class="cls-3" d="M168.1,331.35h-1l3.9-8.8h.86l3.91,8.8h-1l-1.09-2.41h-4.59Zm3.36-7.64-2,4.41h4Z"/>
      <path class="cls-3" d="M183.6,331.35h-6.19V322.6h6v.84h-5.08v2.8h4.16v.84h-4.16v3.44h5.26Z"/>
      <path class="cls-3" d="M188.56,331.35h-.92v-7.91h-3v-.84h7v.84h-3Z"/>
      <path class="cls-3" d="M199.47,331.35h-6.19V322.6h6v.84h-5.08v2.8h4.16v.84h-4.16v3.44h5.26Z"/>
      <path class="cls-3" d="M205.5,331.35h-.91V322.6h.91l3.16,4.24,3.16-4.24h.9v8.75h-.91V324l-2.86,3.82h-.56L205.5,324Z"/>
      <path class="cls-3" d="M215.29,331.35h-1l3.9-8.8h.86l3.91,8.8h-1l-1.09-2.41h-4.59Zm3.36-7.64-2,4.41h4Z"/>
      <path class="cls-3" d="M234,322.6h.92v8.75H224.6V322.6h.92v7.91h3.76V322.6h.92v7.91H234Z"/>
      <path class="cls-3" d="M238.14,331.35h-.78V322.6h.91v7.2l5.44-7.2h.81v8.75h-.91v-7.22Z"/>
      <path class="cls-3" d="M247.91,331.35H247V322.6h.92v3.64h5.2V322.6H254v8.75h-.92v-4.28h-5.2Z"/>
      <path class="cls-3" d="M257.47,331.51a2.91,2.91,0,0,1-1.1-.18v-.86a2.59,2.59,0,0,0,1,.17,1.28,1.28,0,0,0,1.08-.55,4.8,4.8,0,0,0,.35-.52c.06-.1.17-.33.35-.68l-3.53-6.29h1l2.95,5.34L262,322.6h1l-3.22,6.9a4.5,4.5,0,0,1-1.06,1.53A1.88,1.88,0,0,1,257.47,331.51Z"/>
      <path class="cls-3" d="M263.39,331.43a.64.64,0,1,1,.46-.19A.63.63,0,0,1,263.39,331.43Z"/>
    </g>
    <g>
      <path class="cls-4" d="M94.23,301.63v-1.29h3.18v-3.2H98.7v3.2h3.17v1.29H98.7v3.23H97.41v-3.23Z"/>
      <path class="cls-4" d="M107.08,307.45h1a2.41,2.41,0,0,0,.53-1,6.27,6.27,0,0,0,.19-1.38l.62-12.17h6.46v14.52h1.22v3.8h-1.75V309h-6.55v2.21h-1.75Zm2.78,0h4.25V294.57h-3l-.54,10.51a7.34,7.34,0,0,1-.2,1.45A2.27,2.27,0,0,1,109.86,307.45Z"/>
      <path class="cls-4" d="M118.76,305.14v-8.32a4.41,4.41,0,0,1,.93-3,3.42,3.42,0,0,1,2.74-1.08,3.48,3.48,0,0,1,2.77,1.08,4.36,4.36,0,0,1,.94,3v8.32a4.35,4.35,0,0,1-.94,3,3.47,3.47,0,0,1-2.77,1.08,3.41,3.41,0,0,1-2.73-1.08A4.37,4.37,0,0,1,118.76,305.14Zm1.75.09A2.71,2.71,0,0,0,121,307a1.73,1.73,0,0,0,1.44.6q1.91,0,1.91-2.33v-8.51a2.74,2.74,0,0,0-.47-1.72,2,2,0,0,0-2.88,0,2.72,2.72,0,0,0-.48,1.72Z"/>
      <path class="cls-4" d="M132.85,296.54V295a3.63,3.63,0,0,0,1.1-.19,2.14,2.14,0,0,0,.79-.47,3,3,0,0,0,.51-.63,5.75,5.75,0,0,0,.37-.78h1.23V309H135.1V295.81A4.54,4.54,0,0,1,132.85,296.54Z"/>
      <path class="cls-4" d="M139.65,305.12v-8.3a4.41,4.41,0,0,1,.93-3,3.42,3.42,0,0,1,2.74-1.08,3.48,3.48,0,0,1,2.77,1.08,4.36,4.36,0,0,1,.94,3v8.3a4.38,4.38,0,0,1-.94,3,3.47,3.47,0,0,1-2.77,1.08,3.41,3.41,0,0,1-2.73-1.08A4.41,4.41,0,0,1,139.65,305.12Zm1.75.11a2.71,2.71,0,0,0,.48,1.72,2,2,0,0,0,2.88,0,2.74,2.74,0,0,0,.47-1.72v-8.51q0-2.35-1.91-2.35a1.71,1.71,0,0,0-1.44.61,2.76,2.76,0,0,0-.48,1.74Z"/>
      <path class="cls-4" d="M148.8,305.12v-8.3a4.41,4.41,0,0,1,.93-3,3.42,3.42,0,0,1,2.74-1.08,3.48,3.48,0,0,1,2.77,1.08,4.36,4.36,0,0,1,.94,3v8.3a4.38,4.38,0,0,1-.94,3,3.47,3.47,0,0,1-2.77,1.08,3.41,3.41,0,0,1-2.73-1.08A4.41,4.41,0,0,1,148.8,305.12Zm1.75.11A2.71,2.71,0,0,0,151,307a2,2,0,0,0,2.88,0,2.74,2.74,0,0,0,.47-1.72v-8.51q0-2.35-1.91-2.35A1.71,1.71,0,0,0,151,295a2.76,2.76,0,0,0-.48,1.74Z"/>
      <path class="cls-4" d="M161.71,305.12v-8.3a4.41,4.41,0,0,1,.93-3,3.42,3.42,0,0,1,2.74-1.08,3.48,3.48,0,0,1,2.77,1.08,4.36,4.36,0,0,1,.94,3v8.3a4.38,4.38,0,0,1-.94,3,3.47,3.47,0,0,1-2.77,1.08,3.41,3.41,0,0,1-2.73-1.08A4.41,4.41,0,0,1,161.71,305.12Zm1.75.11a2.71,2.71,0,0,0,.48,1.72,2,2,0,0,0,2.88,0,2.74,2.74,0,0,0,.47-1.72v-8.51q0-2.35-1.91-2.35a1.71,1.71,0,0,0-1.44.61,2.76,2.76,0,0,0-.48,1.74Z"/>
      <path class="cls-4" d="M170.86,305.12v-8.3a4.41,4.41,0,0,1,.93-3,3.42,3.42,0,0,1,2.74-1.08,3.48,3.48,0,0,1,2.77,1.08,4.36,4.36,0,0,1,.94,3v8.3a4.38,4.38,0,0,1-.94,3,3.47,3.47,0,0,1-2.77,1.08,3.41,3.41,0,0,1-2.73-1.08A4.41,4.41,0,0,1,170.86,305.12Zm1.75.11a2.71,2.71,0,0,0,.48,1.72,2,2,0,0,0,2.88,0,2.74,2.74,0,0,0,.47-1.72v-8.51q0-2.35-1.91-2.35a1.71,1.71,0,0,0-1.44.61,2.76,2.76,0,0,0-.48,1.74Z"/>
      <path class="cls-4" d="M180,305.12v-8.3a4.41,4.41,0,0,1,.93-3,3.42,3.42,0,0,1,2.74-1.08,3.48,3.48,0,0,1,2.77,1.08,4.36,4.36,0,0,1,.94,3v8.3a4.38,4.38,0,0,1-.94,3,3.47,3.47,0,0,1-2.77,1.08,3.41,3.41,0,0,1-2.73-1.08A4.41,4.41,0,0,1,180,305.12Zm1.75.11a2.71,2.71,0,0,0,.48,1.72,2,2,0,0,0,2.88,0,2.74,2.74,0,0,0,.47-1.72v-8.51q0-2.35-1.91-2.35a1.71,1.71,0,0,0-1.44.61,2.76,2.76,0,0,0-.48,1.74Z"/>
      <path class="cls-4" d="M193.05,309v-16.1h3.53a3.43,3.43,0,0,1,2.74,1,4.32,4.32,0,0,1,.89,2.92v1.93q0,3.88-3.77,3.88h-1.59V309Zm1.8-8h1.58a2,2,0,0,0,1.5-.51,2.36,2.36,0,0,0,.48-1.65v-2.14a2.61,2.61,0,0,0-.44-1.66,1.71,1.71,0,0,0-1.4-.54h-1.72Z"/>
      <path class="cls-4" d="M201.28,292.93h1.8l1.58,5.6,1.15,4.05.94-4.05,1.45-5.59h1.86l-3.45,12.57a9.23,9.23,0,0,1-.5,1.61,3.66,3.66,0,0,1-.76,1.12,2.63,2.63,0,0,1-1.22.69,6.18,6.18,0,0,1-1.82.15v-1.61a2.55,2.55,0,0,0,1.56-.31,2.07,2.07,0,0,0,.75-1.28l.37-1.06Z"/>
      <path class="cls-4" d="M211.6,309v-16.1h6.78v1.64h-5v5h1.88q3.79,0,3.79,3.77v1.77q0,3.91-3.71,3.91Zm1.8-1.63h2a1.83,1.83,0,0,0,1.44-.52,2.45,2.45,0,0,0,.46-1.65v-2a1.72,1.72,0,0,0-2-2H213.4Z"/>
      <path class="cls-4" d="M221,309V306.8h1.75V309Z"/>
    </g>
    <g>
      <path class="cls-2" d="M51.29,362.66a4.63,4.63,0,0,1-2.83-.82v-1.05a4.31,4.31,0,0,0,2.83.95,3.61,3.61,0,0,0,2.58-1A3.83,3.83,0,0,0,55,358.13H50.61v-.9H55a3.67,3.67,0,0,0-1.19-2.44,3.55,3.55,0,0,0-2.5-1,4.82,4.82,0,0,0-2.65.8v-1a4.79,4.79,0,0,1,2.62-.7,4.63,4.63,0,0,1,3.44,1.4,5.06,5.06,0,0,1,0,7A4.68,4.68,0,0,1,51.29,362.66Z"/>
      <path class="cls-2" d="M60.77,362.5h-1v-5.67H57.43V356h5.7v.85H60.77Z"/>
      <path class="cls-2" d="M65,356.83a3.69,3.69,0,0,1,5.08,0,3.46,3.46,0,0,1,0,4.83,3.72,3.72,0,0,1-5.08,0,3.46,3.46,0,0,1,0-4.83ZM70,359.25a2.53,2.53,0,0,0-.71-1.82,2.4,2.4,0,0,0-1.81-.73,2.43,2.43,0,0,0-1.81.73,2.66,2.66,0,0,0,0,3.63,2.43,2.43,0,0,0,1.81.73,2.4,2.4,0,0,0,1.81-.73A2.51,2.51,0,0,0,70,359.25Z"/>
      <path class="cls-2" d="M78.48,362.66a5.82,5.82,0,0,1-2.4-.45v-.95a5.31,5.31,0,0,0,2.28.51,3.27,3.27,0,0,0,1.57-.32,1,1,0,0,0,.57-.88.89.89,0,0,0-.47-.8,2.52,2.52,0,0,0-1.3-.28H77.6v-.85h1.13a2.07,2.07,0,0,0,1.14-.26.79.79,0,0,0,.38-.69q0-1-1.84-1a5.46,5.46,0,0,0-2.15.45v-.9a5.7,5.7,0,0,1,2.33-.42,3.48,3.48,0,0,1,1.88.47,1.42,1.42,0,0,1,.76,1.24,1.6,1.6,0,0,1-.31,1,2,2,0,0,1-.74.52,1.65,1.65,0,0,1,1.32,1.65,1.68,1.68,0,0,1-.83,1.46A3.92,3.92,0,0,1,78.48,362.66Z"/>
      <path class="cls-2" d="M84.44,362.5h-1V356h1v2.74h4V356h1v6.52h-1v-2.9h-4Z"/>
      <path class="cls-2" d="M93.65,362.66a2.79,2.79,0,0,1-1.77-.57,2,2,0,0,1-.72-1.59,1.91,1.91,0,0,1,.76-1.58,3.05,3.05,0,0,1,1.92-.58,4.56,4.56,0,0,1,2.35.63v-.65q0-1.63-2.15-1.63a3.75,3.75,0,0,0-2.13.66v-.95a4.35,4.35,0,0,1,2.33-.59,3.32,3.32,0,0,1,2.13.63,2.15,2.15,0,0,1,.79,1.79v2.69a.94.94,0,0,0,.17.59.54.54,0,0,0,.45.22.84.84,0,0,0,.38-.08v.76a1.14,1.14,0,0,1-.65.15,1.28,1.28,0,0,1-.82-.26,1.18,1.18,0,0,1-.41-.78A3.3,3.3,0,0,1,93.65,362.66Zm.27-.88a2.78,2.78,0,0,0,1.28-.31,3,3,0,0,0,1-.78v-.91a3.83,3.83,0,0,0-2.12-.65,2.49,2.49,0,0,0-1.41.35,1.1,1.1,0,0,0-.52,1,1.14,1.14,0,0,0,.5,1A2.18,2.18,0,0,0,93.92,361.78Z"/>
      <path class="cls-2" d="M104.94,362.5h-1V359.9a5.06,5.06,0,0,1-2,.41,2.29,2.29,0,0,1-2.65-2.69V356h1v1.55a2,2,0,0,0,.42,1.47,2,2,0,0,0,1.44.42A3.92,3.92,0,0,0,104,359v-3h1Z"/>
      <path class="cls-2" d="M108.14,362.5h-.9V356h1v5.09l4.17-5.09h.9v6.52h-1v-5.08Z"/>
      <path class="cls-2" d="M118.11,362.5h-1v-5.67h-2.36V356h5.7v.85h-2.36Z"/>
      <path class="cls-2" d="M121,364.55h-.78l1.08-3.44h1.13Z"/>
      <path class="cls-2" d="M132.61,362.5H128.1v-9.45h4.09a3,3,0,0,1,2,.61,2.08,2.08,0,0,1,.73,1.68,2.31,2.31,0,0,1-.33,1.26,1.78,1.78,0,0,1-.91.74,2.34,2.34,0,0,1,1.5.82,2.6,2.6,0,0,1,.55,1.7,2.39,2.39,0,0,1-.84,1.92A3.37,3.37,0,0,1,132.61,362.5ZM129.1,354V357H132a2.19,2.19,0,0,0,1.4-.39,1.36,1.36,0,0,0,.49-1.13,1.42,1.42,0,0,0-.49-1.16A2.15,2.15,0,0,0,132,354Zm0,4v3.67h3.33a2.47,2.47,0,0,0,1.63-.49,1.68,1.68,0,0,0,.58-1.36,1.65,1.65,0,0,0-.58-1.34,2.5,2.5,0,0,0-1.63-.48Z"/>
      <path class="cls-2" d="M140.67,362.5h-3V356h1v2.19h1.94a2.66,2.66,0,0,1,1.81.59,2,2,0,0,1,.68,1.57,2,2,0,0,1-.65,1.58A2.56,2.56,0,0,1,140.67,362.5Zm-2-3.48v2.63h1.81a1.88,1.88,0,0,0,1.2-.34,1.16,1.16,0,0,0,.43-1,1.18,1.18,0,0,0-.43-1,1.88,1.88,0,0,0-1.2-.34Zm6.48,3.48h-1V356h1Z"/>
      <path class="cls-2" d="M154.68,362.5H151V356h3.43a2.14,2.14,0,0,1,1.45.45,1.52,1.52,0,0,1,.52,1.21,1.43,1.43,0,0,1-.81,1.43,1.75,1.75,0,0,1,.67,3A2.47,2.47,0,0,1,154.68,362.5ZM152,356.83v1.92h2.19a1.56,1.56,0,0,0,.95-.25.83.83,0,0,0,.34-.71q0-1-1.28-1Zm0,2.73v2.09h2.48a1.7,1.7,0,0,0,1-.27.9.9,0,0,0,.36-.77.92.92,0,0,0-.36-.78,1.67,1.67,0,0,0-1-.28Z"/>
      <path class="cls-2" d="M161.77,362.5h-3V356h1v2.19h1.94a2.66,2.66,0,0,1,1.81.59,2,2,0,0,1,.68,1.57,2,2,0,0,1-.65,1.58A2.56,2.56,0,0,1,161.77,362.5Zm-2-3.48v2.63h1.81a1.88,1.88,0,0,0,1.2-.34,1.16,1.16,0,0,0,.43-1,1.18,1.18,0,0,0-.43-1,1.88,1.88,0,0,0-1.2-.34Zm6.48,3.48h-1V356h1Z"/>
      <path class="cls-2" d="M171.75,362.66a3.15,3.15,0,0,1-2.61-1.16,6,6,0,0,1,.38-6.93,4.79,4.79,0,0,1,1.55-.89,10,10,0,0,1,1-.3l1.07-.26.6-.12.6-.11v.9q-1.39.27-2.15.45a4.37,4.37,0,0,0-2.23,1.12,3.58,3.58,0,0,0-.81,2.42,2.86,2.86,0,0,1,1.17-1.11,3.61,3.61,0,0,1,1.72-.41,3,3,0,0,1,3,3.05,3.23,3.23,0,0,1-.95,2.4A3.2,3.2,0,0,1,171.75,362.66Zm0-.88a2.2,2.2,0,0,0,1.62-.66,2.34,2.34,0,0,0,.68-1.73,2.11,2.11,0,0,0-.65-1.62,2.18,2.18,0,0,0-1.59-.62,2.56,2.56,0,0,0-1.58.53,2.9,2.9,0,0,0-1,1.21,3.42,3.42,0,0,0,.72,2.13A2.28,2.28,0,0,0,171.75,361.78Z"/>
      <path class="cls-2" d="M177.74,362.5h-.9V356h1v5.09L182,356h.9v6.52h-1v-5.08Z"/>
      <path class="cls-2" d="M186.15,361.46v3.74h-1V356h1v1a3,3,0,0,1,2.52-1.2,3.07,3.07,0,0,1,2.36,1,3.66,3.66,0,0,1,0,4.85,3.07,3.07,0,0,1-2.36,1A3,3,0,0,1,186.15,361.46Zm0-3.29v2.15a2.4,2.4,0,0,0,.92,1.06,2.48,2.48,0,0,0,1.38.41,2.39,2.39,0,0,0,1.8-.73,2.56,2.56,0,0,0,.72-1.82,2.51,2.51,0,0,0-.72-1.81,2.39,2.39,0,0,0-1.8-.73,2.46,2.46,0,0,0-1.36.41A2.49,2.49,0,0,0,186.15,358.17Z"/>
      <path class="cls-2" d="M195.7,362.66a2.79,2.79,0,0,1-1.77-.57,2,2,0,0,1-.72-1.59,1.91,1.91,0,0,1,.76-1.58,3.05,3.05,0,0,1,1.92-.58,4.56,4.56,0,0,1,2.35.63v-.65q0-1.63-2.15-1.63a3.75,3.75,0,0,0-2.13.66v-.95a4.35,4.35,0,0,1,2.33-.59,3.32,3.32,0,0,1,2.13.63,2.15,2.15,0,0,1,.79,1.79v2.69a.94.94,0,0,0,.17.59.54.54,0,0,0,.45.22.84.84,0,0,0,.38-.08v.76a1.14,1.14,0,0,1-.65.15,1.28,1.28,0,0,1-.82-.26,1.18,1.18,0,0,1-.41-.78A3.3,3.3,0,0,1,195.7,362.66Zm.27-.88a2.78,2.78,0,0,0,1.28-.31,3,3,0,0,0,1-.78v-.91a3.83,3.83,0,0,0-2.12-.65,2.49,2.49,0,0,0-1.41.35,1.1,1.1,0,0,0-.52,1,1.14,1.14,0,0,0,.5,1A2.18,2.18,0,0,0,196,361.78Z"/>
      <path class="cls-2" d="M204.9,362.66a3.64,3.64,0,0,1-2.56-1,3.18,3.18,0,0,1-1-2.46,3.45,3.45,0,0,1,.92-2.44,3.15,3.15,0,0,1,2.39-1,3,3,0,0,1,1.39.32,2.58,2.58,0,0,1,1,.83,4,4,0,0,1,.7,2.24v.27h-5.36a2.31,2.31,0,0,0,.84,1.68,3,3,0,0,0,1.94.63,3.83,3.83,0,0,0,2.09-.61V362A3.65,3.65,0,0,1,204.9,362.66Zm-2.58-4h4.36a2.21,2.21,0,0,0-.57-1.36,1.86,1.86,0,0,0-1.54-.62,2.21,2.21,0,0,0-1.59.59A2.13,2.13,0,0,0,202.32,358.68Z"/>
      <path class="cls-2" d="M211.85,362.5h-1v-5.67h-2.36V356h5.7v.85h-2.36Z"/>
      <path class="cls-2" d="M218.66,362.66a3.64,3.64,0,0,1-2.56-1,3.18,3.18,0,0,1-1-2.46,3.45,3.45,0,0,1,.92-2.44,3.15,3.15,0,0,1,2.39-1,3,3,0,0,1,1.39.32,2.58,2.58,0,0,1,1,.83,4,4,0,0,1,.7,2.24v.27h-5.36a2.31,2.31,0,0,0,.84,1.68,3,3,0,0,0,1.94.63,3.83,3.83,0,0,0,2.09-.61V362A3.65,3.65,0,0,1,218.66,362.66Zm-2.58-4h4.36a2.21,2.21,0,0,0-.57-1.36,1.86,1.86,0,0,0-1.54-.62,2.21,2.21,0,0,0-1.59.59A2.13,2.13,0,0,0,216.08,358.68Z"/>
      <path class="cls-2" d="M225.95,362.5v-.89h.26q.85,0,1.16-1.08a10.87,10.87,0,0,0,.32-2.48l.05-2.08h4.87v6.52h-1v-5.67h-3l0,1.26c0,.49,0,.84-.05,1.05a6.77,6.77,0,0,1-.39,1.94,2.46,2.46,0,0,1-.74,1.06,1.69,1.69,0,0,1-1.21.37Z"/>
      <path class="cls-2" d="M240.69,362.66a3,3,0,0,1-2.19-.85,3.3,3.3,0,0,1-1-2.16h-1.61v2.85h-1V356h1v2.79h1.62a3.19,3.19,0,0,1,1-2.12,3.09,3.09,0,0,1,2.17-.84,3,3,0,0,1,2.33,1,3.65,3.65,0,0,1,0,4.87A3,3,0,0,1,240.69,362.66Zm0-.88a2.12,2.12,0,0,0,1.66-.73,2.87,2.87,0,0,0,0-3.63,2.24,2.24,0,0,0-3.31,0,2.87,2.87,0,0,0,0,3.63A2.11,2.11,0,0,0,240.69,361.78Z"/>
      <path class="cls-2" d="M249,362.66a3.15,3.15,0,0,1-2.61-1.16,6,6,0,0,1,.38-6.93,4.79,4.79,0,0,1,1.55-.89,10,10,0,0,1,1-.3l1.07-.26.6-.12.6-.11v.9q-1.39.27-2.15.45a4.37,4.37,0,0,0-2.23,1.12,3.58,3.58,0,0,0-.81,2.42,2.86,2.86,0,0,1,1.17-1.11,3.61,3.61,0,0,1,1.72-.41,3,3,0,0,1,3,3.05,3.23,3.23,0,0,1-.95,2.4A3.2,3.2,0,0,1,249,362.66Zm0-.88a2.2,2.2,0,0,0,1.62-.66,2.34,2.34,0,0,0,.68-1.73,2.11,2.11,0,0,0-.65-1.62,2.18,2.18,0,0,0-1.59-.62,2.56,2.56,0,0,0-1.58.53,2.9,2.9,0,0,0-1,1.21,3.42,3.42,0,0,0,.72,2.13A2.28,2.28,0,0,0,249,361.78Z"/>
      <path class="cls-2" d="M254.55,356.83a3.69,3.69,0,0,1,5.08,0,3.46,3.46,0,0,1,0,4.83,3.72,3.72,0,0,1-5.08,0,3.46,3.46,0,0,1,0-4.83Zm5.06,2.42a2.53,2.53,0,0,0-.71-1.82,2.4,2.4,0,0,0-1.81-.73,2.43,2.43,0,0,0-1.81.73,2.66,2.66,0,0,0,0,3.63,2.43,2.43,0,0,0,1.81.73,2.4,2.4,0,0,0,1.81-.73A2.51,2.51,0,0,0,259.62,359.25Z"/>
      <path class="cls-2" d="M263.33,362.5h-.9V356h1v5.09l4.17-5.09h.9v6.52h-1v-5.08Zm2.13-7.63a2.26,2.26,0,0,1-1.59-.56,2,2,0,0,1-.62-1.49h.86a1.22,1.22,0,0,0,.36.92,1.34,1.34,0,0,0,1,.35,1.32,1.32,0,0,0,1-.35,1.26,1.26,0,0,0,.38-.92h.85a2,2,0,0,1-.62,1.49A2.19,2.19,0,0,1,265.46,354.87Z"/>
      <path class="cls-2" d="M35.72,379.91a2.79,2.79,0,0,1-1.77-.57,2,2,0,0,1-.72-1.59,1.91,1.91,0,0,1,.76-1.58,3.05,3.05,0,0,1,1.92-.58,4.56,4.56,0,0,1,2.35.63v-.65q0-1.63-2.15-1.63a3.75,3.75,0,0,0-2.13.66v-.95a4.35,4.35,0,0,1,2.33-.59,3.32,3.32,0,0,1,2.13.63,2.15,2.15,0,0,1,.79,1.79v2.69a.94.94,0,0,0,.17.59.54.54,0,0,0,.45.22.84.84,0,0,0,.38-.08v.76a1.14,1.14,0,0,1-.65.15,1.28,1.28,0,0,1-.82-.26,1.18,1.18,0,0,1-.41-.78A3.3,3.3,0,0,1,35.72,379.91ZM36,379a2.78,2.78,0,0,0,1.28-.31,3,3,0,0,0,1-.78V377a3.83,3.83,0,0,0-2.12-.65,2.49,2.49,0,0,0-1.41.35,1.1,1.1,0,0,0-.52,1,1.14,1.14,0,0,0,.5,1A2.18,2.18,0,0,0,36,379Z"/>
      <path class="cls-2" d="M45.47,379.75H41.81v-6.52h3.43a2.14,2.14,0,0,1,1.45.45,1.52,1.52,0,0,1,.52,1.21,1.43,1.43,0,0,1-.81,1.43,1.75,1.75,0,0,1,.67,3A2.47,2.47,0,0,1,45.47,379.75Zm-2.69-5.67V376H45a1.56,1.56,0,0,0,.95-.25.83.83,0,0,0,.34-.71q0-1-1.28-1Zm0,2.73v2.09h2.48a1.7,1.7,0,0,0,1-.27.9.9,0,0,0,.36-.77.92.92,0,0,0-.36-.78,1.67,1.67,0,0,0-1-.28Z"/>
      <path class="cls-2" d="M51.84,379.75h-1v-5.67H48.51v-.85h5.7v.85H51.84Z"/>
      <path class="cls-2" d="M56,374.08a3.69,3.69,0,0,1,5.08,0,3.46,3.46,0,0,1,0,4.83,3.72,3.72,0,0,1-5.08,0,3.46,3.46,0,0,1,0-4.83Zm5.06,2.42a2.53,2.53,0,0,0-.71-1.82,2.4,2.4,0,0,0-1.81-.73,2.43,2.43,0,0,0-1.81.73,2.66,2.66,0,0,0,0,3.63,2.43,2.43,0,0,0,1.81.73,2.4,2.4,0,0,0,1.81-.73A2.51,2.51,0,0,0,61.1,376.5Z"/>
      <path class="cls-2" d="M64.86,379.75h-.95v-6.52h.95l2.61,3,2.62-3H71v6.52h-.94v-5.18l-2.43,2.82h-.38l-2.42-2.82Z"/>
      <path class="cls-2" d="M73.83,374.08a3.69,3.69,0,0,1,5.08,0,3.46,3.46,0,0,1,0,4.83,3.72,3.72,0,0,1-5.08,0,3.46,3.46,0,0,1,0-4.83Zm5.06,2.42a2.53,2.53,0,0,0-.71-1.82,2.4,2.4,0,0,0-1.81-.73,2.43,2.43,0,0,0-1.81.73,2.66,2.66,0,0,0,0,3.63,2.43,2.43,0,0,0,1.81.73,2.4,2.4,0,0,0,1.81-.73A2.51,2.51,0,0,0,78.9,376.5Z"/>
      <path class="cls-2" d="M84.89,379.91a3.15,3.15,0,0,1-2.61-1.16,6,6,0,0,1,.38-6.93,4.79,4.79,0,0,1,1.55-.89,10,10,0,0,1,1-.3l1.07-.26.6-.12.6-.11v.9q-1.39.27-2.15.45a4.37,4.37,0,0,0-2.23,1.12,3.58,3.58,0,0,0-.81,2.42,2.86,2.86,0,0,1,1.17-1.11,3.61,3.61,0,0,1,1.72-.41,3,3,0,0,1,3,3.05,3.23,3.23,0,0,1-.95,2.4A3.2,3.2,0,0,1,84.89,379.91Zm0-.88a2.2,2.2,0,0,0,1.62-.66,2.34,2.34,0,0,0,.68-1.73,2.11,2.11,0,0,0-.65-1.62,2.18,2.18,0,0,0-1.59-.62,2.56,2.56,0,0,0-1.58.53,2.9,2.9,0,0,0-1,1.21,3.42,3.42,0,0,0,.72,2.13A2.28,2.28,0,0,0,84.89,379Z"/>
      <path class="cls-2" d="M90.88,379.75H90v-6.52h1v5.09l4.17-5.09H96v6.52h-1v-5.08Z"/>
      <path class="cls-2" d="M97.46,379.75v-.89h.26q.85,0,1.16-1.08a10.87,10.87,0,0,0,.32-2.48l.05-2.08h4.87v6.52h-1v-5.67h-3l0,1.26c0,.49,0,.84-.05,1.05a6.77,6.77,0,0,1-.39,1.94,2.46,2.46,0,0,1-.74,1.06,1.69,1.69,0,0,1-1.21.37Z"/>
      <path class="cls-2" d="M109.72,379.75h-3.29v-6.52h1v2.19h2.28a2.66,2.66,0,0,1,1.81.59,2,2,0,0,1,.67,1.57,2,2,0,0,1-.65,1.58A2.56,2.56,0,0,1,109.72,379.75Zm-2.32-3.48v2.63h2.15a1.88,1.88,0,0,0,1.2-.34,1.16,1.16,0,0,0,.43-1,1.18,1.18,0,0,0-.43-1,1.88,1.88,0,0,0-1.2-.34Z"/>
      <path class="cls-2" d="M120.54,379.91a3.42,3.42,0,0,1-2.48-1,3.34,3.34,0,0,1-1-2.46,3.25,3.25,0,0,1,1-2.43,3.37,3.37,0,0,1,2.48-1,3.94,3.94,0,0,1,2,.47v.9a3.66,3.66,0,0,0-1.84-.5,2.57,2.57,0,0,0-1.88.73,2.4,2.4,0,0,0-.74,1.82,2.45,2.45,0,0,0,.74,1.82,2.63,2.63,0,0,0,1.88.71,3.54,3.54,0,0,0,2-.57v.89A4,4,0,0,1,120.54,379.91Z"/>
      <path class="cls-2" d="M129.16,378.71v3.74h-1v-9.22h1v1a3,3,0,0,1,2.52-1.2,3.07,3.07,0,0,1,2.36,1,3.66,3.66,0,0,1,0,4.85,3.07,3.07,0,0,1-2.36,1A3,3,0,0,1,129.16,378.71Zm0-3.29v2.15a2.4,2.4,0,0,0,.92,1.06,2.48,2.48,0,0,0,1.38.41,2.39,2.39,0,0,0,1.8-.73,2.56,2.56,0,0,0,.72-1.82,2.51,2.51,0,0,0-.72-1.81,2.39,2.39,0,0,0-1.8-.73,2.46,2.46,0,0,0-1.36.41A2.49,2.49,0,0,0,129.16,375.42Z"/>
      <path class="cls-2" d="M139.73,379.75h-3v-6.52h1v2.19h1.94a2.66,2.66,0,0,1,1.81.59,2,2,0,0,1,.68,1.57,2,2,0,0,1-.65,1.58A2.56,2.56,0,0,1,139.73,379.75Zm-2-3.48v2.63h1.81a1.88,1.88,0,0,0,1.2-.34,1.16,1.16,0,0,0,.43-1,1.18,1.18,0,0,0-.43-1,1.88,1.88,0,0,0-1.2-.34Zm6.48,3.48h-1v-6.52h1Z"/>
      <path class="cls-2" d="M147.49,379.75h-1v-6.52h1V376h4v-2.74h1v6.52h-1v-2.9h-4Z"/>
      <path class="cls-2" d="M154.76,373.23h1v2.69l3.11-2.69h1.32l-3.44,2.94,3.93,3.58h-1.39l-3.52-3.21v3.21h-1Z"/>
      <path class="cls-2" d="M163.86,379.91a2.79,2.79,0,0,1-1.77-.57,2,2,0,0,1-.72-1.59,1.91,1.91,0,0,1,.76-1.58,3.05,3.05,0,0,1,1.92-.58,4.56,4.56,0,0,1,2.35.63v-.65q0-1.63-2.15-1.63a3.75,3.75,0,0,0-2.13.66v-.95a4.35,4.35,0,0,1,2.33-.59,3.32,3.32,0,0,1,2.13.63,2.15,2.15,0,0,1,.79,1.79v2.69a.94.94,0,0,0,.17.59.54.54,0,0,0,.45.22.84.84,0,0,0,.38-.08v.76a1.14,1.14,0,0,1-.65.15,1.28,1.28,0,0,1-.82-.26,1.18,1.18,0,0,1-.41-.78A3.3,3.3,0,0,1,163.86,379.91Zm.27-.88a2.78,2.78,0,0,0,1.28-.31,3,3,0,0,0,1-.78V377a3.83,3.83,0,0,0-2.12-.65,2.49,2.49,0,0,0-1.41.35,1.1,1.1,0,0,0-.52,1,1.14,1.14,0,0,0,.5,1A2.18,2.18,0,0,0,164.13,379Z"/>
      <path class="cls-2" d="M169.79,381.8H169l1.08-3.44h1.13Z"/>
      <path class="cls-2" d="M182,379.75h-1v-2.61a5.06,5.06,0,0,1-2,.41,2.29,2.29,0,0,1-2.65-2.69v-1.63h1v1.55a2,2,0,0,0,.42,1.47,2,2,0,0,0,1.44.42,3.92,3.92,0,0,0,1.82-.43v-3h1Z"/>
      <path class="cls-2" d="M186.84,379.75h-1v-5.67H183.5v-.85h5.7v.85h-2.36Z"/>
      <path class="cls-2" d="M191,374.08a3.69,3.69,0,0,1,5.08,0,3.46,3.46,0,0,1,0,4.83,3.72,3.72,0,0,1-5.08,0,3.46,3.46,0,0,1,0-4.83Zm5.06,2.42a2.53,2.53,0,0,0-.71-1.82,2.4,2.4,0,0,0-1.81-.73,2.43,2.43,0,0,0-1.81.73,2.66,2.66,0,0,0,0,3.63,2.43,2.43,0,0,0,1.81.73,2.4,2.4,0,0,0,1.81-.73A2.51,2.51,0,0,0,196.1,376.5Z"/>
      <path class="cls-2" d="M202.47,373.23h1v2.69l3.11-2.69h1.32l-3.44,2.94,3.93,3.58H207l-3.52-3.21v3.21h-1Z"/>
      <path class="cls-2" d="M211.57,379.91a2.79,2.79,0,0,1-1.77-.57,2,2,0,0,1-.72-1.59,1.91,1.91,0,0,1,.76-1.58,3.05,3.05,0,0,1,1.92-.58,4.56,4.56,0,0,1,2.35.63v-.65q0-1.63-2.15-1.63a3.75,3.75,0,0,0-2.13.66v-.95a4.35,4.35,0,0,1,2.33-.59,3.32,3.32,0,0,1,2.13.63,2.15,2.15,0,0,1,.79,1.79v2.69a.94.94,0,0,0,.17.59.54.54,0,0,0,.45.22.84.84,0,0,0,.38-.08v.76a1.14,1.14,0,0,1-.65.15,1.28,1.28,0,0,1-.82-.26,1.18,1.18,0,0,1-.41-.78A3.3,3.3,0,0,1,211.57,379.91Zm.27-.88a2.78,2.78,0,0,0,1.28-.31,3,3,0,0,0,1-.78V377a3.83,3.83,0,0,0-2.12-.65,2.49,2.49,0,0,0-1.41.35,1.1,1.1,0,0,0-.52,1,1.14,1.14,0,0,0,.5,1A2.18,2.18,0,0,0,211.84,379Z"/>
      <path class="cls-2" d="M217.66,373.23h1v2.69l3.11-2.69h1.32l-3.44,2.94,3.93,3.58h-1.39l-3.52-3.21v3.21h-1Z"/>
      <path class="cls-2" d="M229.5,379.75h-1v-6.52h5.86v6.52h-1v-5.67H229.5Z"/>
      <path class="cls-2" d="M237.65,378.71v3.74h-1v-9.22h1v1a3,3,0,0,1,2.52-1.2,3.07,3.07,0,0,1,2.36,1,3.66,3.66,0,0,1,0,4.85,3.07,3.07,0,0,1-2.36,1A3,3,0,0,1,237.65,378.71Zm0-3.29v2.15a2.4,2.4,0,0,0,.92,1.06,2.48,2.48,0,0,0,1.38.41,2.39,2.39,0,0,0,1.8-.73,2.56,2.56,0,0,0,.72-1.82,2.51,2.51,0,0,0-.72-1.81,2.39,2.39,0,0,0-1.8-.73,2.46,2.46,0,0,0-1.36.41A2.49,2.49,0,0,0,237.65,375.42Z"/>
      <path class="cls-2" d="M247.2,379.91a2.79,2.79,0,0,1-1.77-.57,2,2,0,0,1-.72-1.59,1.91,1.91,0,0,1,.76-1.58,3.05,3.05,0,0,1,1.92-.58,4.56,4.56,0,0,1,2.35.63v-.65q0-1.63-2.15-1.63a3.75,3.75,0,0,0-2.13.66v-.95a4.35,4.35,0,0,1,2.33-.59,3.32,3.32,0,0,1,2.13.63,2.15,2.15,0,0,1,.79,1.79v2.69a.94.94,0,0,0,.17.59.54.54,0,0,0,.45.22.84.84,0,0,0,.38-.08v.76a1.14,1.14,0,0,1-.65.15,1.28,1.28,0,0,1-.82-.26,1.18,1.18,0,0,1-.41-.78A3.3,3.3,0,0,1,247.2,379.91Zm.27-.88a2.78,2.78,0,0,0,1.28-.31,3,3,0,0,0,1-.78V377a3.83,3.83,0,0,0-2.12-.65,2.49,2.49,0,0,0-1.41.35,1.1,1.1,0,0,0-.52,1,1.14,1.14,0,0,0,.5,1A2.18,2.18,0,0,0,247.47,379Z"/>
      <path class="cls-2" d="M256.94,379.75h-3.66v-6.52h3.43a2.14,2.14,0,0,1,1.45.45,1.52,1.52,0,0,1,.52,1.21,1.43,1.43,0,0,1-.81,1.43,1.75,1.75,0,0,1,.67,3A2.47,2.47,0,0,1,256.94,379.75Zm-2.69-5.67V376h2.19a1.56,1.56,0,0,0,.95-.25.83.83,0,0,0,.34-.71q0-1-1.28-1Zm0,2.73v2.09h2.48a1.7,1.7,0,0,0,1-.27.9.9,0,0,0,.36-.77.92.92,0,0,0-.36-.78,1.67,1.67,0,0,0-1-.28Z"/>
      <path class="cls-2" d="M262,379.75h-.9v-6.52h1v5.09l4.17-5.09h.9v6.52h-1v-5.08Z"/>
      <path class="cls-2" d="M268.55,379.75v-.89h.26q.85,0,1.16-1.08a10.87,10.87,0,0,0,.32-2.48l.05-2.08h4.87v6.52h-1v-5.67h-3l0,1.26c0,.49,0,.84-.05,1.05a6.77,6.77,0,0,1-.39,1.94,2.46,2.46,0,0,1-.74,1.06,1.69,1.69,0,0,1-1.21.37Z"/>
      <path class="cls-2" d="M278,374.08a3.69,3.69,0,0,1,5.08,0,3.46,3.46,0,0,1,0,4.83,3.72,3.72,0,0,1-5.08,0,3.46,3.46,0,0,1,0-4.83Zm5.06,2.42a2.53,2.53,0,0,0-.71-1.82,2.4,2.4,0,0,0-1.81-.73,2.43,2.43,0,0,0-1.81.73,2.66,2.66,0,0,0,0,3.63,2.43,2.43,0,0,0,1.81.73,2.4,2.4,0,0,0,1.81-.73A2.51,2.51,0,0,0,283.09,376.5Z"/>
      <path class="cls-2" d="M31.11,398.93h-.93v-2.78H31q1.08-1.43,1.11-4.75v-.92H37v5.67h1.21v2.78h-.95V397H31.11Zm1-2.78H36v-4.82H33v.39A8.44,8.44,0,0,1,32.08,396.15Z"/>
      <path class="cls-2" d="M42.9,397.16a3.64,3.64,0,0,1-2.56-1,3.18,3.18,0,0,1-1-2.46,3.45,3.45,0,0,1,.92-2.44,3.15,3.15,0,0,1,2.39-1,3,3,0,0,1,1.39.32,2.58,2.58,0,0,1,1,.83,4,4,0,0,1,.7,2.24V394H40.31a2.31,2.31,0,0,0,.84,1.68,3,3,0,0,0,1.94.63,3.83,3.83,0,0,0,2.09-.61v.86A3.65,3.65,0,0,1,42.9,397.16Zm-2.58-4h4.36a2.21,2.21,0,0,0-.57-1.36,1.86,1.86,0,0,0-1.54-.62,2.21,2.21,0,0,0-1.59.59A2.13,2.13,0,0,0,40.32,393.18Z"/>
      <path class="cls-2" d="M56.36,397H47.49v-6.52h1v5.67h3v-5.67h1v5.67h3v-5.67h1Z"/>
      <path class="cls-2" d="M61.77,397.16a3.64,3.64,0,0,1-2.56-1,3.18,3.18,0,0,1-1-2.46,3.45,3.45,0,0,1,.92-2.44,3.15,3.15,0,0,1,2.39-1,3,3,0,0,1,1.39.32,2.58,2.58,0,0,1,1,.83,4,4,0,0,1,.7,2.24V394H59.18a2.31,2.31,0,0,0,.84,1.68,3,3,0,0,0,1.94.63,3.83,3.83,0,0,0,2.09-.61v.86A3.65,3.65,0,0,1,61.77,397.16Zm-2.58-4h4.36a2.21,2.21,0,0,0-.57-1.36,1.86,1.86,0,0,0-1.54-.62,2.21,2.21,0,0,0-1.59.59A2.13,2.13,0,0,0,59.19,393.18Z"/>
      <path class="cls-2" d="M70,397H66.36v-6.52h3.43a2.14,2.14,0,0,1,1.45.45,1.52,1.52,0,0,1,.52,1.21,1.43,1.43,0,0,1-.81,1.43,1.75,1.75,0,0,1,.67,3A2.47,2.47,0,0,1,70,397Zm-2.69-5.67v1.92h2.19a1.56,1.56,0,0,0,.95-.25.83.83,0,0,0,.34-.71q0-1-1.28-1Zm0,2.73v2.09h2.48a1.7,1.7,0,0,0,1-.27.9.9,0,0,0,.36-.77.92.92,0,0,0-.36-.78,1.67,1.67,0,0,0-1-.28Z"/>
      <path class="cls-2" d="M73.19,397v-.89h.26q.85,0,1.16-1.08a10.87,10.87,0,0,0,.32-2.48l.05-2.08h4.87V397h-1v-5.67h-3l0,1.26c0,.49,0,.84-.05,1.05a6.77,6.77,0,0,1-.39,1.94,2.46,2.46,0,0,1-.74,1.06,1.69,1.69,0,0,1-1.21.37Z"/>
      <path class="cls-2" d="M85.27,397.16a3.64,3.64,0,0,1-2.56-1,3.18,3.18,0,0,1-1-2.46,3.45,3.45,0,0,1,.92-2.44,3.15,3.15,0,0,1,2.39-1,3,3,0,0,1,1.39.32,2.58,2.58,0,0,1,1,.83,4,4,0,0,1,.7,2.24V394H82.68a2.31,2.31,0,0,0,.84,1.68,3,3,0,0,0,1.94.63,3.83,3.83,0,0,0,2.09-.61v.86A3.65,3.65,0,0,1,85.27,397.16Zm-2.58-4h4.36a2.21,2.21,0,0,0-.57-1.36,1.86,1.86,0,0,0-1.54-.62,2.21,2.21,0,0,0-1.59.59A2.13,2.13,0,0,0,82.69,393.18Z"/>
      <path class="cls-2" d="M93.51,398.93h-.93v-2.78h.82q1.08-1.43,1.11-4.75v-.92h4.85v5.67h1.21v2.78h-.95V397H93.51Zm1-2.78h3.92v-4.82h-3v.39A8.44,8.44,0,0,1,94.48,396.15Z"/>
      <path class="cls-2" d="M103.08,397h-.9v-6.52h1v5.09l4.17-5.09h.9V397h-1v-5.08Z"/>
      <path class="cls-2" d="M109.65,397v-.89h.26q.85,0,1.16-1.08a10.87,10.87,0,0,0,.32-2.48l.05-2.08h4.87V397h-1v-5.67h-3l0,1.26c0,.49,0,.84-.05,1.05a6.77,6.77,0,0,1-.39,1.94,2.46,2.46,0,0,1-.74,1.06,1.69,1.69,0,0,1-1.21.37Z"/>
      <path class="cls-2" d="M121.73,397.16a3.64,3.64,0,0,1-2.56-1,3.18,3.18,0,0,1-1-2.46,3.45,3.45,0,0,1,.92-2.44,3.15,3.15,0,0,1,2.39-1,3,3,0,0,1,1.39.32,2.58,2.58,0,0,1,1,.83,4,4,0,0,1,.7,2.24V394h-5.36a2.31,2.31,0,0,0,.84,1.68,3,3,0,0,0,1.94.63,3.83,3.83,0,0,0,2.09-.61v.86A3.65,3.65,0,0,1,121.73,397.16Zm-2.58-4h4.36a2.21,2.21,0,0,0-.57-1.36,1.86,1.86,0,0,0-1.54-.62,2.21,2.21,0,0,0-1.59.59A2.13,2.13,0,0,0,119.16,393.18Z"/>
      <path class="cls-2" d="M127.29,396v3.74h-1v-9.22h1v1a3,3,0,0,1,2.52-1.2,3.07,3.07,0,0,1,2.36,1,3.66,3.66,0,0,1,0,4.85,3.07,3.07,0,0,1-2.36,1A3,3,0,0,1,127.29,396Zm0-3.29v2.15a2.4,2.4,0,0,0,.92,1.06,2.48,2.48,0,0,0,1.38.41,2.39,2.39,0,0,0,1.8-.73,2.56,2.56,0,0,0,.72-1.82,2.51,2.51,0,0,0-.72-1.81,2.39,2.39,0,0,0-1.8-.73,2.46,2.46,0,0,0-1.36.41A2.49,2.49,0,0,0,127.29,392.67Z"/>
      <path class="cls-2" d="M137.91,397.16a3.42,3.42,0,0,1-2.48-1,3.34,3.34,0,0,1-1-2.46,3.25,3.25,0,0,1,1-2.43,3.37,3.37,0,0,1,2.48-1,3.94,3.94,0,0,1,2,.47v.9a3.66,3.66,0,0,0-1.84-.5,2.57,2.57,0,0,0-1.88.73,2.4,2.4,0,0,0-.74,1.82,2.45,2.45,0,0,0,.74,1.82,2.63,2.63,0,0,0,1.88.71,3.54,3.54,0,0,0,2-.57v.89A4,4,0,0,1,137.91,397.16Z"/>
      <path class="cls-2" d="M142,390.48h1v2.69l3.11-2.69h1.32l-3.44,2.94,3.93,3.58h-1.39L143,393.79V397h-1Z"/>
      <path class="cls-2" d="M150.19,397h-.9v-6.52h1v5.09l4.17-5.09h.9V397h-1v-5.08Z"/>
      <path class="cls-2" d="M158,397h-1.12l2.74-3.44-2.42-3.08h1.15l1.86,2.32,1.86-2.32h1.13l-2.43,3.05,2.74,3.47h-1.15l-2.17-2.73Z"/>
      <path class="cls-2" d="M172.41,397h-3.66v-6.52h3.43a2.14,2.14,0,0,1,1.45.45,1.52,1.52,0,0,1,.52,1.21,1.43,1.43,0,0,1-.81,1.43,1.75,1.75,0,0,1,.67,3A2.47,2.47,0,0,1,172.41,397Zm-2.69-5.67v1.92h2.19a1.56,1.56,0,0,0,.95-.25.83.83,0,0,0,.34-.71q0-1-1.28-1Zm0,2.73v2.09h2.48a1.7,1.7,0,0,0,1-.27.9.9,0,0,0,.36-.77.92.92,0,0,0-.36-.78,1.67,1.67,0,0,0-1-.28Z"/>
      <path class="cls-2" d="M178.47,397.16a2.79,2.79,0,0,1-1.77-.57A2,2,0,0,1,176,395a1.91,1.91,0,0,1,.76-1.58,3.05,3.05,0,0,1,1.92-.58,4.56,4.56,0,0,1,2.35.63v-.65q0-1.63-2.15-1.63a3.75,3.75,0,0,0-2.13.66v-.95a4.35,4.35,0,0,1,2.33-.59,3.32,3.32,0,0,1,2.13.63,2.15,2.15,0,0,1,.79,1.79v2.69a.94.94,0,0,0,.17.59.54.54,0,0,0,.45.22.84.84,0,0,0,.38-.08v.76a1.14,1.14,0,0,1-.65.15,1.28,1.28,0,0,1-.82-.26,1.18,1.18,0,0,1-.41-.78A3.3,3.3,0,0,1,178.47,397.16Zm.27-.88A2.78,2.78,0,0,0,180,396a3,3,0,0,0,1-.78v-.91a3.83,3.83,0,0,0-2.12-.65,2.49,2.49,0,0,0-1.41.35,1.1,1.1,0,0,0-.52,1,1.14,1.14,0,0,0,.5,1A2.18,2.18,0,0,0,178.74,396.29Z"/>
      <path class="cls-2" d="M185.53,396v3.74h-1v-9.22h1v1a3,3,0,0,1,2.52-1.2,3.07,3.07,0,0,1,2.36,1,3.66,3.66,0,0,1,0,4.85,3.07,3.07,0,0,1-2.36,1A3,3,0,0,1,185.53,396Zm0-3.29v2.15a2.4,2.4,0,0,0,.92,1.06,2.48,2.48,0,0,0,1.38.41,2.39,2.39,0,0,0,1.8-.73,2.56,2.56,0,0,0,.72-1.82,2.51,2.51,0,0,0-.72-1.81,2.39,2.39,0,0,0-1.8-.73,2.46,2.46,0,0,0-1.36.41A2.49,2.49,0,0,0,185.53,392.67Z"/>
      <path class="cls-2" d="M194.05,397h-.9v-6.52h1v5.09l4.17-5.09h.9V397h-1v-5.08Z"/>
      <path class="cls-2" d="M203.42,397.16a2.79,2.79,0,0,1-1.77-.57,2,2,0,0,1-.72-1.59,1.91,1.91,0,0,1,.76-1.58,3.05,3.05,0,0,1,1.92-.58,4.56,4.56,0,0,1,2.35.63v-.65q0-1.63-2.15-1.63a3.75,3.75,0,0,0-2.13.66v-.95a4.35,4.35,0,0,1,2.33-.59,3.32,3.32,0,0,1,2.13.63,2.15,2.15,0,0,1,.79,1.79v2.69a.94.94,0,0,0,.17.59.54.54,0,0,0,.45.22.84.84,0,0,0,.38-.08v.76a1.14,1.14,0,0,1-.65.15,1.28,1.28,0,0,1-.82-.26,1.18,1.18,0,0,1-.41-.78A3.3,3.3,0,0,1,203.42,397.16Zm.27-.88A2.78,2.78,0,0,0,205,396a3,3,0,0,0,1-.78v-.91a3.83,3.83,0,0,0-2.12-.65,2.49,2.49,0,0,0-1.41.35,1.1,1.1,0,0,0-.52,1,1.14,1.14,0,0,0,.5,1A2.18,2.18,0,0,0,203.69,396.29Z"/>
      <path class="cls-2" d="M210.48,397h-1v-6.52h1v2.74h4v-2.74h1V397h-1v-2.9h-4Z"/>
      <path class="cls-2" d="M220.29,397h-1v-5.67H217v-.85h5.7v.85h-2.36Z"/>
      <path class="cls-2" d="M224.49,391.33a3.69,3.69,0,0,1,5.08,0,3.46,3.46,0,0,1,0,4.83,3.72,3.72,0,0,1-5.08,0,3.46,3.46,0,0,1,0-4.83Zm5.06,2.42a2.53,2.53,0,0,0-.71-1.82,2.4,2.4,0,0,0-1.81-.73,2.43,2.43,0,0,0-1.81.73,2.66,2.66,0,0,0,0,3.63,2.43,2.43,0,0,0,1.81.73,2.4,2.4,0,0,0,1.81-.73A2.51,2.51,0,0,0,229.56,393.75Z"/>
      <path class="cls-2" d="M236,397h-3.66v-6.52h3.43a2.14,2.14,0,0,1,1.45.45,1.52,1.52,0,0,1,.52,1.21,1.43,1.43,0,0,1-.81,1.43,1.75,1.75,0,0,1,.67,3A2.47,2.47,0,0,1,236,397Zm-2.69-5.67v1.92h2.19a1.56,1.56,0,0,0,.95-.25.83.83,0,0,0,.34-.71q0-1-1.28-1Zm0,2.73v2.09h2.48a1.7,1.7,0,0,0,1-.27.9.9,0,0,0,.36-.77.92.92,0,0,0-.36-.78,1.67,1.67,0,0,0-1-.28Z"/>
      <path class="cls-2" d="M243.8,398.93h-.93v-2.78h.82q1.08-1.43,1.11-4.75v-.92h4.85v5.67h1.21v2.78h-.95V397H243.8Zm1-2.78h3.92v-4.82h-3v.39A8.44,8.44,0,0,1,244.77,396.15Z"/>
      <path class="cls-2" d="M253,391.33a3.69,3.69,0,0,1,5.08,0,3.46,3.46,0,0,1,0,4.83,3.72,3.72,0,0,1-5.08,0,3.46,3.46,0,0,1,0-4.83Zm5.06,2.42a2.53,2.53,0,0,0-.71-1.82,2.4,2.4,0,0,0-1.81-.73,2.43,2.43,0,0,0-1.81.73,2.66,2.66,0,0,0,0,3.63,2.43,2.43,0,0,0,1.81.73,2.4,2.4,0,0,0,1.81-.73A2.51,2.51,0,0,0,258,393.75Z"/>
      <path class="cls-2" d="M266.83,397h-1v-8.37l-2.12,1.21v-1l2.23-1.34h.88Z"/>
      <path class="cls-2" d="M271.74,397.16a5.1,5.1,0,0,1-2.61-.62v-1a4.78,4.78,0,0,0,2.58.69,3.1,3.1,0,0,0,2-.62,2,2,0,0,0,.78-1.59,1.92,1.92,0,0,0-.74-1.56,3,3,0,0,0-2-.6,6.76,6.76,0,0,0-2.27.39l.62-4.7h4.67v.9h-3.92l-.38,2.73A5.75,5.75,0,0,1,272,391a3.65,3.65,0,0,1,2.47.85,2.68,2.68,0,0,1,1,2.16,2.78,2.78,0,0,1-1.07,2.27A4.1,4.1,0,0,1,271.74,397.16Z"/>
      <path class="cls-2" d="M279.26,387.39a2.24,2.24,0,0,1,2.28,2.27,2.26,2.26,0,0,1-.65,1.62,2.33,2.33,0,0,1-3.25,0,2.28,2.28,0,0,1-.63-1.62,2.23,2.23,0,0,1,.63-1.61A2.18,2.18,0,0,1,279.26,387.39Zm1.47,2.27a1.51,1.51,0,0,0-.42-1.09,1.39,1.39,0,0,0-1.05-.44,1.37,1.37,0,0,0-1,.44,1.53,1.53,0,0,0-.41,1.09,1.56,1.56,0,0,0,.41,1.1,1.37,1.37,0,0,0,1.05.44,1.39,1.39,0,0,0,1.06-.44A1.54,1.54,0,0,0,280.73,389.66ZM279.6,397h-.85l5.54-9.45h.85Zm5-4.39a2.12,2.12,0,0,1,1.62.66,2.35,2.35,0,0,1,0,3.24,2.14,2.14,0,0,1-1.62.65,2.19,2.19,0,0,1-1.62-.65,2.38,2.38,0,0,1,0-3.24A2.17,2.17,0,0,1,284.59,392.61ZM283.54,396a1.5,1.5,0,0,0,2.11,0,1.51,1.51,0,0,0,.41-1.09,1.48,1.48,0,0,0-.42-1.09,1.34,1.34,0,0,0-1-.45,1.41,1.41,0,0,0-1.05.45,1.68,1.68,0,0,0,0,2.19Z"/>
    </g>
    <g>
      <path class="cls-4" d="M193.65,201.61a1.22,1.22,0,0,0-.86-1l-3,.31L187,194.36a3.29,3.29,0,0,0-3-2.1H167.63a3.3,3.3,0,0,0-3,2.1l-2.81,6.55-3-.31a1.22,1.22,0,0,0-.86,1c-.16.86-.39,2.26,1.48,2.73l1,.08c-1.25,2.34-2.57,6.55.94,10.13a4.37,4.37,0,0,0,1.4.86v2a1.4,1.4,0,0,0,1.4,1.4h1.87a1.4,1.4,0,0,0,1.4-1.4v-1.87h16.6v1.87a1.4,1.4,0,0,0,1.4,1.4h1.87a1.4,1.4,0,0,0,1.4-1.4v-2a3,3,0,0,0,1.32-.86c3.51-3.51,2.42-7.71,1.17-10.13l.86-.08A2,2,0,0,0,193.65,201.61Zm-26.8-6.39h0a1.18,1.18,0,0,1,.94-.7h16c.7.08.94.47.94.55l2.73,6.47h-23.3Zm-1.17,14.49a2,2,0,1,1,2-2A2.06,2.06,0,0,1,165.68,209.71Zm20,0a2,2,0,1,1,2-2A2,2,0,0,1,185.71,209.71Z"/>
      <path class="cls-4" d="M191.08,228.49l-15.43,4.36v.08a6.31,6.31,0,0,1-.62,4.6,6.37,6.37,0,0,1-8.65,2.49l-9-5,.86-1.48,8.88,5a4.42,4.42,0,0,0,3.58.39,4.61,4.61,0,0,0,2.81-2.18,4.79,4.79,0,0,0,.55-1.79,3.77,3.77,0,0,0-1.87-3.9L150.56,219a6.86,6.86,0,0,0-5.3-.62h-.08c-.55.08-23.76,6.78-24.78,7h-.08L125.09,242l15.51-4.44c1.56.94,13.4,8.26,14.88,9.12,2.65,1.48,5.92.7,6.62.55.08,0,31.63-9,31.63-9a5.26,5.26,0,0,0,3.12-6.47A4.64,4.64,0,0,0,191.08,228.49Z"/>
    </g>
    <g>
      <g>
        <path class="cls-4" d="M264.6,572.37l-5.54-6.74-.19,0-.8-2.34-4.24-12.35c-1.24-3.62-2-9.65-6.63-10.23l-43.85-5.49A12.68,12.68,0,0,0,191,541.37l-9.29,15.22-.73-.09-15.27,2.79a15.15,15.15,0,0,0-10.11,12.45l-1.08,8.62,111.34,13.93L267.4,582A12.69,12.69,0,0,0,264.6,572.37Z"/>
        <path class="cls-5" d="M222.68,559.83l29.26,3.66-4.6-17.2a2.12,2.12,0,0,0-1.77-1.59l-20.68-2.59Z"/>
        <path class="cls-5" d="M219.89,541.49l-16.76-2.1a9.24,9.24,0,0,0-9,4.49l-7,11.49,30.56,3.82Z"/>
        <g class="cls-6">
          <path class="cls-7" d="M247.65,550.35l1.09.77-1.26-4.71a2.12,2.12,0,0,0-1.77-1.59l-7.16-.9C241.57,546.09,244.62,548.21,247.65,550.35Z"/>
          <path class="cls-7" d="M247.73,554.32c-5-3.58-10.24-7.58-15.18-11.25l-6.73-.73c4.11,4.53,9.49,8.77,14.24,12.57,2.85,2.29,5.78,4.48,8.81,6.53,1,.67,2,1.3,3.09,1.94l-2-7.44Z"/>
          <path class="cls-7" d="M213.29,551.43c-2.08-1.74-4.25-3.38-6.44-5s-4.47-3.23-6.84-4.63c-.78-.46-1.57-.9-2.36-1.34a9.63,9.63,0,0,0-3.52,3.4l-.07.11c2.31,2.08,4.64,4.15,6.92,6.24a108.13,108.13,0,0,0,11,8.25l5.71.71.4-3.21C216.49,554.47,215,552.85,213.29,551.43Z"/>
        </g>
        <path class="cls-8" d="M196.67,585.63a8.05,8.05,0,0,0,.34-1.52c.64-5.15-3.76-9.95-9.84-10.71a12.43,12.43,0,0,0-6.58.93,21.09,21.09,0,0,1,9.11,6.33,17,17,0,0,1,2.76,4.41Z"/>
        <path class="cls-8" d="M254.32,592.84a8.24,8.24,0,0,0,.34-1.52c.64-5.15-3.64-9.93-9.58-10.67a11.92,11.92,0,0,0-6.43.94,20.43,20.43,0,0,1,8.87,6.31,16.93,16.93,0,0,1,2.69,4.4Z"/>
        <g>
          <circle class="cls-9" cx="183.68" cy="582.91" r="9.86" transform="translate(-417.52 692.81) rotate(-82.87)"/>
          <g>
            <circle class="cls-7" cx="183.68" cy="582.91" r="5.6" transform="translate(-416.61 468.12) rotate(-61.68)"/>
            <path class="cls-8" d="M184.17,586.9a4.56,4.56,0,0,0,3-.85,3.23,3.23,0,0,1-2.4,1.76,5.22,5.22,0,0,1-1,0,5.31,5.31,0,0,1-1.1-.16,3.3,3.3,0,0,1-2.16-1.93c.12.3,1.19.64,1.45.72A8.93,8.93,0,0,0,184.17,586.9Z"/>
          </g>
        </g>
        <g>
          <circle class="cls-9" cx="241.51" cy="590.14" r="9.86" transform="translate(-374.04 756.53) rotate(-82.87)"/>
          <g>
            <circle class="cls-7" cx="241.51" cy="590.14" r="5.6" transform="translate(-392.57 522.84) rotate(-61.68)"/>
            <path class="cls-8" d="M242,594.13a4.56,4.56,0,0,0,3-.85,3.23,3.23,0,0,1-2.4,1.76,5.22,5.22,0,0,1-1,0,5.32,5.32,0,0,1-1.1-.16,3.3,3.3,0,0,1-2.16-1.93c.12.3,1.19.64,1.45.72A8.93,8.93,0,0,0,242,594.13Z"/>
          </g>
        </g>
        <rect class="cls-8" x="209.07" y="563.55" width="5.36" height="2.31" rx="1.08" ry="1.08" transform="translate(71.74 -21.92) rotate(7.13)"/>
      </g>
      <g>
        <g>
          <path class="cls-10" d="M156.34,494.92l6.2-7,.2,0,.95-2.49,5-13.12c1.46-3.85,2.51-10.3,7.49-10.76l47.33-4.33a13.64,13.64,0,0,1,13,7.06L246,480.9l.79-.07,16.31,3.54a16.29,16.29,0,0,1,10.43,13.74l.85,9.31-120.17,11L153,505.18A13.65,13.65,0,0,1,156.34,494.92Z"/>
          <path class="cls-11" d="M201.84,482.92l-31.58,2.89,5.55-18.32a2.28,2.28,0,0,1,2-1.64l22.32-2Z"/>
          <path class="cls-11" d="M205.5,463.32l18.09-1.66a9.94,9.94,0,0,1,9.51,5.15l7.13,12.6-33,3Z"/>
          <g class="cls-6">
            <path class="cls-7" d="M175.34,471.85l-1.2.79,1.52-5a2.28,2.28,0,0,1,2-1.64l7.73-.71C182,467.49,178.68,469.65,175.34,471.85Z"/>
            <path class="cls-7" d="M175.12,476.12c5.51-3.67,11.28-7.78,16.72-11.55l7.26-.55c-4.58,4.72-10.52,9.08-15.75,13-3.15,2.36-6.38,4.61-9.7,6.71-1.09.69-2.24,1.33-3.39,2l2.4-7.93Z"/>
            <path class="cls-7" d="M212.24,474.23c2.29-1.8,4.69-3.48,7.1-5.12s4.92-3.32,7.51-4.74c.85-.47,1.72-.91,2.58-1.36a10.35,10.35,0,0,1,3.67,3.78l.07.12c-2.55,2.16-5.13,4.29-7.66,6.46a116.3,116.3,0,0,1-12.1,8.47l-6.16.56-.32-3.46C208.7,477.39,210.37,475.7,212.24,474.23Z"/>
          </g>
          <path class="cls-8" d="M228.88,511.59a8.66,8.66,0,0,1-.31-1.64c-.51-5.56,4.4-10.56,11-11.16a13.37,13.37,0,0,1,7,1.23,22.68,22.68,0,0,0-10,6.48,18.28,18.28,0,0,0-3.13,4.64Z"/>
          <path class="cls-8" d="M166.66,517.29a8.87,8.87,0,0,1-.31-1.64c-.51-5.56,4.27-10.55,10.68-11.13a12.82,12.82,0,0,1,6.88,1.24,22,22,0,0,0-9.76,6.46,18.21,18.21,0,0,0-3,4.64Z"/>
          <g>
            <circle class="cls-12" cx="242.95" cy="509.13" r="10.61" transform="translate(-45.41 24.27) rotate(-5.23)"/>
            <g>
              <circle class="cls-7" cx="242.95" cy="509.13" r="6.02" transform="translate(-201.14 161.25) rotate(-26.42)"/>
              <path class="cls-8" d="M242.28,513.4a4.91,4.91,0,0,1-3.23-1,3.48,3.48,0,0,0,2.52,2,5.62,5.62,0,0,0,1.13.06,5.71,5.71,0,0,0,1.19-.13,3.54,3.54,0,0,0,2.39-2c-.14.32-1.3.64-1.58.72A9.6,9.6,0,0,1,242.28,513.4Z"/>
            </g>
          </g>
          <g>
            <circle class="cls-12" cx="180.52" cy="514.84" r="10.61" transform="translate(-46.19 18.6) rotate(-5.23)"/>
            <g>
              <circle class="cls-7" cx="180.52" cy="514.84" r="6.02" transform="translate(-210.2 134.07) rotate(-26.42)"/>
              <path class="cls-8" d="M179.85,519.12a4.91,4.91,0,0,1-3.23-1,3.48,3.48,0,0,0,2.52,2,5.62,5.62,0,0,0,1.13.06,5.71,5.71,0,0,0,1.19-.13,3.54,3.54,0,0,0,2.39-2c-.14.32-1.3.64-1.58.72A9.6,9.6,0,0,1,179.85,519.12Z"/>
            </g>
          </g>
        </g>
        <rect class="cls-8" x="210.54" y="487.32" width="5.77" height="2.48" rx="1.16" ry="1.16" transform="translate(470.51 955.62) rotate(174.77)"/>
      </g>
      <g>
        <g id="_Группа_" data-name="&lt;Группа&gt;">
          <polygon class="cls-13" points="112.33 505.93 116.6 503.86 117.64 505.13 121.23 505.26 121.18 507.54 114.96 509.15 112.33 505.93"/>
        </g>
        <g id="_Группа_2" data-name="&lt;Группа&gt;">
          <g id="_Группа_3" data-name="&lt;Группа&gt;">
            <polygon class="cls-14" points="67.06 482.57 72.04 489.61 74.38 489.42 78.29 482.28 67.06 482.57"/>
          </g>
          <g id="_Группа_4" data-name="&lt;Группа&gt;">
            <polygon class="cls-15" points="72.47 608.47 75.36 612.19 72.67 615.12 68.9 611.8 67.06 608.47 72.47 608.47"/>
          </g>
          <g id="_Группа_5" data-name="&lt;Группа&gt;">
            <polygon class="cls-15" points="83.73 608.47 86.61 612.19 83.93 615.12 80.16 611.8 78.31 608.47 83.73 608.47"/>
          </g>
          <g id="_Группа_6" data-name="&lt;Группа&gt;">
            <g id="_Группа_7" data-name="&lt;Группа&gt;">
              <g id="_Группа_8" data-name="&lt;Группа&gt;">
                <polygon class="cls-16" points="55.88 551.81 61.7 577.69 67.06 608.47 72.47 608.47 74.69 533.57 56.78 533.89 55.88 551.81"/>
              </g>
              <g id="_Группа_9" data-name="&lt;Группа&gt;">
                <g id="_Группа_10" data-name="&lt;Группа&gt;">
                  <polygon class="cls-16" points="90.16 550.23 90.91 575.35 83.35 608.47 78.49 608.47 77.99 573.54 72.67 544.95 71.35 535.82 86.26 534.06 90.16 550.23"/>
                </g>
              </g>
              <g id="_Группа_11" data-name="&lt;Группа&gt;">
                <path class="cls-17" d="M78.37,482.66l-16.9,1.25-9.69,15.67c2.69,9.57,2.16,6.29,3.79,14.94l-4.83,23.81L57,540.17l22.91.41,7.54-1.32-2.06-22.72L86.5,486.2Z"/>
              </g>
              <g id="_Группа_12" data-name="&lt;Группа&gt;">
                <polygon class="cls-17" points="81.7 495.04 90.2 508.16 98.38 509.35 117.04 510.13 115.33 504.61 95.61 499.55 86.5 486.2 81.7 495.04"/>
              </g>
              <g id="_Группа_13" data-name="&lt;Группа&gt;">
                <g id="_Группа_14" data-name="&lt;Группа&gt;">
                  <path class="cls-13" d="M77.47,468.09c-2.56-7.45-12.4-4.66-14.43,2-1.32,4.33,2,9.95,6.51,11.19a4.41,4.41,0,0,1,0,.46,14.55,14.55,0,0,0,.19,2.07c0,.26,4-.5,4.4-.58a.59.59,0,0,0,.41-.2c.16-.25-.1-1-.13-1.25l-.1-1a7.74,7.74,0,0,0,4-5.72A14.37,14.37,0,0,0,77.47,468.09Z"/>
                </g>
                <g id="_Группа_15" data-name="&lt;Группа&gt;">
                  <g id="_Группа_16" data-name="&lt;Группа&gt;">
                    <path class="cls-18" d="M70.41,461.14a3.91,3.91,0,0,0-.73,2.06,3.12,3.12,0,0,0,0,1.3c.49,1.66,2.16,1.44,3.49,1.89a8.65,8.65,0,0,1,4.12,3c1.57,2.12,1.16,5,.78,7.53-.13.88-.44,2.2.29,2.92s2.31.49,3.09,0,1.28-1.15,2.09-1.35,2.06.08,2.4-.75a5.4,5.4,0,0,1,.21-.71c.43-.72,1.68,0,2.32-.54a1.32,1.32,0,0,0,.16-1.45,3.42,3.42,0,0,1-.39-1.5,5,5,0,0,1,.51-1.23,2.34,2.34,0,0,0-.51-2.45c-1.16-1.15-3.21-.76-4.44-1.84a5,5,0,0,1-1.23-2.23,4.43,4.43,0,0,0-1.3-2.17c-.84-.63-2-.43-2.81-1.19A16,16,0,0,0,77.09,461a10.29,10.29,0,0,0-2.93-1A3.7,3.7,0,0,0,70.41,461.14Z"/>
                  </g>
                  <g id="_Группа_17" data-name="&lt;Группа&gt;">
                    <path class="cls-18" d="M65.11,473.47c.14,2.45,1.56,5,.59,7.24s-3.78,2.87-6.18,3.16c-.4,0-5.46.88-5.49.78a16.66,16.66,0,0,0-2-4.81,5.45,5.45,0,0,0-4.3-2.53,1.05,1.05,0,0,0,.59-1.25,8.1,8.1,0,0,0-.58-1.42,3.43,3.43,0,0,1,.63-3.51c1.68-1.82,5-1.37,6.4-3.42.87-1.27.62-3,1-4.5.76-2.9,3.81-3.73,6-5.18a11.11,11.11,0,0,1,7.43-2.19c3.54.32,6.4,3.67,5.31,7.12-1.4,4.42-8.34,4.58-9.3,9A5.4,5.4,0,0,0,65.11,473.47Z"/>
                  </g>
                </g>
              </g>
            </g>
            <g id="_Группа_18" data-name="&lt;Группа&gt;">
              <polygon class="cls-14" points="67.06 483.51 72.04 490.55 74.38 490.36 77.56 482.72 67.06 483.51"/>
            </g>
            <g id="_Группа_19" data-name="&lt;Группа&gt;">
              <polygon class="cls-15" points="72.47 608.47 75.36 612.19 72.67 615.12 68.9 611.8 67.06 608.47 72.47 608.47"/>
            </g>
            <g id="_Группа_20" data-name="&lt;Группа&gt;">
              <polygon class="cls-15" points="83.73 608.47 86.61 612.19 83.93 615.12 80.16 611.8 78.31 608.47 83.73 608.47"/>
            </g>
          </g>
        </g>
        <g id="_Группа_21" data-name="&lt;Группа&gt;">
          <g id="_Группа_22" data-name="&lt;Группа&gt;">
            <g id="_Группа_23" data-name="&lt;Группа&gt;">
              <g id="_Группа_24" data-name="&lt;Группа&gt;">
                <g id="_Группа_25" data-name="&lt;Группа&gt;">
                  <g id="_Группа_26" data-name="&lt;Группа&gt;">
                    <g id="_Группа_27" data-name="&lt;Группа&gt;">
                      <g id="_Группа_28" data-name="&lt;Группа&gt;">
                        <rect class="cls-19" x="96.03" y="510.4" width="50.31" height="10.78" transform="translate(-363.64 302.09) rotate(-52.99)"/>
                      </g>
                      <g id="_Группа_29" data-name="&lt;Группа&gt;">
                        <path class="cls-20" d="M96.26,549l-.1-.07c-2.72-2-3.68-5.34-2.16-7.37l17.25-23.26,10.37,7.47L103.93,549C102.41,551.05,99,551,96.26,549Z"/>
                      </g>
                    </g>
                  </g>
                  <g id="_Группа_30" data-name="&lt;Группа&gt;">
                    <g id="_Группа_31" data-name="&lt;Группа&gt;">
                      <path class="cls-21" d="M172.61,502.42a32.45,32.45,0,1,1-6.53-45.26A32.31,32.31,0,0,1,172.61,502.42Z"/>
                    </g>
                    <g id="_Группа_32" data-name="&lt;Группа&gt;">
                      <path class="cls-22" d="M169,499.69a27.91,27.91,0,1,1-5.62-38.93A27.8,27.8,0,0,1,169,499.69Z"/>
                    </g>
                  </g>
                </g>
                <g id="_Группа_33" data-name="&lt;Группа&gt;">
                  <g id="_Группа_34" data-name="&lt;Группа&gt;" class="cls-23">
                    <g id="_Группа_35" data-name="&lt;Группа&gt;">
                      <path class="cls-24" d="M149.5,463.05a20,20,0,0,1,18.11,15.87,19.58,19.58,0,0,1-10.82,21.39c-2.26,1.06-.75,4.65,1.51,3.59a23.55,23.55,0,0,0,13.36-24.25,23.94,23.94,0,0,0-18.86-20.06,21.59,21.59,0,0,0-2.87-.39c-2.49-.19-2.95,3.66-.44,3.85Z"/>
                    </g>
                  </g>
                  <g id="_Группа_36" data-name="&lt;Группа&gt;" class="cls-25">
                    <ellipse class="cls-24" cx="150.46" cy="504.2" rx="2.55" ry="2.57" transform="translate(-342.73 320.85) rotate(-52.99)"/>
                  </g>
                </g>
              </g>
              <g id="_Группа_37" data-name="&lt;Группа&gt;">
                <path class="cls-26" d="M111.58,518.64l9.87,7.11a.81.81,0,0,0,1.08-.12l.09-.1a.81.81,0,0,0-.14-1.2l-9.95-7a.81.81,0,0,0-1.14.2h0A.81.81,0,0,0,111.58,518.64Z"/>
              </g>
              <g id="_Группа_38" data-name="&lt;Группа&gt;">
                <g id="_Группа_39" data-name="&lt;Группа&gt;">
                  <path class="cls-27" d="M144.22,509.86A27.78,27.78,0,0,1,119,483.69a27.29,27.29,0,0,1,22.51-28.28,27.68,27.68,0,0,1,30.13,38.55,27.34,27.34,0,0,1-27.44,15.92.74.74,0,0,0-.12,1.47,29.24,29.24,0,0,0,18.85-4.84,28.74,28.74,0,0,0,11.36-15.37,29.12,29.12,0,0,0-49.92-27.52,28.79,28.79,0,0,0-6.87,18.31,29.24,29.24,0,0,0,26.58,29.43A.74.74,0,0,0,144.22,509.86Z"/>
                </g>
              </g>
            </g>
          </g>
          <g id="_Группа_40" data-name="&lt;Группа&gt;">
            <g id="_Группа_41" data-name="&lt;Группа&gt;">
              <path class="cls-28" d="M99.14,545.41l-.08-.05h0l.08,0h0Zm25-25h0l0-.08Z"/>
            </g>
          </g>
        </g>
        <g id="_Группа_42" data-name="&lt;Группа&gt;">
          <g id="_Группа_43" data-name="&lt;Группа&gt;">
            <polygon class="cls-13" points="100.89 524.72 105.61 525.24 105.81 526.87 108.78 528.89 107.52 530.79 101.4 528.84 100.89 524.72"/>
          </g>
          <g id="_Группа_44" data-name="&lt;Группа&gt;">
            <polygon class="cls-29" points="51.78 499.58 68.87 517.57 76.6 520.49 101.77 529.51 101.29 523.74 76 510.32 61.47 483.84 54.79 487.51 51.78 499.58"/>
          </g>
        </g>
      </g>
    </g>
    <g>
      <path class="cls-3" d="M110.91,281.32h-4.17v-8.75h3.79a2.76,2.76,0,0,1,1.84.57,1.93,1.93,0,0,1,.67,1.56,2.14,2.14,0,0,1-.31,1.16,1.65,1.65,0,0,1-.84.69,2.16,2.16,0,0,1,1.39.76,2.41,2.41,0,0,1,.51,1.58,2.22,2.22,0,0,1-.77,1.78A3.13,3.13,0,0,1,110.91,281.32Zm-3.25-7.91v2.86h2.71a2,2,0,0,0,1.29-.36,1.26,1.26,0,0,0,.46-1.05,1.31,1.31,0,0,0-.46-1.07,2,2,0,0,0-1.29-.37Zm0,3.67v3.4h3.09a2.29,2.29,0,0,0,1.51-.45,1.56,1.56,0,0,0,.54-1.26,1.52,1.52,0,0,0-.54-1.24,2.31,2.31,0,0,0-1.51-.44Z"/>
      <path class="cls-3" d="M119,281.32h-3.23v-8.75h.92v3.26H119a3.23,3.23,0,0,1,2.3.76,2.56,2.56,0,0,1,.84,2,2.53,2.53,0,0,1-.84,2A3.34,3.34,0,0,1,119,281.32Zm-2.3-4.65v3.81H119a2.57,2.57,0,0,0,1.67-.49,1.72,1.72,0,0,0,.6-1.41,1.75,1.75,0,0,0-.59-1.41,2.54,2.54,0,0,0-1.68-.5Zm7.7,4.65h-.92v-8.75h.92Z"/>
      <path class="cls-3" d="M132.21,281.47a4.29,4.29,0,0,1-2.62-.76v-1a4,4,0,0,0,2.63.88,3.34,3.34,0,0,0,2.39-.94,3.54,3.54,0,0,0,1.09-2.4h-4.1v-.84h4.06a3.4,3.4,0,0,0-1.1-2.26,3.3,3.3,0,0,0-2.31-.89,4.46,4.46,0,0,0-2.45.74v-1a4.43,4.43,0,0,1,2.42-.65,4.28,4.28,0,0,1,3.19,1.3,4.53,4.53,0,0,1-3.19,7.75Z"/>
      <path class="cls-3" d="M138.81,272.57h.92v3.8l4.05-3.8H145l-4.3,4,5,4.75h-1.3l-4.64-4.45v4.45h-.92Z"/>
      <path class="cls-3" d="M147.29,273.72a4.45,4.45,0,0,1,6.29,0,4.76,4.76,0,0,1,0,6.46,4.48,4.48,0,0,1-6.29,0,4.8,4.8,0,0,1,0-6.46Zm.69,5.84a3.41,3.41,0,0,0,4.92,0,3.91,3.91,0,0,0,0-5.22,3.41,3.41,0,0,0-4.92,0,3.91,3.91,0,0,0,0,5.22Z"/>
      <path class="cls-3" d="M157.89,281.32H157v-8.75h.92v3.64h5.2v-3.64H164v8.75h-.92V277h-5.2Z"/>
      <path class="cls-3" d="M167.36,273.72a4.45,4.45,0,0,1,6.29,0,4.76,4.76,0,0,1,0,6.46,4.48,4.48,0,0,1-6.29,0,4.8,4.8,0,0,1,0-6.46Zm.69,5.84a3.41,3.41,0,0,0,4.92,0,3.91,3.91,0,0,0,0-5.22,3.41,3.41,0,0,0-4.92,0,3.91,3.91,0,0,0,0,5.22Z"/>
      <path class="cls-3" d="M177.95,281.32H177v-8.75h.91l3.16,4.24,3.16-4.24h.9v8.75h-.91V274l-2.86,3.82h-.56L177.95,274Z"/>
      <path class="cls-3" d="M188.41,281.32h-.78v-8.75h.91v7.2l5.44-7.2h.81v8.75h-.91V274.1Z"/>
      <path class="cls-3" d="M200.41,281.32h-.92v-7.91h-3v-.84h7v.84h-3Z"/>
      <path class="cls-3" d="M211.32,281.32h-6.19v-8.75h6v.84h-5.08v2.8h4.16V277h-4.16v3.44h5.26Z"/>
    </g>
    <g class="cls-30">
      <g>
        <g>
          <circle class="cls-24" cx="25.01" cy="11.92" r="1.78"/>
          <circle class="cls-24" cx="49.9" cy="0.37" r="1.78"/>
          <circle class="cls-24" cx="77.62" cy="15.63" r="1.93"/>
        </g>
        <g class="cls-31">
          <g>
            <g>
              <line class="cls-32" x1="34.54" y1="21.59" x2="-16.71" y2="21.59"/>
              <polyline class="cls-32" points="-6.38 16.93 -1 21.64 -6.48 26.26"/>
              <polyline class="cls-32" points="24.58 16.93 19.2 21.64 24.68 26.26"/>
              <polyline class="cls-32" points="32.18 16.93 26.79 21.64 32.27 26.26"/>
              <polyline class="cls-32" points="39.77 16.93 34.39 21.64 39.87 26.26"/>
            </g>
            <g>
              <line class="cls-32" x1="9.1" y1="-3.84" x2="9.1" y2="47.4"/>
              <polyline class="cls-32" points="4.43 37.07 9.15 31.69 13.76 37.17"/>
              <polyline class="cls-32" points="4.43 44.67 9.15 39.29 13.76 44.77"/>
              <polyline class="cls-32" points="4.43 52.27 9.15 46.88 13.76 52.36"/>
              <polyline class="cls-32" points="4.43 6.11 9.15 11.5 13.76 6.02"/>
              <polyline class="cls-32" points="4.43 -1.49 9.15 3.9 13.76 -1.58"/>
            </g>
            <g>
              <line class="cls-32" x1="27.08" y1="3.61" x2="-9.15" y2="39.84"/>
              <polyline class="cls-32" points="-5.15 29.24 1.99 28.77 1.38 35.91"/>
              <polyline class="cls-32" points="16.75 7.35 16.27 14.49 23.41 13.88"/>
              <polyline class="cls-32" points="22.12 1.98 21.64 9.12 28.78 8.5"/>
              <polyline class="cls-32" points="27.49 -3.39 27.02 3.75 34.15 3.13"/>
            </g>
            <g>
              <line class="cls-32" x1="27.15" y1="39.58" x2="-9.08" y2="3.34"/>
              <polyline class="cls-32" points="1.52 7.35 1.99 14.49 -5.15 13.88"/>
              <polyline class="cls-32" points="23.41 29.24 16.27 28.77 16.88 35.91"/>
              <polyline class="cls-32" points="28.78 34.61 21.64 34.14 22.25 41.28"/>
              <polyline class="cls-32" points="34.15 39.98 27.02 39.51 27.63 46.65"/>
            </g>
          </g>
        </g>
        <circle class="cls-24" cx="299.74" cy="-0.67" r="0.85"/>
        <g>
          <g>
            <line class="cls-32" x1="305.45" y1="10.18" x2="305.45" y2="-56.72"/>
            <polyline class="cls-32" points="311.53 7.1 305.38 0.07 299.36 7.22"/>
            <polyline class="cls-32" points="311.53 17.02 305.38 9.99 299.36 17.14"/>
          </g>
          <line class="cls-32" x1="328.93" y1="0.45" x2="281.62" y2="-46.85"/>
          <g>
            <line class="cls-32" x1="281.97" y1="0.54" x2="329.27" y2="-46.76"/>
            <polyline class="cls-32" points="288.45 2.67 289.07 -6.65 279.75 -5.85"/>
            <polyline class="cls-32" points="281.44 9.68 282.06 0.36 272.74 1.16"/>
          </g>
        </g>
        <g>
          <g>
            <line class="cls-33" x1="283.61" y1="37.71" x2="248.7" y2="37.71"/>
            <polyline class="cls-33" points="255.74 34.53 259.4 37.74 255.67 40.88"/>
            <polyline class="cls-33" points="250.56 34.53 254.23 37.74 250.49 40.88"/>
            <polyline class="cls-33" points="245.38 34.53 249.05 37.74 245.32 40.88"/>
            <polyline class="cls-33" points="276.83 34.53 273.16 37.74 276.89 40.88"/>
            <polyline class="cls-33" points="282 34.53 278.33 37.74 282.07 40.88"/>
            <polyline class="cls-33" points="287.18 34.53 283.51 37.74 287.24 40.88"/>
          </g>
          <g>
            <line class="cls-33" x1="266.28" y1="20.38" x2="266.28" y2="55.29"/>
            <polyline class="cls-33" points="263.1 48.25 266.31 44.59 269.46 48.32"/>
            <polyline class="cls-33" points="263.1 53.43 266.31 49.76 269.46 53.49"/>
            <polyline class="cls-33" points="263.1 58.6 266.31 54.94 269.46 58.67"/>
            <polyline class="cls-33" points="263.1 27.16 266.31 30.83 269.46 27.1"/>
            <polyline class="cls-33" points="263.1 21.99 266.31 25.66 269.46 21.92"/>
            <polyline class="cls-33" points="263.1 16.81 266.31 20.48 269.46 16.75"/>
          </g>
          <g>
            <line class="cls-33" x1="278.53" y1="25.45" x2="253.85" y2="50.14"/>
            <polyline class="cls-33" points="256.58 42.92 261.44 42.59 261.02 47.46"/>
            <polyline class="cls-33" points="252.92 46.58 257.78 46.25 257.36 51.12"/>
            <polyline class="cls-33" points="249.26 50.24 254.12 49.91 253.71 54.78"/>
            <polyline class="cls-33" points="271.49 28 271.17 32.87 276.03 32.45"/>
            <polyline class="cls-33" points="275.15 24.34 274.83 29.21 279.69 28.79"/>
            <polyline class="cls-33" points="278.81 20.69 278.49 25.55 283.35 25.13"/>
          </g>
          <g>
            <line class="cls-33" x1="278.58" y1="49.96" x2="253.9" y2="25.28"/>
            <polyline class="cls-33" points="261.12 28 261.44 32.87 256.58 32.45"/>
            <polyline class="cls-33" points="257.46 24.34 257.78 29.21 252.92 28.79"/>
            <polyline class="cls-33" points="253.8 20.69 254.12 25.55 249.26 25.13"/>
            <polyline class="cls-33" points="276.03 42.92 271.17 42.59 271.58 47.46"/>
            <polyline class="cls-33" points="279.69 46.58 274.83 46.25 275.24 51.12"/>
            <polyline class="cls-33" points="283.35 50.24 278.49 49.91 278.9 54.78"/>
          </g>
        </g>
      </g>
    </g>
    <g>
      <path d="M99.55,45.22a7.37,7.37,0,0,1-2.21-5.48,7.29,7.29,0,0,1,2.21-5.46,7.56,7.56,0,0,1,5.54-2.16,8,8,0,0,1,4,1v2.33a7.13,7.13,0,0,0-4-1.15,5.28,5.28,0,0,0-5.4,5.46,5.28,5.28,0,0,0,5.48,5.46,6.54,6.54,0,0,0,4.2-1.34v2.33a7.82,7.82,0,0,1-4.3,1.18A7.7,7.7,0,0,1,99.55,45.22Z"/>
      <path d="M117.7,47.08V32.39H120v5.79h7.66V32.39H130v14.7h-2.31V40.3H120v6.78Z"/>
      <path d="M132.27,47.08,138.7,32.3h2.23l6.42,14.78h-2.48l-1.6-3.65h-7l-1.58,3.65Zm4.83-5.69h5.38l-2.69-6.17Z"/>
      <path d="M149.64,47.08V32.39H152L156.76,39l4.72-6.61h2.31v14.7h-2.31V35.91l-4.09,5.54H156l-4.09-5.54V47.08Z"/>
      <path d="M167.45,47.08V32.39h2.31V43.18l8.08-10.79h2v14.7h-2.31V36.25l-8.13,10.83Z"/>
      <path d="M189,47.08V32.39h6.68c2.63,0,4.33,1.34,4.33,3.61a3.1,3.1,0,0,1-2,3,3.78,3.78,0,0,1,3.13,3.93,3.72,3.72,0,0,1-1.34,3,5.36,5.36,0,0,1-3.61,1.13Zm2.31-8.78h4c1.53,0,2.44-.67,2.44-1.91s-.9-1.89-2.44-1.89h-4Zm0,6.66h4.49c1.78,0,2.88-.86,2.88-2.35s-1-2.27-2.88-2.27h-4.49Z"/>
      <path d="M204.11,47.08V32.39h2.31v5.08h3.3a5.74,5.74,0,0,1,4,1.34,4.82,4.82,0,0,1,0,6.95,5.77,5.77,0,0,1-4,1.32ZM206.42,45h3.17c2.08,0,3.28-1,3.28-2.67s-1.24-2.71-3.28-2.71h-3.17Zm10.79,2.12V32.39h2.31v14.7Z"/>
      <path d="M43.46,71.4V69a6.65,6.65,0,0,0,4.26,1.36,5,5,0,0,0,3.46-1.28,5.15,5.15,0,0,0,1.74-3.3H46.65V63.7h6.15a5.05,5.05,0,0,0-5-4.22,7.23,7.23,0,0,0-4,1.18V58.32a8,8,0,0,1,4-1,7.44,7.44,0,0,1,5.48,2.2,7.73,7.73,0,0,1,0,10.83,7.44,7.44,0,0,1-5.48,2.2A7.57,7.57,0,0,1,43.46,71.4Z"/>
      <path d="M58.56,72.28V57.59h2.31v6l6-6h3l-6.8,6.72,7.89,8H67.8l-6.93-7.05v7.05Z"/>
      <path d="M78.53,72.56a7.23,7.23,0,0,1-5.37-2.18A7.56,7.56,0,0,1,71,64.94a7.48,7.48,0,0,1,2.12-5.42,7.65,7.65,0,0,1,10.75,0A7.41,7.41,0,0,1,86,64.94a7.49,7.49,0,0,1-2.14,5.44A7.23,7.23,0,0,1,78.53,72.56Zm0-2.16a4.87,4.87,0,0,0,3.65-1.55,5.49,5.49,0,0,0,1.49-3.91,5.41,5.41,0,0,0-1.49-3.88,5,5,0,0,0-7.31,0,5.39,5.39,0,0,0-1.47,3.88,5.47,5.47,0,0,0,1.47,3.91A4.87,4.87,0,0,0,78.53,70.4Z"/>
      <path d="M89.18,72.28V57.59h2.31v5.79h7.66V57.59h2.31v14.7H99.15V65.5H91.49v6.78Z"/>
      <path d="M112.09,72.56a7.23,7.23,0,0,1-5.37-2.18,7.56,7.56,0,0,1-2.12-5.44,7.48,7.48,0,0,1,2.12-5.42,7.65,7.65,0,0,1,10.75,0,7.41,7.41,0,0,1,2.14,5.42,7.49,7.49,0,0,1-2.14,5.44A7.23,7.23,0,0,1,112.09,72.56Zm0-2.16a4.87,4.87,0,0,0,3.65-1.55,5.49,5.49,0,0,0,1.49-3.91,5.41,5.41,0,0,0-1.49-3.88,5,5,0,0,0-7.31,0A5.39,5.39,0,0,0,107,64.94a5.47,5.47,0,0,0,1.47,3.91A4.87,4.87,0,0,0,112.09,70.4Z"/>
      <path d="M122.74,72.28V57.59h2.35l4.77,6.61,4.72-6.61h2.31v14.7h-2.31V61.12l-4.09,5.54h-1.34L125,61.12V72.28Z"/>
      <path d="M140.55,72.28V57.59h2.31V68.38l8.08-10.79h2v14.7h-2.31V61.45l-8.12,10.83Z"/>
      <path d="M155.48,57.59h12v2.12h-4.87V72.28h-2.31V59.71h-4.85Z"/>
      <path d="M170,72.28V57.59h10.46v2.12h-8.15v3.67H179V65.5h-6.63v4.66h8.42v2.12Z"/>
      <path d="M197.5,72.28V66.13a10.83,10.83,0,0,1-3.78.65q-5.29,0-5.29-4.66V57.59h2.31v4.07c0,2.18,1,3,3.34,3a7.94,7.94,0,0,0,3.42-.73v-6.3h2.31v14.7Z"/>
      <path d="M203.46,72.28V57.59h10.46v2.12h-8.15v3.67h6.63V65.5h-6.63v4.66h8.42v2.12Z"/>
      <path d="M215.79,57.59h12v2.12h-4.87V72.28h-2.31V59.71h-4.85Z"/>
      <path d="M230.34,72.28V57.59h2.31v5.08h3.3A5.74,5.74,0,0,1,240,64,4.82,4.82,0,0,1,240,71a5.78,5.78,0,0,1-4,1.32Zm2.31-2.12h3.17c2.08,0,3.28-1,3.28-2.67s-1.24-2.71-3.28-2.71h-3.17Zm10.79,2.12V57.59h2.31v14.7Z"/>
      <path d="M249.41,72.28V57.59h6.32a5.08,5.08,0,0,1,3.59,1.2,3.9,3.9,0,0,1,1.32,3.07A4.1,4.1,0,0,1,259.32,65a5,5,0,0,1-3.59,1.22h-4v6.07Zm2.31-8.19h3.82c1.74,0,2.77-.8,2.77-2.2s-1-2.18-2.77-2.18h-3.82Z"/>
      <path d="M263.31,72.28V57.59h10.46v2.12h-8.15v3.67h6.63V65.5h-6.63v4.66H274v2.12Z"/>
      <path d="M128.69,97.49V82.79H135A5.08,5.08,0,0,1,138.6,84a3.9,3.9,0,0,1,1.32,3.07,4.1,4.1,0,0,1-1.32,3.15A5,5,0,0,1,135,91.42h-4v6.07ZM131,89.3h3.82c1.74,0,2.77-.8,2.77-2.2s-1-2.18-2.77-2.18H131Z"/>
      <path d="M139.63,97.49l6.42-14.78h2.23l6.42,14.78h-2.48l-1.6-3.65h-7l-1.57,3.65Zm4.83-5.69h5.38l-2.69-6.17Z"/>
      <path d="M156,96.5V94.23a9.63,9.63,0,0,0,4.81,1.36c2.5,0,4-1,4-2.58,0-1.36-1.43-2.29-3.59-2.29h-1.83V88.6h2.1c1.78,0,2.81-.73,2.81-2s-1.24-2-3.17-2a10.14,10.14,0,0,0-4.54,1.07V83.63a10,10,0,0,1,4.66-1.11,6.29,6.29,0,0,1,3.86,1.09,3.43,3.43,0,0,1,1.47,2.9,2.78,2.78,0,0,1-.71,2,3.77,3.77,0,0,1-1.58,1.07,4.35,4.35,0,0,1,2,1.3,3.34,3.34,0,0,1,.86,2.35,4,4,0,0,1-1.64,3.28,7,7,0,0,1-4.43,1.28A9.62,9.62,0,0,1,156,96.5Z"/>
      <path d="M168.49,97.49l6.42-14.78h2.23l6.42,14.78h-2.48l-1.6-3.65h-7l-1.57,3.65Zm4.83-5.69h5.38L176,85.62Z"/>
      <path d="M186.21,97.23a1.51,1.51,0,0,1,0-2.1,1.45,1.45,0,0,1,2.08,0,1.48,1.48,0,0,1-2.08,2.1Zm0-4.47-.46-10h3l-.48,10Z"/>
    </g>
  </g>
</svg>
