<svg xmlns="http://www.w3.org/2000/svg" xmlns:xlink="http://www.w3.org/1999/xlink" viewBox="0 0 994.66 595.28">
  <defs>
    <style>
      .cls-1, .cls-4, .cls-5, .cls-7 {
        fill: none;
      }

      .cls-2 {
        clip-path: url(#clip-path);
      }

      .cls-3 {
        opacity: 0.2;
      }

      .cls-4, .cls-5 {
        stroke: #fff;
      }

      .cls-4, .cls-5, .cls-7 {
        stroke-linecap: round;
        stroke-linejoin: round;
      }

      .cls-4, .cls-7 {
        stroke-width: 2.41px;
      }

      .cls-5 {
        stroke-width: 1.81px;
      }

      .cls-6 {
        opacity: 0.74;
      }

      .cls-7 {
        stroke: #3b9386;
      }

      .cls-8 {
        fill: #919191;
      }

      .cls-9 {
        fill: #494949;
      }

      .cls-10 {
        fill: #ebb044;
      }

      .cls-11 {
        fill: #b4e1ef;
      }

      .cls-12 {
        fill: #fffff1;
      }

      .cls-13 {
        opacity: 0.1;
      }

      .cls-14 {
        fill: #35383f;
      }

      .cls-15 {
        fill: #145566;
      }

      .cls-16 {
        fill: #d1e7f5;
      }

      .cls-17 {
        fill: #1a3151;
      }

      .cls-18 {
        fill: #eed5b9;
      }

      .cls-19 {
        fill: #d1d6d6;
      }

      .cls-20 {
        fill: #766a5a;
      }

      .cls-21 {
        fill: #383e49;
      }

      .cls-22 {
        fill: #abadb2;
      }

      .cls-23 {
        fill: #4f4141;
      }

      .cls-24 {
        fill: #8e999f;
      }

      .cls-25 {
        fill: #2e4661;
      }

      .cls-26 {
        fill: #5a5a5c;
      }

      .cls-27 {
        fill: #b1cfdf;
      }

      .cls-28 {
        opacity: 0.22;
      }

      .cls-29 {
        fill: #fff;
      }

      .cls-30 {
        opacity: 0.31;
      }

      .cls-31 {
        fill: #a16652;
      }

      .cls-32 {
        fill: #6a8478;
      }

      .cls-33 {
        fill: #737373;
      }

      .cls-34 {
        fill: #b3b5ba;
      }
    </style>
    <clipPath id="clip-path">
      <rect class="cls-1" y="-117.52" width="993.27" height="88.76"/>
    </clipPath>
  </defs>
  <title>Монтажная область 1 копия</title>
  <g id="Слой_1" data-name="Слой 1">
    <g class="cls-2">
      <g>
        <g class="cls-3">
          <g>
            <line class="cls-4" x1="160.52" y1="-37.73" x2="160.52" y2="17.86"/>
            <polyline class="cls-4" points="155.46 6.65 160.57 0.81 165.57 6.76"/>
            <polyline class="cls-4" points="155.46 14.89 160.57 9.05 165.57 15"/>
            <polyline class="cls-4" points="155.46 23.13 160.57 17.29 165.57 23.24"/>
          </g>
          <g>
            <line class="cls-4" x1="180.03" y1="-29.65" x2="140.72" y2="9.66"/>
            <polyline class="cls-4" points="145.06 -1.84 152.81 -2.36 152.15 5.38"/>
            <polyline class="cls-4" points="139.24 3.98 146.98 3.47 146.32 11.21"/>
            <polyline class="cls-4" points="133.41 9.81 141.16 9.29 140.49 17.04"/>
          </g>
          <g>
            <line class="cls-4" x1="180.1" y1="9.37" x2="140.79" y2="-29.94"/>
            <polyline class="cls-4" points="176.04 -1.84 168.3 -2.36 168.96 5.38"/>
            <polyline class="cls-4" points="181.87 3.98 174.12 3.47 174.79 11.21"/>
            <polyline class="cls-4" points="187.69 9.81 179.95 9.29 180.61 17.04"/>
          </g>
        </g>
        <g class="cls-3">
          <g>
            <line class="cls-5" x1="244.53" y1="14.03" x2="206.55" y2="14.03"/>
            <polyline class="cls-5" points="214.2 10.58 218.19 14.07 214.13 17.49"/>
            <polyline class="cls-5" points="208.57 10.58 212.56 14.07 208.5 17.49"/>
            <polyline class="cls-5" points="202.94 10.58 206.93 14.07 202.87 17.49"/>
            <polyline class="cls-5" points="237.15 10.58 233.16 14.07 237.22 17.49"/>
            <polyline class="cls-5" points="242.78 10.58 238.79 14.07 242.85 17.49"/>
            <polyline class="cls-5" points="248.41 10.58 244.42 14.07 248.48 17.49"/>
          </g>
          <g>
            <line class="cls-5" x1="225.67" y1="-4.82" x2="225.67" y2="33.16"/>
            <polyline class="cls-5" points="222.22 25.51 225.71 21.52 229.13 25.58"/>
            <polyline class="cls-5" points="222.22 31.14 225.71 27.15 229.13 31.21"/>
            <polyline class="cls-5" points="222.22 36.77 225.71 32.78 229.13 36.84"/>
            <polyline class="cls-5" points="222.22 2.56 225.71 6.55 229.13 2.49"/>
            <polyline class="cls-5" points="222.22 -3.07 225.71 0.92 229.13 -3.14"/>
          </g>
          <g>
            <line class="cls-5" x1="239" y1="0.7" x2="212.15" y2="27.56"/>
            <polyline class="cls-5" points="215.12 19.7 220.41 19.35 219.95 24.64"/>
            <polyline class="cls-5" points="211.13 23.68 216.43 23.33 215.97 28.62"/>
            <polyline class="cls-5" points="207.15 27.67 212.44 27.31 211.99 32.6"/>
            <polyline class="cls-5" points="231.34 3.48 230.99 8.77 236.28 8.31"/>
            <polyline class="cls-5" points="235.32 -0.5 234.97 4.79 240.26 4.33"/>
            <polyline class="cls-5" points="239.3 -4.48 238.95 0.81 244.24 0.35"/>
          </g>
          <g>
            <line class="cls-5" x1="239.05" y1="27.37" x2="212.2" y2="0.51"/>
            <polyline class="cls-5" points="220.05 3.48 220.41 8.77 215.12 8.31"/>
            <polyline class="cls-5" points="216.07 -0.5 216.43 4.79 211.13 4.33"/>
            <polyline class="cls-5" points="212.09 -4.48 212.44 0.81 207.15 0.35"/>
            <polyline class="cls-5" points="236.28 19.7 230.99 19.35 231.44 24.64"/>
            <polyline class="cls-5" points="240.26 23.68 234.97 23.33 235.42 28.62"/>
            <polyline class="cls-5" points="244.24 27.67 238.95 27.31 239.41 32.6"/>
          </g>
        </g>
        <g class="cls-6">
          <g>
            <g>
              <line class="cls-7" x1="66.68" y1="10.68" x2="15.44" y2="10.68"/>
              <polyline class="cls-7" points="25.77 6.02 31.15 10.73 25.67 15.34"/>
              <polyline class="cls-7" points="18.17 6.02 23.55 10.73 18.07 15.34"/>
              <polyline class="cls-7" points="10.57 6.02 15.96 10.73 10.48 15.34"/>
              <polyline class="cls-7" points="56.73 6.02 51.34 10.73 56.83 15.34"/>
              <polyline class="cls-7" points="64.33 6.02 58.94 10.73 64.42 15.34"/>
              <polyline class="cls-7" points="71.92 6.02 66.54 10.73 72.02 15.34"/>
            </g>
            <g>
              <line class="cls-7" x1="41.25" y1="-14.76" x2="41.25" y2="36.49"/>
              <polyline class="cls-7" points="36.58 26.16 41.3 20.78 45.91 26.26"/>
              <polyline class="cls-7" points="36.58 33.76 41.3 28.37 45.91 33.85"/>
              <polyline class="cls-7" points="36.58 41.35 41.3 35.97 45.91 41.45"/>
              <polyline class="cls-7" points="36.58 -4.8 41.3 0.58 45.91 -4.9"/>
            </g>
            <g>
              <line class="cls-7" x1="59.23" y1="-7.31" x2="23" y2="28.93"/>
              <polyline class="cls-7" points="27 18.33 34.14 17.85 33.53 24.99"/>
              <polyline class="cls-7" points="21.63 23.7 28.77 23.22 28.16 30.36"/>
              <polyline class="cls-7" points="16.26 29.07 23.4 28.6 22.79 35.73"/>
              <polyline class="cls-7" points="48.9 -3.56 48.42 3.57 55.56 2.96"/>
            </g>
            <g>
              <line class="cls-7" x1="59.3" y1="28.67" x2="23.07" y2="-7.57"/>
              <polyline class="cls-7" points="33.67 -3.56 34.14 3.57 27 2.96"/>
              <polyline class="cls-7" points="55.56 18.33 48.42 17.85 49.03 24.99"/>
              <polyline class="cls-7" points="60.93 23.7 53.79 23.22 54.4 30.36"/>
              <polyline class="cls-7" points="66.3 29.07 59.16 28.6 59.77 35.73"/>
            </g>
          </g>
        </g>
      </g>
    </g>
    <g>
      <path d="M179,69.31a11,11,0,0,1-3.3-8.2,10.92,10.92,0,0,1,3.3-8.17,11.33,11.33,0,0,1,8.3-3.24,11.93,11.93,0,0,1,6,1.48v3.49a10.67,10.67,0,0,0-5.94-1.73,7.9,7.9,0,0,0-8.08,8.17,7.91,7.91,0,0,0,8.2,8.17,9.79,9.79,0,0,0,6.29-2v3.49a11.71,11.71,0,0,1-6.44,1.76A11.53,11.53,0,0,1,179,69.31Z"/>
      <path d="M206.15,72.11v-22h3.46v8.68h11.47V50.11h3.46v22h-3.46V62H209.61V72.11Z"/>
      <path d="M228,72.11,237.58,50h3.33l9.62,22.13h-3.71l-2.39-5.47H234l-2.36,5.47Zm7.23-8.52h8l-4-9.24Z"/>
      <path d="M254,72.11v-22h3.52l7.14,9.9,7.07-9.9h3.46v22h-3.46V55.39l-6.13,8.3h-2l-6.13-8.3V72.11Z"/>
      <path d="M280.61,72.11v-22h3.46V66.26l12.1-16.16h3v22h-3.46V55.89L283.56,72.11Z"/>
      <path d="M312.83,72.11v-22h10c3.93,0,6.48,2,6.48,5.41A4.65,4.65,0,0,1,326.37,60a5.67,5.67,0,0,1,4.68,5.88,5.57,5.57,0,0,1-2,4.5,8,8,0,0,1-5.41,1.7ZM316.28,59h5.94c2.29,0,3.65-1,3.65-2.86s-1.35-2.83-3.65-2.83h-5.94Zm0,10H323c2.67,0,4.31-1.29,4.31-3.52S325.75,62,323,62h-6.73Z"/>
      <path d="M335.49,72.11v-22h3.46v7.61h4.94a8.59,8.59,0,0,1,6,2,7.21,7.21,0,0,1,0,10.4,8.64,8.64,0,0,1-6,2Zm3.46-3.17h4.75c3.11,0,4.9-1.48,4.9-4s-1.85-4.05-4.9-4.05h-4.75Zm16.16,3.17v-22h3.46v22Z"/>
      <path d="M371,70.79V67.24a10,10,0,0,0,6.38,2,7.52,7.52,0,0,0,5.19-1.92,7.71,7.71,0,0,0,2.61-4.93h-9.4V59.26H385a7.47,7.47,0,0,0-2.61-4.56,7.39,7.39,0,0,0-4.9-1.76,10.83,10.83,0,0,0-6,1.76V51.21a11.93,11.93,0,0,1,5.94-1.51,11.14,11.14,0,0,1,8.2,3.3,11.57,11.57,0,0,1,0,16.22,11.13,11.13,0,0,1-8.2,3.3A11.33,11.33,0,0,1,371,70.79Z"/>
      <path d="M393.57,72.11v-22H397v9l9-9h4.43L400.3,60.17l11.82,11.95H407.4L397,61.55V72.11Z"/>
      <path d="M423.47,72.52a10.83,10.83,0,0,1-8-3.27,11.32,11.32,0,0,1-3.17-8.14A11.19,11.19,0,0,1,415.42,53a11.46,11.46,0,0,1,16.09,0,11.09,11.09,0,0,1,3.21,8.11,11.21,11.21,0,0,1-3.21,8.14A10.82,10.82,0,0,1,423.47,72.52Zm0-3.24A7.29,7.29,0,0,0,428.93,67a8.22,8.22,0,0,0,2.23-5.85,8.09,8.09,0,0,0-2.23-5.82,7.52,7.52,0,0,0-10.94,0,8.07,8.07,0,0,0-2.2,5.82A8.2,8.2,0,0,0,418,67,7.29,7.29,0,0,0,423.47,69.28Z"/>
      <path d="M439.4,72.11v-22h3.46v8.68h11.47V50.11h3.46v22h-3.46V62H442.86V72.11Z"/>
      <path d="M473.69,72.52a10.83,10.83,0,0,1-8-3.27,11.32,11.32,0,0,1-3.17-8.14A11.19,11.19,0,0,1,465.65,53a11.46,11.46,0,0,1,16.09,0,11.09,11.09,0,0,1,3.21,8.11,11.21,11.21,0,0,1-3.21,8.14A10.83,10.83,0,0,1,473.69,72.52Zm0-3.24A7.29,7.29,0,0,0,479.16,67a8.22,8.22,0,0,0,2.23-5.85,8.1,8.1,0,0,0-2.23-5.82,7.52,7.52,0,0,0-10.94,0,8.07,8.07,0,0,0-2.2,5.82,8.2,8.2,0,0,0,2.2,5.85A7.29,7.29,0,0,0,473.69,69.28Z"/>
      <path d="M489.63,72.11v-22h3.52l7.14,9.9,7.07-9.9h3.46v22h-3.46V55.39l-6.13,8.3h-2l-6.13-8.3V72.11Z"/>
      <path d="M516.28,72.11v-22h3.46V66.26l12.1-16.16h3v22H531.4V55.89L519.24,72.11Z"/>
      <path d="M538.63,50.11h18v3.17h-7.29V72.11h-3.46V53.28h-7.26Z"/>
      <path d="M560.41,72.11v-22h15.65v3.17h-12.2v5.5h9.93V62h-9.93v7h12.6v3.17Z"/>
      <path d="M601.52,72.11V62.9a16.22,16.22,0,0,1-5.66,1q-7.92,0-7.92-7V50.11h3.46v6.1c0,3.27,1.57,4.43,5,4.43a11.88,11.88,0,0,0,5.12-1.1V50.11H605v22Z"/>
      <path d="M610.45,72.11v-22H626.1v3.17h-12.2v5.5h9.93V62h-9.93v7h12.6v3.17Z"/>
      <path d="M628.9,50.11h18v3.17h-7.29V72.11h-3.46V53.28H628.9Z"/>
      <path d="M650.68,72.11v-22h3.46v7.61h4.93a8.59,8.59,0,0,1,6,2,7.21,7.21,0,0,1,0,10.4,8.65,8.65,0,0,1-6,2Zm3.46-3.17h4.75c3.11,0,4.9-1.48,4.9-4s-1.85-4.05-4.9-4.05h-4.75Zm16.16,3.17v-22h3.46v22Z"/>
      <path d="M679.22,72.11v-22h9.46a7.61,7.61,0,0,1,5.38,1.79,5.84,5.84,0,0,1,2,4.59,6.15,6.15,0,0,1-2,4.71A7.48,7.48,0,0,1,688.68,63h-6v9.08Zm3.46-12.26h5.72c2.61,0,4.15-1.2,4.15-3.3s-1.54-3.27-4.15-3.27h-5.72Z"/>
      <path d="M700,72.11v-22h15.65v3.17h-12.2v5.5h9.93V62h-9.93v7h12.6v3.17Z"/>
      <path d="M728.35,72.11v-22h9.46a7.61,7.61,0,0,1,5.38,1.79,5.84,5.84,0,0,1,2,4.59,6.15,6.15,0,0,1-2,4.71A7.48,7.48,0,0,1,737.81,63h-6v9.08Zm3.46-12.26h5.72c2.61,0,4.15-1.2,4.15-3.3s-1.54-3.27-4.15-3.27h-5.72Z"/>
      <path d="M744.72,72.11,754.34,50h3.33l9.62,22.13h-3.71l-2.39-5.47H750.76l-2.36,5.47ZM752,63.59h8l-4-9.24Z"/>
      <path d="M769.24,70.63V67.24a14.42,14.42,0,0,0,7.2,2c3.74,0,6-1.51,6-3.87,0-2-2.14-3.43-5.37-3.43h-2.74V58.81h3.14c2.67,0,4.21-1.1,4.21-3s-1.85-2.92-4.75-2.92a15.18,15.18,0,0,0-6.79,1.6V51.37a15,15,0,0,1,7-1.67,9.41,9.41,0,0,1,5.78,1.63,5.14,5.14,0,0,1,2.2,4.34,4.16,4.16,0,0,1-1.07,3,5.65,5.65,0,0,1-2.36,1.6,6.53,6.53,0,0,1,3,1.95A5,5,0,0,1,786,65.7a6,6,0,0,1-2.45,4.9,10.41,10.41,0,0,1-6.63,1.92A14.42,14.42,0,0,1,769.24,70.63Z"/>
      <path d="M787.91,72.11,797.53,50h3.33l9.62,22.13h-3.71l-2.39-5.47H793.94l-2.36,5.47Zm7.23-8.52h8l-4-9.24Z"/>
      <path d="M814.44,71.73a2.26,2.26,0,0,1,0-3.14,2.16,2.16,0,0,1,3.11,0,2.21,2.21,0,1,1-3.11,3.14ZM814.5,65l-.69-14.93h4.46L817.55,65Z"/>
    </g>
    <g>
      <path class="cls-8" d="M211.25,104.86h-5.7v-12h5.17a3.77,3.77,0,0,1,2.51.78,2.63,2.63,0,0,1,.92,2.13,2.93,2.93,0,0,1-.42,1.59,2.26,2.26,0,0,1-1.15.94,2.94,2.94,0,0,1,1.9,1,3.28,3.28,0,0,1,.7,2.15,3,3,0,0,1-1.06,2.42A4.27,4.27,0,0,1,211.25,104.86Zm-4.44-10.81V98h3.71a2.78,2.78,0,0,0,1.77-.5,1.72,1.72,0,0,0,.62-1.43,1.79,1.79,0,0,0-.62-1.47,2.72,2.72,0,0,0-1.77-.51Zm0,5v4.64H211a3.13,3.13,0,0,0,2.07-.61,2.13,2.13,0,0,0,.73-1.72,2.08,2.08,0,0,0-.73-1.7,3.16,3.16,0,0,0-2.07-.61Z"/>
      <path class="cls-8" d="M223.45,104.86h-1.23V96.62h1.23v3.47h5.07V96.62h1.23v8.25h-1.23v-3.67h-5.07Z"/>
      <path class="cls-8" d="M235.09,105.07a3.53,3.53,0,0,1-2.24-.72,2.48,2.48,0,0,1-.9-2,2.41,2.41,0,0,1,1-2,3.87,3.87,0,0,1,2.42-.73,5.76,5.76,0,0,1,3,.8v-.82q0-2.07-2.71-2.07a4.75,4.75,0,0,0-2.7.84v-1.2a5.5,5.5,0,0,1,3-.75,4.2,4.2,0,0,1,2.69.79,2.72,2.72,0,0,1,1,2.26v3.4a1.19,1.19,0,0,0,.21.75.69.69,0,0,0,.57.27,1.06,1.06,0,0,0,.48-.1v1a1.46,1.46,0,0,1-.82.19,1.61,1.61,0,0,1-1-.33,1.49,1.49,0,0,1-.52-1A4.17,4.17,0,0,1,235.09,105.07Zm.34-1.11a3.52,3.52,0,0,0,1.62-.39,3.76,3.76,0,0,0,1.25-1v-1.14a4.85,4.85,0,0,0-2.68-.82,3.15,3.15,0,0,0-1.78.44,1.39,1.39,0,0,0-.66,1.21,1.44,1.44,0,0,0,.63,1.25A2.76,2.76,0,0,0,235.43,104Z"/>
      <path class="cls-8" d="M254,104.86H242.79V96.62H244v7.17h3.76V96.62H249v7.17h3.77V96.62H254Z"/>
      <path class="cls-8" d="M260.86,105.07a4.61,4.61,0,0,1-3.24-1.21,4,4,0,0,1-1.3-3.11,4.36,4.36,0,0,1,1.16-3.09,4,4,0,0,1,3-1.25,3.74,3.74,0,0,1,1.76.4,3.26,3.26,0,0,1,1.21,1,5,5,0,0,1,.67,1.38,5,5,0,0,1,.22,1.46V101h-6.78a2.92,2.92,0,0,0,1.07,2.13,3.73,3.73,0,0,0,2.45.79,4.85,4.85,0,0,0,2.65-.77v1.09A4.6,4.6,0,0,1,260.86,105.07Zm-3.26-5h5.52a2.81,2.81,0,0,0-.72-1.72,2.35,2.35,0,0,0-1.95-.79,2.8,2.8,0,0,0-2,.75A2.7,2.7,0,0,0,257.6,100Z"/>
      <path class="cls-8" d="M267.86,104.86h-1.2V96.62h1.2l3.3,3.82,3.31-3.82h1.2v8.25h-1.2V98.31l-3.07,3.57h-.48l-3.06-3.57Z"/>
      <path class="cls-8" d="M286.86,105.07a4.33,4.33,0,0,1-3.14-1.23,4.22,4.22,0,0,1-1.25-3.11,4.11,4.11,0,0,1,1.26-3.07,4.26,4.26,0,0,1,3.14-1.25,5,5,0,0,1,2.49.6v1.14a4.63,4.63,0,0,0-2.32-.63,3.25,3.25,0,0,0-2.37.92,3,3,0,0,0-.94,2.31,3.1,3.1,0,0,0,.94,2.31,3.32,3.32,0,0,0,2.37.9,4.47,4.47,0,0,0,2.48-.72v1.13A5.06,5.06,0,0,1,286.86,105.07Z"/>
      <path class="cls-8" d="M290.76,104.86v-1.13l.32,0q1.08,0,1.47-1.37a13.68,13.68,0,0,0,.41-3.14l.07-2.63h6.16v8.25H298V97.69h-3.76l-.05,1.59q0,.92-.07,1.33a8.56,8.56,0,0,1-.5,2.46,3.12,3.12,0,0,1-.94,1.34,2.14,2.14,0,0,1-1.54.47Z"/>
      <path class="cls-8" d="M302.56,108.35a2.79,2.79,0,0,1-1.31-.24V107a2.43,2.43,0,0,0,1.13.27,1.67,1.67,0,0,0,1.3-.62,7.78,7.78,0,0,0,1.14-2.06l-3.67-7.94h1.37l2.92,6.49,2.83-6.49h1.33l-4.08,9.17Q304.4,108.35,302.56,108.35Z"/>
      <path class="cls-8" d="M318.28,104.86h-1.23v-3.3a6.39,6.39,0,0,1-2.54.51,2.9,2.9,0,0,1-3.35-3.4V96.62h1.23v2a2.57,2.57,0,0,0,.54,1.86,2.54,2.54,0,0,0,1.82.53,5,5,0,0,0,2.31-.55V96.62h1.23Z"/>
      <path class="cls-8" d="M323.63,105.07a3.53,3.53,0,0,1-2.24-.72,2.48,2.48,0,0,1-.9-2,2.41,2.41,0,0,1,1-2,3.87,3.87,0,0,1,2.42-.73,5.76,5.76,0,0,1,3,.8v-.82q0-2.07-2.71-2.07a4.75,4.75,0,0,0-2.7.84v-1.2a5.5,5.5,0,0,1,3-.75,4.2,4.2,0,0,1,2.69.79,2.72,2.72,0,0,1,1,2.26v3.4a1.19,1.19,0,0,0,.21.75.69.69,0,0,0,.57.27,1.06,1.06,0,0,0,.48-.1v1a1.46,1.46,0,0,1-.82.19,1.61,1.61,0,0,1-1-.33,1.49,1.49,0,0,1-.52-1A4.17,4.17,0,0,1,323.63,105.07ZM324,104a3.52,3.52,0,0,0,1.62-.39,3.76,3.76,0,0,0,1.25-1v-1.14a4.85,4.85,0,0,0-2.68-.82,3.15,3.15,0,0,0-1.78.44,1.39,1.39,0,0,0-.66,1.21,1.44,1.44,0,0,0,.63,1.25A2.76,2.76,0,0,0,324,104Z"/>
      <path class="cls-8" d="M335.27,105.07a4.61,4.61,0,0,1-3.24-1.21,4,4,0,0,1-1.3-3.11,4.36,4.36,0,0,1,1.16-3.09,4,4,0,0,1,3-1.25,3.74,3.74,0,0,1,1.76.4,3.26,3.26,0,0,1,1.21,1,5,5,0,0,1,.67,1.38,5,5,0,0,1,.22,1.46V101H332a2.92,2.92,0,0,0,1.07,2.13,3.73,3.73,0,0,0,2.45.79,4.85,4.85,0,0,0,2.65-.77v1.09A4.6,4.6,0,0,1,335.27,105.07ZM332,100h5.52a2.81,2.81,0,0,0-.72-1.72,2.35,2.35,0,0,0-1.95-.79,2.8,2.8,0,0,0-2,.75A2.7,2.7,0,0,0,332,100Z"/>
      <path class="cls-8" d="M347.79,105.07a5,5,0,0,1-2.63-.7v-1.14a4.23,4.23,0,0,0,2.48.73,3.47,3.47,0,0,0,2.24-.75,2.82,2.82,0,0,0,1-2h-4v-1.08h4a3,3,0,0,0-1.08-1.92,3.38,3.38,0,0,0-2.19-.73,4.76,4.76,0,0,0-2.31.62V97a5,5,0,0,1,2.46-.58,4.24,4.24,0,0,1,3.12,1.25,4.14,4.14,0,0,1,1.25,3.07,4.22,4.22,0,0,1-1.25,3.11A4.27,4.27,0,0,1,347.79,105.07Z"/>
      <path class="cls-8" d="M354.45,96.62h1.23V100l3.93-3.4h1.67l-4.35,3.72,5,4.53h-1.76l-4.46-4.06v4.06h-1.23Z"/>
      <path class="cls-8" d="M363.77,97.69a4.67,4.67,0,0,1,6.42,0,4.37,4.37,0,0,1,0,6.11,4.71,4.71,0,0,1-6.42,0,4.37,4.37,0,0,1,0-6.11Zm6.4,3.06a3.2,3.2,0,0,0-.91-2.31,3,3,0,0,0-2.29-.92,3.07,3.07,0,0,0-2.29.92,3.37,3.37,0,0,0,0,4.59A3.07,3.07,0,0,0,367,104a3,3,0,0,0,2.29-.92A3.17,3.17,0,0,0,370.18,100.75Z"/>
      <path class="cls-8" d="M375,104.86h-1.23V96.62H375v3.47H380V96.62h1.23v8.25H380v-3.67H375Z"/>
      <path class="cls-8" d="M384.81,97.69a4.66,4.66,0,0,1,6.42,0,4.37,4.37,0,0,1,0,6.11,4.71,4.71,0,0,1-6.42,0,4.37,4.37,0,0,1,0-6.11Zm6.4,3.06a3.2,3.2,0,0,0-.91-2.31,3,3,0,0,0-2.29-.92,3.07,3.07,0,0,0-2.29.92,3.37,3.37,0,0,0,0,4.59A3.07,3.07,0,0,0,388,104a3,3,0,0,0,2.29-.92A3.17,3.17,0,0,0,391.21,100.75Z"/>
      <path class="cls-8" d="M396,104.86h-1.2V96.62H396l3.3,3.82,3.31-3.82h1.2v8.25h-1.2V98.31l-3.07,3.57H399L396,98.31Z"/>
      <path class="cls-8" d="M407.81,104.86h-1.14V96.62h1.23v6.44l5.28-6.44h1.14v8.25h-1.23V98.44Z"/>
      <path class="cls-8" d="M418,104.86h-1.4l2.46-3.3a2.31,2.31,0,0,1-2.08-2.44,2.31,2.31,0,0,1,.78-1.83,3.19,3.19,0,0,1,2.18-.68h4.25v8.25h-1.23v-3.07h-2.65Zm2.12-4.15h2.83v-3h-2.83a2.17,2.17,0,0,0-1.39.39,1.37,1.37,0,0,0-.49,1.13,1.34,1.34,0,0,0,.49,1.12A2.2,2.2,0,0,0,420.09,100.71Z"/>
      <path class="cls-8" d="M435.35,105.07a4.33,4.33,0,0,1-3.14-1.23,4.22,4.22,0,0,1-1.25-3.11,4.11,4.11,0,0,1,1.26-3.07,4.26,4.26,0,0,1,3.14-1.25,5,5,0,0,1,2.49.6v1.14a4.63,4.63,0,0,0-2.32-.63,3.25,3.25,0,0,0-2.37.92,3,3,0,0,0-.94,2.31,3.1,3.1,0,0,0,.94,2.31,3.32,3.32,0,0,0,2.37.9,4.47,4.47,0,0,0,2.48-.72v1.13A5.06,5.06,0,0,1,435.35,105.07Z"/>
      <path class="cls-8" d="M441,97.69a4.66,4.66,0,0,1,6.42,0,4.37,4.37,0,0,1,0,6.11,4.71,4.71,0,0,1-6.42,0,4.37,4.37,0,0,1,0-6.11Zm6.4,3.06a3.2,3.2,0,0,0-.91-2.31,3,3,0,0,0-2.29-.92,3.07,3.07,0,0,0-2.29.92,3.37,3.37,0,0,0,0,4.59,3.07,3.07,0,0,0,2.29.92,3,3,0,0,0,2.29-.92A3.17,3.17,0,0,0,447.39,100.75Z"/>
      <path class="cls-8" d="M457.65,104.86h-1.23v-3.3a6.39,6.39,0,0,1-2.54.51,2.9,2.9,0,0,1-3.35-3.4V96.62h1.23v2a2.57,2.57,0,0,0,.54,1.86,2.54,2.54,0,0,0,1.82.53,5,5,0,0,0,2.3-.55V96.62h1.23Z"/>
      <path class="cls-8" d="M464.5,105.07a4.61,4.61,0,0,1-3.24-1.21,4,4,0,0,1-1.3-3.11,4.36,4.36,0,0,1,1.16-3.09,4,4,0,0,1,3-1.25,3.74,3.74,0,0,1,1.76.4,3.27,3.27,0,0,1,1.21,1,5,5,0,0,1,.67,1.38,5,5,0,0,1,.22,1.46V101h-6.78a2.92,2.92,0,0,0,1.07,2.13,3.73,3.73,0,0,0,2.45.79,4.84,4.84,0,0,0,2.65-.77v1.09A4.6,4.6,0,0,1,464.5,105.07Zm-3.26-5h5.52a2.8,2.8,0,0,0-.72-1.72,2.35,2.35,0,0,0-1.95-.79,2.8,2.8,0,0,0-2,.75A2.69,2.69,0,0,0,461.24,100Z"/>
      <path class="cls-8" d="M473.29,104.86h-1.23V97.69h-3V96.62h7.21v1.08h-3Z"/>
      <path class="cls-8" d="M480.62,105.07a3.53,3.53,0,0,1-2.24-.72,2.48,2.48,0,0,1-.91-2,2.41,2.41,0,0,1,1-2,3.86,3.86,0,0,1,2.42-.73,5.76,5.76,0,0,1,3,.8v-.82q0-2.07-2.71-2.07a4.75,4.75,0,0,0-2.7.84v-1.2a5.5,5.5,0,0,1,3-.75,4.2,4.2,0,0,1,2.69.79,2.72,2.72,0,0,1,1,2.26v3.4a1.2,1.2,0,0,0,.21.75.69.69,0,0,0,.57.27,1.06,1.06,0,0,0,.48-.1v1a1.46,1.46,0,0,1-.82.19,1.61,1.61,0,0,1-1-.33,1.49,1.49,0,0,1-.52-1A4.17,4.17,0,0,1,480.62,105.07ZM481,104a3.52,3.52,0,0,0,1.62-.39,3.76,3.76,0,0,0,1.25-1v-1.14a4.85,4.85,0,0,0-2.68-.82,3.14,3.14,0,0,0-1.78.44,1.39,1.39,0,0,0-.66,1.21,1.44,1.44,0,0,0,.63,1.25A2.76,2.76,0,0,0,481,104Z"/>
      <path class="cls-8" d="M492.26,105.07a4.61,4.61,0,0,1-3.24-1.21,4,4,0,0,1-1.3-3.11,4.36,4.36,0,0,1,1.16-3.09,4,4,0,0,1,3-1.25,3.74,3.74,0,0,1,1.76.4,3.27,3.27,0,0,1,1.21,1,5,5,0,0,1,.67,1.38,5,5,0,0,1,.22,1.46V101H489a2.92,2.92,0,0,0,1.07,2.13,3.73,3.73,0,0,0,2.45.79,4.84,4.84,0,0,0,2.65-.77v1.09A4.6,4.6,0,0,1,492.26,105.07ZM489,100h5.52a2.8,2.8,0,0,0-.72-1.72,2.35,2.35,0,0,0-1.95-.79,2.8,2.8,0,0,0-2,.75A2.69,2.69,0,0,0,489,100Z"/>
      <path class="cls-8" d="M501.06,104.86h-1.23V97.69h-3V96.62H504v1.08h-3Z"/>
      <path class="cls-8" d="M509.51,105.07a4.33,4.33,0,0,1-3.14-1.23,4.22,4.22,0,0,1-1.25-3.11,4.11,4.11,0,0,1,1.26-3.07,4.26,4.26,0,0,1,3.14-1.25A5,5,0,0,1,512,97v1.14a4.63,4.63,0,0,0-2.32-.63,3.25,3.25,0,0,0-2.37.92,3,3,0,0,0-.94,2.31,3.1,3.1,0,0,0,.94,2.31,3.32,3.32,0,0,0,2.37.9,4.47,4.47,0,0,0,2.48-.72v1.13A5.06,5.06,0,0,1,509.51,105.07Z"/>
      <path class="cls-8" d="M515.42,104.86H514l2.46-3.3a2.31,2.31,0,0,1-2.08-2.44,2.31,2.31,0,0,1,.78-1.83,3.19,3.19,0,0,1,2.18-.68h4.25v8.25h-1.23v-3.07h-2.65Zm2.12-4.15h2.83v-3h-2.83a2.17,2.17,0,0,0-1.39.39,1.37,1.37,0,0,0-.49,1.13,1.34,1.34,0,0,0,.49,1.12A2.2,2.2,0,0,0,517.54,100.71Z"/>
      <path class="cls-8" d="M532.8,105.07a4.33,4.33,0,0,1-3.14-1.23,4.22,4.22,0,0,1-1.25-3.11,4.11,4.11,0,0,1,1.26-3.07,4.26,4.26,0,0,1,3.14-1.25,5,5,0,0,1,2.49.6v1.14a4.63,4.63,0,0,0-2.32-.63,3.25,3.25,0,0,0-2.37.92,3,3,0,0,0-.94,2.31,3.1,3.1,0,0,0,.94,2.31,3.32,3.32,0,0,0,2.37.9,4.47,4.47,0,0,0,2.48-.72v1.13A5.06,5.06,0,0,1,532.8,105.07Z"/>
      <path class="cls-8" d="M542.47,96.62h1.23V100l3.93-3.4h1.67l-4.35,3.72,5,4.53h-1.76l-4.46-4.06v4.06h-1.23Z"/>
      <path class="cls-8" d="M551.79,97.69a4.66,4.66,0,0,1,6.42,0,4.37,4.37,0,0,1,0,6.11,4.71,4.71,0,0,1-6.42,0,4.37,4.37,0,0,1,0-6.11Zm6.4,3.06a3.2,3.2,0,0,0-.91-2.31,3,3,0,0,0-2.29-.92,3.07,3.07,0,0,0-2.29.92,3.37,3.37,0,0,0,0,4.59A3.07,3.07,0,0,0,555,104a3,3,0,0,0,2.29-.92A3.17,3.17,0,0,0,558.19,100.75Z"/>
      <path class="cls-8" d="M562.94,104.86h-1.2V96.62h1.2l3.3,3.82,3.31-3.82h1.2v8.25h-1.2V98.31l-3.07,3.57H566l-3.06-3.57Z"/>
      <path class="cls-8" d="M577.8,96.48V92.91H579v3.57a5.12,5.12,0,0,1,3.47,1.21,4.29,4.29,0,0,1,0,6.1A5.28,5.28,0,0,1,579,105v3.28H577.8V105a5,5,0,0,1-3.48-1.2,4.31,4.31,0,0,1,0-6.1A5.32,5.32,0,0,1,577.8,96.48Zm0,7.44V97.55a3.8,3.8,0,0,0-2.54.85,3.26,3.26,0,0,0,0,4.68A3.81,3.81,0,0,0,577.8,103.92ZM579,97.55v6.37a3.78,3.78,0,0,0,2.53-.84,3.22,3.22,0,0,0,0-4.68A3.78,3.78,0,0,0,579,97.55Z"/>
      <path class="cls-8" d="M586.71,97.69a4.66,4.66,0,0,1,6.42,0,4.37,4.37,0,0,1,0,6.11,4.71,4.71,0,0,1-6.42,0,4.37,4.37,0,0,1,0-6.11Zm6.4,3.06a3.2,3.2,0,0,0-.91-2.31,3,3,0,0,0-2.29-.92,3.07,3.07,0,0,0-2.29.92,3.37,3.37,0,0,0,0,4.59,3.07,3.07,0,0,0,2.29.92,3,3,0,0,0,2.29-.92A3.17,3.17,0,0,0,593.11,100.75Z"/>
      <path class="cls-8" d="M597.89,103.55v4.73h-1.23V96.62h1.23v1.31a3.8,3.8,0,0,1,3.19-1.52,3.87,3.87,0,0,1,3,1.26,4.63,4.63,0,0,1,0,6.13,3.87,3.87,0,0,1-3,1.26A3.8,3.8,0,0,1,597.89,103.55Zm0-4.17v2.71a3,3,0,0,0,1.16,1.34,3.14,3.14,0,0,0,1.74.52,3,3,0,0,0,2.27-.92,3.23,3.23,0,0,0,.91-2.3,3.18,3.18,0,0,0-.91-2.29,3,3,0,0,0-2.27-.92,3.27,3.27,0,0,0-2.9,1.86Z"/>
      <path class="cls-8" d="M610.44,104.86h-1.23V97.69h-3V96.62h7.21v1.08h-3Z"/>
      <path class="cls-8" d="M615.76,97.69a4.66,4.66,0,0,1,6.42,0,4.37,4.37,0,0,1,0,6.11,4.71,4.71,0,0,1-6.42,0,4.37,4.37,0,0,1,0-6.11Zm6.4,3.06a3.2,3.2,0,0,0-.91-2.31,3,3,0,0,0-2.29-.92,3.07,3.07,0,0,0-2.29.92,3.37,3.37,0,0,0,0,4.59A3.07,3.07,0,0,0,619,104a3,3,0,0,0,2.29-.92A3.17,3.17,0,0,0,622.16,100.75Z"/>
      <path class="cls-8" d="M626.9,104.86h-1.2V96.62h1.2l3.3,3.82,3.31-3.82h1.2v8.25h-1.2V98.31l-3.07,3.57H630l-3.06-3.57Z"/>
      <path class="cls-8" d="M643.26,104.86h-1.14V96.62h1.23v6.44l5.28-6.44h1.14v8.25h-1.23V98.44Z"/>
      <path class="cls-8" d="M661.21,105.07a4,4,0,0,1-3.3-1.47,7.54,7.54,0,0,1,.48-8.76,6,6,0,0,1,2-1.13,12.75,12.75,0,0,1,1.23-.38q.63-.17,1.35-.32l.76-.15.76-.14v1.14q-1.76.34-2.71.56a5.53,5.53,0,0,0-2.82,1.42,4.52,4.52,0,0,0-1,3.06,3.61,3.61,0,0,1,1.48-1.4,4.57,4.57,0,0,1,2.18-.51,3.74,3.74,0,0,1,3.81,3.86,4.06,4.06,0,0,1-4.15,4.22Zm0-1.11a2.78,2.78,0,0,0,2-.84,3,3,0,0,0,.85-2.19,2.67,2.67,0,0,0-.82-2,2.77,2.77,0,0,0-2-.79,3.24,3.24,0,0,0-2,.67A3.67,3.67,0,0,0,658,100.3a4.34,4.34,0,0,0,.91,2.7A2.88,2.88,0,0,0,661.21,104Z"/>
      <path class="cls-8" d="M671.59,105.07a4.61,4.61,0,0,1-3.24-1.21,4,4,0,0,1-1.3-3.11,4.36,4.36,0,0,1,1.16-3.09,4,4,0,0,1,3-1.25,3.74,3.74,0,0,1,1.76.4,3.27,3.27,0,0,1,1.21,1,5,5,0,0,1,.67,1.38,5,5,0,0,1,.22,1.46V101h-6.78a2.92,2.92,0,0,0,1.07,2.13,3.73,3.73,0,0,0,2.45.79,4.84,4.84,0,0,0,2.65-.77v1.09A4.6,4.6,0,0,1,671.59,105.07Zm-3.26-5h5.52a2.8,2.8,0,0,0-.72-1.72,2.35,2.35,0,0,0-1.95-.79,2.8,2.8,0,0,0-2,.75A2.69,2.69,0,0,0,668.33,100Z"/>
      <path class="cls-8" d="M679.81,105.07a7.36,7.36,0,0,1-3-.56v-1.2a6.71,6.71,0,0,0,2.89.65,4.14,4.14,0,0,0,2-.4,1.23,1.23,0,0,0,.73-1.12,1.12,1.12,0,0,0-.6-1,3.19,3.19,0,0,0-1.64-.36h-1.43V100h1.43a2.61,2.61,0,0,0,1.44-.33,1,1,0,0,0,.49-.87q0-1.28-2.32-1.28a6.92,6.92,0,0,0-2.71.56V96.94a7.22,7.22,0,0,1,3-.53,4.4,4.4,0,0,1,2.37.6,1.79,1.79,0,0,1,1,1.57,2,2,0,0,1-.39,1.2,2.49,2.49,0,0,1-.94.66,2.09,2.09,0,0,1,1.67,2.08,2.13,2.13,0,0,1-1,1.84A5,5,0,0,1,679.81,105.07Z"/>
      <path class="cls-8" d="M686.77,97.69a4.66,4.66,0,0,1,6.42,0,4.37,4.37,0,0,1,0,6.11,4.71,4.71,0,0,1-6.42,0,4.37,4.37,0,0,1,0-6.11Zm6.4,3.06a3.2,3.2,0,0,0-.91-2.31,3,3,0,0,0-2.29-.92,3.07,3.07,0,0,0-2.29.92,3.37,3.37,0,0,0,0,4.59A3.07,3.07,0,0,0,690,104a3,3,0,0,0,2.29-.92A3.17,3.17,0,0,0,693.18,100.75Z"/>
      <path class="cls-8" d="M698,104.86h-1.23V96.62h7.41v8.25h-1.23V97.69h-5Z"/>
      <path class="cls-8" d="M709.48,105.07a3.53,3.53,0,0,1-2.24-.72,2.48,2.48,0,0,1-.91-2,2.41,2.41,0,0,1,1-2,3.86,3.86,0,0,1,2.42-.73,5.76,5.76,0,0,1,3,.8v-.82q0-2.07-2.71-2.07a4.75,4.75,0,0,0-2.7.84v-1.2a5.5,5.5,0,0,1,3-.75,4.2,4.2,0,0,1,2.69.79,2.72,2.72,0,0,1,1,2.26v3.4a1.2,1.2,0,0,0,.21.75.69.69,0,0,0,.57.27,1.06,1.06,0,0,0,.48-.1v1a1.46,1.46,0,0,1-.82.19,1.61,1.61,0,0,1-1-.33,1.49,1.49,0,0,1-.52-1A4.17,4.17,0,0,1,709.48,105.07Zm.34-1.11a3.52,3.52,0,0,0,1.62-.39,3.76,3.76,0,0,0,1.25-1v-1.14a4.85,4.85,0,0,0-2.68-.82,3.14,3.14,0,0,0-1.78.44,1.39,1.39,0,0,0-.66,1.21,1.44,1.44,0,0,0,.63,1.25A2.76,2.76,0,0,0,709.82,104Z"/>
      <path class="cls-8" d="M721,105.07a4.33,4.33,0,0,1-3.14-1.23,4.22,4.22,0,0,1-1.25-3.11,4.11,4.11,0,0,1,1.26-3.07A4.26,4.26,0,0,1,721,96.41a5,5,0,0,1,2.49.6v1.14a4.63,4.63,0,0,0-2.32-.63,3.25,3.25,0,0,0-2.37.92,3,3,0,0,0-.94,2.31,3.1,3.1,0,0,0,.94,2.31,3.32,3.32,0,0,0,2.37.9,4.47,4.47,0,0,0,2.48-.72v1.13A5.06,5.06,0,0,1,721,105.07Z"/>
      <path class="cls-8" d="M727.36,104.86h-1.23V96.62h1.23v3.47h5.07V96.62h1.23v8.25h-1.23v-3.67h-5.07Z"/>
      <path class="cls-8" d="M737.21,97.69a4.66,4.66,0,0,1,6.42,0,4.37,4.37,0,0,1,0,6.11,4.71,4.71,0,0,1-6.42,0,4.37,4.37,0,0,1,0-6.11Zm6.4,3.06a3.2,3.2,0,0,0-.91-2.31,3,3,0,0,0-2.29-.92,3.07,3.07,0,0,0-2.29.92,3.37,3.37,0,0,0,0,4.59,3.07,3.07,0,0,0,2.29.92,3,3,0,0,0,2.29-.92A3.17,3.17,0,0,0,743.62,100.75Z"/>
      <path class="cls-8" d="M751,105.07a4.33,4.33,0,0,1-3.14-1.23,4.22,4.22,0,0,1-1.25-3.11,4.11,4.11,0,0,1,1.26-3.07A4.26,4.26,0,0,1,751,96.41a5,5,0,0,1,2.49.6v1.14a4.63,4.63,0,0,0-2.32-.63,3.25,3.25,0,0,0-2.37.92,3,3,0,0,0-.94,2.31,3.1,3.1,0,0,0,.94,2.31,3.32,3.32,0,0,0,2.37.9,4.47,4.47,0,0,0,2.48-.72v1.13A5.06,5.06,0,0,1,751,105.07Z"/>
      <path class="cls-8" d="M759.21,104.86H758V97.69h-3V96.62h7.21v1.08h-3Z"/>
      <path class="cls-8" d="M768.26,104.86h-4.17V96.62h1.23v2.77h2.89a3.36,3.36,0,0,1,2.29.74,2.5,2.5,0,0,1,.85,2,2.58,2.58,0,0,1-.82,2A3.23,3.23,0,0,1,768.26,104.86Zm-2.94-4.41v3.33H768a2.38,2.38,0,0,0,1.52-.43,1.47,1.47,0,0,0,.55-1.22,1.49,1.49,0,0,0-.55-1.24,2.38,2.38,0,0,0-1.52-.44Z"/>
      <path class="cls-8" d="M781,105.07a3.85,3.85,0,0,1-2.77-1.08,4.18,4.18,0,0,1-1.28-2.73h-2v3.6h-1.23V96.62h1.23v3.53h2a4,4,0,0,1,1.28-2.68A3.9,3.9,0,0,1,781,96.41a3.83,3.83,0,0,1,3,1.25,4.62,4.62,0,0,1,0,6.16A3.83,3.83,0,0,1,781,105.07Zm0-1.11a2.68,2.68,0,0,0,2.1-.92,3.63,3.63,0,0,0,0-4.59,2.83,2.83,0,0,0-4.18,0,3.63,3.63,0,0,0,0,4.59A2.66,2.66,0,0,0,781,104Z"/>
      <path class="cls-8" d="M788.37,105a.88.88,0,1,1,.63-.26A.86.86,0,0,1,788.37,105Zm.58-3.77h-1.14l-.22-8.28h1.59Z"/>
    </g>
    <g>
      <path class="cls-9" d="M664.07,357.27h-5v-10.5h4.54a3.31,3.31,0,0,1,2.21.68,2.31,2.31,0,0,1,.81,1.87,2.57,2.57,0,0,1-.37,1.4,2,2,0,0,1-1,.82,2.59,2.59,0,0,1,1.67.92,2.89,2.89,0,0,1,.62,1.89,2.66,2.66,0,0,1-.93,2.13A3.75,3.75,0,0,1,664.07,357.27Zm-3.9-9.5v3.44h3.25a2.44,2.44,0,0,0,1.55-.44,1.51,1.51,0,0,0,.55-1.26,1.57,1.57,0,0,0-.55-1.29,2.39,2.39,0,0,0-1.55-.45Zm0,4.41v4.08h3.71a2.75,2.75,0,0,0,1.82-.54,1.87,1.87,0,0,0,.64-1.51,1.83,1.83,0,0,0-.64-1.49,2.78,2.78,0,0,0-1.82-.53Z"/>
      <path class="cls-9" d="M673.82,357.27H670v-10.5h1.11v3.92h2.76a3.88,3.88,0,0,1,2.76.92,3.08,3.08,0,0,1,1,2.38,3,3,0,0,1-1,2.39A4,4,0,0,1,673.82,357.27Zm-2.76-5.58v4.58h2.69a3.08,3.08,0,0,0,2-.59,2.06,2.06,0,0,0,.72-1.69,2.1,2.1,0,0,0-.71-1.7,3,3,0,0,0-2-.6Zm9.24,5.58h-1.11v-10.5h1.11Z"/>
      <path class="cls-9" d="M692.17,357.45a5.51,5.51,0,0,1-3.85-9.31,5.23,5.23,0,0,1,3.85-1.54,5.38,5.38,0,0,1,2.94.78v1.14a5.33,5.33,0,0,0-2.92-.88,4.12,4.12,0,0,0-3,1.26,4.63,4.63,0,0,0,0,6.29,4.18,4.18,0,0,0,3.08,1.24,4.78,4.78,0,0,0,3.12-1v1.16A5.27,5.27,0,0,1,692.17,357.45Z"/>
      <path class="cls-9" d="M697.69,357.27h-1.16l4.68-10.56h1l4.7,10.56h-1.17l-1.31-2.89H699Zm4-9.17-2.38,5.29h4.77Z"/>
      <path class="cls-9" d="M710,357.27h-1.09v-10.5H710l3.79,5.08,3.79-5.08h1.08v10.5h-1.09v-8.82L714.1,353h-.67L710,348.45Z"/>
      <path class="cls-9" d="M722.51,357.27h-.93v-10.5h1.09v8.64l6.53-8.64h1v10.5h-1.09V348.6Z"/>
      <path class="cls-9" d="M742.1,357.27h-5v-10.5h4.54a3.31,3.31,0,0,1,2.21.68,2.31,2.31,0,0,1,.81,1.87,2.57,2.57,0,0,1-.37,1.4,2,2,0,0,1-1,.82,2.59,2.59,0,0,1,1.67.92,2.89,2.89,0,0,1,.62,1.89,2.66,2.66,0,0,1-.93,2.13A3.75,3.75,0,0,1,742.1,357.27Zm-3.9-9.5v3.44h3.25a2.44,2.44,0,0,0,1.55-.44,1.51,1.51,0,0,0,.55-1.26,1.57,1.57,0,0,0-.55-1.29,2.39,2.39,0,0,0-1.55-.45Zm0,4.41v4.08h3.71a2.75,2.75,0,0,0,1.82-.54,1.87,1.87,0,0,0,.64-1.51,1.83,1.83,0,0,0-.64-1.49,2.78,2.78,0,0,0-1.82-.53Z"/>
      <path class="cls-9" d="M751.85,357.27H748v-10.5h1.11v3.92h2.76a3.88,3.88,0,0,1,2.76.92,3.08,3.08,0,0,1,1,2.38,3,3,0,0,1-1,2.39A4,4,0,0,1,751.85,357.27Zm-2.76-5.58v4.58h2.69a3.08,3.08,0,0,0,2-.59,2.06,2.06,0,0,0,.72-1.69,2.1,2.1,0,0,0-.71-1.7,3,3,0,0,0-2-.6Zm9.24,5.58h-1.11v-10.5h1.11Z"/>
      <path class="cls-9" d="M765.58,357.27h-4.29v-10.5h7.17v1h-6.06v3h3.18a3.84,3.84,0,0,1,2.73.9,3.33,3.33,0,0,1,0,4.74A4,4,0,0,1,765.58,357.27Zm-3.18-5.52v4.51h3.08a3,3,0,0,0,2-.59,2.3,2.3,0,0,0,0-3.33,3.05,3.05,0,0,0-2-.59Z"/>
      <path class="cls-9" d="M772.67,357.27h-.93v-10.5h1.09v8.64l6.53-8.64h1v10.5h-1.09V348.6Z"/>
      <path class="cls-9" d="M784.4,357.27h-1.11v-10.5h4.41a3.59,3.59,0,0,1,2.46.79,2.68,2.68,0,0,1,.9,2.12,2.74,2.74,0,0,1-.9,2.15,3.57,3.57,0,0,1-2.46.8h-3.3Zm0-9.5v3.86h3.23a2.66,2.66,0,0,0,1.72-.5,1.73,1.73,0,0,0,.62-1.42,1.76,1.76,0,0,0-.61-1.43,2.65,2.65,0,0,0-1.73-.5Z"/>
      <path class="cls-9" d="M792.29,357.27h-1.16l4.68-10.56h1l4.7,10.56h-1.17l-1.31-2.89h-5.5Zm4-9.17-2.38,5.29h4.77Z"/>
      <path class="cls-9" d="M810.89,357.27h-7.42v-10.5h7.2v1h-6.09v3.36h5v1h-5v4.13h6.32Z"/>
      <path class="cls-9" d="M816.84,357.27h-1.11v-9.5h-3.62v-1h8.38v1h-3.66Z"/>
      <path class="cls-9" d="M829.94,357.27h-7.42v-10.5h7.2v1h-6.09v3.36h5v1h-5v4.13h6.32Z"/>
      <path class="cls-9" d="M837.17,357.27h-1.09v-10.5h1.09l3.79,5.08,3.79-5.08h1.08v10.5h-1.09v-8.82L841.31,353h-.67l-3.46-4.59Z"/>
      <path class="cls-9" d="M848.91,357.27h-1.16l4.68-10.56h1l4.7,10.56H857l-1.31-2.89h-5.5Zm4-9.17-2.38,5.29h4.77Z"/>
      <path class="cls-9" d="M871.34,346.77h1.11v10.5H860.09v-10.5h1.11v9.5h4.52v-9.5h1.11v9.5h4.52Z"/>
      <path class="cls-9" d="M876.33,357.27h-.93v-10.5h1.09v8.64l6.53-8.64h1v10.5H882.9V348.6Z"/>
      <path class="cls-9" d="M888.06,357.27H887v-10.5h1.11v4.37h6.24v-4.37h1.11v10.5H894.3v-5.13h-6.24Z"/>
      <path class="cls-9" d="M899.54,357.45a3.5,3.5,0,0,1-1.32-.21v-1a3.11,3.11,0,0,0,1.14.21,1.54,1.54,0,0,0,1.29-.66,5.6,5.6,0,0,0,.42-.63q.11-.18.42-.81l-4.23-7.54h1.23l3.54,6.41,3-6.41h1.19l-3.87,8.28a5.39,5.39,0,0,1-1.27,1.84A2.26,2.26,0,0,1,899.54,357.45Z"/>
      <path class="cls-9" d="M906.63,357.36a.77.77,0,1,1,.56-.22A.76.76,0,0,1,906.63,357.36Z"/>
    </g>
    <g>
      <path class="cls-10" d="M685.58,306v-2h4.84v-4.87h2V304h4.82v2h-4.82v4.92h-2V306Z"/>
      <path class="cls-10" d="M704.5,314.83h1.57a3.67,3.67,0,0,0,.81-1.48,9.48,9.48,0,0,0,.28-2.09l.94-18.53h9.83v22.1h1.86v5.78h-2.67v-3.37h-10v3.37H704.5Zm4.23,0h6.46v-19.6h-4.58l-.83,16a11.06,11.06,0,0,1-.31,2.21A3.46,3.46,0,0,1,708.73,314.83Z"/>
      <path class="cls-10" d="M722,311.33V298.67a6.71,6.71,0,0,1,1.42-4.53,5.2,5.2,0,0,1,4.16-1.64,5.3,5.3,0,0,1,4.21,1.64,6.64,6.64,0,0,1,1.44,4.53v12.66a6.61,6.61,0,0,1-1.44,4.5,5.28,5.28,0,0,1-4.21,1.65,5.19,5.19,0,0,1-4.16-1.65A6.65,6.65,0,0,1,722,311.33Zm2.67.14a4.12,4.12,0,0,0,.73,2.62,2.62,2.62,0,0,0,2.19.92q2.91,0,2.91-3.54v-13a4.16,4.16,0,0,0-.72-2.62,3.06,3.06,0,0,0-4.38,0,4.13,4.13,0,0,0-.73,2.62Z"/>
      <path class="cls-10" d="M742.78,298.24V295.9a5.54,5.54,0,0,0,1.68-.29,3.27,3.27,0,0,0,1.2-.72,4.56,4.56,0,0,0,.77-1,8.69,8.69,0,0,0,.56-1.19h1.88v24.51H746.2V297.13A6.9,6.9,0,0,1,742.78,298.24Z"/>
      <path class="cls-10" d="M752.81,311.3V298.67a6.71,6.71,0,0,1,1.42-4.53,5.2,5.2,0,0,1,4.16-1.64,5.3,5.3,0,0,1,4.21,1.64,6.64,6.64,0,0,1,1.44,4.53V311.3a6.67,6.67,0,0,1-1.44,4.54,5.28,5.28,0,0,1-4.21,1.65,5.19,5.19,0,0,1-4.16-1.65A6.71,6.71,0,0,1,752.81,311.3Zm2.67.17a4.13,4.13,0,0,0,.73,2.61,3.06,3.06,0,0,0,4.38,0,4.16,4.16,0,0,0,.72-2.61v-13q0-3.57-2.91-3.57a2.61,2.61,0,0,0-2.19.93,4.2,4.2,0,0,0-.73,2.64Z"/>
      <path class="cls-10" d="M766.42,311.3V298.67a6.71,6.71,0,0,1,1.42-4.53A5.2,5.2,0,0,1,772,292.5a5.3,5.3,0,0,1,4.21,1.64,6.64,6.64,0,0,1,1.44,4.53V311.3a6.67,6.67,0,0,1-1.44,4.54,5.28,5.28,0,0,1-4.21,1.65,5.19,5.19,0,0,1-4.16-1.65A6.71,6.71,0,0,1,766.42,311.3Zm2.67.17a4.13,4.13,0,0,0,.73,2.61,3.06,3.06,0,0,0,4.38,0,4.16,4.16,0,0,0,.72-2.61v-13q0-3.57-2.91-3.57a2.61,2.61,0,0,0-2.19.93,4.2,4.2,0,0,0-.73,2.64Z"/>
      <path class="cls-10" d="M785.44,311.3V298.67a6.71,6.71,0,0,1,1.42-4.53A5.2,5.2,0,0,1,791,292.5a5.3,5.3,0,0,1,4.21,1.64,6.64,6.64,0,0,1,1.44,4.53V311.3a6.67,6.67,0,0,1-1.44,4.54,5.28,5.28,0,0,1-4.21,1.65,5.19,5.19,0,0,1-4.16-1.65A6.71,6.71,0,0,1,785.44,311.3Zm2.67.17a4.13,4.13,0,0,0,.73,2.61,3.06,3.06,0,0,0,4.38,0,4.16,4.16,0,0,0,.72-2.61v-13q0-3.57-2.91-3.57a2.61,2.61,0,0,0-2.19.93,4.2,4.2,0,0,0-.73,2.64Z"/>
      <path class="cls-10" d="M799,311.3V298.67a6.71,6.71,0,0,1,1.42-4.53,5.2,5.2,0,0,1,4.16-1.64,5.3,5.3,0,0,1,4.21,1.64,6.64,6.64,0,0,1,1.44,4.53V311.3a6.67,6.67,0,0,1-1.44,4.54,5.28,5.28,0,0,1-4.21,1.65,5.19,5.19,0,0,1-4.16-1.65A6.71,6.71,0,0,1,799,311.3Zm2.67.17a4.13,4.13,0,0,0,.73,2.61,3.06,3.06,0,0,0,4.38,0,4.16,4.16,0,0,0,.72-2.61v-13q0-3.57-2.91-3.57a2.61,2.61,0,0,0-2.19.93,4.2,4.2,0,0,0-.73,2.64Z"/>
      <path class="cls-10" d="M812.64,311.3V298.67a6.71,6.71,0,0,1,1.42-4.53,5.2,5.2,0,0,1,4.16-1.64,5.3,5.3,0,0,1,4.21,1.64,6.64,6.64,0,0,1,1.44,4.53V311.3a6.67,6.67,0,0,1-1.44,4.54,5.28,5.28,0,0,1-4.21,1.65,5.19,5.19,0,0,1-4.16-1.65A6.71,6.71,0,0,1,812.64,311.3Zm2.67.17a4.13,4.13,0,0,0,.73,2.61,3.06,3.06,0,0,0,4.38,0,4.16,4.16,0,0,0,.72-2.61v-13q0-3.57-2.91-3.57a2.61,2.61,0,0,0-2.19.93,4.2,4.2,0,0,0-.73,2.64Z"/>
      <path class="cls-10" d="M831.87,317.24V292.74h5.37a5.22,5.22,0,0,1,4.17,1.56,6.57,6.57,0,0,1,1.35,4.44v2.94q0,5.91-5.73,5.91H834.6v9.66Zm2.73-12.12H837a3,3,0,0,0,2.28-.78,3.59,3.59,0,0,0,.73-2.5v-3.26a4,4,0,0,0-.67-2.53,2.59,2.59,0,0,0-2.14-.82H834.6Z"/>
      <path class="cls-10" d="M844.07,292.74h2.73l2.41,8.52,1.74,6.17,1.44-6.17,2.21-8.51h2.84l-5.25,19.12a14.14,14.14,0,0,1-.76,2.44,5.58,5.58,0,0,1-1.15,1.7,4,4,0,0,1-1.86,1,9.44,9.44,0,0,1-2.77.23v-2.44a3.89,3.89,0,0,0,2.37-.48,3.16,3.16,0,0,0,1.14-1.95l.57-1.61Z"/>
      <path class="cls-10" d="M859.47,317.24V292.74h10.32v2.5h-7.59v7.62h2.87q5.77,0,5.77,5.74v2.7q0,5.95-5.65,5.95Zm2.73-2.48h3a2.78,2.78,0,0,0,2.2-.79,3.73,3.73,0,0,0,.7-2.5v-3a2.61,2.61,0,0,0-3-3.11h-2.86Z"/>
      <path class="cls-10" d="M873.47,317.24v-3.4h2.67v3.4Z"/>
    </g>
    <g>
      <path class="cls-8" d="M669.62,389.4a4.79,4.79,0,0,1-2.94-.85v-1.09a4.47,4.47,0,0,0,2.94,1,3.75,3.75,0,0,0,2.67-1,4,4,0,0,0,1.22-2.69h-4.59v-.94h4.55a3.81,3.81,0,0,0-1.23-2.53,3.69,3.69,0,0,0-2.59-1,5,5,0,0,0-2.74.83V380a5,5,0,0,1,2.72-.73,4.8,4.8,0,0,1,3.57,1.46,5.07,5.07,0,0,1-3.57,8.68Z"/>
      <path class="cls-8" d="M679.45,389.23h-1v-5.88H676v-.88h5.91v.88h-2.45Z"/>
      <path class="cls-8" d="M683.8,383.35a3.83,3.83,0,0,1,5.26,0,3.58,3.58,0,0,1,0,5,3.86,3.86,0,0,1-5.26,0,3.58,3.58,0,0,1,0-5Zm5.25,2.51a2.62,2.62,0,0,0-.74-1.89,2.49,2.49,0,0,0-1.88-.76,2.52,2.52,0,0,0-1.88.76,2.76,2.76,0,0,0,0,3.77,2.52,2.52,0,0,0,1.88.76,2.49,2.49,0,0,0,1.88-.76A2.6,2.6,0,0,0,689.05,385.86Z"/>
      <path class="cls-8" d="M697.82,389.4a6,6,0,0,1-2.49-.46v-1a5.5,5.5,0,0,0,2.37.53,3.38,3.38,0,0,0,1.63-.33,1,1,0,0,0,.6-.92.92.92,0,0,0-.49-.83,2.62,2.62,0,0,0-1.34-.29h-1.18v-.88h1.18a2.14,2.14,0,0,0,1.18-.27.82.82,0,0,0,.4-.71q0-1.05-1.9-1a5.65,5.65,0,0,0-2.23.46v-.94a5.92,5.92,0,0,1,2.42-.43,3.61,3.61,0,0,1,1.95.49,1.47,1.47,0,0,1,.78,1.29,1.65,1.65,0,0,1-.32,1,2,2,0,0,1-.77.54,1.71,1.71,0,0,1,1.37,1.71,1.75,1.75,0,0,1-.86,1.51A4.07,4.07,0,0,1,697.82,389.4Z"/>
      <path class="cls-8" d="M704,389.23h-1v-6.76h1v2.84h4.16v-2.84h1v6.76h-1v-3H704Z"/>
      <path class="cls-8" d="M713.55,389.4a2.9,2.9,0,0,1-1.83-.59,2,2,0,0,1-.74-1.65,2,2,0,0,1,.78-1.64,3.17,3.17,0,0,1,2-.6,4.73,4.73,0,0,1,2.44.66v-.67q0-1.69-2.23-1.69a3.89,3.89,0,0,0-2.21.69v-1a4.52,4.52,0,0,1,2.42-.62,3.45,3.45,0,0,1,2.21.65,2.23,2.23,0,0,1,.82,1.86v2.79a1,1,0,0,0,.17.62.57.57,0,0,0,.47.22.87.87,0,0,0,.39-.08v.78a1.2,1.2,0,0,1-.67.15,1.32,1.32,0,0,1-.85-.27,1.23,1.23,0,0,1-.43-.81A3.42,3.42,0,0,1,713.55,389.4Zm.28-.91a2.88,2.88,0,0,0,1.33-.32,3.07,3.07,0,0,0,1-.81v-.94a4,4,0,0,0-2.2-.67,2.58,2.58,0,0,0-1.46.36,1.14,1.14,0,0,0-.54,1,1.18,1.18,0,0,0,.52,1A2.26,2.26,0,0,0,713.83,388.49Z"/>
      <path class="cls-8" d="M725.26,389.23h-1v-2.7a5.23,5.23,0,0,1-2.09.42,2.38,2.38,0,0,1-2.74-2.79v-1.69h1v1.61a1.63,1.63,0,0,0,1.93,2,4.05,4.05,0,0,0,1.89-.45v-3.12h1Z"/>
      <path class="cls-8" d="M728.57,389.23h-.94v-6.76h1v5.28l4.33-5.28h.94v6.76h-1V384Z"/>
      <path class="cls-8" d="M738.92,389.23h-1v-5.88h-2.45v-.88h5.91v.88h-2.45Z"/>
      <path class="cls-8" d="M741.92,391.36h-.81l1.12-3.57h1.18Z"/>
      <path class="cls-8" d="M754,389.23h-4.68v-9.8h4.24a3.09,3.09,0,0,1,2.06.64,2.16,2.16,0,0,1,.76,1.74,2.4,2.4,0,0,1-.34,1.3,1.85,1.85,0,0,1-.94.77,2.41,2.41,0,0,1,1.55.85,2.69,2.69,0,0,1,.57,1.76,2.48,2.48,0,0,1-.87,2A3.5,3.5,0,0,1,754,389.23Zm-3.64-8.86v3.21h3a2.28,2.28,0,0,0,1.45-.41,1.41,1.41,0,0,0,.51-1.18,1.47,1.47,0,0,0-.51-1.2,2.23,2.23,0,0,0-1.45-.42Zm0,4.12v3.81h3.46a2.57,2.57,0,0,0,1.69-.5,1.74,1.74,0,0,0,.6-1.41,1.71,1.71,0,0,0-.6-1.39,2.59,2.59,0,0,0-1.69-.5Z"/>
      <path class="cls-8" d="M762.31,389.23h-3.07v-6.76h1v2.27h2a2.76,2.76,0,0,1,1.88.61,2.05,2.05,0,0,1,.7,1.63,2.11,2.11,0,0,1-.67,1.64A2.65,2.65,0,0,1,762.31,389.23Zm-2.06-3.61v2.73h1.88a2,2,0,0,0,1.25-.36,1.21,1.21,0,0,0,.45-1,1.22,1.22,0,0,0-.45-1,2,2,0,0,0-1.25-.36Zm6.72,3.61h-1v-6.76h1Z"/>
      <path class="cls-8" d="M776.85,389.23h-3.79v-6.76h3.56a2.22,2.22,0,0,1,1.5.47,1.58,1.58,0,0,1,.54,1.25,1.48,1.48,0,0,1-.84,1.48,1.81,1.81,0,0,1,.7,3.07A2.56,2.56,0,0,1,776.85,389.23Zm-2.79-5.88v2h2.27a1.62,1.62,0,0,0,1-.26.86.86,0,0,0,.35-.73q0-1-1.33-1Zm0,2.83v2.17h2.58a1.76,1.76,0,0,0,1.06-.28.93.93,0,0,0,.38-.8,1,1,0,0,0-.38-.8,1.73,1.73,0,0,0-1.06-.29Z"/>
      <path class="cls-8" d="M784.2,389.23h-3.07v-6.76h1v2.27h2a2.76,2.76,0,0,1,1.88.61,2.05,2.05,0,0,1,.7,1.63,2.11,2.11,0,0,1-.67,1.64A2.65,2.65,0,0,1,784.2,389.23Zm-2.06-3.61v2.73H784a2,2,0,0,0,1.25-.36,1.21,1.21,0,0,0,.45-1,1.22,1.22,0,0,0-.45-1,2,2,0,0,0-1.25-.36Zm6.72,3.61h-1v-6.76h1Z"/>
      <path class="cls-8" d="M794.54,389.4a3.27,3.27,0,0,1-2.7-1.2,6.18,6.18,0,0,1,.39-7.18,5,5,0,0,1,1.61-.92,10.17,10.17,0,0,1,1-.31q.52-.14,1.11-.27l.62-.13.62-.11v.94q-1.44.28-2.23.46a4.52,4.52,0,0,0-2.31,1.16,3.71,3.71,0,0,0-.84,2.51A3,3,0,0,1,793,383.2a3.74,3.74,0,0,1,1.79-.42,3.06,3.06,0,0,1,3.12,3.16,3.33,3.33,0,0,1-3.4,3.46Zm0-.91a2.29,2.29,0,0,0,1.68-.69,2.43,2.43,0,0,0,.7-1.79,2.19,2.19,0,0,0-.67-1.68,2.27,2.27,0,0,0-1.65-.64,2.66,2.66,0,0,0-1.64.55,3,3,0,0,0-1,1.26,3.54,3.54,0,0,0,.75,2.21A2.36,2.36,0,0,0,794.54,388.49Z"/>
      <path class="cls-8" d="M800.76,389.23h-.94v-6.76h1v5.28l4.33-5.28h.94v6.76h-1V384Z"/>
      <path class="cls-8" d="M809.48,388.15V392h-1v-9.56h1v1.08a3.11,3.11,0,0,1,2.62-1.25,3.17,3.17,0,0,1,2.45,1,3.79,3.79,0,0,1,0,5,3.17,3.17,0,0,1-2.45,1A3.11,3.11,0,0,1,809.48,388.15Zm0-3.42V387a2.47,2.47,0,0,0,1,1.1,2.57,2.57,0,0,0,1.43.43,2.47,2.47,0,0,0,1.86-.76,2.65,2.65,0,0,0,.74-1.89,2.6,2.6,0,0,0-.74-1.88,2.47,2.47,0,0,0-1.86-.76,2.68,2.68,0,0,0-2.38,1.53Z"/>
      <path class="cls-8" d="M819.38,389.4a2.9,2.9,0,0,1-1.83-.59,2,2,0,0,1-.74-1.65,2,2,0,0,1,.78-1.64,3.17,3.17,0,0,1,2-.6,4.73,4.73,0,0,1,2.44.66v-.67q0-1.69-2.23-1.69a3.89,3.89,0,0,0-2.21.69v-1a4.52,4.52,0,0,1,2.42-.62,3.45,3.45,0,0,1,2.21.65,2.23,2.23,0,0,1,.82,1.86v2.79a1,1,0,0,0,.17.62.57.57,0,0,0,.47.22.87.87,0,0,0,.39-.08v.78a1.2,1.2,0,0,1-.67.15,1.32,1.32,0,0,1-.85-.27,1.23,1.23,0,0,1-.43-.81A3.42,3.42,0,0,1,819.38,389.4Zm.28-.91a2.88,2.88,0,0,0,1.33-.32,3.07,3.07,0,0,0,1-.81v-.94a4,4,0,0,0-2.2-.67,2.58,2.58,0,0,0-1.46.36,1.14,1.14,0,0,0-.54,1,1.18,1.18,0,0,0,.52,1A2.26,2.26,0,0,0,819.66,388.49Z"/>
      <path class="cls-8" d="M828.93,389.4a3.78,3.78,0,0,1-2.66-1,3.3,3.3,0,0,1-1.06-2.55,3.58,3.58,0,0,1,1-2.53,3.26,3.26,0,0,1,2.48-1,3.07,3.07,0,0,1,1.44.33,2.68,2.68,0,0,1,1,.86,4.17,4.17,0,0,1,.55,1.13,4.09,4.09,0,0,1,.18,1.2v.28h-5.56a2.4,2.4,0,0,0,.88,1.74,3.06,3.06,0,0,0,2,.65,4,4,0,0,0,2.17-.63v.9A3.78,3.78,0,0,1,828.93,389.4Zm-2.67-4.13h4.52a2.3,2.3,0,0,0-.59-1.41,1.92,1.92,0,0,0-1.6-.64,2.3,2.3,0,0,0-1.65.62A2.21,2.21,0,0,0,826.25,385.27Z"/>
      <path class="cls-8" d="M836.14,389.23h-1v-5.88h-2.45v-.88h5.91v.88h-2.45Z"/>
      <path class="cls-8" d="M843.19,389.4a3.78,3.78,0,0,1-2.66-1,3.3,3.3,0,0,1-1.06-2.55,3.58,3.58,0,0,1,1-2.53,3.26,3.26,0,0,1,2.48-1,3.07,3.07,0,0,1,1.44.33,2.68,2.68,0,0,1,1,.86,4.17,4.17,0,0,1,.55,1.13,4.09,4.09,0,0,1,.18,1.2v.28H840.5a2.4,2.4,0,0,0,.88,1.74,3.06,3.06,0,0,0,2,.65,4,4,0,0,0,2.17-.63v.9A3.78,3.78,0,0,1,843.19,389.4Zm-2.67-4.13H845a2.3,2.3,0,0,0-.59-1.41,1.92,1.92,0,0,0-1.6-.64,2.3,2.3,0,0,0-1.65.62A2.21,2.21,0,0,0,840.52,385.27Z"/>
      <path class="cls-8" d="M850.75,389.23v-.92H851q.88,0,1.2-1.12a11.19,11.19,0,0,0,.34-2.58l.06-2.16h5.05v6.76h-1v-5.88h-3.08l0,1.3q0,.76-.06,1.09a7,7,0,0,1-.41,2,2.55,2.55,0,0,1-.77,1.1,1.75,1.75,0,0,1-1.26.38Z"/>
      <path class="cls-8" d="M866,389.4a3.16,3.16,0,0,1-2.27-.88,3.42,3.42,0,0,1-1-2.24h-1.67v3h-1v-6.76h1v2.9h1.68a3.3,3.3,0,0,1,1-2.2,3.2,3.2,0,0,1,2.25-.87,3.14,3.14,0,0,1,2.42,1,3.79,3.79,0,0,1,0,5.05A3.14,3.14,0,0,1,866,389.4Zm0-.91a2.2,2.2,0,0,0,1.72-.76,3,3,0,0,0,0-3.77,2.32,2.32,0,0,0-3.43,0,3,3,0,0,0,0,3.77A2.19,2.19,0,0,0,866,388.49Z"/>
      <path class="cls-8" d="M874.61,389.4a3.27,3.27,0,0,1-2.7-1.2,6.18,6.18,0,0,1,.39-7.18,5,5,0,0,1,1.61-.92,10.17,10.17,0,0,1,1-.31q.52-.14,1.11-.27l.62-.13.62-.11v.94q-1.44.28-2.23.46a4.52,4.52,0,0,0-2.31,1.16,3.71,3.71,0,0,0-.84,2.51,3,3,0,0,1,1.21-1.15,3.74,3.74,0,0,1,1.79-.42,3.06,3.06,0,0,1,3.12,3.16,3.33,3.33,0,0,1-3.4,3.46Zm0-.91a2.29,2.29,0,0,0,1.68-.69A2.43,2.43,0,0,0,877,386a2.19,2.19,0,0,0-.67-1.68,2.27,2.27,0,0,0-1.65-.64,2.66,2.66,0,0,0-1.64.55,3,3,0,0,0-1,1.26,3.54,3.54,0,0,0,.75,2.21A2.36,2.36,0,0,0,874.61,388.49Z"/>
      <path class="cls-8" d="M880.42,383.35a3.83,3.83,0,0,1,5.26,0,3.58,3.58,0,0,1,0,5,3.86,3.86,0,0,1-5.26,0,3.58,3.58,0,0,1,0-5Zm5.25,2.51a2.62,2.62,0,0,0-.74-1.89,2.49,2.49,0,0,0-1.88-.76,2.52,2.52,0,0,0-1.88.76,2.76,2.76,0,0,0,0,3.77,2.52,2.52,0,0,0,1.88.76,2.49,2.49,0,0,0,1.88-.76A2.6,2.6,0,0,0,885.67,385.86Z"/>
      <path class="cls-8" d="M889.52,389.23h-.94v-6.76h1v5.28l4.33-5.28h.94v6.76h-1V384Zm2.21-7.91a2.34,2.34,0,0,1-1.65-.58,2,2,0,0,1-.64-1.55h.9a1.26,1.26,0,0,0,.38,1,1.39,1.39,0,0,0,1,.36,1.37,1.37,0,0,0,1-.36,1.31,1.31,0,0,0,.39-1H894a2,2,0,0,1-.64,1.54A2.27,2.27,0,0,1,891.73,381.32Z"/>
      <path class="cls-8" d="M685.08,408.4a2.9,2.9,0,0,1-1.83-.59,2,2,0,0,1-.74-1.65,2,2,0,0,1,.78-1.64,3.17,3.17,0,0,1,2-.6,4.73,4.73,0,0,1,2.44.66v-.67q0-1.69-2.23-1.69a3.89,3.89,0,0,0-2.21.69v-1a4.52,4.52,0,0,1,2.42-.62,3.45,3.45,0,0,1,2.21.65,2.23,2.23,0,0,1,.82,1.86v2.79a1,1,0,0,0,.17.62.57.57,0,0,0,.47.22.87.87,0,0,0,.39-.08v.78a1.2,1.2,0,0,1-.67.15,1.32,1.32,0,0,1-.85-.27,1.23,1.23,0,0,1-.43-.81A3.42,3.42,0,0,1,685.08,408.4Zm.28-.91a2.88,2.88,0,0,0,1.33-.32,3.07,3.07,0,0,0,1-.81v-.94a4,4,0,0,0-2.2-.67,2.58,2.58,0,0,0-1.46.36,1.14,1.14,0,0,0-.54,1,1.18,1.18,0,0,0,.52,1A2.26,2.26,0,0,0,685.36,407.49Z"/>
      <path class="cls-8" d="M695.19,408.23h-3.79v-6.76h3.56a2.22,2.22,0,0,1,1.5.47,1.58,1.58,0,0,1,.54,1.25,1.48,1.48,0,0,1-.84,1.48,1.81,1.81,0,0,1,.7,3.07A2.56,2.56,0,0,1,695.19,408.23Zm-2.79-5.88v2h2.27a1.62,1.62,0,0,0,1-.26.86.86,0,0,0,.35-.73q0-1-1.33-1Zm0,2.83v2.17H695a1.76,1.76,0,0,0,1.06-.28.93.93,0,0,0,.38-.8,1,1,0,0,0-.38-.8,1.73,1.73,0,0,0-1.06-.29Z"/>
      <path class="cls-8" d="M701.79,408.23h-1v-5.88h-2.45v-.88h5.91v.88h-2.45Z"/>
      <path class="cls-8" d="M706.15,402.35a3.83,3.83,0,0,1,5.26,0,3.58,3.58,0,0,1,0,5,3.86,3.86,0,0,1-5.26,0,3.58,3.58,0,0,1,0-5Zm5.25,2.51a2.62,2.62,0,0,0-.74-1.89,2.49,2.49,0,0,0-1.88-.76,2.52,2.52,0,0,0-1.88.76,2.76,2.76,0,0,0,0,3.77,2.52,2.52,0,0,0,1.88.76,2.49,2.49,0,0,0,1.88-.76A2.6,2.6,0,0,0,711.4,404.86Z"/>
      <path class="cls-8" d="M715.29,408.23h-1v-6.76h1l2.7,3.14,2.72-3.14h1v6.76h-1v-5.38l-2.52,2.93h-.39l-2.51-2.93Z"/>
      <path class="cls-8" d="M724.6,402.35a3.83,3.83,0,0,1,5.26,0,3.58,3.58,0,0,1,0,5,3.86,3.86,0,0,1-5.26,0,3.58,3.58,0,0,1,0-5Zm5.25,2.51a2.62,2.62,0,0,0-.74-1.89,2.49,2.49,0,0,0-1.88-.76,2.52,2.52,0,0,0-1.88.76,2.76,2.76,0,0,0,0,3.77,2.52,2.52,0,0,0,1.88.76,2.49,2.49,0,0,0,1.88-.76A2.6,2.6,0,0,0,729.85,404.86Z"/>
      <path class="cls-8" d="M736.06,408.4a3.27,3.27,0,0,1-2.7-1.2,6.18,6.18,0,0,1,.39-7.18,5,5,0,0,1,1.61-.92,10.17,10.17,0,0,1,1-.31q.52-.14,1.11-.27l.62-.13.62-.11v.94q-1.44.28-2.23.46a4.52,4.52,0,0,0-2.31,1.16,3.71,3.71,0,0,0-.84,2.51,3,3,0,0,1,1.21-1.15,3.74,3.74,0,0,1,1.79-.42,3.06,3.06,0,0,1,3.12,3.16,3.33,3.33,0,0,1-3.4,3.46Zm0-.91a2.29,2.29,0,0,0,1.68-.69,2.43,2.43,0,0,0,.7-1.79,2.19,2.19,0,0,0-.67-1.68,2.27,2.27,0,0,0-1.65-.64,2.66,2.66,0,0,0-1.64.55,3,3,0,0,0-1,1.26,3.54,3.54,0,0,0,.75,2.21A2.36,2.36,0,0,0,736.06,407.49Z"/>
      <path class="cls-8" d="M742.28,408.23h-.94v-6.76h1v5.28l4.33-5.28h.94v6.76h-1V403Z"/>
      <path class="cls-8" d="M749.1,408.23v-.92h.27q.88,0,1.2-1.12a11.19,11.19,0,0,0,.34-2.58l.06-2.16H756v6.76h-1v-5.88h-3.08l0,1.3q0,.76-.06,1.09a7,7,0,0,1-.41,2,2.55,2.55,0,0,1-.77,1.1,1.75,1.75,0,0,1-1.26.38Z"/>
      <path class="cls-8" d="M761.81,408.23h-3.42v-6.76h1v2.27h2.37a2.76,2.76,0,0,1,1.88.61,2.05,2.05,0,0,1,.7,1.63,2.11,2.11,0,0,1-.67,1.64A2.65,2.65,0,0,1,761.81,408.23Zm-2.41-3.61v2.73h2.23a2,2,0,0,0,1.25-.36,1.21,1.21,0,0,0,.45-1,1.22,1.22,0,0,0-.45-1,2,2,0,0,0-1.25-.36Z"/>
      <path class="cls-8" d="M773,408.4a3.55,3.55,0,0,1-2.58-1,3.46,3.46,0,0,1-1-2.55,3.37,3.37,0,0,1,1-2.52,3.49,3.49,0,0,1,2.58-1,4.1,4.1,0,0,1,2,.49v.94a3.8,3.8,0,0,0-1.9-.52,2.66,2.66,0,0,0-1.95.76,2.48,2.48,0,0,0-.77,1.89,2.54,2.54,0,0,0,.77,1.89,2.72,2.72,0,0,0,1.95.74,3.67,3.67,0,0,0,2-.59v.92A4.15,4.15,0,0,1,773,408.4Z"/>
      <path class="cls-8" d="M782,407.15V411h-1v-9.56h1v1.08a3.11,3.11,0,0,1,2.62-1.25,3.17,3.17,0,0,1,2.45,1,3.79,3.79,0,0,1,0,5,3.17,3.17,0,0,1-2.45,1A3.11,3.11,0,0,1,782,407.15Zm0-3.42V406a2.47,2.47,0,0,0,1,1.1,2.57,2.57,0,0,0,1.43.43,2.47,2.47,0,0,0,1.86-.76,2.65,2.65,0,0,0,.74-1.89,2.6,2.6,0,0,0-.74-1.88,2.47,2.47,0,0,0-1.86-.76,2.68,2.68,0,0,0-2.38,1.53Z"/>
      <path class="cls-8" d="M792.93,408.23h-3.07v-6.76h1v2.27h2a2.76,2.76,0,0,1,1.88.61,2.05,2.05,0,0,1,.7,1.63,2.11,2.11,0,0,1-.67,1.64A2.65,2.65,0,0,1,792.93,408.23Zm-2.06-3.61v2.73h1.88A2,2,0,0,0,794,407a1.21,1.21,0,0,0,.45-1,1.22,1.22,0,0,0-.45-1,2,2,0,0,0-1.25-.36Zm6.72,3.61h-1v-6.76h1Z"/>
      <path class="cls-8" d="M801,408.23h-1v-6.76h1v2.84h4.16v-2.84h1v6.76h-1v-3H801Z"/>
      <path class="cls-8" d="M808.53,401.47h1v2.79l3.22-2.79h1.37l-3.57,3.05,4.07,3.71h-1.44l-3.65-3.33v3.33h-1Z"/>
      <path class="cls-8" d="M818,408.4a2.9,2.9,0,0,1-1.83-.59,2,2,0,0,1-.74-1.65,2,2,0,0,1,.78-1.64,3.17,3.17,0,0,1,2-.6,4.73,4.73,0,0,1,2.44.66v-.67q0-1.69-2.23-1.69a3.89,3.89,0,0,0-2.21.69v-1a4.52,4.52,0,0,1,2.42-.62,3.45,3.45,0,0,1,2.21.65,2.23,2.23,0,0,1,.82,1.86v2.79a1,1,0,0,0,.17.62.57.57,0,0,0,.47.22.87.87,0,0,0,.39-.08v.78a1.2,1.2,0,0,1-.67.15,1.32,1.32,0,0,1-.85-.27,1.23,1.23,0,0,1-.43-.81A3.42,3.42,0,0,1,818,408.4Zm.28-.91a2.88,2.88,0,0,0,1.33-.32,3.07,3.07,0,0,0,1-.81v-.94a4,4,0,0,0-2.2-.67,2.58,2.58,0,0,0-1.46.36,1.14,1.14,0,0,0-.54,1,1.18,1.18,0,0,0,.52,1A2.26,2.26,0,0,0,818.24,407.49Z"/>
      <path class="cls-8" d="M824.11,410.36h-.81l1.12-3.57h1.18Z"/>
      <path class="cls-8" d="M836.78,408.23h-1v-2.7a5.23,5.23,0,0,1-2.09.42,2.38,2.38,0,0,1-2.74-2.79v-1.69h1v1.61a1.63,1.63,0,0,0,1.93,2,4.05,4.05,0,0,0,1.89-.45v-3.12h1Z"/>
      <path class="cls-8" d="M841.79,408.23h-1v-5.88h-2.45v-.88h5.91v.88h-2.45Z"/>
      <path class="cls-8" d="M846.14,402.35a3.83,3.83,0,0,1,5.26,0,3.58,3.58,0,0,1,0,5,3.86,3.86,0,0,1-5.26,0,3.58,3.58,0,0,1,0-5Zm5.25,2.51a2.62,2.62,0,0,0-.74-1.89,2.49,2.49,0,0,0-1.88-.76,2.52,2.52,0,0,0-1.88.76,2.76,2.76,0,0,0,0,3.77,2.52,2.52,0,0,0,1.88.76,2.49,2.49,0,0,0,1.88-.76A2.6,2.6,0,0,0,851.39,404.86Z"/>
      <path class="cls-8" d="M858,401.47h1v2.79l3.22-2.79h1.37L860,404.52l4.07,3.71h-1.44L859,404.9v3.33h-1Z"/>
      <path class="cls-8" d="M867.44,408.4a2.9,2.9,0,0,1-1.83-.59,2,2,0,0,1-.74-1.65,2,2,0,0,1,.78-1.64,3.17,3.17,0,0,1,2-.6,4.73,4.73,0,0,1,2.44.66v-.67q0-1.69-2.23-1.69a3.89,3.89,0,0,0-2.21.69v-1a4.52,4.52,0,0,1,2.42-.62,3.45,3.45,0,0,1,2.21.65,2.23,2.23,0,0,1,.82,1.86v2.79a1,1,0,0,0,.17.62.57.57,0,0,0,.47.22.87.87,0,0,0,.39-.08v.78a1.2,1.2,0,0,1-.67.15,1.32,1.32,0,0,1-.85-.27,1.23,1.23,0,0,1-.43-.81A3.42,3.42,0,0,1,867.44,408.4Zm.28-.91a2.88,2.88,0,0,0,1.33-.32,3.07,3.07,0,0,0,1-.81v-.94a4,4,0,0,0-2.2-.67,2.58,2.58,0,0,0-1.46.36,1.14,1.14,0,0,0-.54,1,1.18,1.18,0,0,0,.52,1A2.26,2.26,0,0,0,867.72,407.49Z"/>
      <path class="cls-8" d="M873.75,401.47h1v2.79l3.22-2.79h1.37l-3.57,3.05,4.07,3.71h-1.44l-3.65-3.33v3.33h-1Z"/>
      <path class="cls-8" d="M682,427.23h-1v-6.76h6.08v6.76h-1v-5.88H682Z"/>
      <path class="cls-8" d="M690.5,426.15V430h-1v-9.56h1v1.08a3.11,3.11,0,0,1,2.62-1.25,3.17,3.17,0,0,1,2.45,1,3.79,3.79,0,0,1,0,5,3.17,3.17,0,0,1-2.45,1A3.11,3.11,0,0,1,690.5,426.15Zm0-3.42V425a2.47,2.47,0,0,0,1,1.1,2.57,2.57,0,0,0,1.43.43,2.47,2.47,0,0,0,1.86-.76,2.65,2.65,0,0,0,.74-1.89,2.6,2.6,0,0,0-.74-1.88,2.47,2.47,0,0,0-1.86-.76,2.68,2.68,0,0,0-2.38,1.53Z"/>
      <path class="cls-8" d="M700.4,427.4a2.9,2.9,0,0,1-1.83-.59,2,2,0,0,1-.74-1.65,2,2,0,0,1,.78-1.64,3.17,3.17,0,0,1,2-.6,4.73,4.73,0,0,1,2.44.66v-.67q0-1.69-2.23-1.69a3.89,3.89,0,0,0-2.21.69v-1a4.52,4.52,0,0,1,2.42-.62,3.45,3.45,0,0,1,2.21.65,2.23,2.23,0,0,1,.82,1.86v2.79a1,1,0,0,0,.17.62.57.57,0,0,0,.47.22.87.87,0,0,0,.39-.08v.78a1.2,1.2,0,0,1-.67.15,1.32,1.32,0,0,1-.85-.27,1.23,1.23,0,0,1-.43-.81A3.42,3.42,0,0,1,700.4,427.4Zm.28-.91a2.88,2.88,0,0,0,1.33-.32,3.07,3.07,0,0,0,1-.81v-.94a4,4,0,0,0-2.2-.67,2.58,2.58,0,0,0-1.46.36,1.14,1.14,0,0,0-.54,1,1.18,1.18,0,0,0,.52,1A2.26,2.26,0,0,0,700.68,426.49Z"/>
      <path class="cls-8" d="M710.51,427.23h-3.79v-6.76h3.56a2.22,2.22,0,0,1,1.5.47,1.58,1.58,0,0,1,.54,1.25,1.48,1.48,0,0,1-.84,1.48,1.81,1.81,0,0,1,.7,3.07A2.56,2.56,0,0,1,710.51,427.23Zm-2.79-5.88v2H710a1.62,1.62,0,0,0,1-.26.86.86,0,0,0,.35-.73q0-1-1.33-1Zm0,2.83v2.17h2.58a1.76,1.76,0,0,0,1.06-.28.93.93,0,0,0,.38-.8,1,1,0,0,0-.38-.8,1.73,1.73,0,0,0-1.06-.29Z"/>
      <path class="cls-8" d="M715.73,427.23h-.94v-6.76h1v5.28l4.33-5.28h.94v6.76h-1V422Z"/>
      <path class="cls-8" d="M722.55,427.23v-.92h.27q.88,0,1.2-1.12a11.19,11.19,0,0,0,.34-2.58l.06-2.16h5.05v6.76h-1v-5.88h-3.08l0,1.3q0,.76-.06,1.09a7,7,0,0,1-.41,2,2.55,2.55,0,0,1-.77,1.1,1.75,1.75,0,0,1-1.26.38Z"/>
      <path class="cls-8" d="M732.38,421.35a3.83,3.83,0,0,1,5.26,0,3.58,3.58,0,0,1,0,5,3.86,3.86,0,0,1-5.26,0,3.58,3.58,0,0,1,0-5Zm5.25,2.51a2.62,2.62,0,0,0-.74-1.89,2.49,2.49,0,0,0-1.88-.76,2.52,2.52,0,0,0-1.88.76,2.76,2.76,0,0,0,0,3.77,2.52,2.52,0,0,0,1.88.76,2.49,2.49,0,0,0,1.88-.76A2.6,2.6,0,0,0,737.63,423.86Z"/>
      <path class="cls-8" d="M744.32,429.23h-1v-2.88h.85q1.12-1.48,1.15-4.93v-1h5v5.88h1.26v2.88h-1v-2h-6.36Zm1-2.88h4.06v-5h-3.08v.41A8.75,8.75,0,0,1,745.33,426.35Z"/>
      <path class="cls-8" d="M756.54,427.4a3.78,3.78,0,0,1-2.66-1,3.3,3.3,0,0,1-1.06-2.55,3.58,3.58,0,0,1,1-2.53,3.26,3.26,0,0,1,2.48-1,3.07,3.07,0,0,1,1.44.33,2.68,2.68,0,0,1,1,.86,4.17,4.17,0,0,1,.55,1.13,4.09,4.09,0,0,1,.18,1.2v.28h-5.56a2.4,2.4,0,0,0,.88,1.74,3.06,3.06,0,0,0,2,.65,4,4,0,0,0,2.17-.63v.9A3.78,3.78,0,0,1,756.54,427.4Zm-2.67-4.13h4.52a2.3,2.3,0,0,0-.59-1.41,1.92,1.92,0,0,0-1.6-.64,2.3,2.3,0,0,0-1.65.62A2.21,2.21,0,0,0,753.87,423.27Z"/>
      <path class="cls-8" d="M770.5,427.23h-9.2v-6.76h1v5.88h3.08v-5.88h1v5.88h3.09v-5.88h1Z"/>
      <path class="cls-8" d="M776.11,427.4a3.78,3.78,0,0,1-2.66-1,3.3,3.3,0,0,1-1.06-2.55,3.58,3.58,0,0,1,1-2.53,3.26,3.26,0,0,1,2.48-1,3.07,3.07,0,0,1,1.44.33,2.68,2.68,0,0,1,1,.86,4.17,4.17,0,0,1,.55,1.13,4.09,4.09,0,0,1,.18,1.2v.28h-5.56a2.4,2.4,0,0,0,.88,1.74,3.06,3.06,0,0,0,2,.65,4,4,0,0,0,2.17-.63v.9A3.78,3.78,0,0,1,776.11,427.4Zm-2.67-4.13H778a2.3,2.3,0,0,0-.59-1.41,1.92,1.92,0,0,0-1.6-.64,2.3,2.3,0,0,0-1.65.62A2.21,2.21,0,0,0,773.44,423.27Z"/>
      <path class="cls-8" d="M784.67,427.23h-3.79v-6.76h3.56a2.22,2.22,0,0,1,1.5.47,1.58,1.58,0,0,1,.54,1.25,1.48,1.48,0,0,1-.84,1.48,1.81,1.81,0,0,1,.7,3.07A2.56,2.56,0,0,1,784.67,427.23Zm-2.79-5.88v2h2.27a1.62,1.62,0,0,0,1-.26.86.86,0,0,0,.35-.73q0-1-1.33-1Zm0,2.83v2.17h2.58a1.76,1.76,0,0,0,1.06-.28.93.93,0,0,0,.38-.8,1,1,0,0,0-.38-.8,1.73,1.73,0,0,0-1.06-.29Z"/>
      <path class="cls-8" d="M788,427.23v-.92h.27q.88,0,1.2-1.12a11.19,11.19,0,0,0,.34-2.58l.06-2.16h5.05v6.76h-1v-5.88h-3.08l0,1.3q0,.76-.06,1.09a7,7,0,0,1-.41,2,2.55,2.55,0,0,1-.77,1.1,1.75,1.75,0,0,1-1.26.38Z"/>
      <path class="cls-8" d="M800.49,427.4a3.78,3.78,0,0,1-2.66-1,3.3,3.3,0,0,1-1.06-2.55,3.58,3.58,0,0,1,1-2.53,3.26,3.26,0,0,1,2.48-1,3.07,3.07,0,0,1,1.44.33,2.68,2.68,0,0,1,1,.86,4.17,4.17,0,0,1,.55,1.13,4.09,4.09,0,0,1,.18,1.2v.28H797.8a2.4,2.4,0,0,0,.88,1.74,3.06,3.06,0,0,0,2,.65,4,4,0,0,0,2.17-.63v.9A3.78,3.78,0,0,1,800.49,427.4Zm-2.67-4.13h4.52a2.3,2.3,0,0,0-.59-1.41,1.92,1.92,0,0,0-1.6-.64,2.3,2.3,0,0,0-1.65.62A2.21,2.21,0,0,0,797.81,423.27Z"/>
      <path class="cls-8" d="M809,429.23h-1v-2.88h.85q1.12-1.48,1.15-4.93v-1h5v5.88h1.26v2.88h-1v-2H809Zm1-2.88h4.06v-5H811v.41A8.75,8.75,0,0,1,810,426.35Z"/>
      <path class="cls-8" d="M819,427.23H818v-6.76h1v5.28l4.33-5.28h.94v6.76h-1V422Z"/>
      <path class="cls-8" d="M825.77,427.23v-.92H826q.88,0,1.2-1.12a11.19,11.19,0,0,0,.34-2.58l.06-2.16h5.05v6.76h-1v-5.88H828.6l0,1.3q0,.76-.06,1.09a7,7,0,0,1-.41,2,2.55,2.55,0,0,1-.77,1.1,1.75,1.75,0,0,1-1.26.38Z"/>
      <path class="cls-8" d="M838.3,427.4a3.78,3.78,0,0,1-2.66-1,3.3,3.3,0,0,1-1.06-2.55,3.58,3.58,0,0,1,1-2.53,3.26,3.26,0,0,1,2.48-1,3.07,3.07,0,0,1,1.44.33,2.68,2.68,0,0,1,1,.86,4.17,4.17,0,0,1,.55,1.13,4.09,4.09,0,0,1,.18,1.2v.28h-5.56a2.4,2.4,0,0,0,.88,1.74,3.06,3.06,0,0,0,2,.65,4,4,0,0,0,2.17-.63v.9A3.78,3.78,0,0,1,838.3,427.4Zm-2.67-4.13h4.52a2.3,2.3,0,0,0-.59-1.41,1.92,1.92,0,0,0-1.6-.64,2.3,2.3,0,0,0-1.65.62A2.21,2.21,0,0,0,835.63,423.27Z"/>
      <path class="cls-8" d="M844.07,426.15V430h-1v-9.56h1v1.08a3.11,3.11,0,0,1,2.62-1.25,3.17,3.17,0,0,1,2.45,1,3.79,3.79,0,0,1,0,5,3.17,3.17,0,0,1-2.45,1A3.11,3.11,0,0,1,844.07,426.15Zm0-3.42V425a2.47,2.47,0,0,0,1,1.1,2.57,2.57,0,0,0,1.43.43,2.47,2.47,0,0,0,1.86-.76,2.65,2.65,0,0,0,.74-1.89,2.6,2.6,0,0,0-.74-1.88,2.47,2.47,0,0,0-1.86-.76,2.68,2.68,0,0,0-2.38,1.53Z"/>
      <path class="cls-8" d="M855.07,427.4a3.55,3.55,0,0,1-2.58-1,3.46,3.46,0,0,1-1-2.55,3.37,3.37,0,0,1,1-2.52,3.49,3.49,0,0,1,2.58-1,4.1,4.1,0,0,1,2,.49v.94a3.8,3.8,0,0,0-1.9-.52,2.66,2.66,0,0,0-1.95.76,2.48,2.48,0,0,0-.77,1.89,2.54,2.54,0,0,0,.77,1.89,2.72,2.72,0,0,0,1.95.74,3.67,3.67,0,0,0,2-.59v.92A4.15,4.15,0,0,1,855.07,427.4Z"/>
      <path class="cls-8" d="M859.3,420.47h1v2.79l3.22-2.79h1.37l-3.57,3.05,4.07,3.71H864l-3.65-3.33v3.33h-1Z"/>
      <path class="cls-8" d="M867.81,427.23h-.94v-6.76h1v5.28l4.33-5.28h.94v6.76h-1V422Z"/>
      <path class="cls-8" d="M876,427.23H874.8l2.84-3.57-2.51-3.19h1.19l1.93,2.41,1.93-2.41h1.18l-2.52,3.16,2.84,3.6H880.5l-2.25-2.83Z"/>
      <path class="cls-8" d="M722.17,446.23h-3.79v-6.76h3.56a2.22,2.22,0,0,1,1.5.47,1.58,1.58,0,0,1,.54,1.25,1.48,1.48,0,0,1-.84,1.48,1.81,1.81,0,0,1,.7,3.07A2.56,2.56,0,0,1,722.17,446.23Zm-2.79-5.88v2h2.27a1.62,1.62,0,0,0,1-.26.86.86,0,0,0,.35-.73q0-1-1.33-1Zm0,2.83v2.17H722a1.76,1.76,0,0,0,1.06-.28.93.93,0,0,0,.38-.8,1,1,0,0,0-.38-.8,1.73,1.73,0,0,0-1.06-.29Z"/>
      <path class="cls-8" d="M728.46,446.4a2.9,2.9,0,0,1-1.83-.59,2,2,0,0,1-.74-1.65,2,2,0,0,1,.78-1.64,3.17,3.17,0,0,1,2-.6,4.73,4.73,0,0,1,2.44.66v-.67q0-1.69-2.23-1.69a3.89,3.89,0,0,0-2.21.69v-1a4.52,4.52,0,0,1,2.42-.62,3.45,3.45,0,0,1,2.21.65,2.23,2.23,0,0,1,.82,1.86v2.79a1,1,0,0,0,.17.62.57.57,0,0,0,.47.22.87.87,0,0,0,.39-.08v.78a1.2,1.2,0,0,1-.67.15,1.32,1.32,0,0,1-.85-.27,1.23,1.23,0,0,1-.43-.81A3.42,3.42,0,0,1,728.46,446.4Zm.28-.91a2.88,2.88,0,0,0,1.33-.32,3.07,3.07,0,0,0,1-.81v-.94a4,4,0,0,0-2.2-.67,2.58,2.58,0,0,0-1.46.36,1.14,1.14,0,0,0-.54,1,1.18,1.18,0,0,0,.52,1A2.26,2.26,0,0,0,728.74,445.49Z"/>
      <path class="cls-8" d="M735.78,445.15V449h-1v-9.56h1v1.08a3.11,3.11,0,0,1,2.62-1.25,3.17,3.17,0,0,1,2.45,1,3.79,3.79,0,0,1,0,5,3.17,3.17,0,0,1-2.45,1A3.11,3.11,0,0,1,735.78,445.15Zm0-3.42V444a2.47,2.47,0,0,0,1,1.1,2.57,2.57,0,0,0,1.43.43,2.47,2.47,0,0,0,1.86-.76,2.65,2.65,0,0,0,.74-1.89A2.6,2.6,0,0,0,740,441a2.47,2.47,0,0,0-1.86-.76,2.68,2.68,0,0,0-2.38,1.53Z"/>
      <path class="cls-8" d="M744.61,446.23h-.94v-6.76h1v5.28l4.33-5.28h.94v6.76h-1V441Z"/>
      <path class="cls-8" d="M754.33,446.4a2.9,2.9,0,0,1-1.83-.59,2,2,0,0,1-.74-1.65,2,2,0,0,1,.78-1.64,3.17,3.17,0,0,1,2-.6,4.73,4.73,0,0,1,2.44.66v-.67q0-1.69-2.23-1.69a3.89,3.89,0,0,0-2.21.69v-1a4.52,4.52,0,0,1,2.42-.62,3.45,3.45,0,0,1,2.21.65,2.23,2.23,0,0,1,.82,1.86v2.79a1,1,0,0,0,.17.62.57.57,0,0,0,.47.22.87.87,0,0,0,.39-.08v.78a1.2,1.2,0,0,1-.67.15,1.32,1.32,0,0,1-.85-.27,1.23,1.23,0,0,1-.43-.81A3.42,3.42,0,0,1,754.33,446.4Zm.28-.91a2.88,2.88,0,0,0,1.33-.32,3.07,3.07,0,0,0,1-.81v-.94a4,4,0,0,0-2.2-.67,2.58,2.58,0,0,0-1.46.36,1.14,1.14,0,0,0-.54,1,1.18,1.18,0,0,0,.52,1A2.26,2.26,0,0,0,754.61,445.49Z"/>
      <path class="cls-8" d="M761.65,446.23h-1v-6.76h1v2.84h4.16v-2.84h1v6.76h-1v-3h-4.16Z"/>
      <path class="cls-8" d="M771.83,446.23h-1v-5.88h-2.45v-.88h5.91v.88h-2.45Z"/>
      <path class="cls-8" d="M776.18,440.35a3.83,3.83,0,0,1,5.26,0,3.58,3.58,0,0,1,0,5,3.86,3.86,0,0,1-5.26,0,3.58,3.58,0,0,1,0-5Zm5.25,2.51a2.62,2.62,0,0,0-.74-1.89,2.49,2.49,0,0,0-1.88-.76,2.52,2.52,0,0,0-1.88.76,2.76,2.76,0,0,0,0,3.77,2.52,2.52,0,0,0,1.88.76,2.49,2.49,0,0,0,1.88-.76A2.6,2.6,0,0,0,781.43,442.86Z"/>
      <path class="cls-8" d="M788.14,446.23h-3.79v-6.76h3.56a2.22,2.22,0,0,1,1.5.47,1.58,1.58,0,0,1,.54,1.25,1.48,1.48,0,0,1-.84,1.48,1.81,1.81,0,0,1,.7,3.07A2.56,2.56,0,0,1,788.14,446.23Zm-2.79-5.88v2h2.27a1.62,1.62,0,0,0,1-.26.86.86,0,0,0,.35-.73q0-1-1.33-1Zm0,2.83v2.17h2.58a1.76,1.76,0,0,0,1.06-.28.93.93,0,0,0,.38-.8,1,1,0,0,0-.38-.8,1.73,1.73,0,0,0-1.06-.29Z"/>
      <path class="cls-8" d="M796.2,448.23h-1v-2.88h.85q1.12-1.48,1.15-4.93v-1h5v5.88h1.26v2.88h-1v-2H796.2Zm1-2.88h4.06v-5h-3.08v.41A8.75,8.75,0,0,1,797.21,445.35Z"/>
      <path class="cls-8" d="M805.72,440.35a3.83,3.83,0,0,1,5.26,0,3.58,3.58,0,0,1,0,5,3.86,3.86,0,0,1-5.26,0,3.58,3.58,0,0,1,0-5Zm5.25,2.51a2.62,2.62,0,0,0-.74-1.89,2.49,2.49,0,0,0-1.88-.76,2.52,2.52,0,0,0-1.88.76,2.76,2.76,0,0,0,0,3.77,2.52,2.52,0,0,0,1.88.76,2.49,2.49,0,0,0,1.88-.76A2.6,2.6,0,0,0,811,442.86Z"/>
      <path class="cls-8" d="M820.09,446.23h-1v-8.68l-2.2,1.26v-1l2.31-1.39h.91Z"/>
      <path class="cls-8" d="M825.18,446.4a5.29,5.29,0,0,1-2.7-.64v-1a5,5,0,0,0,2.67.71,3.21,3.21,0,0,0,2.06-.64,2,2,0,0,0,.81-1.65,2,2,0,0,0-.76-1.62,3.1,3.1,0,0,0-2-.62,7,7,0,0,0-2.35.41l.64-4.87h4.84v.94h-4.06l-.39,2.83a6,6,0,0,1,1.55-.18,3.78,3.78,0,0,1,2.56.88,2.78,2.78,0,0,1,1,2.24,2.88,2.88,0,0,1-1.11,2.35A4.25,4.25,0,0,1,825.18,446.4Z"/>
      <path class="cls-8" d="M833,436.26a2.32,2.32,0,0,1,2.37,2.35,2.34,2.34,0,0,1-.67,1.68,2.42,2.42,0,0,1-3.37,0,2.37,2.37,0,0,1-.66-1.68,2.32,2.32,0,0,1,.66-1.67A2.26,2.26,0,0,1,833,436.26Zm1.53,2.35a1.57,1.57,0,0,0-.43-1.13A1.45,1.45,0,0,0,833,437a1.43,1.43,0,0,0-1.08.46,1.59,1.59,0,0,0-.43,1.13,1.62,1.62,0,0,0,.42,1.14,1.42,1.42,0,0,0,1.09.46,1.44,1.44,0,0,0,1.1-.46A1.61,1.61,0,0,0,834.51,438.62Zm-1.18,7.62h-.88l5.74-9.8h.88Zm5.18-4.55a2.2,2.2,0,0,1,1.68.69,2.44,2.44,0,0,1,0,3.36,2.22,2.22,0,0,1-1.68.67,2.28,2.28,0,0,1-1.68-.67,2.47,2.47,0,0,1,0-3.36A2.25,2.25,0,0,1,838.51,441.68Zm-1.09,3.5a1.55,1.55,0,0,0,2.18,0A1.56,1.56,0,0,0,840,444a1.54,1.54,0,0,0-.43-1.13,1.39,1.39,0,0,0-1.08-.46,1.46,1.46,0,0,0-1.09.46,1.74,1.74,0,0,0,0,2.27Z"/>
      <path class="cls-8" d="M843.19,446.32a.72.72,0,1,1,.52-.21A.71.71,0,0,1,843.19,446.32Z"/>
    </g>
    <g>
      <path class="cls-10" d="M816,195.53a1.22,1.22,0,0,0-.86-1l-3,.31-2.81-6.55a3.29,3.29,0,0,0-3-2.1H789.94a3.3,3.3,0,0,0-3,2.1l-2.81,6.55-3-.31a1.22,1.22,0,0,0-.86,1c-.16.86-.39,2.26,1.48,2.73l1,.08c-1.25,2.34-2.57,6.55.94,10.13a4.37,4.37,0,0,0,1.4.86v2a1.4,1.4,0,0,0,1.4,1.4h1.87a1.4,1.4,0,0,0,1.4-1.4v-1.87h16.6v1.87a1.4,1.4,0,0,0,1.4,1.4h1.87a1.4,1.4,0,0,0,1.4-1.4v-2a3,3,0,0,0,1.32-.86c3.51-3.51,2.42-7.71,1.17-10.13l.86-.08A2,2,0,0,0,816,195.53Zm-26.8-6.39h0a1.18,1.18,0,0,1,.94-.7h16c.7.08.94.47.94.55l2.73,6.47h-23.3ZM788,203.63a2,2,0,1,1,2-2A2.06,2.06,0,0,1,788,203.63Zm20,0a2,2,0,1,1,2-2A2,2,0,0,1,808,203.63Z"/>
      <path class="cls-10" d="M813.39,222.41,798,226.78v.08a6.31,6.31,0,0,1-.62,4.6,6.37,6.37,0,0,1-8.65,2.49l-9-5,.86-1.48,8.88,5a4.42,4.42,0,0,0,3.58.39,4.61,4.61,0,0,0,2.81-2.18,4.79,4.79,0,0,0,.55-1.79,3.77,3.77,0,0,0-1.87-3.9l-21.66-12.08a6.86,6.86,0,0,0-5.3-.62h-.08c-.55.08-23.76,6.78-24.78,7h-.08L747.4,236l15.51-4.44c1.56.94,13.4,8.26,14.88,9.12,2.65,1.48,5.92.7,6.62.55.08,0,31.63-9,31.63-9a5.26,5.26,0,0,0,3.12-6.47A4.64,4.64,0,0,0,813.39,222.41Z"/>
    </g>
    <g>
      <g>
        <path class="cls-10" d="M564.8,419.49l-12.15-14.77-.41,0-1.76-5.13-9.29-27.07c-2.72-7.94-4.42-21.15-14.54-22.41l-96.1-12a27.79,27.79,0,0,0-27.05,13.49l-20.36,33.35-1.6-.19-33.46,6.11a33.19,33.19,0,0,0-22.16,27.28L323.55,437l244,30.52,3.36-26.89A27.82,27.82,0,0,0,564.8,419.49Z"/>
        <path class="cls-11" d="M472.93,392,537,400,527,362.32a4.64,4.64,0,0,0-3.87-3.47l-45.32-5.67Z"/>
        <path class="cls-11" d="M466.81,351.8l-36.73-4.59A20.26,20.26,0,0,0,410.36,357L395,382.24l67,8.38Z"/>
        <g class="cls-3">
          <path class="cls-12" d="M527.65,371.22l2.38,1.69-2.76-10.31a4.64,4.64,0,0,0-3.87-3.47l-15.7-2C514.32,361.89,521,366.52,527.65,371.22Z"/>
          <path class="cls-12" d="M527.82,379.93c-11-7.84-22.45-16.61-33.27-24.66l-14.76-1.61c9,9.92,20.8,19.21,31.21,27.55,6.25,5,12.68,9.81,19.31,14.31,2.17,1.47,4.47,2.85,6.77,4.24l-4.36-16.31Z"/>
          <path class="cls-12" d="M452.35,373.58c-4.55-3.82-9.31-7.41-14.11-10.9s-9.8-7.09-15-10.15c-1.71-1-3.44-2-5.17-2.94a21.1,21.1,0,0,0-7.72,7.46l-.15.24c5.06,4.57,10.16,9.09,15.17,13.68,7.42,6.79,15.86,12.29,24.06,18.08L462,390.61l.88-7C459.35,380.24,456.06,376.69,452.35,373.58Z"/>
        </g>
        <path class="cls-13" d="M415.92,448.54a17.65,17.65,0,0,0,.75-3.33c1.41-11.29-8.24-21.8-21.56-23.47a27.25,27.25,0,0,0-14.43,2,46.21,46.21,0,0,1,20,13.88,37.26,37.26,0,0,1,6.06,9.67Z"/>
        <path class="cls-13" d="M542.27,464.34A18.06,18.06,0,0,0,543,461c1.41-11.29-8-21.77-21-23.39a26.13,26.13,0,0,0-14.1,2.07,44.78,44.78,0,0,1,19.45,13.82,37.1,37.1,0,0,1,5.89,9.65Z"/>
        <g>
          <circle class="cls-14" cx="387.44" cy="442.57" r="21.62" transform="translate(-99.8 772.08) rotate(-82.87)"/>
          <g>
            <circle class="cls-12" cx="387.44" cy="442.57" r="12.27" transform="translate(-185.95 573.73) rotate(-61.68)"/>
            <path class="cls-13" d="M388.51,451.32a10,10,0,0,0,6.65-1.86,7.08,7.08,0,0,1-5.26,3.85,11.45,11.45,0,0,1-2.3,0,11.65,11.65,0,0,1-2.41-.34,7.22,7.22,0,0,1-4.73-4.23c.27.66,2.6,1.39,3.18,1.58A19.56,19.56,0,0,0,388.51,451.32Z"/>
          </g>
        </g>
        <g>
          <circle class="cls-14" cx="514.19" cy="458.43" r="21.62" transform="translate(-4.52 911.74) rotate(-82.87)"/>
          <g>
            <circle class="cls-12" cx="514.19" cy="458.43" r="12.27" transform="translate(-133.28 693.66) rotate(-61.68)"/>
            <path class="cls-13" d="M515.27,467.18a10,10,0,0,0,6.65-1.86,7.09,7.09,0,0,1-5.26,3.85,11.45,11.45,0,0,1-2.3,0,11.65,11.65,0,0,1-2.41-.34,7.22,7.22,0,0,1-4.73-4.23c.27.66,2.6,1.39,3.18,1.58A19.56,19.56,0,0,0,515.27,467.18Z"/>
          </g>
        </g>
        <rect class="cls-13" x="443.08" y="400.15" width="11.75" height="5.05" rx="1.79" ry="1.79" transform="translate(53.46 -52.62) rotate(7.13)"/>
      </g>
      <g>
        <g>
          <path class="cls-15" d="M327.52,249.74l13.59-15.44.45,0,2.07-5.45L354.58,200c3.21-8.43,5.51-22.58,16.42-23.58L474.73,167c11.52-1.05,22.65,5,28.6,15.47L524,219l1.73-.14,35.75,7.77a35.7,35.7,0,0,1,22.85,30.11l1.87,20.4L322.85,301.26l-2.66-29A29.92,29.92,0,0,1,327.52,249.74Z"/>
          <path class="cls-16" d="M427.26,223.45l-69.21,6.34,12.17-40.15a5,5,0,0,1,4.28-3.6l48.92-4.48Z"/>
          <path class="cls-16" d="M435.26,180.48l39.64-3.63a21.79,21.79,0,0,1,20.85,11.28l15.63,27.62-72.29,6.62Z"/>
          <g class="cls-3">
            <path class="cls-12" d="M369.18,199.18l-2.62,1.73,3.33-11a5,5,0,0,1,4.28-3.6l16.95-1.55C383.83,189.62,376.48,194.37,369.18,199.18Z"/>
            <path class="cls-12" d="M368.68,208.54c12.07-8,24.72-17.06,36.64-25.32l15.92-1.2c-10,10.34-23,19.91-34.53,28.5-6.9,5.16-14,10.1-21.27,14.7-2.39,1.51-4.91,2.91-7.43,4.32l5.27-17.38Z"/>
            <path class="cls-12" d="M450,204.4c5-3.94,10.27-7.63,15.56-11.21s10.79-7.27,16.47-10.38c1.87-1,3.77-2,5.66-3a22.69,22.69,0,0,1,8,8.29l.15.27c-5.6,4.73-11.24,9.41-16.8,14.16-8.22,7-17.48,12.64-26.51,18.57l-13.51,1.24-.7-7.59C442.27,211.31,445.94,207.61,450,204.4Z"/>
          </g>
          <path class="cls-13" d="M486.52,286.27a19,19,0,0,1-.68-3.6c-1.12-12.19,9.63-23.14,24-24.46a29.3,29.3,0,0,1,15.43,2.7,49.7,49.7,0,0,0-21.94,14.21,40.07,40.07,0,0,0-6.86,10.18Z"/>
          <path class="cls-13" d="M350.14,298.76a19.43,19.43,0,0,1-.68-3.6c-1.12-12.19,9.36-23.11,23.4-24.4a28.1,28.1,0,0,1,15.08,2.73,48.16,48.16,0,0,0-21.4,14.16,39.9,39.9,0,0,0-6.68,10.16Z"/>
          <g>
            <circle class="cls-17" cx="517.35" cy="280.87" r="23.25" transform="translate(-23.45 48.34) rotate(-5.23)"/>
            <g>
              <circle class="cls-12" cx="517.35" cy="280.87" r="13.2" transform="translate(-70.94 259.49) rotate(-26.42)"/>
              <path class="cls-13" d="M515.88,290.24A10.76,10.76,0,0,1,508.8,288a7.62,7.62,0,0,0,5.52,4.33,12.31,12.31,0,0,0,2.47.14,12.52,12.52,0,0,0,2.61-.28,7.77,7.77,0,0,0,5.23-4.38c-.31.7-2.84,1.41-3.47,1.58A21,21,0,0,1,515.88,290.24Z"/>
            </g>
          </g>
          <g>
            <circle class="cls-17" cx="380.53" cy="293.4" r="23.25" transform="translate(-25.17 35.92) rotate(-5.23)"/>
            <g>
              <circle class="cls-12" cx="380.53" cy="293.4" r="13.2" transform="translate(-90.8 199.93) rotate(-26.42)"/>
              <path class="cls-13" d="M379.06,302.77a10.76,10.76,0,0,1-7.08-2.24,7.62,7.62,0,0,0,5.52,4.33A12.31,12.31,0,0,0,380,305a12.52,12.52,0,0,0,2.61-.28,7.77,7.77,0,0,0,5.23-4.38c-.31.7-2.84,1.41-3.47,1.58A21,21,0,0,1,379.06,302.77Z"/>
            </g>
          </g>
        </g>
        <rect class="cls-13" x="446.32" y="233.08" width="12.64" height="5.43" rx="2.09" ry="2.09" transform="translate(924.89 429.33) rotate(174.77)"/>
      </g>
      <g>
        <g id="_Группа_" data-name="&lt;Группа&gt;">
          <polygon class="cls-18" points="231.08 273.88 240.44 269.33 242.72 272.11 250.58 272.4 250.47 277.4 236.85 280.93 231.08 273.88"/>
        </g>
        <g id="_Группа_2" data-name="&lt;Группа&gt;">
          <g id="_Группа_3" data-name="&lt;Группа&gt;">
            <polygon class="cls-19" points="131.86 222.67 142.78 238.1 147.91 237.69 156.47 222.03 131.86 222.67"/>
          </g>
          <g id="_Группа_4" data-name="&lt;Группа&gt;">
            <polygon class="cls-20" points="143.73 498.61 150.05 506.74 144.17 513.18 135.91 505.89 131.86 498.61 143.73 498.61"/>
          </g>
          <g id="_Группа_5" data-name="&lt;Группа&gt;">
            <polygon class="cls-20" points="168.4 498.61 174.72 506.74 168.83 513.18 160.57 505.89 156.53 498.61 168.4 498.61"/>
          </g>
          <g id="_Группа_6" data-name="&lt;Группа&gt;">
            <g id="_Группа_7" data-name="&lt;Группа&gt;">
              <g id="_Группа_8" data-name="&lt;Группа&gt;">
                <polygon class="cls-21" points="107.36 374.43 120.13 431.13 131.86 498.61 143.73 498.61 148.58 334.44 109.34 335.15 107.36 374.43"/>
              </g>
              <g id="_Группа_9" data-name="&lt;Группа&gt;">
                <g id="_Группа_10" data-name="&lt;Группа&gt;">
                  <polygon class="cls-21" points="182.49 370.96 184.14 426.01 167.56 498.61 156.91 498.61 155.82 422.04 144.17 359.38 141.27 339.38 173.94 335.53 182.49 370.96"/>
                </g>
              </g>
              <g id="_Группа_11" data-name="&lt;Группа&gt;">
                <path class="cls-22" d="M156.65,222.87l-37,2.73L98.38,260c5.89,21,4.73,13.78,8.3,32.73L96.09,344.88l13.82,4,50.22.89,16.51-2.89-4.52-49.79,2.34-66.49Z"/>
              </g>
              <g id="_Группа_12" data-name="&lt;Группа&gt;">
                <polygon class="cls-22" points="163.95 250 182.58 278.76 200.51 281.37 241.4 283.08 237.66 270.96 194.44 259.89 174.47 230.63 163.95 250"/>
              </g>
              <g id="_Группа_13" data-name="&lt;Группа&gt;">
                <g id="_Группа_14" data-name="&lt;Группа&gt;">
                  <path class="cls-18" d="M154.69,190.93c-5.62-16.33-27.18-10.21-31.63,4.33-2.9,9.49,4.43,21.8,14.26,24.52a9.66,9.66,0,0,1,.08,1,31.89,31.89,0,0,0,.42,4.55c.08.57,8.69-1.09,9.65-1.27a1.3,1.3,0,0,0,.89-.44c.35-.54-.22-2.13-.28-2.73l-.22-2.13c4.85-2.37,7.91-7.41,8.76-12.54S156.37,195.84,154.69,190.93Z"/>
                </g>
                <g id="_Группа_15" data-name="&lt;Группа&gt;">
                  <g id="_Группа_16" data-name="&lt;Группа&gt;">
                    <path class="cls-23" d="M139.21,175.71a8.56,8.56,0,0,0-1.61,4.52,6.84,6.84,0,0,0,0,2.84c1.08,3.64,4.73,3.16,7.66,4.14a19,19,0,0,1,9,6.65c3.44,4.65,2.54,11,1.7,16.51-.29,1.93-1,4.82.64,6.4s5.06,1.08,6.78.06,2.8-2.53,4.58-3,4.51.18,5.26-1.63a11.84,11.84,0,0,1,.46-1.57c.94-1.58,3.68,0,5.08-1.19.86-.72.75-2.11.36-3.18a7.5,7.5,0,0,1-.87-3.28,11,11,0,0,1,1.11-2.69,5.12,5.12,0,0,0-1.12-5.38c-2.55-2.53-7-1.67-9.74-4-1.41-1.23-2.06-3.1-2.68-4.88s-1.35-3.64-2.85-4.76c-1.84-1.39-4.31-.94-6.15-2.61-1.08-1-1.85-2.31-3-3.14-1.57-1.1-4.54-1.81-6.42-2.29A8.1,8.1,0,0,0,139.21,175.71Z"/>
                  </g>
                  <g id="_Группа_17" data-name="&lt;Группа&gt;">
                    <path class="cls-23" d="M127.59,202.73c.31,5.37,3.41,11,1.3,15.87s-8.28,6.28-13.55,6.93c-.87.11-12,1.92-12,1.71-1.12-3.67-2.28-7.41-4.48-10.54s-5.67-5.6-9.42-5.55c1.06-.27,1.51-1.63,1.3-2.73a17.74,17.74,0,0,0-1.28-3.11,7.53,7.53,0,0,1,1.39-7.69c3.67-4,11-3,14-7.49,1.9-2.78,1.36-6.57,2.22-9.86,1.66-6.36,8.34-8.17,13.2-11.35,5.13-3.36,10-5.36,16.29-4.8,7.75.69,14,8.05,11.64,15.61-3.07,9.69-18.27,10-20.38,19.8A11.83,11.83,0,0,0,127.59,202.73Z"/>
                  </g>
                </g>
              </g>
            </g>
            <g id="_Группа_18" data-name="&lt;Группа&gt;">
              <polygon class="cls-19" points="131.86 224.74 142.78 240.17 147.91 239.75 154.88 223 131.86 224.74"/>
            </g>
            <g id="_Группа_19" data-name="&lt;Группа&gt;">
              <polygon class="cls-20" points="143.73 498.61 150.05 506.74 144.17 513.18 135.91 505.89 131.86 498.61 143.73 498.61"/>
            </g>
            <g id="_Группа_20" data-name="&lt;Группа&gt;">
              <polygon class="cls-20" points="168.4 498.61 174.72 506.74 168.83 513.18 160.57 505.89 156.53 498.61 168.4 498.61"/>
            </g>
          </g>
        </g>
        <g id="_Группа_21" data-name="&lt;Группа&gt;">
          <g id="_Группа_22" data-name="&lt;Группа&gt;">
            <g id="_Группа_23" data-name="&lt;Группа&gt;">
              <g id="_Группа_24" data-name="&lt;Группа&gt;">
                <g id="_Группа_25" data-name="&lt;Группа&gt;">
                  <g id="_Группа_26" data-name="&lt;Группа&gt;">
                    <g id="_Группа_27" data-name="&lt;Группа&gt;">
                      <g id="_Группа_28" data-name="&lt;Группа&gt;">
                        <rect class="cls-24" x="195.35" y="283.66" width="110.26" height="23.62" transform="translate(-136.24 317.64) rotate(-52.99)"/>
                      </g>
                      <g id="_Группа_29" data-name="&lt;Группа&gt;">
                        <path class="cls-25" d="M195.86,368.22l-.22-.16c-6-4.49-8.07-11.71-4.73-16.15l37.8-51,22.73,16.38-38.76,51C209.34,372.75,201.81,372.71,195.86,368.22Z"/>
                      </g>
                    </g>
                  </g>
                  <g id="_Группа_30" data-name="&lt;Группа&gt;">
                    <g id="_Группа_31" data-name="&lt;Группа&gt;">
                      <path class="cls-26" d="M363.18,266.18c-23.45,31.14-67.89,37.22-99.25,13.58s-37.77-68-14.32-99.18,67.89-37.22,99.25-13.58S386.64,235,363.18,266.18Z"/>
                    </g>
                    <g id="_Группа_32" data-name="&lt;Группа&gt;">
                      <path class="cls-27" d="M355.25,260.19c-20.18,26.79-58.4,32-85.38,11.68s-32.49-58.54-12.32-85.32,58.4-32,85.38-11.68S375.42,233.41,355.25,260.19Z"/>
                    </g>
                  </g>
                </g>
                <g id="_Группа_33" data-name="&lt;Группа&gt;">
                  <g id="_Группа_34" data-name="&lt;Группа&gt;" class="cls-28">
                    <g id="_Группа_35" data-name="&lt;Группа&gt;">
                      <path class="cls-29" d="M312.54,179.9a43.79,43.79,0,0,1,39.69,34.78,42.91,42.91,0,0,1-23.71,46.89c-5,2.33-1.64,10.19,3.32,7.86a51.6,51.6,0,0,0,29.28-53.15c-2.77-21.89-19.92-39.42-41.32-44a47.31,47.31,0,0,0-6.28-.85c-5.46-.41-6.46,8-1,8.45Z"/>
                    </g>
                  </g>
                  <g id="_Группа_36" data-name="&lt;Группа&gt;" class="cls-30">
                    <ellipse class="cls-29" cx="314.64" cy="270.08" rx="5.59" ry="5.63" transform="translate(-90.42 358.77) rotate(-52.99)"/>
                  </g>
                </g>
              </g>
              <g id="_Группа_37" data-name="&lt;Группа&gt;">
                <path class="cls-31" d="M229.43,301.72l21.63,15.58a1.78,1.78,0,0,0,2.37-.25l.2-.22a1.78,1.78,0,0,0-.32-2.63l-21.8-15.39a1.78,1.78,0,0,0-2.5.45l0,0A1.78,1.78,0,0,0,229.43,301.72Z"/>
              </g>
              <g id="_Группа_38" data-name="&lt;Группа&gt;">
                <g id="_Группа_39" data-name="&lt;Группа&gt;">
                  <path class="cls-32" d="M301,282.49a60.88,60.88,0,0,1-55.24-57.37,59.8,59.8,0,0,1,49.34-62,60.66,60.66,0,0,1,66,84.48A59.91,59.91,0,0,1,301,282.49a1.62,1.62,0,0,0-.27,3.23A64.08,64.08,0,0,0,342,275.1a63,63,0,0,0,24.89-33.69,63.82,63.82,0,0,0-109.4-60.31,63.1,63.1,0,0,0-15.05,40.12,64.09,64.09,0,0,0,58.26,64.49A1.62,1.62,0,0,0,301,282.49Z"/>
                </g>
              </g>
            </g>
          </g>
          <g id="_Группа_40" data-name="&lt;Группа&gt;">
            <g id="_Группа_41" data-name="&lt;Группа&gt;">
              <path class="cls-33" d="M202.17,360.39l-.16-.11h0l.17.11,0,0h0ZM257,305.71h0l.1-.17Z"/>
            </g>
          </g>
        </g>
        <g id="_Группа_42" data-name="&lt;Группа&gt;">
          <g id="_Группа_43" data-name="&lt;Группа&gt;">
            <polygon class="cls-18" points="206.01 315.04 216.36 316.18 216.8 319.76 223.29 324.19 220.53 328.36 207.13 324.08 206.01 315.04"/>
          </g>
          <g id="_Группа_44" data-name="&lt;Группа&gt;">
            <polygon class="cls-34" points="98.38 259.96 135.82 299.37 152.78 305.78 207.94 325.55 206.89 312.91 151.47 283.49 119.6 225.47 104.98 233.51 98.38 259.96"/>
          </g>
        </g>
      </g>
    </g>
    <g>
      <path class="cls-9" d="M723.67,280.87h-5v-10.5h4.54a3.31,3.31,0,0,1,2.21.68,2.31,2.31,0,0,1,.81,1.87,2.57,2.57,0,0,1-.37,1.4,2,2,0,0,1-1,.82,2.59,2.59,0,0,1,1.67.92,2.89,2.89,0,0,1,.62,1.89,2.66,2.66,0,0,1-.93,2.13A3.75,3.75,0,0,1,723.67,280.87Zm-3.9-9.5v3.44H723a2.44,2.44,0,0,0,1.55-.44,1.51,1.51,0,0,0,.55-1.26,1.57,1.57,0,0,0-.55-1.29,2.39,2.39,0,0,0-1.55-.45Zm0,4.41v4.08h3.71a2.75,2.75,0,0,0,1.82-.54,1.87,1.87,0,0,0,.64-1.51,1.83,1.83,0,0,0-.64-1.49,2.78,2.78,0,0,0-1.82-.53Z"/>
      <path class="cls-9" d="M733.42,280.87h-3.87v-10.5h1.11v3.92h2.76a3.88,3.88,0,0,1,2.76.92,3.08,3.08,0,0,1,1,2.38,3,3,0,0,1-1,2.39A4,4,0,0,1,733.42,280.87Zm-2.76-5.58v4.58h2.69a3.08,3.08,0,0,0,2-.59,2.06,2.06,0,0,0,.72-1.69,2.1,2.1,0,0,0-.71-1.7,3,3,0,0,0-2-.6Zm9.24,5.58h-1.11v-10.5h1.11Z"/>
      <path class="cls-9" d="M749.23,281.05a5.14,5.14,0,0,1-3.15-.92V279a4.79,4.79,0,0,0,3.15,1,4,4,0,0,0,2.86-1.12A4.26,4.26,0,0,0,753.4,276h-4.92v-1h4.88a4.08,4.08,0,0,0-1.32-2.71,4,4,0,0,0-2.78-1.06,5.35,5.35,0,0,0-2.94.88V271a5.32,5.32,0,0,1,2.91-.78,5.14,5.14,0,0,1,3.82,1.56,5.43,5.43,0,0,1-3.82,9.3Z"/>
      <path class="cls-9" d="M757.15,270.37h1.11v4.56l4.86-4.56h1.47l-5.16,4.8,6,5.7h-1.56l-5.57-5.34v5.34h-1.11Z"/>
      <path class="cls-9" d="M767.32,271.75a5.34,5.34,0,0,1,7.54,0,5.72,5.72,0,0,1,0,7.75,5.38,5.38,0,0,1-7.54,0,5.76,5.76,0,0,1,0-7.75Zm.83,7a4.1,4.1,0,0,0,5.91,0,4.69,4.69,0,0,0,0-6.27,4.1,4.1,0,0,0-5.91,0,4.69,4.69,0,0,0,0,6.27Z"/>
      <path class="cls-9" d="M780,280.87h-1.11v-10.5H780v4.37h6.24v-4.37h1.11v10.5h-1.11v-5.13H780Z"/>
      <path class="cls-9" d="M791.41,271.75a5.34,5.34,0,0,1,7.54,0,5.72,5.72,0,0,1,0,7.75,5.38,5.38,0,0,1-7.54,0,5.76,5.76,0,0,1,0-7.75Zm.83,7a4.1,4.1,0,0,0,5.91,0,4.69,4.69,0,0,0,0-6.27,4.1,4.1,0,0,0-5.91,0,4.69,4.69,0,0,0,0,6.27Z"/>
      <path class="cls-9" d="M804.11,280.87H803v-10.5h1.09l3.79,5.08,3.79-5.08h1.08v10.5h-1.09v-8.82l-3.44,4.59h-.67l-3.46-4.59Z"/>
      <path class="cls-9" d="M816.67,280.87h-.93v-10.5h1.09V279l6.53-8.64h1v10.5h-1.09V272.2Z"/>
      <path class="cls-9" d="M831.07,280.87H830v-9.5h-3.62v-1h8.38v1h-3.66Z"/>
      <path class="cls-9" d="M844.16,280.87h-7.42v-10.5h7.2v1h-6.09v3.36h5v1h-5v4.13h6.32Z"/>
    </g>
  </g>
</svg>
