<svg xmlns="http://www.w3.org/2000/svg" viewBox="0 0 993.27 595.28">
  <defs>
    <style>
      .cls-1 {
        fill: #c67a6d;
      }

      .cls-2 {
        fill: #ebb044;
      }

      .cls-3 {
        fill: #1a3151;
      }

      .cls-4 {
        fill: #9ea6ad;
      }

      .cls-5 {
        fill: #ebceb1;
      }

      .cls-6 {
        fill: #efefef;
      }

      .cls-7 {
        fill: #f4f4f2;
      }

      .cls-8 {
        fill: #292949;
      }

      .cls-9 {
        fill: #3b455a;
      }

      .cls-10 {
        fill: #587bc9;
      }

      .cls-11 {
        fill: #919191;
      }

      .cls-12 {
        fill: #494949;
      }

      .cls-13 {
        fill: #dddae8;
      }

      .cls-14 {
        opacity: 0.2;
      }

      .cls-15 {
        fill: #ffffed;
      }

      .cls-16 {
        opacity: 0.1;
      }

      .cls-17 {
        fill: #393b41;
      }

      .cls-18 {
        fill: #e5d1bd;
      }

      .cls-19 {
        fill: #3ababa;
      }

      .cls-20 {
        fill: #efbfa5;
      }

      .cls-21 {
        fill: #145566;
      }

      .cls-22 {
        fill: #babcbe;
      }

      .cls-23 {
        fill: #fff;
      }

      .cls-24 {
        fill: #e5e5e5;
      }

      .cls-25 {
        fill: #38afac;
      }
    </style>
  </defs>
  <title>Монтажная область 1 копия 2</title>
  <g id="Слой_1" data-name="Слой 1">
    <g>
      <g>
        <g>
          <polygon class="cls-1" points="628.93 160.92 626.03 151.39 629.99 149.96 633.39 156.03 634.95 154.47 636.44 162.94 632.53 164.99 628.93 160.92"/>
          <polygon class="cls-2" points="692.1 203.3 654.71 199.19 636.88 159.9 629.33 164.38 635.8 203.55 651.88 221.75 670.71 234.33 692.1 203.3"/>
        </g>
        <g>
          <polygon class="cls-1" points="716.61 304.58 706.1 372.22 710 423.34 702.48 425.43 695.34 378.32 680.72 295.81 716.61 304.58"/>
          <polygon class="cls-3" points="702.2 424.85 701.36 429.91 703.27 439.53 709.59 439 710.78 424.74 709.85 422.46 702.2 424.85"/>
        </g>
        <g>
          <polygon class="cls-1" points="654.71 302.57 658.09 359.94 672.37 440.14 680.12 440.04 676.67 365.69 686.71 297.13 654.71 302.57"/>
          <polygon class="cls-3" points="672.5 438.76 662.61 445.26 663.84 450.11 681.96 446.24 680.48 439.24 672.5 438.76"/>
        </g>
        <polygon class="cls-4" points="653.01 311.17 653.33 377.76 662.23 421.67 683.16 419.07 682.57 367.76 686.87 310.76 684.74 302.13 654.75 305.18 653.01 311.17"/>
        <polygon class="cls-4" points="689.8 368.74 696.23 415.97 714.26 413.45 710.12 368.5 716.82 311.01 712.89 295.44 682.58 300.01 689.8 368.74"/>
        <path class="cls-2" d="M725.51,227.46c-2-6.68-5.5-18.06-11.39-21.28l-.37-.2a29.72,29.72,0,0,0-3.73-1.63,15.63,15.63,0,0,0-9.06-1.89,25.6,25.6,0,0,0-8.85.85,21.12,21.12,0,0,0-3.72,1.64c-3.53,1.84-6.24,2.63-8.43,6.24-1.9,3.14-3,6.8-4.49,10.18-12.07,28.31-21.89,66.09-29.72,96,3.7-.36,7.41-1,11.11-1.55,17,1.92,36.4,7,51.39,12.14,4.49,2.67,8.92,5.49,13.3,8.34-1.12-.73,4.23-24.41,4.65-27.07,1.53-9.66,2.86-19.35,3.77-29.08C731.66,262.09,730.65,244.7,725.51,227.46Z"/>
        <g>
          <path class="cls-1" d="M718.33,181.08c-3.12-11.87-19.6-16.91-24.26-3.61-1.4,4-2.35,8.27-1.8,12.47s2.82,8.34,6.54,10.27l.06,0c.64.33-2.95,7.15-3.2,7.69a12.5,12.5,0,0,0-1,2.64,11.24,11.24,0,0,0,.91,6.13,52.75,52.75,0,0,0,2.29,5.27,1,1,0,0,0,.29.4c.33.23.77,0,1.11-.22a28.54,28.54,0,0,0,6.9-6.66,7.36,7.36,0,0,0,1.09-1.9,7.56,7.56,0,0,0,.31-2.48c0-2.33-2-8.09-.8-9.92.45-.69,2.64-1.2,3.4-1.67a16.66,16.66,0,0,0,3.39-2.82C717.33,192.69,719.77,186.57,718.33,181.08Z"/>
          <g>
            <path class="cls-3" d="M694.26,181.12c-1.87,3-1.76,6.7-1.28,10.09s.1,6.56.87,9.85c-.35.51-1.14.17-1.63-.2q-4.33-3.32-8.56-6.76a2,2,0,0,1-.9-2.18c.67-9.22,4.27-16,9.44-23.23,2.51-3.53,9.21-7.44,13-3.22a7,7,0,0,1,1.41,3.58,5.88,5.88,0,0,1,.07,2.32c-.69,3-3.52,2.85-5.73,3.82A15.35,15.35,0,0,0,694.26,181.12Z"/>
            <path class="cls-3" d="M715.28,187.2a28.57,28.57,0,0,1-1.42,8.19c-.28.87-1.94,2.89-2,3.48-.15,1.71,3.36,5.72,4.27,7.21l16.47-9.14a2,2,0,0,0,1.37-2.19c.31-8.69-1.93-16.5-5.24-24.35S718,156.15,709.27,156.7c-7.06.44-12,5.65-9.42,12.93,1.95,5.49,8.78,6.66,12.5,10.41A9.17,9.17,0,0,1,715.28,187.2Z"/>
          </g>
        </g>
        <g>
          <polygon class="cls-5" points="685.24 303.12 677.29 308.2 675.03 304.88 679.73 300.18 677.93 299.12 685.25 295.6 688.07 298.73 685.24 303.12"/>
          <path class="cls-2" d="M711.92,217.31a8.41,8.41,0,0,0-2,1.42,15.73,15.73,0,0,0-4.32,9.81c-.59,5.74.62,11.71.69,17.48l.22,19.81-24.15,30.11,5.9,5.92,36.08-30.77c-.52-8.76-1.06-17.32-1-26,0-7.83,1.66-16.25-1.79-23.57C719.59,217.34,715.59,215.42,711.92,217.31Z"/>
        </g>
      </g>
      <g>
        <path class="cls-6" d="M748.13,150.15a67.43,67.43,0,1,0-134.07,10.41H747.33A68,68,0,0,0,748.13,150.15Z"/>
        <g>
          <path class="cls-7" d="M680,94.42a56.79,56.79,0,0,0-56.52,56.52q0,.1,0,.2l56.52-.2h56.52A56.79,56.79,0,0,0,680,94.42Z"/>
          <g>
            <path class="cls-2" d="M652.2,127l28.4,16.32-3.17,4.71-25.78-20.21A.5.5,0,0,1,652.2,127Z"/>
            <circle class="cls-8" cx="680.29" cy="146.56" r="4.39" transform="translate(178.65 628.88) rotate(-56.03)"/>
          </g>
          <g>
            <path class="cls-3" d="M742.12,150.95h-7.27a54.15,54.15,0,0,0-108.31,0h-7.27a61.42,61.42,0,0,1,122.84,0Z"/>
            <rect class="cls-9" x="679.39" y="95.15" width="2.62" height="9.08"/>
            <rect class="cls-3" x="720.12" y="115.01" width="2.62" height="9.08" transform="translate(357.43 -514.68) rotate(50.74)"/>
            <rect class="cls-3" x="639.38" y="115.01" width="2.62" height="9.08" transform="translate(1138.72 -300.85) rotate(129.26)"/>
          </g>
          <path class="cls-2" d="M626.83,121.64a61,61,0,0,0-7.55,29.48h7.27a53.82,53.82,0,0,1,6.87-26.37C631.22,123.7,629,122.68,626.83,121.64Z"/>
        </g>
      </g>
    </g>
    <g>
      <path class="cls-10" d="M55.59,255.48v-2h4.84v-4.87h2v4.87h4.82v2H62.39v4.92h-2v-4.92Z"/>
      <path class="cls-10" d="M74.87,260.83V248.17a6.71,6.71,0,0,1,1.42-4.53A5.2,5.2,0,0,1,80.45,242a5.3,5.3,0,0,1,4.21,1.64,6.64,6.64,0,0,1,1.44,4.53v12.66a6.62,6.62,0,0,1-1.44,4.5A5.29,5.29,0,0,1,80.45,267a5.19,5.19,0,0,1-4.16-1.65A6.65,6.65,0,0,1,74.87,260.83Zm2.67.14a4.12,4.12,0,0,0,.73,2.62,2.62,2.62,0,0,0,2.19.92q2.91,0,2.91-3.54V248a4.17,4.17,0,0,0-.72-2.62,3.06,3.06,0,0,0-4.38,0,4.13,4.13,0,0,0-.73,2.62Z"/>
      <path class="cls-10" d="M87.91,244.73v-2.5H99.66v2.5H95.15v22H92.42v-22Z"/>
      <path class="cls-10" d="M107,260.8v-1.67h2.56V261a4.18,4.18,0,0,0,.72,2.61,2.55,2.55,0,0,0,2.15.92q2.86,0,2.86-3.78v-1.9a4.09,4.09,0,0,0-.76-2.69,3,3,0,0,0-2.31-.95h-1.47v-2.44h1.6a2.89,2.89,0,0,0,2.16-.92,3.55,3.55,0,0,0,.78-2.44v-1.11q0-3.83-2.86-3.83a2.53,2.53,0,0,0-2.15.94,4.26,4.26,0,0,0-.72,2.63v1.26H107v-1.11a6.83,6.83,0,0,1,1.38-4.53,5.07,5.07,0,0,1,4.12-1.64,5.12,5.12,0,0,1,4.14,1.64,6.79,6.79,0,0,1,1.39,4.53v.62a6.29,6.29,0,0,1-.75,3.2,4.15,4.15,0,0,1-2.22,1.85q3,1.11,3,5.08v1.9a6.81,6.81,0,0,1-1.39,4.55,5.12,5.12,0,0,1-4.14,1.64,5.07,5.07,0,0,1-4.12-1.64A6.86,6.86,0,0,1,107,260.8Z"/>
      <path class="cls-10" d="M125.84,260.8V248.17a6.71,6.71,0,0,1,1.42-4.53,5.2,5.2,0,0,1,4.16-1.64,5.3,5.3,0,0,1,4.21,1.64,6.64,6.64,0,0,1,1.44,4.53V260.8a6.67,6.67,0,0,1-1.44,4.54,5.29,5.29,0,0,1-4.21,1.65,5.19,5.19,0,0,1-4.16-1.65A6.71,6.71,0,0,1,125.84,260.8Zm2.67.17a4.13,4.13,0,0,0,.73,2.61,3.06,3.06,0,0,0,4.38,0,4.17,4.17,0,0,0,.72-2.61V248q0-3.57-2.91-3.57a2.61,2.61,0,0,0-2.19.93,4.2,4.2,0,0,0-.73,2.64Z"/>
      <path class="cls-10" d="M139.45,260.8V248.17a6.71,6.71,0,0,1,1.42-4.53A5.2,5.2,0,0,1,145,242a5.3,5.3,0,0,1,4.21,1.64,6.64,6.64,0,0,1,1.44,4.53V260.8a6.67,6.67,0,0,1-1.44,4.54A5.29,5.29,0,0,1,145,267a5.19,5.19,0,0,1-4.16-1.65A6.71,6.71,0,0,1,139.45,260.8Zm2.67.17a4.13,4.13,0,0,0,.73,2.61,3.06,3.06,0,0,0,4.38,0,4.17,4.17,0,0,0,.72-2.61V248q0-3.57-2.91-3.57a2.61,2.61,0,0,0-2.19.93,4.2,4.2,0,0,0-.73,2.64Z"/>
      <path class="cls-10" d="M153.05,260.8V248.17a6.71,6.71,0,0,1,1.42-4.53,5.2,5.2,0,0,1,4.16-1.64,5.3,5.3,0,0,1,4.21,1.64,6.64,6.64,0,0,1,1.44,4.53V260.8a6.67,6.67,0,0,1-1.44,4.54,5.29,5.29,0,0,1-4.21,1.65,5.19,5.19,0,0,1-4.16-1.65A6.71,6.71,0,0,1,153.05,260.8Zm2.67.17a4.13,4.13,0,0,0,.73,2.61,3.06,3.06,0,0,0,4.38,0,4.17,4.17,0,0,0,.72-2.61V248q0-3.57-2.91-3.57a2.61,2.61,0,0,0-2.19.93,4.2,4.2,0,0,0-.73,2.64Z"/>
      <path class="cls-10" d="M171.71,264.33h1.57a3.67,3.67,0,0,0,.81-1.48,9.42,9.42,0,0,0,.28-2.09l.94-18.53h9.83v22.1H187v5.78h-2.67v-3.37h-10v3.37h-2.67Zm4.23,0h6.46v-19.6h-4.58l-.83,16a11.05,11.05,0,0,1-.31,2.21A3.45,3.45,0,0,1,175.95,264.33Z"/>
      <path class="cls-10" d="M189.18,260.83V248.17a6.71,6.71,0,0,1,1.42-4.53,5.2,5.2,0,0,1,4.16-1.64,5.3,5.3,0,0,1,4.21,1.64,6.64,6.64,0,0,1,1.44,4.53v12.66a6.62,6.62,0,0,1-1.44,4.5,5.29,5.29,0,0,1-4.21,1.65,5.19,5.19,0,0,1-4.16-1.65A6.65,6.65,0,0,1,189.18,260.83Zm2.67.14a4.12,4.12,0,0,0,.73,2.62,2.62,2.62,0,0,0,2.19.92q2.91,0,2.91-3.54V248a4.17,4.17,0,0,0-.72-2.62,3.06,3.06,0,0,0-4.38,0,4.13,4.13,0,0,0-.73,2.62Z"/>
      <path class="cls-10" d="M208.27,260.8v-1.67h2.56V261a4.18,4.18,0,0,0,.72,2.61,2.55,2.55,0,0,0,2.15.92q2.86,0,2.86-3.78v-1.9a4.09,4.09,0,0,0-.76-2.69,3,3,0,0,0-2.31-.95H212v-2.44h1.6a2.89,2.89,0,0,0,2.16-.92,3.55,3.55,0,0,0,.78-2.44v-1.11q0-3.83-2.86-3.83a2.53,2.53,0,0,0-2.15.94,4.26,4.26,0,0,0-.72,2.63v1.26h-2.56v-1.11a6.83,6.83,0,0,1,1.38-4.53,5.07,5.07,0,0,1,4.12-1.64,5.12,5.12,0,0,1,4.14,1.64,6.79,6.79,0,0,1,1.39,4.53v.62a6.29,6.29,0,0,1-.75,3.2,4.15,4.15,0,0,1-2.22,1.85q3,1.11,3,5.08v1.9a6.81,6.81,0,0,1-1.39,4.55,5.12,5.12,0,0,1-4.14,1.64,5.07,5.07,0,0,1-4.12-1.64A6.86,6.86,0,0,1,208.27,260.8Z"/>
      <path class="cls-10" d="M221.74,260.8V248.17a6.71,6.71,0,0,1,1.42-4.53,5.2,5.2,0,0,1,4.16-1.64,5.3,5.3,0,0,1,4.21,1.64,6.64,6.64,0,0,1,1.44,4.53V260.8a6.67,6.67,0,0,1-1.44,4.54,5.29,5.29,0,0,1-4.21,1.65,5.19,5.19,0,0,1-4.16-1.65A6.71,6.71,0,0,1,221.74,260.8Zm2.67.17a4.13,4.13,0,0,0,.73,2.61,3.06,3.06,0,0,0,4.38,0,4.17,4.17,0,0,0,.72-2.61V248q0-3.57-2.91-3.57a2.61,2.61,0,0,0-2.19.93,4.2,4.2,0,0,0-.73,2.64Z"/>
      <path class="cls-10" d="M240.76,260.8V248.17a6.71,6.71,0,0,1,1.42-4.53,5.2,5.2,0,0,1,4.16-1.64,5.3,5.3,0,0,1,4.21,1.64,6.64,6.64,0,0,1,1.44,4.53V260.8a6.67,6.67,0,0,1-1.44,4.54,5.29,5.29,0,0,1-4.21,1.65,5.19,5.19,0,0,1-4.16-1.65A6.71,6.71,0,0,1,240.76,260.8Zm2.67.17a4.13,4.13,0,0,0,.73,2.61,3.06,3.06,0,0,0,4.38,0,4.17,4.17,0,0,0,.72-2.61V248q0-3.57-2.91-3.57a2.61,2.61,0,0,0-2.19.93,4.2,4.2,0,0,0-.73,2.64Z"/>
      <path class="cls-10" d="M254.36,260.8V248.17a6.71,6.71,0,0,1,1.42-4.53,5.2,5.2,0,0,1,4.16-1.64,5.3,5.3,0,0,1,4.21,1.64,6.64,6.64,0,0,1,1.44,4.53V260.8a6.67,6.67,0,0,1-1.44,4.54,5.29,5.29,0,0,1-4.21,1.65,5.19,5.19,0,0,1-4.16-1.65A6.71,6.71,0,0,1,254.36,260.8ZM257,261a4.13,4.13,0,0,0,.73,2.61,3.06,3.06,0,0,0,4.38,0,4.17,4.17,0,0,0,.72-2.61V248q0-3.57-2.91-3.57a2.61,2.61,0,0,0-2.19.93A4.2,4.2,0,0,0,257,248Z"/>
      <path class="cls-10" d="M268,260.8V248.17a6.71,6.71,0,0,1,1.42-4.53,5.2,5.2,0,0,1,4.16-1.64,5.3,5.3,0,0,1,4.21,1.64,6.64,6.64,0,0,1,1.44,4.53V260.8a6.67,6.67,0,0,1-1.44,4.54,5.29,5.29,0,0,1-4.21,1.65,5.19,5.19,0,0,1-4.16-1.65A6.71,6.71,0,0,1,268,260.8Zm2.67.17a4.13,4.13,0,0,0,.73,2.61,3.06,3.06,0,0,0,4.38,0,4.17,4.17,0,0,0,.72-2.61V248q0-3.57-2.91-3.57a2.61,2.61,0,0,0-2.19.93,4.2,4.2,0,0,0-.73,2.64Z"/>
      <path class="cls-10" d="M287.19,266.74V242.24h5.37a5.22,5.22,0,0,1,4.17,1.56,6.57,6.57,0,0,1,1.35,4.44v2.94q0,5.91-5.73,5.91h-2.42v9.66Zm2.73-12.12h2.41a3,3,0,0,0,2.28-.78,3.59,3.59,0,0,0,.73-2.5v-3.26a4,4,0,0,0-.67-2.53,2.59,2.59,0,0,0-2.14-.82h-2.61Z"/>
      <path class="cls-10" d="M299.39,242.24h2.73l2.41,8.52,1.74,6.17,1.44-6.17,2.21-8.51h2.84l-5.25,19.12a14.1,14.1,0,0,1-.76,2.44,5.57,5.57,0,0,1-1.15,1.7,4,4,0,0,1-1.86,1,9.45,9.45,0,0,1-2.77.23v-2.44a3.89,3.89,0,0,0,2.37-.48,3.16,3.16,0,0,0,1.14-1.95l.57-1.61Z"/>
      <path class="cls-10" d="M314.79,266.74V242.24h10.32v2.5h-7.59v7.62h2.87q5.76,0,5.76,5.74v2.7q0,5.95-5.65,5.95Zm2.73-2.48h3a2.78,2.78,0,0,0,2.2-.79,3.73,3.73,0,0,0,.7-2.5v-3a2.61,2.61,0,0,0-3-3.11h-2.86Z"/>
      <path class="cls-10" d="M328.79,266.74v-3.4h2.67v3.4Z"/>
    </g>
    <g>
      <path class="cls-11" d="M110.28,392.87h-1v-9.8h1l3.54,4.75,3.54-4.75h1v9.8h-1v-8.23l-3.21,4.28h-.63l-3.23-4.28Z"/>
      <path class="cls-11" d="M124,392.87h-3.07v-6.76h1v2.27h2a2.76,2.76,0,0,1,1.88.61,2.05,2.05,0,0,1,.7,1.63,2.11,2.11,0,0,1-.67,1.64A2.65,2.65,0,0,1,124,392.87Zm-2.06-3.61V392h1.88a2,2,0,0,0,1.25-.36,1.21,1.21,0,0,0,.45-1,1.22,1.22,0,0,0-.45-1,2,2,0,0,0-1.25-.36Zm6.72,3.61h-1v-6.76h1Z"/>
      <path class="cls-11" d="M138,393a3.27,3.27,0,0,1-2.7-1.2,6.18,6.18,0,0,1,.39-7.18,5,5,0,0,1,1.61-.92,10.17,10.17,0,0,1,1-.31q.52-.14,1.11-.27l.62-.13.62-.11v.94q-1.44.28-2.23.46a4.52,4.52,0,0,0-2.31,1.16,3.71,3.71,0,0,0-.84,2.51,3,3,0,0,1,1.21-1.15,3.74,3.74,0,0,1,1.79-.42,3.06,3.06,0,0,1,3.12,3.16A3.33,3.33,0,0,1,138,393Zm0-.91a2.28,2.28,0,0,0,1.68-.69,2.43,2.43,0,0,0,.7-1.79,2.2,2.2,0,0,0-.67-1.68,2.27,2.27,0,0,0-1.65-.64,2.66,2.66,0,0,0-1.64.55,3,3,0,0,0-1.05,1.26,3.55,3.55,0,0,0,.75,2.21A2.36,2.36,0,0,0,138,392.13Z"/>
      <path class="cls-11" d="M146.55,393a3.77,3.77,0,0,1-2.66-1,3.3,3.3,0,0,1-1.06-2.55,3.58,3.58,0,0,1,1-2.53,3.26,3.26,0,0,1,2.48-1,3.06,3.06,0,0,1,1.44.33,2.67,2.67,0,0,1,1,.86,4.13,4.13,0,0,1,.55,1.13,4.07,4.07,0,0,1,.18,1.2v.28h-5.56a2.4,2.4,0,0,0,.88,1.74,3.06,3.06,0,0,0,2,.65,4,4,0,0,0,2.17-.63v.9A3.78,3.78,0,0,1,146.55,393Zm-2.67-4.13h4.52a2.3,2.3,0,0,0-.59-1.41,1.93,1.93,0,0,0-1.6-.64,2.29,2.29,0,0,0-1.65.62A2.21,2.21,0,0,0,143.88,388.91Z"/>
      <path class="cls-11" d="M154.42,393a3.55,3.55,0,0,1-2.58-1,3.46,3.46,0,0,1-1-2.55,3.37,3.37,0,0,1,1-2.52,3.49,3.49,0,0,1,2.58-1,4.09,4.09,0,0,1,2,.49v.94a3.79,3.79,0,0,0-1.9-.52,2.66,2.66,0,0,0-1.95.76,2.48,2.48,0,0,0-.77,1.89,2.54,2.54,0,0,0,.77,1.89,2.72,2.72,0,0,0,1.95.74,3.66,3.66,0,0,0,2-.59v.92A4.15,4.15,0,0,1,154.42,393Z"/>
      <path class="cls-11" d="M159.66,392.87h-1v-6.76h6.08v6.76h-1V387h-4.06Z"/>
      <path class="cls-11" d="M166.21,392.87v-.92h.27q.88,0,1.2-1.12a11.22,11.22,0,0,0,.34-2.58l.06-2.16h5.05v6.76h-1V387H169l0,1.3q0,.76-.06,1.09a7,7,0,0,1-.41,2,2.56,2.56,0,0,1-.77,1.1,1.75,1.75,0,0,1-1.26.38Z"/>
      <path class="cls-11" d="M177.5,393a2.9,2.9,0,0,1-1.83-.59,2,2,0,0,1-.74-1.65,2,2,0,0,1,.78-1.64,3.17,3.17,0,0,1,2-.6,4.73,4.73,0,0,1,2.44.66v-.67q0-1.69-2.23-1.69a3.89,3.89,0,0,0-2.21.69v-1a4.51,4.51,0,0,1,2.42-.62,3.45,3.45,0,0,1,2.21.65,2.23,2.23,0,0,1,.82,1.86v2.79a1,1,0,0,0,.17.62.57.57,0,0,0,.47.22.87.87,0,0,0,.39-.08v.78a1.19,1.19,0,0,1-.67.15,1.32,1.32,0,0,1-.85-.27,1.23,1.23,0,0,1-.43-.81A3.42,3.42,0,0,1,177.5,393Zm.28-.91a2.88,2.88,0,0,0,1.33-.32,3.06,3.06,0,0,0,1-.81v-.94a4,4,0,0,0-2.2-.67,2.58,2.58,0,0,0-1.46.36,1.14,1.14,0,0,0-.54,1,1.18,1.18,0,0,0,.52,1A2.26,2.26,0,0,0,177.78,392.13Z"/>
      <path class="cls-11" d="M186.28,392.87h-1V387h-2.45v-.88h5.91V387h-2.45Z"/>
      <path class="cls-11" d="M191.3,392.87h-1v-6.76h1v2.84h4.16v-2.84h1v6.76h-1v-3H191.3Z"/>
      <path class="cls-11" d="M199.37,387a3.82,3.82,0,0,1,5.26,0,3.58,3.58,0,0,1,0,5,3.86,3.86,0,0,1-5.26,0,3.58,3.58,0,0,1,0-5Zm5.25,2.51a2.62,2.62,0,0,0-.74-1.89,2.49,2.49,0,0,0-1.88-.76,2.52,2.52,0,0,0-1.88.76,2.76,2.76,0,0,0,0,3.77,2.52,2.52,0,0,0,1.88.76,2.49,2.49,0,0,0,1.88-.76A2.6,2.6,0,0,0,204.62,389.5Z"/>
      <path class="cls-11" d="M212.24,392.87h-1v-6.76h6.08v6.76h-1V387h-4.06Z"/>
      <path class="cls-11" d="M220.69,391.79v3.88h-1v-9.56h1v1.08a3.11,3.11,0,0,1,2.62-1.25,3.18,3.18,0,0,1,2.45,1,3.79,3.79,0,0,1,0,5,3.18,3.18,0,0,1-2.45,1A3.11,3.11,0,0,1,220.69,391.79Zm0-3.42v2.23a2.48,2.48,0,0,0,1,1.1,2.57,2.57,0,0,0,1.43.43,2.47,2.47,0,0,0,1.86-.76,2.65,2.65,0,0,0,.74-1.89,2.6,2.6,0,0,0-.74-1.88,2.47,2.47,0,0,0-1.86-.76,2.68,2.68,0,0,0-2.38,1.53Z"/>
      <path class="cls-11" d="M229.12,387a3.82,3.82,0,0,1,5.26,0,3.58,3.58,0,0,1,0,5,3.86,3.86,0,0,1-5.26,0,3.58,3.58,0,0,1,0-5Zm5.25,2.51a2.62,2.62,0,0,0-.74-1.89,2.49,2.49,0,0,0-1.88-.76,2.52,2.52,0,0,0-1.88.76,2.76,2.76,0,0,0,0,3.77,2.52,2.52,0,0,0,1.88.76,2.49,2.49,0,0,0,1.88-.76A2.6,2.6,0,0,0,234.37,389.5Z"/>
      <path class="cls-11" d="M241.08,392.87h-3.79v-6.76h3.56a2.22,2.22,0,0,1,1.5.47,1.58,1.58,0,0,1,.54,1.25,1.48,1.48,0,0,1-.84,1.48,1.81,1.81,0,0,1,.7,3.07A2.56,2.56,0,0,1,241.08,392.87ZM238.29,387v2h2.27a1.62,1.62,0,0,0,1-.26.86.86,0,0,0,.35-.73q0-1-1.33-1Zm0,2.83V392h2.58a1.76,1.76,0,0,0,1.06-.28.93.93,0,0,0,.38-.8,1,1,0,0,0-.38-.8,1.73,1.73,0,0,0-1.06-.29Z"/>
      <path class="cls-11" d="M248.6,393a3.77,3.77,0,0,1-2.66-1,3.3,3.3,0,0,1-1.06-2.55,3.58,3.58,0,0,1,1-2.53,3.26,3.26,0,0,1,2.48-1,3.06,3.06,0,0,1,1.44.33,2.67,2.67,0,0,1,1,.86,4.13,4.13,0,0,1,.55,1.13,4.07,4.07,0,0,1,.18,1.2v.28h-5.56a2.4,2.4,0,0,0,.88,1.74,3.06,3.06,0,0,0,2,.65,4,4,0,0,0,2.17-.63v.9A3.78,3.78,0,0,1,248.6,393Zm-2.67-4.13h4.52a2.3,2.3,0,0,0-.59-1.41,1.93,1.93,0,0,0-1.6-.64,2.29,2.29,0,0,0-1.65.62A2.21,2.21,0,0,0,245.92,388.91Z"/>
      <path class="cls-11" d="M254.36,391.79v3.88h-1v-9.56h1v1.08a3.11,3.11,0,0,1,2.62-1.25,3.18,3.18,0,0,1,2.45,1,3.79,3.79,0,0,1,0,5,3.18,3.18,0,0,1-2.45,1A3.11,3.11,0,0,1,254.36,391.79Zm0-3.42v2.23a2.48,2.48,0,0,0,1,1.1,2.57,2.57,0,0,0,1.43.43,2.47,2.47,0,0,0,1.86-.76,2.65,2.65,0,0,0,.74-1.89,2.6,2.6,0,0,0-.74-1.88,2.47,2.47,0,0,0-1.86-.76,2.68,2.68,0,0,0-2.38,1.53Z"/>
      <path class="cls-11" d="M263.2,392.87h-.94v-6.76h1v5.28l4.33-5.28h.94v6.76h-1v-5.26Z"/>
      <path class="cls-11" d="M271.89,392.87h-1v-6.76h1l2.7,3.14,2.72-3.14h1v6.76h-1v-5.38l-2.52,2.93h-.39l-2.51-2.93Z"/>
      <path class="cls-11" d="M86.83,412a2.9,2.9,0,0,1-1.83-.59,2,2,0,0,1-.74-1.65,2,2,0,0,1,.78-1.64,3.17,3.17,0,0,1,2-.6,4.73,4.73,0,0,1,2.44.66v-.67q0-1.69-2.23-1.69a3.89,3.89,0,0,0-2.21.69v-1a4.51,4.51,0,0,1,2.42-.62,3.45,3.45,0,0,1,2.21.65,2.23,2.23,0,0,1,.82,1.86v2.79a1,1,0,0,0,.17.62.57.57,0,0,0,.47.22.87.87,0,0,0,.39-.08v.78a1.19,1.19,0,0,1-.67.15,1.32,1.32,0,0,1-.85-.27,1.23,1.23,0,0,1-.43-.81A3.42,3.42,0,0,1,86.83,412Zm.28-.91a2.88,2.88,0,0,0,1.33-.32,3.06,3.06,0,0,0,1-.81v-.94a4,4,0,0,0-2.2-.67,2.58,2.58,0,0,0-1.46.36,1.14,1.14,0,0,0-.54,1,1.18,1.18,0,0,0,.52,1A2.26,2.26,0,0,0,87.11,411.13Z"/>
      <path class="cls-11" d="M96.93,411.87H93.14v-6.76H96.7a2.22,2.22,0,0,1,1.5.47,1.58,1.58,0,0,1,.54,1.25,1.48,1.48,0,0,1-.84,1.48,1.81,1.81,0,0,1,.7,3.07A2.56,2.56,0,0,1,96.93,411.87ZM94.15,406v2h2.27a1.62,1.62,0,0,0,1-.26.86.86,0,0,0,.35-.73q0-1-1.33-1Zm0,2.83V411h2.58a1.76,1.76,0,0,0,1.06-.28.93.93,0,0,0,.38-.8,1,1,0,0,0-.38-.8,1.73,1.73,0,0,0-1.06-.29Z"/>
      <path class="cls-11" d="M103.54,411.87h-1V406h-2.45v-.88H106V406h-2.45Z"/>
      <path class="cls-11" d="M107.9,406a3.82,3.82,0,0,1,5.26,0,3.58,3.58,0,0,1,0,5,3.86,3.86,0,0,1-5.26,0,3.58,3.58,0,0,1,0-5Zm5.25,2.51a2.62,2.62,0,0,0-.74-1.89,2.49,2.49,0,0,0-1.88-.76,2.52,2.52,0,0,0-1.88.76,2.76,2.76,0,0,0,0,3.77,2.52,2.52,0,0,0,1.88.76,2.49,2.49,0,0,0,1.88-.76A2.6,2.6,0,0,0,113.15,408.5Z"/>
      <path class="cls-11" d="M117,411.87h-1v-6.76h1l2.7,3.14,2.72-3.14h1v6.76h-1v-5.38l-2.52,2.93h-.39L117,406.49Z"/>
      <path class="cls-11" d="M126.35,406a3.82,3.82,0,0,1,5.26,0,3.58,3.58,0,0,1,0,5,3.86,3.86,0,0,1-5.26,0,3.58,3.58,0,0,1,0-5Zm5.25,2.51a2.62,2.62,0,0,0-.74-1.89,2.49,2.49,0,0,0-1.88-.76,2.52,2.52,0,0,0-1.88.76,2.76,2.76,0,0,0,0,3.77,2.52,2.52,0,0,0,1.88.76,2.49,2.49,0,0,0,1.88-.76A2.6,2.6,0,0,0,131.6,408.5Z"/>
      <path class="cls-11" d="M137.81,412a3.27,3.27,0,0,1-2.7-1.2,6.18,6.18,0,0,1,.39-7.18,5,5,0,0,1,1.61-.92,10.17,10.17,0,0,1,1-.31q.52-.14,1.11-.27l.62-.13.62-.11v.94q-1.44.28-2.23.46a4.52,4.52,0,0,0-2.31,1.16,3.71,3.71,0,0,0-.84,2.51,3,3,0,0,1,1.21-1.15,3.74,3.74,0,0,1,1.79-.42,3.06,3.06,0,0,1,3.12,3.16,3.33,3.33,0,0,1-3.4,3.46Zm0-.91a2.28,2.28,0,0,0,1.68-.69,2.43,2.43,0,0,0,.7-1.79,2.2,2.2,0,0,0-.67-1.68,2.27,2.27,0,0,0-1.65-.64,2.66,2.66,0,0,0-1.64.55,3,3,0,0,0-1.05,1.26,3.55,3.55,0,0,0,.75,2.21A2.36,2.36,0,0,0,137.81,411.13Z"/>
      <path class="cls-11" d="M144,411.87h-.94v-6.76h1v5.28l4.33-5.28h.94v6.76h-1v-5.26Z"/>
      <path class="cls-11" d="M150.85,411.87v-.92h.27q.88,0,1.2-1.12a11.22,11.22,0,0,0,.34-2.58l.06-2.16h5.05v6.76h-1V406h-3.08l0,1.3q0,.76-.06,1.09a7,7,0,0,1-.41,2,2.56,2.56,0,0,1-.77,1.1,1.75,1.75,0,0,1-1.26.38Z"/>
      <path class="cls-11" d="M163.56,411.87h-3.42v-6.76h1v2.27h2.37a2.76,2.76,0,0,1,1.88.61,2.05,2.05,0,0,1,.7,1.63,2.11,2.11,0,0,1-.67,1.64A2.65,2.65,0,0,1,163.56,411.87Zm-2.41-3.61V411h2.23a2,2,0,0,0,1.25-.36,1.21,1.21,0,0,0,.45-1,1.22,1.22,0,0,0-.45-1,2,2,0,0,0-1.25-.36Z"/>
      <path class="cls-11" d="M172.69,411.87h-1v-6.76h1v2.84h4.16v-2.84h1v6.76h-1v-3h-4.16Z"/>
      <path class="cls-11" d="M182.24,412a2.9,2.9,0,0,1-1.83-.59,2,2,0,0,1-.74-1.65,2,2,0,0,1,.78-1.64,3.17,3.17,0,0,1,2-.6,4.73,4.73,0,0,1,2.44.66v-.67q0-1.69-2.23-1.69a3.89,3.89,0,0,0-2.21.69v-1a4.51,4.51,0,0,1,2.42-.62,3.45,3.45,0,0,1,2.21.65,2.23,2.23,0,0,1,.82,1.86v2.79a1,1,0,0,0,.17.62.57.57,0,0,0,.47.22.87.87,0,0,0,.39-.08v.78a1.19,1.19,0,0,1-.67.15,1.32,1.32,0,0,1-.85-.27,1.23,1.23,0,0,1-.43-.81A3.42,3.42,0,0,1,182.24,412Zm.28-.91a2.88,2.88,0,0,0,1.33-.32,3.06,3.06,0,0,0,1-.81v-.94a4,4,0,0,0-2.2-.67,2.58,2.58,0,0,0-1.46.36,1.14,1.14,0,0,0-.54,1,1.18,1.18,0,0,0,.52,1A2.26,2.26,0,0,0,182.52,411.13Z"/>
      <path class="cls-11" d="M195.48,412a3.77,3.77,0,0,1-2.66-1,3.3,3.3,0,0,1-1.06-2.55,3.58,3.58,0,0,1,1-2.53,3.26,3.26,0,0,1,2.48-1,3.06,3.06,0,0,1,1.44.33,2.67,2.67,0,0,1,1,.86,4.13,4.13,0,0,1,.55,1.13,4.07,4.07,0,0,1,.18,1.2v.28h-5.56a2.4,2.4,0,0,0,.88,1.74,3.06,3.06,0,0,0,2,.65,4,4,0,0,0,2.17-.63v.9A3.78,3.78,0,0,1,195.48,412Zm-2.67-4.13h4.52a2.3,2.3,0,0,0-.59-1.41,1.93,1.93,0,0,0-1.6-.64,2.29,2.29,0,0,0-1.65.62A2.21,2.21,0,0,0,192.81,407.91Z"/>
      <path class="cls-11" d="M201.25,411.87h-1v-6.76h5.08V406h-4.07Z"/>
      <path class="cls-11" d="M207.27,406a3.82,3.82,0,0,1,5.26,0,3.58,3.58,0,0,1,0,5,3.86,3.86,0,0,1-5.26,0,3.58,3.58,0,0,1,0-5Zm5.25,2.51a2.62,2.62,0,0,0-.74-1.89,2.49,2.49,0,0,0-1.88-.76,2.52,2.52,0,0,0-1.88.76,2.76,2.76,0,0,0,0,3.77,2.52,2.52,0,0,0,1.88.76,2.49,2.49,0,0,0,1.88-.76A2.6,2.6,0,0,0,212.52,408.5Z"/>
      <path class="cls-11" d="M221.2,411.87h-1V406h-2.45v-.88h5.91V406H221.2Z"/>
      <path class="cls-11" d="M228.25,412a3.77,3.77,0,0,1-2.66-1,3.3,3.3,0,0,1-1.06-2.55,3.58,3.58,0,0,1,1-2.53,3.26,3.26,0,0,1,2.48-1,3.06,3.06,0,0,1,1.44.33,2.67,2.67,0,0,1,1,.86,4.13,4.13,0,0,1,.55,1.13,4.07,4.07,0,0,1,.18,1.2v.28h-5.56a2.4,2.4,0,0,0,.88,1.74,3.06,3.06,0,0,0,2,.65,4,4,0,0,0,2.17-.63v.9A3.78,3.78,0,0,1,228.25,412Zm-2.67-4.13h4.52a2.3,2.3,0,0,0-.59-1.41,1.93,1.93,0,0,0-1.6-.64,2.29,2.29,0,0,0-1.65.62A2.21,2.21,0,0,0,225.58,407.91Z"/>
      <path class="cls-11" d="M233.28,411.87h-1.16L235,408.3l-2.51-3.19h1.19l1.93,2.41,1.93-2.41h1.18l-2.52,3.16,2.84,3.6h-1.19L235.56,409Z"/>
      <path class="cls-11" d="M241.69,411.87h-1v-6.76h1v2.84h4.16v-2.84h1v6.76h-1v-3h-4.16Z"/>
      <path class="cls-11" d="M250.18,411.87h-.94v-6.76h1v5.28l4.33-5.28h.94v6.76h-1v-5.26Z"/>
      <path class="cls-11" d="M263.39,411.87h-1v-2.7a5.24,5.24,0,0,1-2.09.42,2.38,2.38,0,0,1-2.74-2.79v-1.69h1v1.61a1.63,1.63,0,0,0,1.93,2,4.06,4.06,0,0,0,1.89-.45v-3.12h1Z"/>
      <path class="cls-11" d="M269,412a3.77,3.77,0,0,1-2.66-1,3.3,3.3,0,0,1-1.06-2.55,3.58,3.58,0,0,1,1-2.53,3.26,3.26,0,0,1,2.48-1,3.06,3.06,0,0,1,1.44.33,2.67,2.67,0,0,1,1,.86,4.13,4.13,0,0,1,.55,1.13,4.07,4.07,0,0,1,.18,1.2v.28h-5.56a2.4,2.4,0,0,0,.88,1.74,3.06,3.06,0,0,0,2,.65,4,4,0,0,0,2.17-.63v.9A3.78,3.78,0,0,1,269,412Zm-2.67-4.13h4.52a2.3,2.3,0,0,0-.59-1.41,1.93,1.93,0,0,0-1.6-.64,2.29,2.29,0,0,0-1.65.62A2.21,2.21,0,0,0,266.33,407.91Z"/>
      <path class="cls-11" d="M276.87,412a3.55,3.55,0,0,1-2.58-1,3.46,3.46,0,0,1-1-2.55,3.37,3.37,0,0,1,1-2.52,3.49,3.49,0,0,1,2.58-1,4.09,4.09,0,0,1,2,.49v.94a3.79,3.79,0,0,0-1.9-.52,2.66,2.66,0,0,0-1.95.76,2.48,2.48,0,0,0-.77,1.89,2.54,2.54,0,0,0,.77,1.89,2.72,2.72,0,0,0,1.95.74,3.66,3.66,0,0,0,2-.59v.92A4.15,4.15,0,0,1,276.87,412Z"/>
      <path class="cls-11" d="M281.1,405.11h1v2.79l3.22-2.79h1.37l-3.57,3.05,4.07,3.71h-1.44l-3.65-3.33v3.33h-1Z"/>
      <path class="cls-11" d="M288.75,406a3.82,3.82,0,0,1,5.26,0,3.58,3.58,0,0,1,0,5,3.86,3.86,0,0,1-5.26,0,3.58,3.58,0,0,1,0-5ZM294,408.5a2.62,2.62,0,0,0-.74-1.89,2.49,2.49,0,0,0-1.88-.76,2.52,2.52,0,0,0-1.88.76,2.76,2.76,0,0,0,0,3.77,2.52,2.52,0,0,0,1.88.76,2.49,2.49,0,0,0,1.88-.76A2.6,2.6,0,0,0,294,408.5Z"/>
      <path class="cls-11" d="M300.14,412a3.77,3.77,0,0,1-2.66-1,3.3,3.3,0,0,1-1.06-2.55,3.58,3.58,0,0,1,1-2.53,3.26,3.26,0,0,1,2.48-1,3.06,3.06,0,0,1,1.44.33,2.67,2.67,0,0,1,1,.86,4.13,4.13,0,0,1,.55,1.13,4.07,4.07,0,0,1,.18,1.2v.28h-5.56a2.4,2.4,0,0,0,.88,1.74,3.06,3.06,0,0,0,2,.65,4,4,0,0,0,2.17-.63v.9A3.78,3.78,0,0,1,300.14,412Zm-2.67-4.13H302a2.3,2.3,0,0,0-.59-1.41,1.93,1.93,0,0,0-1.6-.64,2.29,2.29,0,0,0-1.65.62A2.21,2.21,0,0,0,297.47,407.91Z"/>
      <path class="cls-11" d="M110.6,431a3.55,3.55,0,0,1-2.58-1,3.46,3.46,0,0,1-1-2.55,3.37,3.37,0,0,1,1-2.52,3.49,3.49,0,0,1,2.58-1,4.09,4.09,0,0,1,2,.49v.94a3.79,3.79,0,0,0-1.9-.52,2.66,2.66,0,0,0-1.95.76,2.48,2.48,0,0,0-.77,1.89,2.54,2.54,0,0,0,.77,1.89,2.72,2.72,0,0,0,1.95.74,3.66,3.66,0,0,0,2-.59v.92A4.15,4.15,0,0,1,110.6,431Z"/>
      <path class="cls-11" d="M115.22,425a3.82,3.82,0,0,1,5.26,0,3.58,3.58,0,0,1,0,5,3.86,3.86,0,0,1-5.26,0,3.58,3.58,0,0,1,0-5Zm5.25,2.51a2.62,2.62,0,0,0-.74-1.89,2.49,2.49,0,0,0-1.88-.76,2.52,2.52,0,0,0-1.88.76,2.76,2.76,0,0,0,0,3.77,2.52,2.52,0,0,0,1.88.76,2.49,2.49,0,0,0,1.88-.76A2.6,2.6,0,0,0,120.47,427.5Z"/>
      <path class="cls-11" d="M126.49,431a3.55,3.55,0,0,1-2.58-1,3.46,3.46,0,0,1-1-2.55,3.37,3.37,0,0,1,1-2.52,3.49,3.49,0,0,1,2.58-1,4.09,4.09,0,0,1,2,.49v.94a3.79,3.79,0,0,0-1.9-.52,2.66,2.66,0,0,0-1.95.76,2.48,2.48,0,0,0-.77,1.89,2.54,2.54,0,0,0,.77,1.89,2.72,2.72,0,0,0,1.95.74,3.66,3.66,0,0,0,2-.59v.92A4.15,4.15,0,0,1,126.49,431Z"/>
      <path class="cls-11" d="M133.25,430.87h-1V425h-2.45v-.88h5.91V425h-2.45Z"/>
      <path class="cls-11" d="M137.6,425a3.82,3.82,0,0,1,5.26,0,3.58,3.58,0,0,1,0,5,3.86,3.86,0,0,1-5.26,0,3.58,3.58,0,0,1,0-5Zm5.25,2.51a2.62,2.62,0,0,0-.74-1.89,2.49,2.49,0,0,0-1.88-.76,2.52,2.52,0,0,0-1.88.76,2.76,2.76,0,0,0,0,3.77,2.52,2.52,0,0,0,1.88.76,2.49,2.49,0,0,0,1.88-.76A2.6,2.6,0,0,0,142.85,427.5Z"/>
      <path class="cls-11" d="M146.38,430.87h-1.15l2-2.7a1.89,1.89,0,0,1-1.71-2,1.9,1.9,0,0,1,.64-1.5,2.62,2.62,0,0,1,1.79-.56h3.49v6.76h-1v-2.52h-2.17Zm1.74-3.4h2.32V425h-2.32a1.78,1.78,0,0,0-1.14.32,1.12,1.12,0,0,0-.4.92,1.1,1.1,0,0,0,.4.92A1.81,1.81,0,0,0,148.12,427.47Z"/>
      <path class="cls-11" d="M154.84,430.87h-1v-6.76h1v2.84H159v-2.84h1v6.76h-1v-3h-4.16Z"/>
      <path class="cls-11" d="M163.32,430.87h-.94v-6.76h1v5.28l4.33-5.28h.94v6.76h-1v-5.26Z"/>
      <path class="cls-11" d="M174.27,431a3.77,3.77,0,0,1-2.66-1,3.3,3.3,0,0,1-1.06-2.55,3.58,3.58,0,0,1,1-2.53,3.26,3.26,0,0,1,2.48-1,3.06,3.06,0,0,1,1.44.33,2.67,2.67,0,0,1,1,.86,4.13,4.13,0,0,1,.55,1.13,4.07,4.07,0,0,1,.18,1.2v.28h-5.56a2.4,2.4,0,0,0,.88,1.74,3.06,3.06,0,0,0,2,.65,4,4,0,0,0,2.17-.63v.9A3.78,3.78,0,0,1,174.27,431Zm-2.67-4.13h4.52a2.3,2.3,0,0,0-.59-1.41,1.93,1.93,0,0,0-1.6-.64,2.29,2.29,0,0,0-1.65.62A2.21,2.21,0,0,0,171.6,426.91Z"/>
      <path class="cls-11" d="M178.86,433h-.81l1.12-3.57h1.18Z"/>
      <path class="cls-11" d="M192,431a3.16,3.16,0,0,1-2.27-.88,3.43,3.43,0,0,1-1.05-2.24H187v3h-1v-6.76h1V427h1.68a3.3,3.3,0,0,1,1.05-2.2,3.2,3.2,0,0,1,2.25-.87,3.14,3.14,0,0,1,2.42,1,3.79,3.79,0,0,1,0,5.05A3.14,3.14,0,0,1,192,431Zm0-.91a2.2,2.2,0,0,0,1.72-.76,3,3,0,0,0,0-3.77,2.32,2.32,0,0,0-3.43,0,3,3,0,0,0,0,3.77A2.18,2.18,0,0,0,192,430.13Z"/>
      <path class="cls-11" d="M198.29,429.79v3.88h-1v-9.56h1v1.08a3.11,3.11,0,0,1,2.62-1.25,3.18,3.18,0,0,1,2.45,1,3.79,3.79,0,0,1,0,5,3.18,3.18,0,0,1-2.45,1A3.11,3.11,0,0,1,198.29,429.79Zm0-3.42v2.23a2.48,2.48,0,0,0,1,1.1,2.57,2.57,0,0,0,1.43.43,2.47,2.47,0,0,0,1.86-.76,2.65,2.65,0,0,0,.74-1.89,2.6,2.6,0,0,0-.74-1.88,2.47,2.47,0,0,0-1.86-.76,2.68,2.68,0,0,0-2.38,1.53Z"/>
      <path class="cls-11" d="M207.13,430.87h-.94v-6.76h1v5.28l4.33-5.28h.94v6.76h-1v-5.26Z"/>
      <path class="cls-11" d="M214.93,432.87h-1V430h.85q1.12-1.48,1.15-4.93v-1h5V430h1.26v2.88h-1v-2h-6.36Zm1-2.88H220v-5h-3.08v.41A8.75,8.75,0,0,1,215.93,430Z"/>
      <path class="cls-11" d="M224.85,430.87h-.94v-6.76h1v5.28l4.33-5.28h.94v6.76h-1v-5.26Z"/>
      <path class="cls-11" d="M238.07,430.87h-1v-2.7a5.24,5.24,0,0,1-2.09.42,2.38,2.38,0,0,1-2.74-2.79v-1.69h1v1.61a1.63,1.63,0,0,0,1.93,2,4.06,4.06,0,0,0,1.89-.45v-3.12h1Z"/>
      <path class="cls-11" d="M243.68,431a3.77,3.77,0,0,1-2.66-1A3.3,3.3,0,0,1,240,427.5a3.58,3.58,0,0,1,1-2.53,3.26,3.26,0,0,1,2.48-1,3.06,3.06,0,0,1,1.44.33,2.67,2.67,0,0,1,1,.86,4.13,4.13,0,0,1,.55,1.13,4.07,4.07,0,0,1,.18,1.2v.28H241a2.4,2.4,0,0,0,.88,1.74,3.06,3.06,0,0,0,2,.65,4,4,0,0,0,2.17-.63v.9A3.78,3.78,0,0,1,243.68,431ZM241,426.91h4.52a2.3,2.3,0,0,0-.59-1.41,1.93,1.93,0,0,0-1.6-.64,2.29,2.29,0,0,0-1.65.62A2.21,2.21,0,0,0,241,426.91Z"/>
      <path class="cls-11" d="M251.55,431a3.55,3.55,0,0,1-2.58-1,3.46,3.46,0,0,1-1-2.55,3.37,3.37,0,0,1,1-2.52,3.49,3.49,0,0,1,2.58-1,4.09,4.09,0,0,1,2,.49v.94a3.79,3.79,0,0,0-1.9-.52,2.66,2.66,0,0,0-1.95.76,2.48,2.48,0,0,0-.77,1.89,2.54,2.54,0,0,0,.77,1.89,2.72,2.72,0,0,0,1.95.74,3.66,3.66,0,0,0,2-.59v.92A4.15,4.15,0,0,1,251.55,431Z"/>
      <path class="cls-11" d="M255.78,424.11h1v2.79l3.22-2.79h1.37l-3.57,3.05,4.07,3.71h-1.44l-3.65-3.33v3.33h-1Z"/>
      <path class="cls-11" d="M263.59,433.73a2.28,2.28,0,0,1-1.08-.2v-.94a2,2,0,0,0,.92.22,1.37,1.37,0,0,0,1.06-.51,6.39,6.39,0,0,0,.94-1.69l-3-6.51h1.12l2.39,5.32,2.32-5.32h1.09L266,431.63Q265.1,433.73,263.59,433.73Z"/>
      <path class="cls-11" d="M277,431a3.16,3.16,0,0,1-2.27-.88,3.43,3.43,0,0,1-1.05-2.24H272v3h-1v-6.76h1V427h1.68a3.3,3.3,0,0,1,1.05-2.2,3.2,3.2,0,0,1,2.25-.87,3.14,3.14,0,0,1,2.42,1,3.79,3.79,0,0,1,0,5.05A3.14,3.14,0,0,1,277,431Zm0-.91a2.2,2.2,0,0,0,1.72-.76,3,3,0,0,0,0-3.77,2.32,2.32,0,0,0-3.43,0,3,3,0,0,0,0,3.77A2.18,2.18,0,0,0,277,430.13Z"/>
      <path class="cls-11" d="M100.2,449.87h-1v-2.7a5.24,5.24,0,0,1-2.09.42,2.38,2.38,0,0,1-2.74-2.79v-1.69h1v1.61a1.63,1.63,0,0,0,1.93,2,4.06,4.06,0,0,0,1.89-.45v-3.12h1Z"/>
      <path class="cls-11" d="M103.51,449.87h-.94v-6.76h1v5.28l4.33-5.28h.94v6.76h-1v-5.26Z"/>
      <path class="cls-11" d="M114.34,450a3.55,3.55,0,0,1-2.58-1,3.46,3.46,0,0,1-1-2.55,3.37,3.37,0,0,1,1-2.52,3.49,3.49,0,0,1,2.58-1,4.09,4.09,0,0,1,2,.49v.94a3.79,3.79,0,0,0-1.9-.52,2.66,2.66,0,0,0-1.95.76,2.48,2.48,0,0,0-.77,1.89,2.54,2.54,0,0,0,.77,1.89,2.72,2.72,0,0,0,1.95.74,3.66,3.66,0,0,0,2-.59v.92A4.15,4.15,0,0,1,114.34,450Z"/>
      <path class="cls-11" d="M121.1,449.87h-1V444h-2.45v-.88h5.91V444H121.1Z"/>
      <path class="cls-11" d="M125.45,444a3.82,3.82,0,0,1,5.26,0,3.58,3.58,0,0,1,0,5,3.86,3.86,0,0,1-5.26,0,3.58,3.58,0,0,1,0-5Zm5.25,2.51a2.62,2.62,0,0,0-.74-1.89,2.49,2.49,0,0,0-1.88-.76,2.52,2.52,0,0,0-1.88.76,2.76,2.76,0,0,0,0,3.77,2.52,2.52,0,0,0,1.88.76,2.49,2.49,0,0,0,1.88-.76A2.6,2.6,0,0,0,130.7,446.5Z"/>
      <path class="cls-11" d="M136,449.87h-1V444h-2.45v-.88h5.91V444H136Z"/>
      <path class="cls-11" d="M140.39,452.73a2.28,2.28,0,0,1-1.08-.2v-.94a2,2,0,0,0,.92.22,1.37,1.37,0,0,0,1.06-.51,6.39,6.39,0,0,0,.94-1.69l-3-6.51h1.12l2.39,5.32,2.32-5.32h1.09l-3.35,7.52Q141.9,452.73,140.39,452.73Z"/>
      <path class="cls-11" d="M152.42,449.87h-.94v-6.76h1v5.28l4.33-5.28h.94v6.76h-1v-5.26Z"/>
      <path class="cls-11" d="M166.93,450a3.55,3.55,0,0,1-2.58-1,3.46,3.46,0,0,1-1-2.55,3.37,3.37,0,0,1,1-2.52,3.49,3.49,0,0,1,2.58-1,4.09,4.09,0,0,1,2,.49v.94a3.79,3.79,0,0,0-1.9-.52,2.66,2.66,0,0,0-1.95.76,2.48,2.48,0,0,0-.77,1.89,2.54,2.54,0,0,0,.77,1.89,2.72,2.72,0,0,0,1.95.74,3.66,3.66,0,0,0,2-.59v.92A4.15,4.15,0,0,1,166.93,450Z"/>
      <path class="cls-11" d="M171.55,444a3.82,3.82,0,0,1,5.26,0,3.58,3.58,0,0,1,0,5,3.86,3.86,0,0,1-5.26,0,3.58,3.58,0,0,1,0-5Zm5.25,2.51a2.62,2.62,0,0,0-.74-1.89,2.49,2.49,0,0,0-1.88-.76,2.52,2.52,0,0,0-1.88.76,2.76,2.76,0,0,0,0,3.77,2.52,2.52,0,0,0,1.88.76,2.49,2.49,0,0,0,1.88-.76A2.6,2.6,0,0,0,176.8,446.5Z"/>
      <path class="cls-11" d="M180.25,444a3.82,3.82,0,0,1,5.26,0,3.58,3.58,0,0,1,0,5,3.86,3.86,0,0,1-5.26,0,3.58,3.58,0,0,1,0-5Zm5.25,2.51a2.62,2.62,0,0,0-.74-1.89,2.49,2.49,0,0,0-1.88-.76,2.52,2.52,0,0,0-1.88.76,2.76,2.76,0,0,0,0,3.77,2.52,2.52,0,0,0,1.88.76,2.49,2.49,0,0,0,1.88-.76A2.6,2.6,0,0,0,185.5,446.5Z"/>
      <path class="cls-11" d="M190.8,449.87h-1V444h-2.45v-.88h5.91V444H190.8Z"/>
      <path class="cls-11" d="M198.6,449.87h-3.79v-6.76h3.56a2.22,2.22,0,0,1,1.5.47,1.58,1.58,0,0,1,.54,1.25,1.48,1.48,0,0,1-.84,1.48,1.81,1.81,0,0,1,.7,3.07A2.56,2.56,0,0,1,198.6,449.87ZM195.82,444v2h2.27a1.62,1.62,0,0,0,1-.26.86.86,0,0,0,.35-.73q0-1-1.33-1Zm0,2.83V449h2.58a1.76,1.76,0,0,0,1.06-.28.93.93,0,0,0,.38-.8,1,1,0,0,0-.38-.8,1.73,1.73,0,0,0-1.06-.29Z"/>
      <path class="cls-11" d="M206.12,450a3.77,3.77,0,0,1-2.66-1,3.3,3.3,0,0,1-1.06-2.55,3.58,3.58,0,0,1,1-2.53,3.26,3.26,0,0,1,2.48-1,3.06,3.06,0,0,1,1.44.33,2.67,2.67,0,0,1,1,.86,4.13,4.13,0,0,1,.55,1.13,4.07,4.07,0,0,1,.18,1.2v.28h-5.56a2.4,2.4,0,0,0,.88,1.74,3.06,3.06,0,0,0,2,.65,4,4,0,0,0,2.17-.63v.9A3.78,3.78,0,0,1,206.12,450Zm-2.67-4.13H208a2.3,2.3,0,0,0-.59-1.41,1.93,1.93,0,0,0-1.6-.64,2.29,2.29,0,0,0-1.65.62A2.21,2.21,0,0,0,203.45,445.91Z"/>
      <path class="cls-11" d="M213.33,449.87h-1V444h-2.45v-.88h5.91V444h-2.45Z"/>
      <path class="cls-11" d="M220.26,450a3.55,3.55,0,0,1-2.58-1,3.46,3.46,0,0,1-1-2.55,3.37,3.37,0,0,1,1-2.52,3.49,3.49,0,0,1,2.58-1,4.09,4.09,0,0,1,2,.49v.94a3.79,3.79,0,0,0-1.9-.52,2.66,2.66,0,0,0-1.95.76,2.48,2.48,0,0,0-.77,1.89,2.54,2.54,0,0,0,.77,1.89,2.72,2.72,0,0,0,1.95.74,3.66,3.66,0,0,0,2-.59v.92A4.15,4.15,0,0,1,220.26,450Z"/>
      <path class="cls-11" d="M227,449.87h-1V444h-2.45v-.88h5.91V444H227Z"/>
      <path class="cls-11" d="M234.82,449.87H231v-6.76h3.56a2.22,2.22,0,0,1,1.5.47,1.58,1.58,0,0,1,.54,1.25,1.48,1.48,0,0,1-.84,1.48,1.81,1.81,0,0,1,.7,3.07A2.56,2.56,0,0,1,234.82,449.87ZM232,444v2h2.27a1.62,1.62,0,0,0,1-.26.86.86,0,0,0,.35-.73q0-1-1.33-1Zm0,2.83V449h2.58a1.76,1.76,0,0,0,1.06-.28.93.93,0,0,0,.38-.8,1,1,0,0,0-.38-.8,1.73,1.73,0,0,0-1.06-.29Z"/>
      <path class="cls-11" d="M240,449.87h-.94v-6.76h1v5.28l4.33-5.28h.94v6.76h-1v-5.26Z"/>
      <path class="cls-11" d="M251,450a3.77,3.77,0,0,1-2.66-1,3.3,3.3,0,0,1-1.06-2.55,3.58,3.58,0,0,1,1-2.53,3.26,3.26,0,0,1,2.48-1,3.06,3.06,0,0,1,1.44.33,2.67,2.67,0,0,1,1,.86,4.13,4.13,0,0,1,.55,1.13,4.07,4.07,0,0,1,.18,1.2v.28H248.3a2.4,2.4,0,0,0,.88,1.74,3.06,3.06,0,0,0,2,.65,4,4,0,0,0,2.17-.63v.9A3.78,3.78,0,0,1,251,450Zm-2.67-4.13h4.52a2.3,2.3,0,0,0-.59-1.41,1.93,1.93,0,0,0-1.6-.64,2.29,2.29,0,0,0-1.65.62A2.21,2.21,0,0,0,248.32,445.91Z"/>
      <path class="cls-11" d="M266.73,451.87h-1v-2h-6.31v-6.76h1V449h4v-5.88h1V449h1.25Z"/>
      <path class="cls-11" d="M271.61,450a3.77,3.77,0,0,1-2.66-1,3.3,3.3,0,0,1-1.06-2.55,3.58,3.58,0,0,1,1-2.53,3.26,3.26,0,0,1,2.48-1,3.06,3.06,0,0,1,1.44.33,2.67,2.67,0,0,1,1,.86,4.13,4.13,0,0,1,.55,1.13,4.07,4.07,0,0,1,.18,1.2v.28h-5.56a2.4,2.4,0,0,0,.88,1.74,3.06,3.06,0,0,0,2,.65,4,4,0,0,0,2.17-.63v.9A3.78,3.78,0,0,1,271.61,450Zm-2.67-4.13h4.52a2.3,2.3,0,0,0-.59-1.41,1.93,1.93,0,0,0-1.6-.64,2.29,2.29,0,0,0-1.65.62A2.21,2.21,0,0,0,268.94,445.91Z"/>
      <path class="cls-11" d="M277.38,449.87h-1v-6.76h1v2.84h4.16v-2.84h1v6.76h-1v-3h-4.16Z"/>
      <path class="cls-11" d="M288,449.87h-3.07v-6.76h1v2.27h2a2.76,2.76,0,0,1,1.88.61,2.05,2.05,0,0,1,.7,1.63,2.11,2.11,0,0,1-.67,1.64A2.65,2.65,0,0,1,288,449.87Zm-2.06-3.61V449h1.88a2,2,0,0,0,1.25-.36,1.21,1.21,0,0,0,.45-1,1.22,1.22,0,0,0-.45-1,2,2,0,0,0-1.25-.36Zm6.72,3.61h-1v-6.76h1Z"/>
      <path class="cls-11" d="M173.47,467.79v3.88h-1v-9.56h1v1.08a3.11,3.11,0,0,1,2.62-1.25,3.18,3.18,0,0,1,2.45,1,3.79,3.79,0,0,1,0,5,3.18,3.18,0,0,1-2.45,1A3.11,3.11,0,0,1,173.47,467.79Zm0-3.42v2.23a2.48,2.48,0,0,0,1,1.1,2.57,2.57,0,0,0,1.43.43,2.47,2.47,0,0,0,1.86-.76,2.65,2.65,0,0,0,.74-1.89,2.6,2.6,0,0,0-.74-1.88,2.47,2.47,0,0,0-1.86-.76,2.68,2.68,0,0,0-2.38,1.53Z"/>
      <path class="cls-11" d="M184.43,468.87h-3.07v-6.76h1v2.27h2a2.76,2.76,0,0,1,1.88.61,2.05,2.05,0,0,1,.7,1.63,2.11,2.11,0,0,1-.67,1.64A2.65,2.65,0,0,1,184.43,468.87Zm-2.06-3.61V468h1.88a2,2,0,0,0,1.25-.36,1.21,1.21,0,0,0,.45-1,1.22,1.22,0,0,0-.45-1,2,2,0,0,0-1.25-.36Zm6.72,3.61h-1v-6.76h1Z"/>
      <path class="cls-11" d="M192.48,468.87h-1v-6.76h1v2.84h4.16v-2.84h1v6.76h-1v-3h-4.16Z"/>
      <path class="cls-11" d="M200,462.11h1v2.79l3.22-2.79h1.37l-3.57,3.05,4.07,3.71h-1.44L201,465.54v3.33h-1Z"/>
      <path class="cls-11" d="M207.83,471.73a2.28,2.28,0,0,1-1.08-.2v-.94a2,2,0,0,0,.92.22,1.37,1.37,0,0,0,1.06-.51,6.39,6.39,0,0,0,.94-1.69l-3-6.51h1.12l2.39,5.32,2.32-5.32h1.09l-3.35,7.52Q209.35,471.73,207.83,471.73Z"/>
      <path class="cls-11" d="M214.43,469a.72.72,0,1,1,.52-.21A.71.71,0,0,1,214.43,469Z"/>
    </g>
    <g>
      <path class="cls-12" d="M90.87,306.87a3.5,3.5,0,0,1-1.32-.21v-1a3.1,3.1,0,0,0,1.14.21,1.54,1.54,0,0,0,1.29-.66,5.81,5.81,0,0,0,.42-.63q.1-.18.42-.81l-4.23-7.54h1.23l3.54,6.41,3-6.41H97.5l-3.87,8.28a5.39,5.39,0,0,1-1.27,1.84A2.26,2.26,0,0,1,90.87,306.87Z"/>
      <path class="cls-12" d="M103.69,306.87a5.51,5.51,0,0,1-3.85-9.31,5.23,5.23,0,0,1,3.85-1.54,5.38,5.38,0,0,1,2.94.78v1.14a5.33,5.33,0,0,0-2.92-.88,4.12,4.12,0,0,0-3,1.26,4.63,4.63,0,0,0,0,6.29,4.18,4.18,0,0,0,3.08,1.24,4.78,4.78,0,0,0,3.12-1v1.16A5.27,5.27,0,0,1,103.69,306.87Z"/>
      <path class="cls-12" d="M107.8,306.69v-1a2.32,2.32,0,0,0,.42,0,1.38,1.38,0,0,0,1.1-.48,3.63,3.63,0,0,0,.67-1.4,6.75,6.75,0,0,0,.24-1.35q.09-.84.13-1.59,0-.56.06-1.83l.06-2.87h6.57v10.5h-1.11v-9.5h-4.38l-.08,2.4A23.3,23.3,0,0,1,111,304a3.92,3.92,0,0,1-1,2,2.7,2.7,0,0,1-1.84.68Z"/>
      <path class="cls-12" d="M121.18,306.87a3.5,3.5,0,0,1-1.32-.21v-1a3.1,3.1,0,0,0,1.14.21,1.54,1.54,0,0,0,1.29-.66,5.81,5.81,0,0,0,.42-.63q.1-.18.42-.81l-4.23-7.54h1.23l3.54,6.41,3-6.41h1.19l-3.87,8.28a5.39,5.39,0,0,1-1.27,1.84A2.26,2.26,0,0,1,121.18,306.87Z"/>
      <path class="cls-12" d="M130.81,306.69H129.7v-10.5h7v1h-5.92Z"/>
      <path class="cls-12" d="M139.7,306.69h-.93v-10.5h1.1v8.64l6.52-8.64h1v10.5h-1.1V298Z"/>
      <path class="cls-12" d="M155.39,306.69h-1.11v-10.5h8.24v10.5h-1.11v-9.5h-6Z"/>
      <path class="cls-12" d="M166.54,297.57a5.34,5.34,0,0,1,7.55,0,5.72,5.72,0,0,1,0,7.75,5.38,5.38,0,0,1-7.55,0,5.76,5.76,0,0,1,0-7.75Zm.83,7a4.1,4.1,0,0,0,5.91,0,4.7,4.7,0,0,0,0-6.27,4.1,4.1,0,0,0-5.91,0,4.69,4.69,0,0,0,0,6.27Z"/>
      <path class="cls-12" d="M181.91,309h-1v-3.34h1a8.83,8.83,0,0,0,1.4-3.2,23.12,23.12,0,0,0,.44-5v-1.26h6.48v9.5h1.59V309h-1v-2.34h-8.82Zm1.2-3.34h6V297.2h-4.27v.71Q184.79,303.27,183.11,305.69Z"/>
      <path class="cls-12" d="M194.68,306.69h-.93v-10.5h1.1v8.64l6.52-8.64h1v10.5h-1.1V298Z"/>
      <path class="cls-12" d="M205.42,306.69h-1.15l4.68-10.56h1l4.69,10.56H213.5l-1.31-2.89h-5.5Zm4-9.17-2.39,5.29h4.77Z"/>
      <path class="cls-12" d="M217.7,306.69h-1.11v-10.5h7v1H217.7Z"/>
      <path class="cls-12" d="M226.78,306.69h-1.11v-10.5h1.11v4.37H233v-4.37h1.11v10.5H233v-5.13h-6.24Z"/>
      <path class="cls-12" d="M238.15,297.57a5.34,5.34,0,0,1,7.55,0,5.72,5.72,0,0,1,0,7.75,5.38,5.38,0,0,1-7.55,0,5.76,5.76,0,0,1,0-7.75Zm.83,7a4.1,4.1,0,0,0,5.91,0,4.7,4.7,0,0,0,0-6.27,4.1,4.1,0,0,0-5.91,0,4.69,4.69,0,0,0,0,6.27Z"/>
      <path class="cls-12" d="M254.71,306.87a5.51,5.51,0,0,1-3.85-9.31,5.23,5.23,0,0,1,3.85-1.54,5.38,5.38,0,0,1,2.94.78v1.14a5.33,5.33,0,0,0-2.92-.88,4.12,4.12,0,0,0-3,1.26,4.63,4.63,0,0,0,0,6.29,4.18,4.18,0,0,0,3.08,1.24,4.78,4.78,0,0,0,3.12-1v1.16A5.27,5.27,0,0,1,254.71,306.87Z"/>
      <path class="cls-12" d="M263.89,306.69h-1.11v-9.5h-3.61v-1h8.38v1h-3.66Z"/>
      <path class="cls-12" d="M270.49,306.69h-.93v-10.5h1.1v8.64l6.52-8.64h1v10.5h-1.1V298Z"/>
      <path class="cls-12" d="M281.11,296.19h1.11v4.56l4.86-4.56h1.47l-5.16,4.8,6,5.7h-1.56l-5.56-5.34v5.34h-1.11Z"/>
      <path class="cls-12" d="M298.45,306.69H291v-10.5h7.2v1h-6.09v3.36h5v1h-5v4.13h6.31Z"/>
      <path class="cls-12" d="M111.47,324.61a7.13,7.13,0,0,1-3.54-.81v-1.14a6.51,6.51,0,0,0,3.38.91,4.11,4.11,0,0,0,2.38-.61,1.88,1.88,0,0,0,.88-1.63,1.78,1.78,0,0,0-.81-1.5,3.53,3.53,0,0,0-2.12-.58h-1.29v-1h1.41a2.87,2.87,0,0,0,1.73-.46,1.5,1.5,0,0,0,.62-1.28,1.43,1.43,0,0,0-.71-1.27,3.37,3.37,0,0,0-1.86-.46,7.34,7.34,0,0,0-3.12.73v-1a7.41,7.41,0,0,1,3.17-.72,4.29,4.29,0,0,1,2.6.73,2.33,2.33,0,0,1,1,2,2.09,2.09,0,0,1-.54,1.5,2.66,2.66,0,0,1-1.17.75,3.62,3.62,0,0,1,1.53.95,2.33,2.33,0,0,1,.67,1.77,2.8,2.8,0,0,1-1.14,2.29A4.9,4.9,0,0,1,111.47,324.61Z"/>
      <path class="cls-12" d="M118.06,324.43h-1.15l4.68-10.56h1l4.69,10.56h-1.17l-1.31-2.89h-5.5Zm4-9.17-2.39,5.29h4.77Z"/>
      <path class="cls-12" d="M134.31,324.43h-1.11v-10.5h1.11v4.37h6.24v-4.37h1.11v10.5h-1.11V319.3h-6.24Z"/>
      <path class="cls-12" d="M144.73,324.43h-1.15l4.68-10.56h1L154,324.43h-1.17l-1.31-2.89H146Zm4-9.17-2.39,5.29h4.77Z"/>
      <path class="cls-12" d="M167.15,313.93h1.11v10.5H155.9v-10.5H157v9.5h4.51v-9.5h1.11v9.5h4.51Z"/>
      <path class="cls-12" d="M180.13,324.61a5.51,5.51,0,0,1-3.85-9.31,5.23,5.23,0,0,1,3.85-1.54,5.38,5.38,0,0,1,2.94.78v1.14a5.33,5.33,0,0,0-2.92-.88,4.12,4.12,0,0,0-3,1.26,4.63,4.63,0,0,0,0,6.29,4.18,4.18,0,0,0,3.08,1.24,4.78,4.78,0,0,0,3.12-1v1.16A5.27,5.27,0,0,1,180.13,324.61Z"/>
      <path class="cls-12" d="M192.94,324.43h-1.11V319.7a8.59,8.59,0,0,1-3.06.55,4.2,4.2,0,0,1-2.75-.77,3,3,0,0,1-.92-2.45v-3.11h1.11v2.82a2.43,2.43,0,0,0,.65,1.92,3.31,3.31,0,0,0,2.16.55,7,7,0,0,0,2.82-.62v-4.68h1.11Z"/>
      <path class="cls-12" d="M203.32,324.43h-7.43v-10.5h7.2v1H197v3.36h5v1h-5v4.13h6.31Zm-5.7-11.91a.69.69,0,0,1-.21-.51.65.65,0,0,1,.21-.5.69.69,0,0,1,1,0,.65.65,0,0,1,.21.5.69.69,0,0,1-.21.51.73.73,0,0,1-1,0Zm3,0a.69.69,0,0,1-.21-.51.65.65,0,0,1,.21-.5.69.69,0,0,1,1,0,.65.65,0,0,1,.21.5.69.69,0,0,1-.21.51.73.73,0,0,1-1,0Z"/>
      <path class="cls-12" d="M209.27,324.43h-1.11v-9.5h-3.61v-1h8.38v1h-3.66Z"/>
      <path class="cls-12" d="M213.05,326.71h-.87l1.2-3.83h1.26Z"/>
      <path class="cls-12" d="M222.11,324.61a3.5,3.5,0,0,1-1.32-.21v-1a3.1,3.1,0,0,0,1.14.21,1.54,1.54,0,0,0,1.29-.66,5.81,5.81,0,0,0,.42-.63q.1-.18.42-.81l-4.23-7.54h1.23l3.54,6.41,3-6.41h1.19l-3.87,8.28a5.39,5.39,0,0,1-1.27,1.84A2.26,2.26,0,0,1,222.11,324.61Z"/>
      <path class="cls-12" d="M234.94,324.61a5.51,5.51,0,0,1-3.85-9.31,5.23,5.23,0,0,1,3.85-1.54,5.38,5.38,0,0,1,2.94.78v1.14a5.33,5.33,0,0,0-2.92-.88,4.12,4.12,0,0,0-3,1.26,4.63,4.63,0,0,0,0,6.29,4.18,4.18,0,0,0,3.08,1.24,4.78,4.78,0,0,0,3.12-1v1.16A5.27,5.27,0,0,1,234.94,324.61Z"/>
      <path class="cls-12" d="M239,324.43v-1a2.32,2.32,0,0,0,.42,0,1.38,1.38,0,0,0,1.1-.48,3.63,3.63,0,0,0,.67-1.4,6.75,6.75,0,0,0,.24-1.35q.09-.84.13-1.59,0-.56.06-1.83l.06-2.87h6.57v10.5h-1.11v-9.5h-4.38l-.08,2.4a23.3,23.3,0,0,1-.45,4.44,3.92,3.92,0,0,1-1,2,2.7,2.7,0,0,1-1.84.68Z"/>
      <path class="cls-12" d="M252.43,324.61a3.5,3.5,0,0,1-1.32-.21v-1a3.1,3.1,0,0,0,1.14.21,1.54,1.54,0,0,0,1.29-.66,5.81,5.81,0,0,0,.42-.63q.1-.18.42-.81l-4.23-7.54h1.23l3.54,6.41,3-6.41h1.19l-3.87,8.28a5.39,5.39,0,0,1-1.27,1.84A2.26,2.26,0,0,1,252.43,324.61Z"/>
      <path class="cls-12" d="M262.06,324.43h-1.11v-10.5h7v1h-5.92Z"/>
      <path class="cls-12" d="M271,324.43H270v-10.5h1.1v8.64l6.52-8.64h1v10.5h-1.1v-8.67Z"/>
      <path class="cls-12" d="M132.33,342.16h-1.11v-10.5h8.24v10.5h-1.11v-9.5h-6Z"/>
      <path class="cls-12" d="M143.47,333a5.34,5.34,0,0,1,7.55,0,5.72,5.72,0,0,1,0,7.75,5.38,5.38,0,0,1-7.55,0,5.76,5.76,0,0,1,0-7.75Zm.83,7a4.1,4.1,0,0,0,5.91,0,4.7,4.7,0,0,0,0-6.27,4.1,4.1,0,0,0-5.91,0,4.69,4.69,0,0,0,0,6.27Z"/>
      <path class="cls-12" d="M154.24,344.5h-1v-3.34h1a8.83,8.83,0,0,0,1.4-3.2,23.12,23.12,0,0,0,.44-5v-1.26h6.48v9.5h1.59v3.34h-1v-2.34h-8.82Zm1.2-3.34h6v-8.49h-4.27v.71Q157.12,338.74,155.44,341.16Z"/>
      <path class="cls-12" d="M170.36,342.16h-4.29v-10.5h7.17v1h-6.06v3h3.18a3.84,3.84,0,0,1,2.73.9,3.33,3.33,0,0,1,0,4.74A4,4,0,0,1,170.36,342.16Zm-3.18-5.52v4.51h3.07a3,3,0,0,0,2-.59,2.3,2.3,0,0,0,0-3.33,3,3,0,0,0-2-.59Z"/>
      <path class="cls-12" d="M177.37,333a5.34,5.34,0,0,1,7.55,0,5.72,5.72,0,0,1,0,7.75,5.38,5.38,0,0,1-7.55,0,5.76,5.76,0,0,1,0-7.75Zm.83,7a4.1,4.1,0,0,0,5.91,0,4.7,4.7,0,0,0,0-6.27,4.1,4.1,0,0,0-5.91,0,4.69,4.69,0,0,0,0,6.27Z"/>
      <path class="cls-12" d="M190.09,342.16H189v-10.5h4.41a3.58,3.58,0,0,1,2.46.79,2.68,2.68,0,0,1,.9,2.12,2.74,2.74,0,0,1-.9,2.15,3.56,3.56,0,0,1-2.46.8h-3.3Zm0-9.5v3.86h3.22A2.66,2.66,0,0,0,195,336a1.73,1.73,0,0,0,.62-1.42,1.75,1.75,0,0,0-.61-1.43,2.65,2.65,0,0,0-1.73-.5Z"/>
      <path class="cls-12" d="M212.9,344.5h-1.05v-2.34H199v-10.5h1.11v9.5h4.51v-9.5h1.11v9.5h4.51v-9.5h1.11v9.5h1.59Z"/>
      <path class="cls-12" d="M215.81,342.16h-.93v-10.5H216v8.64l6.52-8.64h1v10.5h-1.1v-8.67Z"/>
      <path class="cls-12" d="M226.43,331.66h1.11v4.56l4.86-4.56h1.47l-5.16,4.8,6,5.7h-1.56l-5.56-5.34v5.34h-1.11Z"/>
      <path class="cls-12" d="M236.6,333a5.34,5.34,0,0,1,7.55,0,5.72,5.72,0,0,1,0,7.75,5.38,5.38,0,0,1-7.55,0,5.76,5.76,0,0,1,0-7.75Zm.83,7a4.1,4.1,0,0,0,5.91,0,4.7,4.7,0,0,0,0-6.27,4.1,4.1,0,0,0-5.91,0,4.69,4.69,0,0,0,0,6.27Z"/>
      <path class="cls-12" d="M253.22,342.16h-5v-10.5h4.54a3.31,3.31,0,0,1,2.21.68,2.31,2.31,0,0,1,.81,1.87,2.57,2.57,0,0,1-.37,1.4,2,2,0,0,1-1,.82,2.59,2.59,0,0,1,1.67.92,2.89,2.89,0,0,1,.61,1.89,2.66,2.66,0,0,1-.93,2.13A3.75,3.75,0,0,1,253.22,342.16Zm-3.9-9.5v3.44h3.25a2.44,2.44,0,0,0,1.55-.44,1.51,1.51,0,0,0,.55-1.26,1.57,1.57,0,0,0-.55-1.29,2.38,2.38,0,0,0-1.55-.45Zm0,4.41v4.08H253a2.75,2.75,0,0,0,1.82-.54,1.87,1.87,0,0,0,.64-1.51,1.83,1.83,0,0,0-.64-1.49,2.78,2.78,0,0,0-1.82-.53Z"/>
      <path class="cls-12" d="M123.61,359.9H122.5V349.4h1.11v4.37h6.24V349.4H131v10.5h-1.11v-5.13h-6.24Z"/>
      <path class="cls-12" d="M141.34,359.9h-7.43V349.4h7.2v1H135v3.36h5v1h-5v4.13h6.31Z"/>
      <path class="cls-12" d="M148.59,359.9h-1.11V349.4h8.24v10.5H154.6v-9.5h-6Z"/>
      <path class="cls-12" d="M159.73,350.78a5.34,5.34,0,0,1,7.55,0,5.72,5.72,0,0,1,0,7.75,5.38,5.38,0,0,1-7.55,0,5.76,5.76,0,0,1,0-7.75Zm.83,7a4.1,4.1,0,0,0,5.91,0,4.7,4.7,0,0,0,0-6.27,4.1,4.1,0,0,0-5.91,0,4.69,4.69,0,0,0,0,6.27Z"/>
      <path class="cls-12" d="M174.26,359.9h-1.11v-9.5h-3.61v-1h8.38v1h-3.66Z"/>
      <path class="cls-12" d="M181,359.9h-1.11V349.4h4.41a3.58,3.58,0,0,1,2.46.79,2.68,2.68,0,0,1,.9,2.12,2.74,2.74,0,0,1-.9,2.15,3.56,3.56,0,0,1-2.46.8H181Zm0-9.5v3.86h3.22a2.66,2.66,0,0,0,1.73-.5,1.73,1.73,0,0,0,.62-1.42,1.75,1.75,0,0,0-.61-1.43,2.65,2.65,0,0,0-1.73-.5Z"/>
      <path class="cls-12" d="M197.33,359.9h-7.43V349.4h7.2v1H191v3.36h5v1h-5v4.13h6.31Z"/>
      <path class="cls-12" d="M203.8,359.9h-4.29V349.4h7.17v1h-6.06v3h3.18a3.84,3.84,0,0,1,2.73.9,3.33,3.33,0,0,1,0,4.74A4,4,0,0,1,203.8,359.9Zm-3.18-5.52v4.51h3.07a3,3,0,0,0,2-.59,2.3,2.3,0,0,0,0-3.33,3,3,0,0,0-2-.59Z"/>
      <path class="cls-12" d="M211,360.08a3.5,3.5,0,0,1-1.32-.21v-1a3.1,3.1,0,0,0,1.14.21,1.54,1.54,0,0,0,1.29-.66,5.81,5.81,0,0,0,.42-.63q.1-.18.42-.81l-4.23-7.54h1.23l3.54,6.41,3-6.41h1.19l-3.87,8.28a5.39,5.39,0,0,1-1.27,1.84A2.26,2.26,0,0,1,211,360.08Z"/>
      <path class="cls-12" d="M227.68,360.08a4.55,4.55,0,0,1-3.41-1.42,5.58,5.58,0,0,1-1.51-3.62h-2.15v4.86H219.5V349.4h1.11V354h2.16a5.44,5.44,0,0,1,1.58-3.45,4.74,4.74,0,0,1,6.84.2,6,6,0,0,1,0,7.74A4.51,4.51,0,0,1,227.68,360.08ZM225,357.83a3.51,3.51,0,0,0,2.72,1.21,3.46,3.46,0,0,0,2.7-1.21,5.16,5.16,0,0,0,0-6.36,3.46,3.46,0,0,0-2.7-1.21,3.51,3.51,0,0,0-2.72,1.21,5.17,5.17,0,0,0,0,6.36Z"/>
      <path class="cls-12" d="M238.08,359.9H237v-9.5h-3.61v-1h8.38v1h-3.66Z"/>
      <path class="cls-12" d="M247.84,360.08a5.51,5.51,0,0,1-3.85-9.31,5.23,5.23,0,0,1,3.85-1.54,5.38,5.38,0,0,1,2.94.78v1.14a5.33,5.33,0,0,0-2.92-.88,4.12,4.12,0,0,0-3,1.26,4.63,4.63,0,0,0,0,6.29,4.18,4.18,0,0,0,3.08,1.24,4.78,4.78,0,0,0,3.12-1v1.16A5.27,5.27,0,0,1,247.84,360.08Z"/>
      <path class="cls-12" d="M253.69,359.9H252.4l3.39-4.83a3,3,0,0,1-1.82-.95,2.75,2.75,0,0,1-.65-1.87,2.62,2.62,0,0,1,.88-2.08,3.55,3.55,0,0,1,2.42-.77h4.71v10.5h-1.11v-4.72H257Zm3-5.73h3.52V350.4h-3.52a2.57,2.57,0,0,0-1.68.5,1.71,1.71,0,0,0-.6,1.39,1.68,1.68,0,0,0,.6,1.39A2.6,2.6,0,0,0,256.69,354.17Z"/>
      <path class="cls-12" d="M264.56,360a.77.77,0,1,1,.56-.22A.76.76,0,0,1,264.56,360Z"/>
    </g>
    <g>
      <path class="cls-10" d="M169.31,157.14l6.67-1.45a20.34,20.34,0,0,0,3.48,3.48L178,165.84a4.36,4.36,0,0,0,7.94,3.28l3.69-5.74a20.36,20.36,0,0,0,4.93,0l3.69,5.74a4.36,4.36,0,0,0,8-3l-10.15-10.76a12.93,12.93,0,1,1,8.31-8.28l10.7,10.1a4.36,4.36,0,0,0,3.09-8l-5.75-3.69a20.34,20.34,0,0,0,0-4.92l5.75-3.69A4.36,4.36,0,0,0,214.9,129l-6.67,1.45a20.35,20.35,0,0,0-3.48-3.48l1.45-6.67a4.36,4.36,0,0,0-7.94-3.28l-3.69,5.74a20.37,20.37,0,0,0-4.93,0L186,117a4.36,4.36,0,0,0-7.94,3.28l1.45,6.67a20.35,20.35,0,0,0-3.49,3.48L169.31,129a4.36,4.36,0,0,0-3.29,7.93l5.75,3.69a20.33,20.33,0,0,0,0,4.92L166,149.21A4.36,4.36,0,0,0,169.31,157.14Z"/>
      <path class="cls-10" d="M200.84,147.44a1,1,0,0,1-.24-1A9.29,9.29,0,0,0,196.38,135a9.12,9.12,0,0,0-4.75-1,.68.68,0,0,0-.44,1.16l5.12,5.12-1.5,5.56-5.56,1.5-5.12-5.13a.68.68,0,0,0-1.16.44,9.12,9.12,0,0,0,1,4.75,9.29,9.29,0,0,0,11.43,4.23,1,1,0,0,1,1,.24l20,21.17a3.95,3.95,0,1,0,5.57-5.57Z"/>
    </g>
    <g>
      <g>
        <path class="cls-10" d="M429.27,342.88l24.08-23.11h.73l4.1-8.53,21.64-45c6.35-13.19,12-35.74,29.79-35.86l169-1.12c18.77-.12,35.94,11.14,44.11,28.93l28.44,62H754l56.74,17.46a57.92,57.92,0,0,1,32.81,51.81l.22,33.24-429.11,2.85-.31-47.29A48.55,48.55,0,0,1,429.27,342.88Z"/>
        <path class="cls-13" d="M594.12,314.06l-112.76.75,25.19-63.24a8.1,8.1,0,0,1,7.42-5.23l79.7-.53Z"/>
        <path class="cls-13" d="M613,245.68l64.59-.43c13.69-.09,26.21,8.12,32.16,21.1l21.48,46.8-117.78.78Z"/>
        <g class="cls-14">
          <path class="cls-15" d="M503.56,266.84l-4.48,2.44L506,252a8.11,8.11,0,0,1,7.42-5.23l27.61-.18C528.56,253.4,516,260.07,503.56,266.84Z"/>
          <path class="cls-15" d="M501.47,281.91c20.62-11.34,42.31-24.19,62.71-35.91l25.9.24c-17.65,15.34-40,29-59.73,41.34-11.86,7.4-24,14.41-36.4,20.84-4.07,2.11-8.33,4-12.6,6L492.26,287Q496.86,284.44,501.47,281.91Z"/>
          <path class="cls-15" d="M633.55,286.38c8.67-5.68,17.65-10.93,26.69-16s18.44-10.27,28-14.53c3.17-1.4,6.37-2.71,9.56-4a36.82,36.82,0,0,1,11.86,14.51l.21.46c-9.7,6.87-19.47,13.66-29.1,20.59-14.25,10.25-30,18-45.4,26.39l-22,.15-.08-12.37C620.07,296.49,626.5,291,633.55,286.38Z"/>
        </g>
        <path class="cls-16" d="M681.31,423.75a30.82,30.82,0,0,1-.61-5.92c-.13-19.86,18.75-36.09,42.18-36.24a47.55,47.55,0,0,1,24.58,6.48A80.65,80.65,0,0,0,710,408a65,65,0,0,0-12.48,15.51Z"/>
        <path class="cls-16" d="M459.11,425.23a31.54,31.54,0,0,1-.6-5.92c-.13-19.86,18.3-36.08,41.17-36.24a45.59,45.59,0,0,1,24,6.48c-14.08,3.13-26.46,10.43-36.54,20A64.74,64.74,0,0,0,475,425Z"/>
        <g>
          <circle class="cls-17" cx="731.9" cy="419.26" r="37.73" transform="translate(-2.77 4.87) rotate(-0.38)"/>
          <g>
            <circle class="cls-15" cx="731.9" cy="419.26" r="21.41" transform="translate(-102.87 298.37) rotate(-21.57)"/>
            <path class="cls-16" d="M728.24,434.2a17.46,17.46,0,0,1-11.14-4.59,12.36,12.36,0,0,0,8.33,7.75,20,20,0,0,0,4,.56,20.32,20.32,0,0,0,4.25-.09,12.6,12.6,0,0,0,9.06-6.36c-.6,1.09-4.79,1.88-5.83,2.08A34.15,34.15,0,0,1,728.24,434.2Z"/>
          </g>
        </g>
        <g>
          <circle class="cls-17" cx="508.98" cy="420.74" r="37.73" transform="translate(-2.78 3.39) rotate(-0.38)"/>
          <g>
            <circle class="cls-15" cx="508.98" cy="420.74" r="21.41" transform="translate(-119.02 216.53) rotate(-21.57)"/>
            <path class="cls-16" d="M505.32,435.68a17.46,17.46,0,0,1-11.14-4.59,12.36,12.36,0,0,0,8.33,7.75,20,20,0,0,0,4,.56,20.32,20.32,0,0,0,4.25-.09,12.6,12.6,0,0,0,9.06-6.36c-.6,1.09-4.79,1.88-5.83,2.08A34.14,34.14,0,0,1,505.32,435.68Z"/>
          </g>
        </g>
      </g>
      <rect class="cls-16" x="623.21" y="333.08" width="20.51" height="8.82" rx="0.55" ry="0.55" transform="translate(1269.16 670.77) rotate(179.62)"/>
    </g>
    <g>
      <g>
        <path class="cls-18" d="M797.23,256.21a4,4,0,0,1,1.74-1.35,18,18,0,0,0,3.25-1.33c.83-.55.62-2.54,2.54-1.79.71.28,1.95,1.17,3.3,1.69a13.56,13.56,0,0,0,7.17.17,247.53,247.53,0,0,1,28.33-4.9,3.09,3.09,0,0,0,1.55-.42,3.6,3.6,0,0,0,1.14-2.45,68.56,68.56,0,0,1,3.85-12.55c1.59-3.62,3.46-7.06,6.51-9.62s7.08-3.84,10.83-2.64c2.81.9,5.14,2.86,5.73,5.79,1.45,7.26-5.23,12.7-9.23,17.79-3.78,4.82-7,8.9-11,13.32a5,5,0,0,1-1.64,1.37,5.23,5.23,0,0,1-2.22.32c-9.59-.13-18.94-.5-28.34,1.45-2.58.54-4.94,0-7.37.81-1.55.53-2.36,2.06-3.79,2.8a12.78,12.78,0,0,1-4.71,1.59c-3.15.21-5.09-2.1-7.23-4-1.71-1.52-3-2-5.24-1.37a1.78,1.78,0,0,1-.84.17,1.32,1.32,0,0,1-.79-2,3.34,3.34,0,0,1,2.07-1.27,10.27,10.27,0,0,1,2.65-.56,1.62,1.62,0,0,0,1.09-.28C796.88,256.7,797,256.49,797.23,256.21Z"/>
        <path class="cls-19" d="M863.84,241.94c-5.4-2-11.07-3.29-16.34-5.77,1.91-4.59,7.43-23.24,8.39-25.48,3.63-8.53,4.33-12.2,9.33-16.7,10.68-9.61,23.37-3.24,22.85,10.41-.57,14.81-8.5,27.53-17.1,39a1.67,1.67,0,0,1-.77.57,1.93,1.93,0,0,1-1.22-.16C867.31,243.13,865.55,242.59,863.84,241.94Z"/>
      </g>
      <g>
        <g>
          <g>
            <path class="cls-20" d="M859.43,446.13a43.92,43.92,0,0,1-5.56-.53c-1-18.41.78-37.7,1.54-56.2l14.19.76a165.29,165.29,0,0,0-7,30.41C862.35,422.21,859.7,446.13,859.43,446.13Z"/>
            <path class="cls-21" d="M853.3,442a2.86,2.86,0,0,0-2.63,1c-.45.41-.76,1-1.3,1.29a4.29,4.29,0,0,1-1.73.42c-3.41.34-11.27.2-7.08,5.91,3.8,5.18,13.9,3.12,19.73,1.71a2,2,0,0,0,1.07-.45,2.74,2.74,0,0,0,.59-1.16c.67-2.44,1.58-5.48-1.42-6.5-1.28-.44-2.46.41-3.81-.06C855.6,443.83,854.46,442.24,853.3,442Z"/>
          </g>
          <path class="cls-4" d="M844.8,400.51l28.93-.56q11.7-55.71,20.6-112c.46-2.91.91-5.93.07-8.75-1.58-5.33-7.3-8.38-12.77-9.4-8.5-1.59-24.12.62-28.48,9.46-4.61,9.34-3.83,26-5,36.34A627.42,627.42,0,0,0,844.8,400.51Z"/>
        </g>
        <g>
          <g>
            <path class="cls-20" d="M914.58,446.13a43.92,43.92,0,0,0,5.56-.53c1-18.41-.78-37.7-1.54-56.2l-14.19.76a165.3,165.3,0,0,1,7,30.41C911.66,422.21,914.31,446.13,914.58,446.13Z"/>
            <path class="cls-21" d="M920.72,442a2.86,2.86,0,0,1,2.63,1c.45.41.76,1,1.3,1.29a4.29,4.29,0,0,0,1.73.42c3.41.34,11.27.2,7.08,5.91-3.8,5.18-13.9,3.12-19.73,1.71a2,2,0,0,1-1.07-.45,2.75,2.75,0,0,1-.59-1.16c-.67-2.44-1.58-5.48,1.42-6.5,1.28-.44,2.46.41,3.81-.06C918.41,443.83,919.55,442.24,920.72,442Z"/>
          </g>
          <path class="cls-4" d="M929.21,400.51l-28.93-.56q-11.7-55.71-20.6-112c-.46-2.91-.91-5.93-.07-8.75,1.58-5.33,7.3-8.38,12.77-9.4,8.5-1.59,24.12.62,28.48,9.46,4.61,9.34,3.83,26,5,36.34A627.41,627.41,0,0,1,929.21,400.51Z"/>
        </g>
      </g>
      <path class="cls-19" d="M904.49,196.87a68.94,68.94,0,0,1,17,26.6c6.18,17.34,6.3,35.85,6.35,54q0,9.06.06,18.11c0,5.94-.51,7.22-7,6.44-12-1.45-24.4-3.92-35.24-9.23-5.16-2.53-10-5.73-15.39-7.72-7.87-2.9-15.93-1.59-23.72-3.47a184.55,184.55,0,0,0,7.53-29.44c1.79-10.84,3.41-22.66,6-33.35,1.57-6.41,4.49-12.41,7.46-18.31,2-4,4.11-8,7.5-10.89C885.33,181,896.78,189.54,904.49,196.87Z"/>
      <g>
        <path class="cls-20" d="M871.55,172.55c1.46,3.19,3.85,5.85,5.79,8.77a19.68,19.68,0,0,1,3.08,8.7c.36,2.38,1.21,4.24,4.08,4.64,5.4.77,3.86-3.7,5.09-6.94,1.4-3.71,4.4-6.65,6.49-10,6-9.58,4.32-28.5-8.24-32.54C874.1,140.81,867.12,162.87,871.55,172.55Z"/>
        <path class="cls-9" d="M860.56,141c1.39-.94,3-1.72,3.84-3.22.66-1.16.75-2.6,1.4-3.76,1.18-2.11,3.74-2.73,6-3.44,5.56-1.79,8.56-3.85,14.46-1.56,4.19,1.63,9.61,1.84,13.49,4.22a13.62,13.62,0,0,1,4.14,4.36c3.93,6.14,4.87,14.78,2.31,21.19a26.16,26.16,0,0,1-2.08,4c-1.56,2.53-3.22,5.63-6,6.87a3,3,0,0,0-.26-.83,11.14,11.14,0,0,1-1.08-2.18,9.23,9.23,0,0,1-.09-2.59c.17-3.37,1.2-8.7-2.16-10.37-4.25-2.11-12.24-.21-16.33,1.58a33.49,33.49,0,0,1-7.35,2.32,4.26,4.26,0,0,0,.08,1.17c.33,1.51,1,3,.67,4.54a5.45,5.45,0,0,1-.86-.38,9.3,9.3,0,0,1-3.86-5.13,7.7,7.7,0,0,1-2.29-.57c-3.59-1.57-6.51-7.85-6.39-11.71A5.37,5.37,0,0,1,860.56,141Z"/>
      </g>
      <g>
        <path class="cls-21" d="M873.45,212l-67,14.85c.07.27.14.55.21.83a21.69,21.69,0,0,1-16.48,25.87l-.11,0,19.86,89.56a8.33,8.33,0,0,0,9.94,6.33L900,331.74a8.33,8.33,0,0,0,6.33-9.94L883.39,218.38A8.33,8.33,0,0,0,873.45,212Zm7.63,41.15L839.3,230.62l29.38-6.51a5.81,5.81,0,0,1,6.93,4.41Z"/>
        <path class="cls-22" d="M797.38,228.91,758.81,214l-3.58,5.78,32.32,22.58,2.43,9.12c11-2.45,16.57-12.82,14.52-23.84Z"/>
        <g>
          <path class="cls-2" d="M740.13,266.86c1.73,12,10.91,18.94,22.92,15.23a15,15,0,0,0,10.19-16.51c-1.42-9.5-8.81-16.79-14.23-24.21-2.82-3.87-5.09-8.54-5-13.22a.6.6,0,0,0-1.05-.39c-1.13,1.33-2.62,2.72-3.27,3.68a57.84,57.84,0,0,0-4.09,7,58.85,58.85,0,0,0-5.13,15.26A41.47,41.47,0,0,0,740.13,266.86Z"/>
          <path class="cls-23" d="M752.26,275.22c-7.56-2-7.5-12.35-5.89-18.39.39-1.47-1.87-2.2-2.26-.73-2,7.33-1.52,19,7.42,21.37C753,277.87,753.74,275.61,752.26,275.22Z"/>
          <path class="cls-23" d="M755.87,277.28l-.26.06a1.19,1.19,0,1,0,.51,2.32l.26-.06a1.19,1.19,0,1,0-.51-2.32Z"/>
        </g>
      </g>
      <g>
        <g>
          <path class="cls-1" d="M459.2,145.48a1.92,1.92,0,0,0-.28.47c-.55,1.55.1,2.69,0,4.33,0,.73-1.68,1.66-.45,2.56.45.33,1.68,1,2.66,1.7a10.8,10.8,0,0,1,3.23,5.08c2.44,7.42,2.8,15.3,2.91,23.11a2.8,2.8,0,0,1-.19,1.31,2.94,2.94,0,0,1-2,1.2,59.72,59.72,0,0,0-10.32,4,22.29,22.29,0,0,0-7.87,5.85c-2,2.6-3.05,6.17-1.94,9.28a7.83,7.83,0,0,0,5.23,4.83c5.91,1.6,11.41-5.46,15.36-8.91A106.27,106.27,0,0,0,476,189.72a4.57,4.57,0,0,0,1-1.53,4.64,4.64,0,0,0,0-1.94,231.94,231.94,0,0,0-4.58-24.81c-.52-2.26-2.16-4-2.62-6.06-.29-1.34.44-2.6.44-3.92a12.76,12.76,0,0,0-.81-4.24c-.95-2.4-3.53-3.08-5.72-3.89a2.77,2.77,0,0,0-1.46-.27,4,4,0,0,0-2.12,1.31A7.76,7.76,0,0,0,459.2,145.48Z"/>
          <path class="cls-7" d="M463.18,200.42l-5.91-13.63c.13.29-21.16,7.68-22.41,8.16-4.78,1.84-9.72,3.79-13.29,7.46-7.63,7.84-1.91,21,9.34,19.83a61,61,0,0,0,33.85-15.83,1.55,1.55,0,0,0,.47-.63,1.58,1.58,0,0,0-.19-1.06Z"/>
        </g>
        <g>
          <g>
            <g>
              <path class="cls-21" d="M351.21,324.67c-.33,1.72-.56,3.44-.74,5-.32,2.72,0,5.85-.72,8.49a30.18,30.18,0,0,0-.88,3.13,4.8,4.8,0,0,0,.38,3.17,4.37,4.37,0,0,0,2.95,1.8,6.82,6.82,0,0,0,3.13.24c2.09-.46,3.68-2.66,4.37-5,.83-2.86.52-5.7.49-8.62.12-4.59-1-8.54-.7-13.17a3.73,3.73,0,0,0-.33-2.28,2.51,2.51,0,0,0-2.14-1c-1.64,0-3.24.42-3.94,2A28.68,28.68,0,0,0,351.21,324.67Z"/>
              <path class="cls-1" d="M355.6,321.14a10.28,10.28,0,0,0-2.21,2.56c-.43.63-.88,1.46-.47,2.11a2,2,0,0,0,.65.57l3.08,2a1.11,1.11,0,0,0,.69.25,1.09,1.09,0,0,0,.54-.28,34.5,34.5,0,0,0,2.94-2.65C365,321.43,359.33,318.38,355.6,321.14Z"/>
            </g>
            <path class="cls-19" d="M428.49,284.34a4.46,4.46,0,0,0-2-2.39,87.29,87.29,0,0,0-30-13.81c-.92-.23-7.27,17.9-7.88,19.66-2.37,6.83-4.42,13.77-6.2,20.77q-2.93,11.51-6,23a100.64,100.64,0,0,0-11.23-10,4.63,4.63,0,0,0-2.29-1.13,4.44,4.44,0,0,0-2.86,1.13,32.79,32.79,0,0,0-4.14,3.58,3.14,3.14,0,0,0-1,1.52,3.3,3.3,0,0,0,.33,1.77C359,338.16,365,353.79,369.88,363c2.37,4.46,7.08,6.09,11.91,5.84a11.4,11.4,0,0,0,3.18-.74c1.28-.42,2.66-.38,4-.79a5.31,5.31,0,0,0,2.14-1.55c5.31-5.61,9-13.58,12.33-20.5a216.79,216.79,0,0,0,9.22-23.16q.3-.87.6-1.73c4.21-11.76,9.75-21.83,14.77-33.35A4.11,4.11,0,0,0,428.49,284.34Z"/>
          </g>
          <g>
            <g>
              <path class="cls-1" d="M410.42,419.31c1.67.69,3.43.62,5.15,1a89.65,89.65,0,0,0,3.87-17.87c-3.54,2-5.14-.41-6.87,5C412,409.16,411.65,416.78,410.42,419.31Z"/>
              <path class="cls-21" d="M417.37,418.58c-.08,3.34,2.46,7,3.84,10.05a2.06,2.06,0,0,1-.4,2.68,4.29,4.29,0,0,1-1.79,1.6,4.09,4.09,0,0,1-2.35-.09q-1.94-.48-3.83-1.13a2.68,2.68,0,0,1-.89-.44,2.76,2.76,0,0,1-.64-1c-.85-1.83-1.58-3.13-1.48-5.14a30.78,30.78,0,0,0,.09-6.3c-.16-1-.38-2.29.49-2.82.67-.41,1.87.21,2.59.34a9.8,9.8,0,0,1,3.6.89,1.7,1.7,0,0,1,.6.55A1.42,1.42,0,0,1,417.37,418.58Z"/>
            </g>
            <path class="cls-19" d="M411.42,312.36c.36,14.86,1.57,29.68.07,44.59-1.86,18.42-1.16,37.24-3.71,55.47a44.61,44.61,0,0,0,6.41,1.88c2.5.53,6.53,1.18,8.29-1.15.9-1.19,1.17-3.53,1.58-4.95,1.3-4.53,2.49-9.1,3.68-13.66,3.35-12.92,7.05-25.89,9-39.1,2-13.9,4.12-27.81,6.42-41.6,1.19-7.13,2.1-14.31,2.68-21.51.15-1.86,1.63-21,.7-21.17a87.29,87.29,0,0,0-33.06.56,4.45,4.45,0,0,0-2.77,1.4,4.11,4.11,0,0,0-.63,2.69c0,9.05,1,17.91,1.2,27C411.26,305.94,411.34,309.11,411.42,312.36Z"/>
          </g>
        </g>
        <path class="cls-7" d="M408.22,193.12l-.54.18a30.31,30.31,0,0,0-8.13,5c-3.8,2.92-5.67,4.19-7.23,8.61A108.29,108.29,0,0,0,389,219.64c-4.78,21.9-6.16,43.79-9.76,65.88-1,6-1.8,13.09,2.56,17.35,8.08-6,18-6.06,27.64-5.82,6.74.17,13.39-1.85,20.14-.92,6.44.88,12.13-.59,18.67,0,1.58.14,3.59.18,4.25-1.26-2.1-6.86-1.87-14.17-2.2-21.34-.86-18.53-6.53-36.44-8.53-54.88-.68-6.27-.86-16.65-5.58-21.5-5.12-5.27-17.11-5.68-23.89-4.85A23.27,23.27,0,0,0,408.22,193.12Z"/>
        <g>
          <path class="cls-1" d="M413.24,192.93a2.41,2.41,0,0,0,.44.63A5.27,5.27,0,0,0,416.6,195a13.08,13.08,0,0,0,4.29-.19c1.92-.32,1.88-1.43,2.2-3.16.18-.94.29-1.89.39-2.85.05-.52-.1-2.4.24-2.76s1.15-.14,1.56-.34a4.45,4.45,0,0,0,1.6-1.51,12.51,12.51,0,0,0,1.38-3.14l1.89-5.68a30.33,30.33,0,0,0,1.53-5.91c.37-3.05,0-7.38-2.27-9.68-2.05-2.09-5.11-2.89-7.92-3.32a16.67,16.67,0,0,0-10.88,1.91,8.92,8.92,0,0,0-3.39,3.18c-1.24,2.17-1.22,4.92-1.16,7.49l.17,7.12c.07,2.73.32,5.88,2.33,7.41,1.06.81,2.48,1,3.38,2,1.13,1.29,1,3.18,1,4.78A5.83,5.83,0,0,0,413.24,192.93Z"/>
          <polygon class="cls-9" points="422.82 158 407.19 162.39 407.68 175.93 396.76 171.65 393.78 148.32 426.3 132.86 440.04 149.81 428 160.79 422.82 158"/>
        </g>
        <polygon class="cls-21" points="364.38 152.75 421.96 266.26 456.83 234.52 529.17 311.4 474.09 188.03 430.2 218.75 364.38 152.75"/>
        <g>
          <path class="cls-1" d="M449.47,242.06a2,2,0,0,0-.54-.14c-1.67-.1-2.6.85-4.23,1.21-.73.16-2.09-1.18-2.63.27-.2.54-.51,1.93-.92,3.08a11,11,0,0,1-4.06,4.57c-2.79,1.89-22,12.09-23.44,8.54a136.49,136.49,0,0,1-4.69-13,1.09,1.09,0,0,0-1.33-1c-3.06.07-16-1.92-13.95,3.91a177.26,177.26,0,0,0,8.45,19.83,10.54,10.54,0,0,0,2.45,3.54c2.94,2.44,6.31-.41,9.15-1.58,2.66-1.09,5.29-2.22,7.89-3.45,5.42-2.56,10.71-5.39,16-8.28,2.07-1.14,3.27-3.22,5.2-4.26,1.23-.66,2.66-.3,4-.67a13,13,0,0,0,3.93-2c2.08-1.6,2-4.31,2.21-6.68a2.82,2.82,0,0,0-.14-1.5,4.07,4.07,0,0,0-1.87-1.71A7.9,7.9,0,0,0,449.47,242.06Z"/>
          <path class="cls-24" d="M388.45,245.06c0,2.32.31,5.16,2.45,6.06a6,6,0,0,0,2.71.25c5.36-.33,10.81-.68,15.83-2.56.88-.33,1.85-.84,2-1.76a2.87,2.87,0,0,0-.31-1.53L402.85,225c-2.15-5.32-8.49-13.72-12.22-4.51C387.78,227.51,388.53,237.56,388.45,245.06Z"/>
        </g>
      </g>
      <g>
        <path class="cls-20" d="M866.34,271.43a2,2,0,0,1,.24-.51c1-1.38,2.36-1.49,3.71-2.54.6-.47.43-2.41,1.93-1.89.55.19,1.84.86,3,1.28a11.2,11.2,0,0,0,6.23-.22,57.58,57.58,0,0,0,8-2.8c2.61-1.21,5.16-2.55,7.65-4,2.07-1.2,5.36-2.58,6.93-4.42,2.65-3.1-.42-10.65-.77-14.52-.36-4,0-15.91,5.43-16.25,8.92-.55,9.06,7.92,9.46,14.75a87.35,87.35,0,0,1-.15,12.85c-.54,6-4.39,9.36-9.49,12.18-5.4,3-10.93,5.92-16.87,7.69a66.13,66.13,0,0,1-8.67,1.6c-2.91.47-2.54,1.74-5,2.81a24,24,0,0,1-4.1,1.79c-2.61.59-4.7-1.21-6.68-2.61a2.87,2.87,0,0,1-1.08-1.09A4.15,4.15,0,0,1,866,273,8.05,8.05,0,0,1,866.34,271.43Z"/>
        <path class="cls-25" d="M918,242.63l-15.13,2.93c.32-.06-5.83-22.61-6.16-24-1.22-5.17-2.45-10.54-1.41-15.75,2.24-11.12,7.6-13.86,14.35-2.17,6.38,11,16.37,24.24,14.39,36.79a1.61,1.61,0,0,1-.27.77,1.64,1.64,0,0,1-1,.46Z"/>
      </g>
    </g>
    <g>
      <path class="cls-12" d="M136.33,222.47h-5V212h4.54a3.31,3.31,0,0,1,2.21.68,2.31,2.31,0,0,1,.81,1.87,2.57,2.57,0,0,1-.37,1.4,2,2,0,0,1-1,.82,2.59,2.59,0,0,1,1.67.92,2.89,2.89,0,0,1,.62,1.89,2.66,2.66,0,0,1-.93,2.13A3.75,3.75,0,0,1,136.33,222.47Zm-3.9-9.5v3.44h3.25a2.44,2.44,0,0,0,1.55-.44,1.51,1.51,0,0,0,.55-1.26,1.57,1.57,0,0,0-.55-1.29,2.39,2.39,0,0,0-1.55-.45Zm0,4.41v4.08h3.71a2.75,2.75,0,0,0,1.82-.54,1.87,1.87,0,0,0,.64-1.51,1.83,1.83,0,0,0-.64-1.49,2.78,2.78,0,0,0-1.82-.53Z"/>
      <path class="cls-12" d="M146.08,222.47h-3.87V212h1.11v3.92h2.76a3.88,3.88,0,0,1,2.76.92,3.08,3.08,0,0,1,1,2.38,3,3,0,0,1-1,2.39A4,4,0,0,1,146.08,222.47Zm-2.76-5.58v4.58H146a3.08,3.08,0,0,0,2-.59,2.06,2.06,0,0,0,.72-1.69,2.1,2.1,0,0,0-.71-1.7,3,3,0,0,0-2-.6Zm9.24,5.58h-1.11V212h1.11Z"/>
      <path class="cls-12" d="M161.89,222.65a5.14,5.14,0,0,1-3.15-.92v-1.17a4.79,4.79,0,0,0,3.15,1,4,4,0,0,0,2.86-1.12,4.26,4.26,0,0,0,1.31-2.88h-4.92v-1H166a4.08,4.08,0,0,0-1.32-2.71,4,4,0,0,0-2.78-1.06,5.35,5.35,0,0,0-2.94.88v-1.14a5.32,5.32,0,0,1,2.91-.78,5.14,5.14,0,0,1,3.82,1.56,5.43,5.43,0,0,1-3.82,9.3Z"/>
      <path class="cls-12" d="M169.81,212h1.11v4.56l4.86-4.56h1.47l-5.16,4.8,6,5.7h-1.56l-5.57-5.34v5.34h-1.11Z"/>
      <path class="cls-12" d="M180,213.35a5.34,5.34,0,0,1,7.54,0,5.72,5.72,0,0,1,0,7.75,5.38,5.38,0,0,1-7.54,0,5.76,5.76,0,0,1,0-7.75Zm.83,7a4.1,4.1,0,0,0,5.91,0,4.69,4.69,0,0,0,0-6.27,4.1,4.1,0,0,0-5.91,0,4.69,4.69,0,0,0,0,6.27Z"/>
      <path class="cls-12" d="M192.7,222.47h-1.11V212h1.11v4.37h6.24V212H200v10.5h-1.11v-5.13H192.7Z"/>
      <path class="cls-12" d="M204.07,213.35a5.34,5.34,0,0,1,7.54,0,5.72,5.72,0,0,1,0,7.75,5.38,5.38,0,0,1-7.54,0,5.76,5.76,0,0,1,0-7.75Zm.83,7a4.1,4.1,0,0,0,5.91,0,4.69,4.69,0,0,0,0-6.27,4.1,4.1,0,0,0-5.91,0,4.69,4.69,0,0,0,0,6.27Z"/>
      <path class="cls-12" d="M216.77,222.47h-1.09V212h1.09l3.79,5.08,3.79-5.08h1.08v10.5h-1.09v-8.82l-3.44,4.59h-.67l-3.46-4.59Z"/>
      <path class="cls-12" d="M229.33,222.47h-.93V212h1.09v8.64L236,212h1v10.5H235.9V213.8Z"/>
      <path class="cls-12" d="M243.73,222.47h-1.11V213H239v-1h8.38v1h-3.66Z"/>
      <path class="cls-12" d="M256.82,222.47H249.4V212h7.2v1h-6.09v3.36h5v1h-5v4.13h6.32Z"/>
    </g>
  </g>
</svg>
