<svg xmlns="http://www.w3.org/2000/svg" viewBox="0 0 317.4 549.53">
  <defs>
    <style>
      .cls-1 {
        fill: #587bc9;
      }

      .cls-2 {
        fill: #c67a6d;
      }

      .cls-3 {
        fill: #ebb044;
      }

      .cls-4 {
        fill: #1a3151;
      }

      .cls-5 {
        fill: #9ea6ad;
      }

      .cls-6 {
        fill: #ebceb1;
      }

      .cls-7 {
        fill: #efefef;
      }

      .cls-8 {
        fill: #f4f4f2;
      }

      .cls-9 {
        fill: #292949;
      }

      .cls-10 {
        fill: #3b455a;
      }

      .cls-11 {
        fill: #dddae8;
      }

      .cls-12 {
        opacity: 0.2;
      }

      .cls-13 {
        fill: #ffffed;
      }

      .cls-14 {
        opacity: 0.1;
      }

      .cls-15 {
        fill: #393b41;
      }

      .cls-16 {
        fill: #e5d1bd;
      }

      .cls-17 {
        fill: #3ababa;
      }

      .cls-18 {
        fill: #efbfa5;
      }

      .cls-19 {
        fill: #145566;
      }

      .cls-20 {
        fill: #babcbe;
      }

      .cls-21 {
        fill: #fff;
      }

      .cls-22 {
        fill: #e5e5e5;
      }

      .cls-23 {
        fill: #38afac;
      }

      .cls-24 {
        fill: #494949;
      }

      .cls-25 {
        fill: #919191;
      }
    </style>
  </defs>
  <title>Монтажная область 32 копия 2</title>
  <g id="Слой_1" data-name="Слой 1">
    <g>
      <path class="cls-1" d="M134.34,79,141,77.5A20.34,20.34,0,0,0,144.49,81L143,87.66A4.36,4.36,0,0,0,151,90.94l3.69-5.74a20.36,20.36,0,0,0,4.93,0l3.69,5.74a4.36,4.36,0,0,0,8-3L161.11,77.17a12.93,12.93,0,1,1,8.31-8.28L180.12,79a4.36,4.36,0,0,0,3.09-8l-5.75-3.69a20.34,20.34,0,0,0,0-4.92l5.75-3.69a4.36,4.36,0,0,0-3.29-7.93l-6.67,1.45a20.35,20.35,0,0,0-3.48-3.48l1.45-6.67a4.36,4.36,0,0,0-7.94-3.28l-3.69,5.74a20.37,20.37,0,0,0-4.93,0L151,38.81A4.36,4.36,0,0,0,143,42.1l1.45,6.67A20.35,20.35,0,0,0,141,52.25l-6.67-1.45A4.36,4.36,0,0,0,131,58.73l5.75,3.69a20.33,20.33,0,0,0,0,4.92L131,71A4.36,4.36,0,0,0,134.34,79Z"/>
      <path class="cls-1" d="M165.87,69.25a1,1,0,0,1-.24-1,9.29,9.29,0,0,0-4.23-11.43,9.12,9.12,0,0,0-4.75-1,.68.68,0,0,0-.44,1.16L161.34,62l-1.5,5.56-5.56,1.5L149.16,64a.68.68,0,0,0-1.16.44,9.12,9.12,0,0,0,1,4.75,9.29,9.29,0,0,0,11.43,4.23,1,1,0,0,1,1,.24l20,21.17A3.95,3.95,0,1,0,187,89.23Z"/>
    </g>
    <g>
      <g>
        <g>
          <g>
            <polygon class="cls-2" points="153.3 366.24 152.07 362.21 153.74 361.61 155.18 364.18 155.84 363.52 156.47 367.09 154.82 367.96 153.3 366.24"/>
            <polygon class="cls-3" points="179.99 384.15 164.19 382.41 156.66 365.81 153.47 367.7 156.2 384.25 162.99 391.94 170.95 397.25 179.99 384.15"/>
          </g>
          <g>
            <polygon class="cls-2" points="190.34 426.93 185.9 455.51 187.55 477.11 184.37 477.99 181.35 458.09 175.18 423.23 190.34 426.93"/>
            <polygon class="cls-4" points="184.25 477.74 183.9 479.88 184.71 483.95 187.37 483.72 187.88 477.7 187.48 476.73 184.25 477.74"/>
          </g>
          <g>
            <polygon class="cls-2" points="164.19 426.08 165.62 450.32 171.65 484.2 174.92 484.16 173.47 452.75 177.71 423.79 164.19 426.08"/>
            <polygon class="cls-4" points="171.71 483.62 167.53 486.37 168.05 488.42 175.7 486.78 175.08 483.82 171.71 483.62"/>
          </g>
          <polygon class="cls-5" points="163.47 429.72 163.61 457.85 167.37 476.4 176.21 475.3 175.96 453.63 177.78 429.55 176.88 425.9 164.2 427.19 163.47 429.72"/>
          <polygon class="cls-5" points="179.02 454.04 181.73 473.99 189.35 472.93 187.6 453.94 190.43 429.65 188.77 423.07 175.97 425 179.02 454.04"/>
          <path class="cls-3" d="M194.1,394.35c-.84-2.82-2.32-7.63-4.81-9l-.16-.08a12.56,12.56,0,0,0-1.58-.69,6.6,6.6,0,0,0-3.83-.8,10.82,10.82,0,0,0-3.74.36,8.92,8.92,0,0,0-1.57.69c-1.49.78-2.64,1.11-3.56,2.64a33.52,33.52,0,0,0-1.9,4.3c-5.1,12-9.25,27.92-12.56,40.56,1.56-.15,3.13-.41,4.69-.65a110.77,110.77,0,0,1,21.71,5.13c1.9,1.13,3.77,2.32,5.62,3.53-.47-.31,1.79-10.31,2-11.44.65-4.08,1.21-8.17,1.59-12.29A57.82,57.82,0,0,0,194.1,394.35Z"/>
          <g>
            <path class="cls-2" d="M191.07,374.76c-1.32-5-8.28-7.15-10.25-1.53a11.54,11.54,0,0,0-.76,5.27,5.68,5.68,0,0,0,2.76,4.34h0c.27.14-1.24,3-1.35,3.25a5.28,5.28,0,0,0-.42,1.12,4.75,4.75,0,0,0,.39,2.59,22.28,22.28,0,0,0,1,2.23.43.43,0,0,0,.12.17c.14.1.33,0,.47-.09a12.06,12.06,0,0,0,2.92-2.81,3.11,3.11,0,0,0,.46-.8,3.19,3.19,0,0,0,.13-1c0-1-.84-3.42-.34-4.19.19-.29,1.12-.51,1.44-.71a7,7,0,0,0,1.43-1.19A7.37,7.37,0,0,0,191.07,374.76Z"/>
            <g>
              <path class="cls-4" d="M180.9,374.77a6.34,6.34,0,0,0-.54,4.26c.2,1.4,0,2.77.37,4.16-.15.22-.48.07-.69-.09q-1.83-1.4-3.62-2.85a.84.84,0,0,1-.38-.92c.28-3.9,1.81-6.74,4-9.82,1.06-1.49,3.89-3.14,5.5-1.36a3,3,0,0,1,.59,1.51,2.48,2.48,0,0,1,0,1c-.29,1.28-1.49,1.21-2.42,1.61A6.49,6.49,0,0,0,180.9,374.77Z"/>
              <path class="cls-4" d="M189.78,377.34a12.07,12.07,0,0,1-.6,3.46c-.12.37-.82,1.22-.84,1.47-.06.72,1.42,2.41,1.81,3l7-3.86a.87.87,0,0,0,.58-.92,23.84,23.84,0,0,0-2.21-10.29c-1.4-3.32-4.53-6-8.23-5.79-3,.19-5.07,2.39-4,5.46.82,2.32,3.71,2.81,5.28,4.4A3.87,3.87,0,0,1,189.78,377.34Z"/>
            </g>
          </g>
          <g>
            <polygon class="cls-6" points="177.09 426.31 173.73 428.46 172.77 427.06 174.76 425.07 174 424.62 177.09 423.14 178.28 424.46 177.09 426.31"/>
            <path class="cls-3" d="M188.36,390.06a3.55,3.55,0,0,0-.83.6,6.64,6.64,0,0,0-1.82,4.14c-.25,2.43.26,4.95.29,7.39l.09,8.37-10.2,12.72,2.49,2.5,15.24-13c-.22-3.7-.45-7.32-.44-11,0-3.31.7-6.86-.76-10C191.6,390.08,189.91,389.26,188.36,390.06Z"/>
          </g>
        </g>
        <g>
          <path class="cls-7" d="M203.66,361.69a28.49,28.49,0,1,0-56.64,4.4h56.3A28.71,28.71,0,0,0,203.66,361.69Z"/>
          <g>
            <path class="cls-8" d="M174.88,338.15A24,24,0,0,0,151,362v.09l23.88-.09h23.88A24,24,0,0,0,174.88,338.15Z"/>
            <g>
              <path class="cls-3" d="M163.13,351.92l12,6.89-1.34,2-10.89-8.54A.21.21,0,0,1,163.13,351.92Z"/>
              <circle class="cls-9" cx="175" cy="360.17" r="1.85" transform="translate(-221.49 304.07) rotate(-56.03)"/>
            </g>
            <g>
              <path class="cls-4" d="M201.12,362H198a22.88,22.88,0,0,0-45.76,0h-3.07a25.95,25.95,0,0,1,51.9,0Z"/>
              <rect class="cls-10" x="174.62" y="338.45" width="1.11" height="3.84"/>
              <rect class="cls-4" x="191.82" y="346.85" width="1.11" height="3.84" transform="translate(340.66 -20.91) rotate(50.74)"/>
              <rect class="cls-4" x="157.71" y="346.85" width="1.11" height="3.84" transform="translate(528.46 446.94) rotate(129.26)"/>
            </g>
            <path class="cls-3" d="M152.41,349.64a25.79,25.79,0,0,0-3.19,12.45h3.07a22.74,22.74,0,0,1,2.9-11.14Z"/>
          </g>
        </g>
      </g>
      <g>
        <g>
          <path class="cls-1" d="M68.95,443.11l10.18-9.76h.31l1.73-3.6,9.14-19c2.68-5.57,5.07-15.1,12.58-15.15l71.4-.47a20.49,20.49,0,0,1,18.64,12.22l12,26.18h1.19l24,7.38A24.47,24.47,0,0,1,244,462.78l.09,14L62.77,478l-.13-20A20.51,20.51,0,0,1,68.95,443.11Z"/>
          <path class="cls-11" d="M138.59,430.94,91,431.25l10.64-26.72a3.42,3.42,0,0,1,3.13-2.21l33.67-.22Z"/>
          <path class="cls-11" d="M146.55,402l27.29-.18a14.94,14.94,0,0,1,13.59,8.91l9.08,19.77-49.76.33Z"/>
          <g class="cls-12">
            <path class="cls-13" d="M100.33,411l-1.89,1,2.91-7.31a3.42,3.42,0,0,1,3.13-2.21l11.66-.08C110.89,405.31,105.6,408.13,100.33,411Z"/>
            <path class="cls-13" d="M99.45,417.35c8.71-4.79,17.87-10.22,26.5-15.17l10.94.1c-7.46,6.48-16.9,12.26-25.23,17.47-5,3.13-10.13,6.09-15.38,8.81-1.72.89-3.52,1.7-5.32,2.52l4.61-11.57Z"/>
            <path class="cls-13" d="M155.25,419.24c3.66-2.4,7.46-4.62,11.28-6.76s7.79-4.34,11.85-6.14c1.34-.59,2.69-1.14,4-1.7a15.55,15.55,0,0,1,5,6.13l.09.19c-4.1,2.9-8.22,5.77-12.29,8.7-6,4.33-12.67,7.62-19.18,11.15l-9.3.06,0-5.23C149.55,423.52,152.27,421.2,155.25,419.24Z"/>
          </g>
          <path class="cls-14" d="M175.43,477.28a13,13,0,0,1-.26-2.5c-.06-8.39,7.92-15.25,17.82-15.31a20.09,20.09,0,0,1,10.39,2.74,34.07,34.07,0,0,0-15.81,8.43,27.47,27.47,0,0,0-5.27,6.55Z"/>
          <path class="cls-14" d="M81.55,477.9a13.33,13.33,0,0,1-.25-2.5C81.24,467,89,460.16,98.69,460.09a19.26,19.26,0,0,1,10.14,2.74,33,33,0,0,0-15.44,8.43,27.35,27.35,0,0,0-5.15,6.55Z"/>
          <g>
            <circle class="cls-15" cx="196.8" cy="475.38" r="15.94" transform="translate(-3.15 1.32) rotate(-0.38)"/>
            <g>
              <circle class="cls-13" cx="196.8" cy="475.38" r="9.05" transform="translate(-160.96 105.61) rotate(-21.57)"/>
              <path class="cls-14" d="M195.25,481.69a7.38,7.38,0,0,1-4.7-1.94,5.22,5.22,0,0,0,3.52,3.28,8.43,8.43,0,0,0,1.68.24,8.58,8.58,0,0,0,1.8,0,5.32,5.32,0,0,0,3.83-2.69c-.25.46-2,.8-2.46.88A14.43,14.43,0,0,1,195.25,481.69Z"/>
            </g>
          </g>
          <g>
            <circle class="cls-15" cx="102.62" cy="476.01" r="15.94" transform="matrix(1, -0.01, 0.01, 1, -3.16, 0.69)"/>
            <g>
              <circle class="cls-13" cx="102.62" cy="476.01" r="9.05" transform="translate(-167.78 71.04) rotate(-21.57)"/>
              <path class="cls-14" d="M101.07,482.32a7.38,7.38,0,0,1-4.7-1.94,5.22,5.22,0,0,0,3.52,3.28,8.43,8.43,0,0,0,1.68.24,8.58,8.58,0,0,0,1.8,0,5.32,5.32,0,0,0,3.83-2.69c-.25.46-2,.8-2.46.88A14.42,14.42,0,0,1,101.07,482.32Z"/>
            </g>
          </g>
        </g>
        <rect class="cls-14" x="150.88" y="438.98" width="8.67" height="3.73" rx="0.55" ry="0.55" transform="translate(313.35 880.63) rotate(179.62)"/>
      </g>
      <g>
        <g>
          <path class="cls-16" d="M224.4,406.5a1.68,1.68,0,0,1,.73-.57,7.61,7.61,0,0,0,1.37-.56c.35-.23.26-1.07,1.07-.75.3.12.82.49,1.4.71a5.73,5.73,0,0,0,3,.07,104.58,104.58,0,0,1,12-2.07,1.3,1.3,0,0,0,.65-.18,1.52,1.52,0,0,0,.48-1,29,29,0,0,1,1.63-5.3,10.65,10.65,0,0,1,2.75-4.06,4.89,4.89,0,0,1,4.58-1.11,3.34,3.34,0,0,1,2.42,2.44c.61,3.07-2.21,5.36-3.9,7.52s-3,3.76-4.64,5.63a2.12,2.12,0,0,1-.69.58,2.21,2.21,0,0,1-.94.13c-4.05-.05-8-.21-12,.61a25.4,25.4,0,0,0-3.11.34c-.66.22-1,.87-1.6,1.18a5.4,5.4,0,0,1-2,.67c-1.33.09-2.15-.89-3.05-1.69a2.07,2.07,0,0,0-2.22-.58.75.75,0,0,1-.36.07.56.56,0,0,1-.33-.83,1.41,1.41,0,0,1,.87-.54,4.34,4.34,0,0,1,1.12-.24.69.69,0,0,0,.46-.12C224.25,406.7,224.29,406.62,224.4,406.5Z"/>
          <path class="cls-17" d="M252.54,400.47c-2.28-.86-4.68-1.39-6.9-2.44.81-1.94,3.14-9.82,3.54-10.76,1.53-3.6,1.83-5.15,3.94-7.06,4.51-4.06,9.87-1.37,9.65,4.4-.24,6.26-3.59,11.63-7.22,16.47a.71.71,0,0,1-.32.24.81.81,0,0,1-.51-.07C254,401,253.26,400.74,252.54,400.47Z"/>
        </g>
        <g>
          <g>
            <g>
              <path class="cls-18" d="M250.68,486.74a18.56,18.56,0,0,1-2.35-.22c-.4-7.78.33-15.93.65-23.74l6,.32a69.83,69.83,0,0,0-3,12.85C251.91,476.63,250.79,486.73,250.68,486.74Z"/>
              <path class="cls-19" d="M248.09,485a1.21,1.21,0,0,0-1.11.43c-.19.17-.32.42-.55.55a1.81,1.81,0,0,1-.73.18c-1.44.14-4.76.08-3,2.5,1.61,2.19,5.87,1.32,8.34.72a.85.85,0,0,0,.45-.19,1.16,1.16,0,0,0,.25-.49c.28-1,.67-2.32-.6-2.75-.54-.18-1,.17-1.61,0S248.58,485.09,248.09,485Z"/>
            </g>
            <path class="cls-5" d="M244.5,467.46l12.22-.24q4.94-23.53,8.7-47.3a8.42,8.42,0,0,0,0-3.7c-.67-2.25-3.08-3.54-5.39-4-3.59-.67-10.19.26-12,4-1.95,3.95-1.62,11-2.09,15.35A265.07,265.07,0,0,0,244.5,467.46Z"/>
          </g>
          <g>
            <g>
              <path class="cls-18" d="M274,486.74a18.56,18.56,0,0,0,2.35-.22c.4-7.78-.33-15.93-.65-23.74l-6,.32a69.84,69.84,0,0,1,3,12.85C272.74,476.63,273.87,486.73,274,486.74Z"/>
              <path class="cls-19" d="M276.57,485a1.21,1.21,0,0,1,1.11.43c.19.17.32.42.55.55a1.81,1.81,0,0,0,.73.18c1.44.14,4.76.08,3,2.5-1.61,2.19-5.87,1.32-8.34.72a.85.85,0,0,1-.45-.19,1.16,1.16,0,0,1-.25-.49c-.28-1-.67-2.32.6-2.75.54-.18,1,.17,1.61,0S276.08,485.09,276.57,485Z"/>
            </g>
            <path class="cls-5" d="M280.16,467.46l-12.22-.24q-4.94-23.53-8.7-47.3a8.42,8.42,0,0,1,0-3.7c.67-2.25,3.08-3.54,5.39-4,3.59-.67,10.19.26,12,4,1.95,3.95,1.62,11,2.09,15.35A265.07,265.07,0,0,1,280.16,467.46Z"/>
          </g>
        </g>
        <path class="cls-17" d="M269.71,381.43a29.13,29.13,0,0,1,7.19,11.24c2.61,7.33,2.66,15.15,2.68,22.81q0,3.83,0,7.65c0,2.51-.21,3-2.94,2.72a46.77,46.77,0,0,1-14.89-3.9,70.42,70.42,0,0,0-6.5-3.26c-3.32-1.22-6.73-.67-10-1.47a78,78,0,0,0,3.18-12.44c.75-4.58,1.44-9.57,2.55-14.09a37,37,0,0,1,3.15-7.73,14,14,0,0,1,3.17-4.6C261.62,374.71,266.46,378.33,269.71,381.43Z"/>
        <g>
          <path class="cls-18" d="M255.8,371.15a28,28,0,0,0,2.45,3.71,8.32,8.32,0,0,1,1.3,3.68c.15,1,.51,1.79,1.72,2,2.28.32,1.63-1.56,2.15-2.93.59-1.57,1.86-2.81,2.74-4.21,2.55-4,1.82-12-3.48-13.75C256.88,357.74,253.93,367.06,255.8,371.15Z"/>
          <path class="cls-10" d="M251.16,357.84a4.62,4.62,0,0,0,1.62-1.36c.28-.49.32-1.1.59-1.59a4,4,0,0,1,2.52-1.45c2.35-.76,3.62-1.63,6.11-.66,1.77.69,4.06.78,5.7,1.78a5.75,5.75,0,0,1,1.75,1.84,10.39,10.39,0,0,1,1,9,11.05,11.05,0,0,1-.88,1.7c-.66,1.07-1.36,2.38-2.53,2.9a1.27,1.27,0,0,0-.11-.35,4.71,4.71,0,0,1-.46-.92,3.9,3.9,0,0,1,0-1.09c.07-1.42.51-3.67-.91-4.38-1.8-.89-5.17-.09-6.9.67a14.15,14.15,0,0,1-3.11,1,1.8,1.8,0,0,0,0,.5,4.34,4.34,0,0,1,.28,1.92,2.3,2.3,0,0,1-.36-.16,3.93,3.93,0,0,1-1.63-2.17,3.25,3.25,0,0,1-1-.24c-1.52-.66-2.75-3.31-2.7-4.95A2.27,2.27,0,0,1,251.16,357.84Z"/>
        </g>
        <g>
          <path class="cls-19" d="M256.6,387.84l-28.3,6.27c0,.12.06.23.09.35a9.16,9.16,0,0,1-7,10.93h0l8.39,37.84a3.52,3.52,0,0,0,4.2,2.67l33.84-7.5a3.52,3.52,0,0,0,2.67-4.2l-9.69-43.7A3.52,3.52,0,0,0,256.6,387.84Zm3.22,17.39-17.65-9.54,12.41-2.75a2.45,2.45,0,0,1,2.93,1.86Z"/>
          <path class="cls-20" d="M224.46,395l-16.29-6.3-1.51,2.44,13.65,9.54,1,3.85c4.66-1,7-5.42,6.13-10.07Z"/>
          <g>
            <path class="cls-3" d="M200.28,411c.73,5.06,4.61,8,9.68,6.43a6.34,6.34,0,0,0,4.3-7c-.6-4-3.72-7.09-6-10.23a9.44,9.44,0,0,1-2.1-5.59.25.25,0,0,0-.44-.16c-.48.56-1.11,1.15-1.38,1.55A24.44,24.44,0,0,0,202.6,399a24.86,24.86,0,0,0-2.17,6.45A17.52,17.52,0,0,0,200.28,411Z"/>
            <path class="cls-21" d="M205.4,414.53c-3.2-.85-3.17-5.22-2.49-7.77.17-.62-.79-.93-1-.31-.82,3.09-.64,8,3.14,9C205.72,415.65,206,414.69,205.4,414.53Z"/>
            <path class="cls-21" d="M206.93,415.4l-.11,0a.5.5,0,1,0,.22,1l.11,0a.5.5,0,1,0-.22-1Z"/>
          </g>
        </g>
        <g>
          <g>
            <path class="cls-2" d="M81.59,359.71a.81.81,0,0,0-.12.2c-.23.66,0,1.14,0,1.83,0,.31-.71.7-.19,1.08.19.14.71.42,1.12.72a4.56,4.56,0,0,1,1.36,2.14A32.47,32.47,0,0,1,85,375.45a1.18,1.18,0,0,1-.08.55,1.24,1.24,0,0,1-.84.51,25.23,25.23,0,0,0-4.36,1.69,9.42,9.42,0,0,0-3.33,2.47,4.24,4.24,0,0,0-.82,3.92,3.31,3.31,0,0,0,2.21,2c2.5.68,4.82-2.3,6.49-3.77a44.9,44.9,0,0,0,4.43-4.46,1.93,1.93,0,0,0,.42-.65,2,2,0,0,0,0-.82,98,98,0,0,0-1.93-10.48c-.22-1-.91-1.67-1.11-2.56-.12-.57.18-1.1.19-1.66a5.39,5.39,0,0,0-.34-1.79c-.4-1-1.49-1.3-2.42-1.64a1.17,1.17,0,0,0-.61-.11,1.69,1.69,0,0,0-.89.55A3.28,3.28,0,0,0,81.59,359.71Z"/>
            <path class="cls-8" d="M83.27,382.93l-2.5-5.76c.05.12-8.94,3.24-9.47,3.45a15.14,15.14,0,0,0-5.61,3.15,4.89,4.89,0,0,0,3.95,8.38,25.76,25.76,0,0,0,14.3-6.69.65.65,0,0,0,.2-.27.67.67,0,0,0-.08-.45Z"/>
          </g>
          <g>
            <g>
              <g>
                <path class="cls-19" d="M36,435.42c-.14.73-.24,1.45-.31,2.12a22.83,22.83,0,0,1-.3,3.59,12.75,12.75,0,0,0-.37,1.32,2,2,0,0,0,.16,1.34,1.85,1.85,0,0,0,1.25.76,2.88,2.88,0,0,0,1.32.1,2.89,2.89,0,0,0,1.85-2.13,12.24,12.24,0,0,0,.21-3.64c0-1.94-.43-3.61-.3-5.56a1.58,1.58,0,0,0-.14-1,1.06,1.06,0,0,0-.9-.43,1.66,1.66,0,0,0-1.67.83A12.12,12.12,0,0,0,36,435.42Z"/>
                <path class="cls-2" d="M37.82,433.93a4.34,4.34,0,0,0-.93,1.08c-.18.27-.37.62-.2.89a.84.84,0,0,0,.28.24l1.3.84a.47.47,0,0,0,.29.1.46.46,0,0,0,.23-.12A14.57,14.57,0,0,0,40,435.84C41.79,434.05,39.4,432.76,37.82,433.93Z"/>
              </g>
              <path class="cls-17" d="M68.62,418.38a1.88,1.88,0,0,0-.83-1,36.88,36.88,0,0,0-12.69-5.83c-.39-.1-3.07,7.56-3.33,8.31-1,2.89-1.87,5.82-2.62,8.78q-1.24,4.86-2.55,9.71a42.52,42.52,0,0,0-4.74-4.21,2,2,0,0,0-1-.48,1.88,1.88,0,0,0-1.21.48,13.85,13.85,0,0,0-1.75,1.51,1.33,1.33,0,0,0-.41.64,1.39,1.39,0,0,0,.14.75c1.6,4.11,4.13,10.71,6.2,14.61a5.08,5.08,0,0,0,5,2.47,4.82,4.82,0,0,0,1.35-.31c.54-.18,1.12-.16,1.67-.33a2.24,2.24,0,0,0,.9-.66c2.24-2.37,3.82-5.74,5.21-8.66a91.59,91.59,0,0,0,3.89-9.79l.26-.73c1.78-5,4.12-9.22,6.24-14.09A1.74,1.74,0,0,0,68.62,418.38Z"/>
            </g>
            <g>
              <g>
                <path class="cls-2" d="M61,475.4a12.1,12.1,0,0,0,2.17.42,37.87,37.87,0,0,0,1.64-7.55c-1.5.84-2.17-.17-2.9,2.1C61.65,471.12,61.5,474.34,61,475.4Z"/>
                <path class="cls-19" d="M63.92,475.09c0,1.41,1,3,1.62,4.25a.87.87,0,0,1-.17,1.13,1.81,1.81,0,0,1-.75.67,1.73,1.73,0,0,1-1,0q-.82-.2-1.62-.48a1.13,1.13,0,0,1-.37-.19,1.17,1.17,0,0,1-.27-.41,4.26,4.26,0,0,1-.63-2.17,13,13,0,0,0,0-2.66c-.07-.42-.16-1,.21-1.19s.79.09,1.09.15a4.14,4.14,0,0,1,1.52.38.72.72,0,0,1,.26.23A.6.6,0,0,1,63.92,475.09Z"/>
              </g>
              <path class="cls-17" d="M61.4,430.22c.15,6.28.66,12.54,0,18.84-.79,7.78-.49,15.73-1.57,23.43a18.85,18.85,0,0,0,2.71.79c1.06.23,2.76.5,3.5-.49a7.09,7.09,0,0,0,.67-2.09c.55-1.92,1.05-3.84,1.55-5.77a153.29,153.29,0,0,0,3.78-16.52c.85-5.87,1.74-11.75,2.71-17.58.5-3,.89-6,1.13-9.09.06-.78.69-8.88.29-8.94a36.88,36.88,0,0,0-14,.24,1.88,1.88,0,0,0-1.17.59,1.74,1.74,0,0,0-.26,1.13c0,3.82.44,7.57.5,11.4C61.34,427.51,61.37,428.84,61.4,430.22Z"/>
            </g>
          </g>
          <path class="cls-8" d="M60.05,379.84l-.23.08a12.81,12.81,0,0,0-3.44,2.1c-1.61,1.23-2.4,1.77-3.05,3.64A45.75,45.75,0,0,0,51.92,391c-2,9.25-2.6,18.5-4.12,27.83-.41,2.54-.76,5.53,1.08,7.33,3.41-2.52,7.62-2.56,11.68-2.46,2.85.07,5.66-.78,8.51-.39s5.12-.25,7.89,0c.67.06,1.52.07,1.8-.53-.89-2.9-.79-6-.93-9-.36-7.83-2.76-15.4-3.61-23.19-.29-2.65-.37-7-2.36-9.08-2.17-2.23-7.23-2.4-10.09-2A9.83,9.83,0,0,0,60.05,379.84Z"/>
          <g>
            <path class="cls-2" d="M62.17,379.76a1,1,0,0,0,.19.27,2.23,2.23,0,0,0,1.23.61,5.53,5.53,0,0,0,1.81-.08c.81-.13.79-.61.93-1.33.07-.4.12-.8.16-1.2,0-.22,0-1,.1-1.17s.49-.06.66-.14a1.88,1.88,0,0,0,.68-.64,5.28,5.28,0,0,0,.58-1.33l.8-2.4a12.81,12.81,0,0,0,.65-2.5c.15-1.29,0-3.12-1-4.09a5.83,5.83,0,0,0-3.35-1.4,7,7,0,0,0-4.6.81,3.77,3.77,0,0,0-1.43,1.34,6.09,6.09,0,0,0-.49,3.16l.07,3c0,1.15.14,2.48,1,3.13.45.34,1,.43,1.43.86a3,3,0,0,1,.43,2A2.46,2.46,0,0,0,62.17,379.76Z"/>
            <polygon class="cls-10" points="66.22 365.01 59.62 366.86 59.83 372.58 55.21 370.77 53.95 360.92 67.69 354.39 73.5 361.54 68.41 366.19 66.22 365.01"/>
          </g>
          <polygon class="cls-19" points="41.53 362.79 65.86 410.75 80.59 397.33 111.15 429.82 87.88 377.69 69.34 390.67 41.53 362.79"/>
          <g>
            <path class="cls-2" d="M77.48,400.52a.83.83,0,0,0-.23-.06c-.71,0-1.1.36-1.79.51-.31.07-.88-.5-1.11.12-.08.23-.21.81-.39,1.3a4.64,4.64,0,0,1-1.72,1.93c-1.18.8-9.28,5.11-9.9,3.61a57.66,57.66,0,0,1-2-5.5.46.46,0,0,0-.56-.43c-1.29,0-6.77-.81-5.89,1.65A74.89,74.89,0,0,0,57.48,412a4.45,4.45,0,0,0,1,1.49c1.24,1,2.67-.17,3.86-.67s2.24-.94,3.33-1.46c2.29-1.08,4.53-2.28,6.74-3.5.87-.48,1.38-1.36,2.19-1.8.52-.28,1.13-.13,1.67-.28A5.49,5.49,0,0,0,78,405c.88-.68.86-1.82.93-2.82a1.19,1.19,0,0,0-.06-.63,1.72,1.72,0,0,0-.79-.72A3.34,3.34,0,0,0,77.48,400.52Z"/>
            <path class="cls-22" d="M51.7,401.79c0,1,.13,2.18,1,2.56a2.54,2.54,0,0,0,1.14.11,22.88,22.88,0,0,0,6.69-1.08c.37-.14.78-.36.85-.75a1.21,1.21,0,0,0-.13-.65l-3.5-8.68c-.91-2.25-3.59-5.8-5.16-1.9C51.42,394.37,51.73,398.62,51.7,401.79Z"/>
          </g>
        </g>
        <g>
          <path class="cls-18" d="M253.6,412.93a.84.84,0,0,1,.1-.22c.43-.58,1-.63,1.57-1.07.25-.2.18-1,.81-.8.23.08.78.36,1.27.54a4.73,4.73,0,0,0,2.63-.09,24.33,24.33,0,0,0,3.36-1.19c1.1-.51,2.18-1.08,3.23-1.69a11.93,11.93,0,0,0,2.93-1.87c1.12-1.31-.18-4.5-.32-6.14s0-6.72,2.3-6.87c3.77-.23,3.83,3.35,4,6.23a36.9,36.9,0,0,1-.06,5.43c-.23,2.52-1.86,4-4,5.15a36.72,36.72,0,0,1-7.13,3.25,27.94,27.94,0,0,1-3.66.68c-1.23.2-1.07.73-2.1,1.19a10.15,10.15,0,0,1-1.73.76c-1.1.25-2-.51-2.82-1.1a1.21,1.21,0,0,1-.46-.46,1.75,1.75,0,0,1-.05-1.09A3.4,3.4,0,0,1,253.6,412.93Z"/>
          <path class="cls-23" d="M275.41,400.76,269,402c.14,0-2.47-9.55-2.6-10.12a15.71,15.71,0,0,1-.59-6.65c.95-4.7,3.21-5.86,6.06-.92,2.69,4.66,6.92,10.24,6.08,15.54a.68.68,0,0,1-.11.33.69.69,0,0,1-.43.19Z"/>
        </g>
      </g>
    </g>
    <g>
      <path class="cls-24" d="M45.35,179.93a2.91,2.91,0,0,1-1.1-.18v-.86a2.59,2.59,0,0,0,1,.17,1.28,1.28,0,0,0,1.08-.55,4.8,4.8,0,0,0,.35-.52c.06-.1.17-.33.35-.68L43.45,171h1l2.95,5.34L49.88,171h1l-3.22,6.9a4.5,4.5,0,0,1-1.06,1.53A1.88,1.88,0,0,1,45.35,179.93Z"/>
      <path class="cls-24" d="M56,179.93a4.59,4.59,0,0,1-3.21-7.76A4.36,4.36,0,0,1,56,170.88a4.48,4.48,0,0,1,2.45.65v1a4.44,4.44,0,0,0-2.44-.74,3.43,3.43,0,0,0-2.54,1,3.86,3.86,0,0,0,0,5.24,3.48,3.48,0,0,0,2.56,1,4,4,0,0,0,2.6-.87v1A4.39,4.39,0,0,1,56,179.93Z"/>
      <path class="cls-24" d="M59.46,179.78v-.85a1.91,1.91,0,0,0,.35,0,1.15,1.15,0,0,0,.92-.4,3,3,0,0,0,.56-1.16,5.59,5.59,0,0,0,.2-1.12q.07-.7.11-1.33,0-.46,0-1.52L61.7,171h5.47v8.75h-.92v-7.91H62.6l-.06,2a19.39,19.39,0,0,1-.37,3.7,3.27,3.27,0,0,1-.82,1.66,2.26,2.26,0,0,1-1.53.57Z"/>
      <path class="cls-24" d="M70.61,179.93a2.91,2.91,0,0,1-1.1-.18v-.86a2.59,2.59,0,0,0,1,.17,1.28,1.28,0,0,0,1.08-.55,4.8,4.8,0,0,0,.35-.52c.06-.1.17-.33.35-.68L68.71,171h1l2.95,5.34L75.15,171h1l-3.22,6.9a4.5,4.5,0,0,1-1.06,1.53A1.88,1.88,0,0,1,70.61,179.93Z"/>
      <path class="cls-24" d="M78.63,179.78h-.92V171h5.86v.84H78.63Z"/>
      <path class="cls-24" d="M86,179.78h-.78V171h.91v7.2l5.44-7.2h.81v8.75h-.91v-7.22Z"/>
      <path class="cls-24" d="M99.12,179.78H98.2V171h6.86v8.75h-.92v-7.91h-5Z"/>
      <path class="cls-24" d="M108.41,172.18a4.45,4.45,0,0,1,6.29,0,4.76,4.76,0,0,1,0,6.46,4.48,4.48,0,0,1-6.29,0,4.8,4.8,0,0,1,0-6.46Zm.69,5.84a3.41,3.41,0,0,0,4.92,0,3.91,3.91,0,0,0,0-5.22,3.41,3.41,0,0,0-4.92,0,3.91,3.91,0,0,0,0,5.22Z"/>
      <path class="cls-24" d="M121.22,181.73h-.86v-2.79h.82a7.35,7.35,0,0,0,1.16-2.66,19.28,19.28,0,0,0,.36-4.2v-1h5.4v7.91h1.32v2.79h-.86v-2h-7.35Zm1-2.79h5v-7.07h-3.56v.59Q123.62,176.93,122.22,178.94Z"/>
      <path class="cls-24" d="M131.86,179.78h-.78V171H132v7.2l5.44-7.2h.81v8.75h-.91v-7.22Z"/>
      <path class="cls-24" d="M140.81,179.78h-1l3.9-8.8h.86l3.91,8.8h-1l-1.09-2.41h-4.59Zm3.36-7.64-2,4.41h4Z"/>
      <path class="cls-24" d="M151,179.78h-.92V171H156v.84H151Z"/>
      <path class="cls-24" d="M158.61,179.78h-.92V171h.92v3.64h5.2V171h.92v8.75h-.92V175.5h-5.2Z"/>
      <path class="cls-24" d="M168.08,172.18a4.45,4.45,0,0,1,6.29,0,4.76,4.76,0,0,1,0,6.46,4.48,4.48,0,0,1-6.29,0,4.8,4.8,0,0,1,0-6.46Zm.69,5.84a3.41,3.41,0,0,0,4.92,0,3.91,3.91,0,0,0,0-5.22,3.41,3.41,0,0,0-4.92,0,3.91,3.91,0,0,0,0,5.22Z"/>
      <path class="cls-24" d="M181.88,179.93a4.59,4.59,0,0,1-3.21-7.76,4.36,4.36,0,0,1,3.21-1.29,4.48,4.48,0,0,1,2.45.65v1a4.44,4.44,0,0,0-2.44-.74,3.43,3.43,0,0,0-2.54,1,3.86,3.86,0,0,0,0,5.24,3.48,3.48,0,0,0,2.56,1,4,4,0,0,0,2.6-.87v1A4.39,4.39,0,0,1,181.88,179.93Z"/>
      <path class="cls-24" d="M189.53,179.78h-.92v-7.91h-3V171h7v.84h-3Z"/>
      <path class="cls-24" d="M195,179.78h-.78V171h.91v7.2l5.44-7.2h.81v8.75h-.91v-7.22Z"/>
      <path class="cls-24" d="M203.88,171h.92v3.8l4.05-3.8h1.22l-4.3,4,5,4.75h-1.3l-4.64-4.45v4.45h-.92Z"/>
      <path class="cls-24" d="M218.33,179.78h-6.19V171h6v.84h-5.08v2.8h4.16v.84h-4.16v3.44h5.26Z"/>
      <path class="cls-24" d="M225.72,179.93a5.94,5.94,0,0,1-3-.68v-.95a5.42,5.42,0,0,0,2.81.76,3.43,3.43,0,0,0,2-.51,1.57,1.57,0,0,0,.73-1.36,1.48,1.48,0,0,0-.68-1.25,2.94,2.94,0,0,0-1.76-.49h-1.08v-.84H226a2.4,2.4,0,0,0,1.44-.38,1.25,1.25,0,0,0,.52-1.07,1.2,1.2,0,0,0-.59-1.06,2.81,2.81,0,0,0-1.55-.38,6.11,6.11,0,0,0-2.6.61v-.87a6.18,6.18,0,0,1,2.64-.6,3.58,3.58,0,0,1,2.16.61,1.94,1.94,0,0,1,.85,1.64,1.74,1.74,0,0,1-.45,1.25,2.21,2.21,0,0,1-1,.63,3,3,0,0,1,1.27.79,1.94,1.94,0,0,1,.56,1.47,2.33,2.33,0,0,1-.95,1.91A4.08,4.08,0,0,1,225.72,179.93Z"/>
      <path class="cls-24" d="M231.21,179.78h-1l3.9-8.8H235l3.91,8.8h-1l-1.09-2.41h-4.59Zm3.36-7.64-2,4.41h4Z"/>
      <path class="cls-24" d="M244.74,179.78h-.92V171h.92v3.64h5.2V171h.92v8.75h-.92V175.5h-5.2Z"/>
      <path class="cls-24" d="M253.43,179.78h-1l3.9-8.8h.86l3.91,8.8h-1l-1.09-2.41h-4.59Zm3.36-7.64-2,4.41h4Z"/>
      <path class="cls-24" d="M272.12,171H273v8.75h-10.3V171h.92v7.91h3.76V171h.92v7.91h3.76Z"/>
      <path class="cls-24" d="M64.79,196.93a4.59,4.59,0,0,1-3.21-7.76,4.36,4.36,0,0,1,3.21-1.29,4.48,4.48,0,0,1,2.45.65v1a4.44,4.44,0,0,0-2.44-.74,3.43,3.43,0,0,0-2.54,1,3.86,3.86,0,0,0,0,5.24,3.48,3.48,0,0,0,2.56,1,4,4,0,0,0,2.6-.87v1A4.39,4.39,0,0,1,64.79,196.93Z"/>
      <path class="cls-24" d="M75.47,196.78h-.92v-3.94a7.15,7.15,0,0,1-2.55.46,3.5,3.5,0,0,1-2.29-.64,2.52,2.52,0,0,1-.77-2V188h.92v2.35a2,2,0,0,0,.54,1.6,2.76,2.76,0,0,0,1.8.46,5.83,5.83,0,0,0,2.35-.51V188h.92Z"/>
      <path class="cls-24" d="M84.12,196.78H77.93V188h6v.84H78.86v2.8H83v.84H78.86v3.44h5.26Zm-4.75-9.92a.58.58,0,0,1-.17-.42.54.54,0,0,1,.17-.41.57.57,0,0,1,.83,0,.54.54,0,0,1,.17.41.59.59,0,0,1-1,.42Zm2.5,0a.58.58,0,0,1-.17-.42.54.54,0,0,1,.17-.41.57.57,0,0,1,.83,0,.54.54,0,0,1,.17.41.59.59,0,0,1-1,.42Z"/>
      <path class="cls-24" d="M89.08,196.78h-.92v-7.91h-3V188h7v.84h-3Z"/>
      <path class="cls-24" d="M92.23,198.68h-.72l1-3.19h1Z"/>
      <path class="cls-24" d="M99.78,196.93a2.91,2.91,0,0,1-1.1-.18v-.86a2.59,2.59,0,0,0,1,.17,1.28,1.28,0,0,0,1.08-.55,4.8,4.8,0,0,0,.35-.52c.06-.1.17-.33.35-.68L97.88,188h1l2.95,5.34,2.46-5.34h1l-3.22,6.9a4.5,4.5,0,0,1-1.06,1.53A1.88,1.88,0,0,1,99.78,196.93Z"/>
      <path class="cls-24" d="M110.47,196.93a4.59,4.59,0,0,1-3.21-7.76,4.36,4.36,0,0,1,3.21-1.29,4.48,4.48,0,0,1,2.45.65v1a4.44,4.44,0,0,0-2.44-.74,3.43,3.43,0,0,0-2.54,1,3.86,3.86,0,0,0,0,5.24,3.48,3.48,0,0,0,2.56,1,4,4,0,0,0,2.6-.87v1A4.39,4.39,0,0,1,110.47,196.93Z"/>
      <path class="cls-24" d="M113.89,196.78v-.85a1.91,1.91,0,0,0,.35,0,1.15,1.15,0,0,0,.92-.4,3,3,0,0,0,.56-1.16,5.59,5.59,0,0,0,.2-1.12q.07-.7.11-1.33,0-.46,0-1.52l.05-2.39h5.47v8.75h-.92v-7.91H117l-.06,2a19.39,19.39,0,0,1-.37,3.7,3.27,3.27,0,0,1-.82,1.66,2.26,2.26,0,0,1-1.53.57Z"/>
      <path class="cls-24" d="M125,196.93a2.91,2.91,0,0,1-1.1-.18v-.86a2.59,2.59,0,0,0,1,.17,1.28,1.28,0,0,0,1.08-.55,4.8,4.8,0,0,0,.35-.52c.06-.1.17-.33.35-.68L123.14,188h1l2.95,5.34,2.46-5.34h1l-3.22,6.9a4.5,4.5,0,0,1-1.06,1.53A1.88,1.88,0,0,1,125,196.93Z"/>
      <path class="cls-24" d="M133.07,196.78h-.92V188H138v.84h-4.94Z"/>
      <path class="cls-24" d="M140.48,196.78h-.78V188h.91v7.2l5.44-7.2h.81v8.75H146v-7.22Z"/>
      <path class="cls-24" d="M153.56,196.78h-.92V188h6.86v8.75h-.92v-7.91h-5Z"/>
      <path class="cls-24" d="M162.84,189.18a4.45,4.45,0,0,1,6.29,0,4.76,4.76,0,0,1,0,6.46,4.48,4.48,0,0,1-6.29,0,4.8,4.8,0,0,1,0-6.46Zm.69,5.84a3.41,3.41,0,0,0,4.92,0,3.91,3.91,0,0,0,0-5.22,3.41,3.41,0,0,0-4.92,0,3.91,3.91,0,0,0,0,5.22Z"/>
      <path class="cls-24" d="M171.82,198.73H171v-2.79h.82a7.35,7.35,0,0,0,1.16-2.66,19.28,19.28,0,0,0,.36-4.2v-1h5.4v7.91H180v2.79h-.86v-2h-7.35Zm1-2.79h5v-7.07h-3.56v.59Q174.22,193.93,172.82,195.94Z"/>
      <path class="cls-24" d="M185.26,196.78h-3.58V188h6v.84h-5.05v2.47h2.65a3.2,3.2,0,0,1,2.28.75,2.78,2.78,0,0,1,0,4A3.3,3.3,0,0,1,185.26,196.78Zm-2.65-4.6v3.76h2.56a2.54,2.54,0,0,0,1.67-.49,1.92,1.92,0,0,0,0-2.78,2.54,2.54,0,0,0-1.67-.49Z"/>
      <path class="cls-24" d="M191.09,189.18a4.45,4.45,0,0,1,6.29,0,4.76,4.76,0,0,1,0,6.46,4.48,4.48,0,0,1-6.29,0,4.8,4.8,0,0,1,0-6.46Zm.69,5.84a3.41,3.41,0,0,0,4.92,0,3.91,3.91,0,0,0,0-5.22,3.41,3.41,0,0,0-4.92,0,3.91,3.91,0,0,0,0,5.22Z"/>
      <path class="cls-24" d="M201.69,196.78h-.92V188h3.67a3,3,0,0,1,2.05.66,2.24,2.24,0,0,1,.75,1.76,2.28,2.28,0,0,1-.75,1.79,3,3,0,0,1-2.05.67h-2.75Zm0-7.91v3.21h2.69a2.21,2.21,0,0,0,1.44-.42,1.44,1.44,0,0,0,.51-1.18,1.46,1.46,0,0,0-.51-1.19,2.22,2.22,0,0,0-1.44-.42Z"/>
      <path class="cls-24" d="M220.71,198.73h-.87v-2H209.08V188H210v7.91h3.76V188h.92v7.91h3.76V188h.92v7.91h1.33Z"/>
      <path class="cls-24" d="M223.13,196.78h-.78V188h.91v7.2l5.44-7.2h.81v8.75h-.91v-7.22Z"/>
      <path class="cls-24" d="M232,188h.92v3.8L237,188h1.22l-4.3,4,5,4.75h-1.3l-4.64-4.45v4.45H232Z"/>
      <path class="cls-24" d="M240.46,189.18a4.45,4.45,0,0,1,6.29,0,4.76,4.76,0,0,1,0,6.46,4.48,4.48,0,0,1-6.29,0,4.8,4.8,0,0,1,0-6.46Zm.69,5.84a3.41,3.41,0,0,0,4.92,0,3.91,3.91,0,0,0,0-5.22,3.41,3.41,0,0,0-4.92,0,3.91,3.91,0,0,0,0,5.22Z"/>
      <path class="cls-24" d="M254.31,196.78h-4.17V188h3.79a2.76,2.76,0,0,1,1.84.57,1.93,1.93,0,0,1,.67,1.56,2.14,2.14,0,0,1-.31,1.16,1.65,1.65,0,0,1-.84.69,2.16,2.16,0,0,1,1.39.76,2.41,2.41,0,0,1,.51,1.58,2.22,2.22,0,0,1-.77,1.78A3.13,3.13,0,0,1,254.31,196.78Zm-3.25-7.91v2.86h2.71a2,2,0,0,0,1.29-.36,1.26,1.26,0,0,0,.46-1.05,1.31,1.31,0,0,0-.46-1.07,2,2,0,0,0-1.29-.37Zm0,3.67v3.4h3.09a2.29,2.29,0,0,0,1.51-.45,1.56,1.56,0,0,0,.54-1.26,1.52,1.52,0,0,0-.54-1.24,2.31,2.31,0,0,0-1.51-.44Z"/>
      <path class="cls-24" d="M100.31,213.78h-.92V205h.92v3.64h5.2V205h.92v8.75h-.92V209.5h-5.2Z"/>
      <path class="cls-24" d="M115.09,213.78H108.9V205h6v.84h-5.08v2.8H114v.84h-4.16v3.44h5.26Z"/>
      <path class="cls-24" d="M121.12,213.78h-.92V205h6.86v8.75h-.92v-7.91h-5Z"/>
      <path class="cls-24" d="M130.41,206.18a4.45,4.45,0,0,1,6.29,0,4.76,4.76,0,0,1,0,6.46,4.48,4.48,0,0,1-6.29,0,4.8,4.8,0,0,1,0-6.46Zm.69,5.84a3.41,3.41,0,0,0,4.92,0,3.91,3.91,0,0,0,0-5.22,3.41,3.41,0,0,0-4.92,0,3.91,3.91,0,0,0,0,5.22Z"/>
      <path class="cls-24" d="M142.53,213.78h-.92v-7.91h-3V205h7v.84h-3Z"/>
      <path class="cls-24" d="M148.18,213.78h-.92V205h3.67a3,3,0,0,1,2.05.66,2.24,2.24,0,0,1,.75,1.76,2.28,2.28,0,0,1-.75,1.79,3,3,0,0,1-2.05.67h-2.75Zm0-7.91v3.21h2.69a2.21,2.21,0,0,0,1.44-.42,1.44,1.44,0,0,0,.51-1.18,1.46,1.46,0,0,0-.51-1.19,2.22,2.22,0,0,0-1.44-.42Z"/>
      <path class="cls-24" d="M161.75,213.78h-6.19V205h6v.84h-5.08v2.8h4.16v.84h-4.16v3.44h5.26Z"/>
      <path class="cls-24" d="M167.14,213.78h-3.58V205h6v.84h-5.05v2.47h2.65a3.2,3.2,0,0,1,2.28.75,2.78,2.78,0,0,1,0,4A3.3,3.3,0,0,1,167.14,213.78Zm-2.65-4.6v3.76h2.56a2.54,2.54,0,0,0,1.67-.49,1.92,1.92,0,0,0,0-2.78,2.54,2.54,0,0,0-1.67-.49Z"/>
      <path class="cls-24" d="M173.13,213.93a2.91,2.91,0,0,1-1.1-.18v-.86a2.59,2.59,0,0,0,1,.17,1.28,1.28,0,0,0,1.08-.55,4.8,4.8,0,0,0,.35-.52c.06-.1.17-.33.35-.68L171.23,205h1l2.95,5.34,2.46-5.34h1l-3.22,6.9a4.5,4.5,0,0,1-1.06,1.53A1.88,1.88,0,0,1,173.13,213.93Z"/>
      <path class="cls-24" d="M187,213.93a3.79,3.79,0,0,1-2.84-1.19,4.65,4.65,0,0,1-1.26-3h-1.79v4h-.92V205h.92v3.86H183a4.52,4.52,0,0,1,1.31-2.87,3.94,3.94,0,0,1,5.7.16,5,5,0,0,1,0,6.45A3.76,3.76,0,0,1,187,213.93Zm-2.26-1.87a2.92,2.92,0,0,0,2.26,1,2.88,2.88,0,0,0,2.25-1,4.3,4.3,0,0,0,0-5.3,2.88,2.88,0,0,0-2.25-1,2.92,2.92,0,0,0-2.26,1,4.31,4.31,0,0,0,0,5.3Z"/>
      <path class="cls-24" d="M195.7,213.78h-.92v-7.91h-3V205h7v.84h-3Z"/>
      <path class="cls-24" d="M203.84,213.93a4.59,4.59,0,0,1-3.21-7.76,4.36,4.36,0,0,1,3.21-1.29,4.48,4.48,0,0,1,2.45.65v1a4.44,4.44,0,0,0-2.44-.74,3.43,3.43,0,0,0-2.54,1,3.86,3.86,0,0,0,0,5.24,3.48,3.48,0,0,0,2.56,1,4,4,0,0,0,2.6-.87v1A4.39,4.39,0,0,1,203.84,213.93Z"/>
      <path class="cls-24" d="M208.71,213.78h-1.08l2.83-4a2.47,2.47,0,0,1-1.52-.79,2.3,2.3,0,0,1-.54-1.56,2.18,2.18,0,0,1,.74-1.73,3,3,0,0,1,2-.64h3.92v8.75h-.92v-3.94h-2.67Zm2.5-4.78h2.94v-3.14h-2.94a2.14,2.14,0,0,0-1.4.41,1.42,1.42,0,0,0-.5,1.16,1.4,1.4,0,0,0,.5,1.16A2.16,2.16,0,0,0,211.21,209Z"/>
      <path class="cls-24" d="M217.78,213.86a.64.64,0,1,1,.46-.19A.63.63,0,0,1,217.78,213.86Z"/>
    </g>
    <g>
      <path class="cls-1" d="M68,150.05v-1.29h3.18v-3.2h1.29v3.2h3.17v1.29H72.43v3.23H71.14v-3.23Z"/>
      <path class="cls-1" d="M80.62,153.57v-8.32a4.41,4.41,0,0,1,.93-3,3.42,3.42,0,0,1,2.74-1.08,3.48,3.48,0,0,1,2.77,1.08,4.36,4.36,0,0,1,.94,3v8.32a4.35,4.35,0,0,1-.94,3,3.47,3.47,0,0,1-2.77,1.08,3.41,3.41,0,0,1-2.73-1.08A4.37,4.37,0,0,1,80.62,153.57Zm1.75.09a2.71,2.71,0,0,0,.48,1.72,1.73,1.73,0,0,0,1.44.6q1.91,0,1.91-2.33v-8.51a2.74,2.74,0,0,0-.47-1.72,2,2,0,0,0-2.88,0,2.72,2.72,0,0,0-.48,1.72Z"/>
      <path class="cls-1" d="M89.19,143v-1.64h7.73V143H94v14.46h-1.8V143Z"/>
      <path class="cls-1" d="M101.72,153.55v-1.1h1.68v1.21a2.74,2.74,0,0,0,.47,1.72,1.67,1.67,0,0,0,1.41.61q1.88,0,1.88-2.48v-1.25a2.69,2.69,0,0,0-.5-1.77,2,2,0,0,0-1.52-.62h-1v-1.61h1.05a1.9,1.9,0,0,0,1.42-.61,2.33,2.33,0,0,0,.51-1.61v-.73q0-2.52-1.88-2.52a1.66,1.66,0,0,0-1.41.62,2.79,2.79,0,0,0-.47,1.73V146h-1.68v-.73a4.49,4.49,0,0,1,.91-3,4,4,0,0,1,5.42,0,4.46,4.46,0,0,1,.91,3v.4a4.14,4.14,0,0,1-.49,2.1A2.73,2.73,0,0,1,107,149q2,.73,2,3.34v1.25a4.48,4.48,0,0,1-.91,3,4,4,0,0,1-5.42,0A4.51,4.51,0,0,1,101.72,153.55Z"/>
      <path class="cls-1" d="M114.13,153.55v-8.3a4.41,4.41,0,0,1,.93-3,3.42,3.42,0,0,1,2.74-1.08,3.48,3.48,0,0,1,2.77,1.08,4.36,4.36,0,0,1,.94,3v8.3a4.38,4.38,0,0,1-.94,3,3.47,3.47,0,0,1-2.77,1.08,3.41,3.41,0,0,1-2.73-1.08A4.41,4.41,0,0,1,114.13,153.55Zm1.75.11a2.71,2.71,0,0,0,.48,1.72,2,2,0,0,0,2.88,0,2.74,2.74,0,0,0,.47-1.72v-8.51q0-2.35-1.91-2.35a1.71,1.71,0,0,0-1.44.61,2.76,2.76,0,0,0-.48,1.74Z"/>
      <path class="cls-1" d="M123.07,153.55v-8.3a4.41,4.41,0,0,1,.93-3,3.42,3.42,0,0,1,2.74-1.08,3.48,3.48,0,0,1,2.77,1.08,4.36,4.36,0,0,1,.94,3v8.3a4.38,4.38,0,0,1-.94,3,3.47,3.47,0,0,1-2.77,1.08,3.41,3.41,0,0,1-2.73-1.08A4.41,4.41,0,0,1,123.07,153.55Zm1.75.11a2.71,2.71,0,0,0,.48,1.72,2,2,0,0,0,2.88,0,2.74,2.74,0,0,0,.47-1.72v-8.51q0-2.35-1.91-2.35a1.71,1.71,0,0,0-1.44.61,2.76,2.76,0,0,0-.48,1.74Z"/>
      <path class="cls-1" d="M132,153.55v-8.3a4.41,4.41,0,0,1,.93-3,3.42,3.42,0,0,1,2.74-1.08,3.48,3.48,0,0,1,2.77,1.08,4.36,4.36,0,0,1,.94,3v8.3a4.38,4.38,0,0,1-.94,3,3.47,3.47,0,0,1-2.77,1.08,3.41,3.41,0,0,1-2.73-1.08A4.41,4.41,0,0,1,132,153.55Zm1.75.11a2.71,2.71,0,0,0,.48,1.72,2,2,0,0,0,2.88,0,2.74,2.74,0,0,0,.47-1.72v-8.51q0-2.35-1.91-2.35a1.71,1.71,0,0,0-1.44.61,2.76,2.76,0,0,0-.48,1.74Z"/>
      <path class="cls-1" d="M144.27,155.87h1a2.41,2.41,0,0,0,.53-1,6.27,6.27,0,0,0,.19-1.38l.62-12.17h6.46v14.52h1.22v3.8h-1.75v-2.21H146v2.21h-1.75Zm2.78,0h4.25V143h-3l-.54,10.51a7.34,7.34,0,0,1-.2,1.45A2.27,2.27,0,0,1,147.05,155.87Z"/>
      <path class="cls-1" d="M155.75,153.57v-8.32a4.41,4.41,0,0,1,.93-3,3.42,3.42,0,0,1,2.74-1.08,3.48,3.48,0,0,1,2.77,1.08,4.36,4.36,0,0,1,.94,3v8.32a4.35,4.35,0,0,1-.94,3,3.47,3.47,0,0,1-2.77,1.08,3.41,3.41,0,0,1-2.73-1.08A4.37,4.37,0,0,1,155.75,153.57Zm1.75.09a2.71,2.71,0,0,0,.48,1.72,1.73,1.73,0,0,0,1.44.6q1.91,0,1.91-2.33v-8.51a2.74,2.74,0,0,0-.47-1.72,2,2,0,0,0-2.88,0,2.72,2.72,0,0,0-.48,1.72Z"/>
      <path class="cls-1" d="M168.29,153.55v-1.1H170v1.21a2.74,2.74,0,0,0,.47,1.72,1.67,1.67,0,0,0,1.41.61q1.88,0,1.88-2.48v-1.25a2.69,2.69,0,0,0-.5-1.77,2,2,0,0,0-1.52-.62h-1v-1.61h1.05a1.9,1.9,0,0,0,1.42-.61,2.33,2.33,0,0,0,.51-1.61v-.73q0-2.52-1.88-2.52a1.66,1.66,0,0,0-1.41.62,2.79,2.79,0,0,0-.47,1.73V146h-1.68v-.73a4.49,4.49,0,0,1,.91-3,4,4,0,0,1,5.42,0,4.46,4.46,0,0,1,.91,3v.4a4.14,4.14,0,0,1-.49,2.1,2.73,2.73,0,0,1-1.46,1.21q2,.73,2,3.34v1.25a4.48,4.48,0,0,1-.91,3,4,4,0,0,1-5.42,0A4.51,4.51,0,0,1,168.29,153.55Z"/>
      <path class="cls-1" d="M177.14,153.55v-8.3a4.41,4.41,0,0,1,.93-3,3.42,3.42,0,0,1,2.74-1.08,3.48,3.48,0,0,1,2.77,1.08,4.36,4.36,0,0,1,.94,3v8.3a4.38,4.38,0,0,1-.94,3,3.47,3.47,0,0,1-2.77,1.08,3.41,3.41,0,0,1-2.73-1.08A4.41,4.41,0,0,1,177.14,153.55Zm1.75.11a2.71,2.71,0,0,0,.48,1.72,2,2,0,0,0,2.88,0,2.74,2.74,0,0,0,.47-1.72v-8.51q0-2.35-1.91-2.35a1.71,1.71,0,0,0-1.44.61,2.76,2.76,0,0,0-.48,1.74Z"/>
      <path class="cls-1" d="M189.64,153.55v-8.3a4.41,4.41,0,0,1,.93-3,3.42,3.42,0,0,1,2.74-1.08,3.48,3.48,0,0,1,2.77,1.08,4.36,4.36,0,0,1,.94,3v8.3a4.38,4.38,0,0,1-.94,3,3.47,3.47,0,0,1-2.77,1.08,3.41,3.41,0,0,1-2.73-1.08A4.41,4.41,0,0,1,189.64,153.55Zm1.75.11a2.71,2.71,0,0,0,.48,1.72,2,2,0,0,0,2.88,0,2.74,2.74,0,0,0,.47-1.72v-8.51q0-2.35-1.91-2.35a1.71,1.71,0,0,0-1.44.61,2.76,2.76,0,0,0-.48,1.74Z"/>
      <path class="cls-1" d="M198.58,153.55v-8.3a4.41,4.41,0,0,1,.93-3,3.42,3.42,0,0,1,2.74-1.08,3.48,3.48,0,0,1,2.77,1.08,4.36,4.36,0,0,1,.94,3v8.3a4.38,4.38,0,0,1-.94,3,3.47,3.47,0,0,1-2.77,1.08,3.41,3.41,0,0,1-2.73-1.08A4.41,4.41,0,0,1,198.58,153.55Zm1.75.11a2.71,2.71,0,0,0,.48,1.72,2,2,0,0,0,2.88,0,2.74,2.74,0,0,0,.47-1.72v-8.51q0-2.35-1.91-2.35a1.71,1.71,0,0,0-1.44.61,2.76,2.76,0,0,0-.48,1.74Z"/>
      <path class="cls-1" d="M207.52,153.55v-8.3a4.41,4.41,0,0,1,.93-3,3.42,3.42,0,0,1,2.74-1.08,3.48,3.48,0,0,1,2.77,1.08,4.36,4.36,0,0,1,.94,3v8.3a4.38,4.38,0,0,1-.94,3,3.47,3.47,0,0,1-2.77,1.08,3.41,3.41,0,0,1-2.73-1.08A4.41,4.41,0,0,1,207.52,153.55Zm1.75.11a2.71,2.71,0,0,0,.48,1.72,2,2,0,0,0,2.88,0,2.74,2.74,0,0,0,.47-1.72v-8.51q0-2.35-1.91-2.35a1.71,1.71,0,0,0-1.44.61,2.76,2.76,0,0,0-.48,1.74Z"/>
      <path class="cls-1" d="M220.15,157.45v-16.1h3.53a3.43,3.43,0,0,1,2.74,1,4.32,4.32,0,0,1,.89,2.92v1.93q0,3.88-3.77,3.88h-1.59v6.35Zm1.8-8h1.58A2,2,0,0,0,225,149a2.36,2.36,0,0,0,.48-1.65v-2.14a2.61,2.61,0,0,0-.44-1.66,1.71,1.71,0,0,0-1.4-.54h-1.72Z"/>
      <path class="cls-1" d="M228.17,141.35H230l1.58,5.6L232.7,151l.94-4.05,1.45-5.59H237l-3.45,12.57a9.23,9.23,0,0,1-.5,1.61,3.66,3.66,0,0,1-.76,1.12,2.63,2.63,0,0,1-1.22.69,6.18,6.18,0,0,1-1.82.15v-1.61a2.55,2.55,0,0,0,1.56-.31,2.07,2.07,0,0,0,.75-1.28l.37-1.06Z"/>
      <path class="cls-1" d="M238.29,157.45v-16.1h6.78V143h-5v5H242q3.79,0,3.79,3.77v1.77q0,3.91-3.71,3.91Zm1.8-1.63h2a1.83,1.83,0,0,0,1.44-.52,2.45,2.45,0,0,0,.46-1.65v-2a1.72,1.72,0,0,0-2-2h-1.88Z"/>
      <path class="cls-1" d="M247.49,157.45v-2.23h1.75v2.23Z"/>
    </g>
    <g>
      <path class="cls-25" d="M36.41,250.8h-1v-9.45h1l3.42,4.58,3.42-4.58h1v9.45h-1v-7.94L40.13,247h-.61l-3.12-4.13Z"/>
      <path class="cls-25" d="M49.63,250.8h-3v-6.52h1v2.19h1.94a2.66,2.66,0,0,1,1.81.59,2,2,0,0,1,.68,1.57,2,2,0,0,1-.65,1.58A2.56,2.56,0,0,1,49.63,250.8Zm-2-3.48V250h1.81a1.88,1.88,0,0,0,1.2-.34,1.16,1.16,0,0,0,.43-1,1.18,1.18,0,0,0-.43-1,1.88,1.88,0,0,0-1.2-.34Zm6.48,3.48h-1v-6.52h1Z"/>
      <path class="cls-25" d="M63.18,251a3.15,3.15,0,0,1-2.61-1.16,6,6,0,0,1,.38-6.93A4.79,4.79,0,0,1,62.5,242a10,10,0,0,1,1-.3l1.07-.26.6-.12.6-.11v.9q-1.39.27-2.15.45a4.37,4.37,0,0,0-2.23,1.12,3.58,3.58,0,0,0-.81,2.42A2.86,2.86,0,0,1,61.72,245a3.61,3.61,0,0,1,1.72-.41,3,3,0,0,1,3,3.05,3.23,3.23,0,0,1-.95,2.4A3.2,3.2,0,0,1,63.18,251Zm0-.88a2.2,2.2,0,0,0,1.62-.66,2.34,2.34,0,0,0,.68-1.73,2.11,2.11,0,0,0-.65-1.62,2.18,2.18,0,0,0-1.59-.62,2.56,2.56,0,0,0-1.58.53,2.9,2.9,0,0,0-1,1.21,3.42,3.42,0,0,0,.72,2.13A2.28,2.28,0,0,0,63.18,250.08Z"/>
      <path class="cls-25" d="M71.38,251a3.64,3.64,0,0,1-2.56-1,3.18,3.18,0,0,1-1-2.46,3.45,3.45,0,0,1,.92-2.44,3.15,3.15,0,0,1,2.39-1,3,3,0,0,1,1.39.32,2.58,2.58,0,0,1,1,.83,4,4,0,0,1,.7,2.24v.27H68.79a2.31,2.31,0,0,0,.84,1.68,3,3,0,0,0,1.94.63,3.83,3.83,0,0,0,2.09-.61v.86A3.65,3.65,0,0,1,71.38,251Zm-2.58-4h4.36a2.21,2.21,0,0,0-.57-1.36,1.86,1.86,0,0,0-1.54-.62,2.21,2.21,0,0,0-1.59.59A2.13,2.13,0,0,0,68.8,247Z"/>
      <path class="cls-25" d="M79,251a3.42,3.42,0,0,1-2.48-1,3.34,3.34,0,0,1-1-2.46,3.25,3.25,0,0,1,1-2.43,3.37,3.37,0,0,1,2.48-1,3.94,3.94,0,0,1,2,.47v.9a3.66,3.66,0,0,0-1.84-.5,2.57,2.57,0,0,0-1.88.73,2.4,2.4,0,0,0-.74,1.82,2.45,2.45,0,0,0,.74,1.82,2.63,2.63,0,0,0,1.88.71,3.54,3.54,0,0,0,2-.57v.89A4,4,0,0,1,79,251Z"/>
      <path class="cls-25" d="M84,250.8H83v-6.52h5.86v6.52h-1v-5.67H84Z"/>
      <path class="cls-25" d="M90.34,250.8v-.89h.26q.85,0,1.16-1.08a10.87,10.87,0,0,0,.32-2.48l.05-2.08H97v6.52H96v-5.67h-3l0,1.26c0,.49,0,.84-.05,1.05a6.77,6.77,0,0,1-.39,1.94,2.46,2.46,0,0,1-.74,1.06,1.69,1.69,0,0,1-1.21.37Z"/>
      <path class="cls-25" d="M101.23,251a2.79,2.79,0,0,1-1.77-.57,2,2,0,0,1-.72-1.59,1.91,1.91,0,0,1,.76-1.58,3.05,3.05,0,0,1,1.92-.58,4.56,4.56,0,0,1,2.35.63v-.65q0-1.63-2.15-1.63a3.75,3.75,0,0,0-2.13.66v-.95a4.35,4.35,0,0,1,2.33-.59,3.32,3.32,0,0,1,2.13.63,2.15,2.15,0,0,1,.79,1.79v2.69a.94.94,0,0,0,.17.59.54.54,0,0,0,.45.22.84.84,0,0,0,.38-.08v.76a1.14,1.14,0,0,1-.65.15,1.28,1.28,0,0,1-.82-.26,1.18,1.18,0,0,1-.41-.78A3.3,3.3,0,0,1,101.23,251Zm.27-.88a2.78,2.78,0,0,0,1.28-.31,3,3,0,0,0,1-.78v-.91a3.83,3.83,0,0,0-2.12-.65,2.49,2.49,0,0,0-1.41.35,1.1,1.1,0,0,0-.52,1,1.14,1.14,0,0,0,.5,1A2.18,2.18,0,0,0,101.5,250.08Z"/>
      <path class="cls-25" d="M109.7,250.8h-1v-5.67h-2.36v-.85h5.7v.85H109.7Z"/>
      <path class="cls-25" d="M114.53,250.8h-1v-6.52h1V247h4v-2.74h1v6.52h-1v-2.9h-4Z"/>
      <path class="cls-25" d="M122.32,245.13a3.69,3.69,0,0,1,5.08,0,3.46,3.46,0,0,1,0,4.83,3.72,3.72,0,0,1-5.08,0,3.46,3.46,0,0,1,0-4.83Zm5.06,2.42a2.53,2.53,0,0,0-.71-1.82,2.4,2.4,0,0,0-1.81-.73,2.43,2.43,0,0,0-1.81.73,2.66,2.66,0,0,0,0,3.63,2.43,2.43,0,0,0,1.81.73,2.4,2.4,0,0,0,1.81-.73A2.51,2.51,0,0,0,127.38,247.55Z"/>
      <path class="cls-25" d="M134.72,250.8h-1v-6.52h5.86v6.52h-1v-5.67h-3.92Z"/>
      <path class="cls-25" d="M142.88,249.76v3.74h-1v-9.22h1v1a3,3,0,0,1,2.52-1.2,3.07,3.07,0,0,1,2.36,1,3.66,3.66,0,0,1,0,4.85,3.07,3.07,0,0,1-2.36,1A3,3,0,0,1,142.88,249.76Zm0-3.29v2.15a2.4,2.4,0,0,0,.92,1.06,2.48,2.48,0,0,0,1.38.41,2.39,2.39,0,0,0,1.8-.73,2.56,2.56,0,0,0,.72-1.82,2.51,2.51,0,0,0-.72-1.81,2.39,2.39,0,0,0-1.8-.73,2.46,2.46,0,0,0-1.36.41A2.49,2.49,0,0,0,142.88,246.47Z"/>
      <path class="cls-25" d="M151,245.13a3.69,3.69,0,0,1,5.08,0,3.46,3.46,0,0,1,0,4.83,3.72,3.72,0,0,1-5.08,0,3.46,3.46,0,0,1,0-4.83Zm5.06,2.42a2.53,2.53,0,0,0-.71-1.82,2.4,2.4,0,0,0-1.81-.73,2.43,2.43,0,0,0-1.81.73,2.66,2.66,0,0,0,0,3.63,2.43,2.43,0,0,0,1.81.73,2.4,2.4,0,0,0,1.81-.73A2.51,2.51,0,0,0,156.07,247.55Z"/>
      <path class="cls-25" d="M162.53,250.8h-3.66v-6.52h3.43a2.14,2.14,0,0,1,1.45.45,1.52,1.52,0,0,1,.52,1.21,1.43,1.43,0,0,1-.81,1.43,1.75,1.75,0,0,1,.67,3A2.47,2.47,0,0,1,162.53,250.8Zm-2.69-5.67V247H162a1.56,1.56,0,0,0,.95-.25.83.83,0,0,0,.34-.71q0-1-1.28-1Zm0,2.73V250h2.48a1.7,1.7,0,0,0,1-.27.9.9,0,0,0,.36-.77.92.92,0,0,0-.36-.78,1.67,1.67,0,0,0-1-.28Z"/>
      <path class="cls-25" d="M169.78,251a3.64,3.64,0,0,1-2.56-1,3.18,3.18,0,0,1-1-2.46,3.45,3.45,0,0,1,.92-2.44,3.15,3.15,0,0,1,2.39-1,3,3,0,0,1,1.39.32,2.58,2.58,0,0,1,1,.83,4,4,0,0,1,.7,2.24v.27h-5.36a2.31,2.31,0,0,0,.84,1.68,3,3,0,0,0,1.94.63,3.83,3.83,0,0,0,2.09-.61v.86A3.65,3.65,0,0,1,169.78,251Zm-2.58-4h4.36a2.21,2.21,0,0,0-.57-1.36,1.86,1.86,0,0,0-1.54-.62,2.21,2.21,0,0,0-1.59.59A2.13,2.13,0,0,0,167.2,247Z"/>
      <path class="cls-25" d="M175.34,249.76v3.74h-1v-9.22h1v1a3,3,0,0,1,2.52-1.2,3.07,3.07,0,0,1,2.36,1,3.66,3.66,0,0,1,0,4.85,3.07,3.07,0,0,1-2.36,1A3,3,0,0,1,175.34,249.76Zm0-3.29v2.15a2.4,2.4,0,0,0,.92,1.06,2.48,2.48,0,0,0,1.38.41,2.39,2.39,0,0,0,1.8-.73,2.56,2.56,0,0,0,.72-1.82,2.51,2.51,0,0,0-.72-1.81,2.39,2.39,0,0,0-1.8-.73,2.46,2.46,0,0,0-1.36.41A2.49,2.49,0,0,0,175.34,246.47Z"/>
      <path class="cls-25" d="M183.86,250.8H183v-6.52h1v5.09l4.17-5.09h.9v6.52h-1v-5.08Z"/>
      <path class="cls-25" d="M192.25,250.8h-.95v-6.52h.95l2.61,3,2.62-3h.94v6.52h-.94v-5.18L195,248.44h-.38l-2.42-2.82Z"/>
      <path class="cls-25" d="M206.2,251a2.79,2.79,0,0,1-1.77-.57,2,2,0,0,1-.72-1.59,1.91,1.91,0,0,1,.76-1.58,3.05,3.05,0,0,1,1.92-.58,4.56,4.56,0,0,1,2.35.63v-.65q0-1.63-2.15-1.63a3.75,3.75,0,0,0-2.13.66v-.95a4.35,4.35,0,0,1,2.33-.59,3.32,3.32,0,0,1,2.13.63,2.15,2.15,0,0,1,.79,1.79v2.69a.94.94,0,0,0,.17.59.54.54,0,0,0,.45.22.84.84,0,0,0,.38-.08v.76a1.14,1.14,0,0,1-.65.15,1.28,1.28,0,0,1-.82-.26,1.18,1.18,0,0,1-.41-.78A3.3,3.3,0,0,1,206.2,251Zm.27-.88a2.78,2.78,0,0,0,1.28-.31,3,3,0,0,0,1-.78v-.91a3.83,3.83,0,0,0-2.12-.65,2.49,2.49,0,0,0-1.41.35,1.1,1.1,0,0,0-.52,1,1.14,1.14,0,0,0,.5,1A2.18,2.18,0,0,0,206.47,250.08Z"/>
      <path class="cls-25" d="M216,250.8h-3.66v-6.52h3.43a2.14,2.14,0,0,1,1.45.45,1.52,1.52,0,0,1,.52,1.21,1.43,1.43,0,0,1-.81,1.43,1.75,1.75,0,0,1,.67,3A2.47,2.47,0,0,1,216,250.8Zm-2.69-5.67V247h2.19a1.56,1.56,0,0,0,.95-.25.83.83,0,0,0,.34-.71q0-1-1.28-1Zm0,2.73V250h2.48a1.7,1.7,0,0,0,1-.27.9.9,0,0,0,.36-.77.92.92,0,0,0-.36-.78,1.67,1.67,0,0,0-1-.28Z"/>
      <path class="cls-25" d="M222.32,250.8h-1v-5.67H219v-.85h5.7v.85h-2.36Z"/>
      <path class="cls-25" d="M226.52,245.13a3.69,3.69,0,0,1,5.08,0,3.46,3.46,0,0,1,0,4.83,3.72,3.72,0,0,1-5.08,0,3.46,3.46,0,0,1,0-4.83Zm5.06,2.42a2.53,2.53,0,0,0-.71-1.82,2.4,2.4,0,0,0-1.81-.73,2.43,2.43,0,0,0-1.81.73,2.66,2.66,0,0,0,0,3.63,2.43,2.43,0,0,0,1.81.73,2.4,2.4,0,0,0,1.81-.73A2.51,2.51,0,0,0,231.58,247.55Z"/>
      <path class="cls-25" d="M235.34,250.8h-.95v-6.52h.95l2.61,3,2.62-3h.94v6.52h-.94v-5.18l-2.43,2.82h-.38l-2.42-2.82Z"/>
      <path class="cls-25" d="M244.32,245.13a3.69,3.69,0,0,1,5.08,0,3.46,3.46,0,0,1,0,4.83,3.72,3.72,0,0,1-5.08,0,3.46,3.46,0,0,1,0-4.83Zm5.06,2.42a2.53,2.53,0,0,0-.71-1.82,2.4,2.4,0,0,0-1.81-.73,2.43,2.43,0,0,0-1.81.73,2.66,2.66,0,0,0,0,3.63,2.43,2.43,0,0,0,1.81.73,2.4,2.4,0,0,0,1.81-.73A2.51,2.51,0,0,0,249.38,247.55Z"/>
      <path class="cls-25" d="M255.37,251a3.15,3.15,0,0,1-2.61-1.16,6,6,0,0,1,.38-6.93,4.79,4.79,0,0,1,1.55-.89,10,10,0,0,1,1-.3l1.07-.26.6-.12.6-.11v.9q-1.39.27-2.15.45a4.37,4.37,0,0,0-2.23,1.12,3.58,3.58,0,0,0-.81,2.42,2.86,2.86,0,0,1,1.17-1.11,3.61,3.61,0,0,1,1.72-.41,3,3,0,0,1,3,3.05,3.23,3.23,0,0,1-.95,2.4A3.2,3.2,0,0,1,255.37,251Zm0-.88a2.2,2.2,0,0,0,1.62-.66,2.34,2.34,0,0,0,.68-1.73,2.11,2.11,0,0,0-.65-1.62,2.18,2.18,0,0,0-1.59-.62,2.56,2.56,0,0,0-1.58.53,2.9,2.9,0,0,0-1,1.21,3.42,3.42,0,0,0,.72,2.13A2.28,2.28,0,0,0,255.37,250.08Z"/>
      <path class="cls-25" d="M261.37,250.8h-.9v-6.52h1v5.09l4.17-5.09h.9v6.52h-1v-5.08Z"/>
      <path class="cls-25" d="M267.94,250.8v-.89h.26q.85,0,1.16-1.08a10.87,10.87,0,0,0,.32-2.48l.05-2.08h4.87v6.52h-1v-5.67h-3l0,1.26c0,.49,0,.84-.05,1.05a6.77,6.77,0,0,1-.39,1.94,2.46,2.46,0,0,1-.74,1.06,1.69,1.69,0,0,1-1.21.37Z"/>
      <path class="cls-25" d="M280.2,250.8H276.9v-6.52h1v2.19h2.28a2.66,2.66,0,0,1,1.81.59,2,2,0,0,1,.67,1.57,2,2,0,0,1-.65,1.58A2.56,2.56,0,0,1,280.2,250.8Zm-2.32-3.48V250H280a1.88,1.88,0,0,0,1.2-.34,1.16,1.16,0,0,0,.43-1,1.18,1.18,0,0,0-.43-1,1.88,1.88,0,0,0-1.2-.34Z"/>
      <path class="cls-25" d="M58.72,268.05h-1v-6.52h1v2.74h4v-2.74h1v6.52h-1v-2.9h-4Z"/>
      <path class="cls-25" d="M67.93,268.21a2.79,2.79,0,0,1-1.77-.57,2,2,0,0,1-.72-1.59,1.91,1.91,0,0,1,.76-1.58,3.05,3.05,0,0,1,1.92-.58,4.56,4.56,0,0,1,2.35.63v-.65q0-1.63-2.15-1.63a3.75,3.75,0,0,0-2.13.66V262a4.35,4.35,0,0,1,2.33-.59,3.32,3.32,0,0,1,2.13.63,2.15,2.15,0,0,1,.79,1.79v2.69a.94.94,0,0,0,.17.59.54.54,0,0,0,.45.22.84.84,0,0,0,.38-.08V268a1.14,1.14,0,0,1-.65.15,1.28,1.28,0,0,1-.82-.26,1.18,1.18,0,0,1-.41-.78A3.3,3.3,0,0,1,67.93,268.21Zm.27-.88a2.78,2.78,0,0,0,1.28-.31,3,3,0,0,0,1-.78v-.91a3.83,3.83,0,0,0-2.12-.65,2.49,2.49,0,0,0-1.41.35,1.1,1.1,0,0,0-.52,1,1.14,1.14,0,0,0,.5,1A2.18,2.18,0,0,0,68.2,267.33Z"/>
      <path class="cls-25" d="M80.7,268.21a3.64,3.64,0,0,1-2.56-1,3.18,3.18,0,0,1-1-2.46,3.45,3.45,0,0,1,.92-2.44,3.15,3.15,0,0,1,2.39-1,3,3,0,0,1,1.39.32,2.58,2.58,0,0,1,1,.83,4,4,0,0,1,.7,2.24V265H78.1a2.31,2.31,0,0,0,.84,1.68,3,3,0,0,0,1.94.63,3.83,3.83,0,0,0,2.09-.61v.86A3.65,3.65,0,0,1,80.7,268.21Zm-2.58-4h4.36a2.21,2.21,0,0,0-.57-1.36,1.86,1.86,0,0,0-1.54-.62,2.21,2.21,0,0,0-1.59.59A2.13,2.13,0,0,0,78.12,264.23Z"/>
      <path class="cls-25" d="M86.26,268.05h-1v-6.52h4.9v.85H86.26Z"/>
      <path class="cls-25" d="M92.06,262.38a3.69,3.69,0,0,1,5.08,0,3.46,3.46,0,0,1,0,4.83,3.72,3.72,0,0,1-5.08,0,3.46,3.46,0,0,1,0-4.83Zm5.06,2.42a2.53,2.53,0,0,0-.71-1.82,2.4,2.4,0,0,0-1.81-.73,2.43,2.43,0,0,0-1.81.73,2.66,2.66,0,0,0,0,3.63,2.43,2.43,0,0,0,1.81.73,2.4,2.4,0,0,0,1.81-.73A2.51,2.51,0,0,0,97.12,264.8Z"/>
      <path class="cls-25" d="M105.49,268.05h-1v-5.67h-2.36v-.85h5.7v.85h-2.36Z"/>
      <path class="cls-25" d="M112.3,268.21a3.64,3.64,0,0,1-2.56-1,3.18,3.18,0,0,1-1-2.46,3.45,3.45,0,0,1,.92-2.44,3.15,3.15,0,0,1,2.39-1,3,3,0,0,1,1.39.32,2.58,2.58,0,0,1,1,.83,4,4,0,0,1,.7,2.24V265h-5.36a2.31,2.31,0,0,0,.84,1.68,3,3,0,0,0,1.94.63,3.83,3.83,0,0,0,2.09-.61v.86A3.65,3.65,0,0,1,112.3,268.21Zm-2.58-4h4.36a2.21,2.21,0,0,0-.57-1.36,1.86,1.86,0,0,0-1.54-.62,2.21,2.21,0,0,0-1.59.59A2.13,2.13,0,0,0,109.72,264.23Z"/>
      <path class="cls-25" d="M117.15,268.05H116l2.74-3.44-2.42-3.08h1.15l1.86,2.32,1.86-2.32h1.13l-2.43,3.05,2.74,3.47h-1.15l-2.17-2.73Z"/>
      <path class="cls-25" d="M125.26,268.05h-1v-6.52h1v2.74h4v-2.74h1v6.52h-1v-2.9h-4Z"/>
      <path class="cls-25" d="M133.44,268.05h-.9v-6.52h1v5.09l4.17-5.09h.9v6.52h-1V263Z"/>
      <path class="cls-25" d="M146.18,268.05h-1v-2.61a5.06,5.06,0,0,1-2,.41,2.29,2.29,0,0,1-2.65-2.69v-1.63h1v1.55a2,2,0,0,0,.42,1.47,2,2,0,0,0,1.44.42,3.92,3.92,0,0,0,1.82-.43v-3h1Z"/>
      <path class="cls-25" d="M151.6,268.21a3.64,3.64,0,0,1-2.56-1,3.18,3.18,0,0,1-1-2.46,3.45,3.45,0,0,1,.92-2.44,3.15,3.15,0,0,1,2.39-1,3,3,0,0,1,1.39.32,2.58,2.58,0,0,1,1,.83,4,4,0,0,1,.7,2.24V265H149a2.31,2.31,0,0,0,.84,1.68,3,3,0,0,0,1.94.63,3.83,3.83,0,0,0,2.09-.61v.86A3.65,3.65,0,0,1,151.6,268.21Zm-2.58-4h4.36a2.21,2.21,0,0,0-.57-1.36,1.86,1.86,0,0,0-1.54-.62,2.21,2.21,0,0,0-1.59.59A2.13,2.13,0,0,0,149,264.23Z"/>
      <path class="cls-25" d="M159.18,268.21a3.42,3.42,0,0,1-2.48-1,3.34,3.34,0,0,1-1-2.46,3.25,3.25,0,0,1,1-2.43,3.37,3.37,0,0,1,2.48-1,3.94,3.94,0,0,1,2,.47v.9a3.66,3.66,0,0,0-1.84-.5,2.57,2.57,0,0,0-1.88.73,2.4,2.4,0,0,0-.74,1.82,2.45,2.45,0,0,0,.74,1.82,2.63,2.63,0,0,0,1.88.71,3.54,3.54,0,0,0,2-.57v.89A4,4,0,0,1,159.18,268.21Z"/>
      <path class="cls-25" d="M163.26,261.53h1v2.69l3.11-2.69h1.32l-3.44,2.94,3.93,3.58h-1.39l-3.52-3.21v3.21h-1Z"/>
      <path class="cls-25" d="M170.63,262.38a3.69,3.69,0,0,1,5.08,0,3.46,3.46,0,0,1,0,4.83,3.72,3.72,0,0,1-5.08,0,3.46,3.46,0,0,1,0-4.83Zm5.06,2.42A2.53,2.53,0,0,0,175,263a2.4,2.4,0,0,0-1.81-.73,2.43,2.43,0,0,0-1.81.73,2.66,2.66,0,0,0,0,3.63,2.43,2.43,0,0,0,1.81.73,2.4,2.4,0,0,0,1.81-.73A2.51,2.51,0,0,0,175.69,264.8Z"/>
      <path class="cls-25" d="M181.62,268.21a3.64,3.64,0,0,1-2.56-1,3.18,3.18,0,0,1-1-2.46,3.45,3.45,0,0,1,.92-2.44,3.15,3.15,0,0,1,2.39-1,3,3,0,0,1,1.39.32,2.58,2.58,0,0,1,1,.83,4,4,0,0,1,.7,2.24V265H179a2.31,2.31,0,0,0,.84,1.68,3,3,0,0,0,1.94.63,3.83,3.83,0,0,0,2.09-.61v.86A3.65,3.65,0,0,1,181.62,268.21Zm-2.58-4h4.36a2.21,2.21,0,0,0-.57-1.36,1.86,1.86,0,0,0-1.54-.62,2.21,2.21,0,0,0-1.59.59A2.13,2.13,0,0,0,179,264.23Z"/>
      <path class="cls-25" d="M192.77,268.21a3.42,3.42,0,0,1-2.48-1,3.34,3.34,0,0,1-1-2.46,3.25,3.25,0,0,1,1-2.43,3.37,3.37,0,0,1,2.48-1,3.94,3.94,0,0,1,2,.47v.9a3.66,3.66,0,0,0-1.84-.5A2.57,2.57,0,0,0,191,263a2.4,2.4,0,0,0-.74,1.82,2.45,2.45,0,0,0,.74,1.82,2.63,2.63,0,0,0,1.88.71,3.54,3.54,0,0,0,2-.57v.89A4,4,0,0,1,192.77,268.21Z"/>
      <path class="cls-25" d="M197.23,262.38a3.69,3.69,0,0,1,5.08,0,3.46,3.46,0,0,1,0,4.83,3.72,3.72,0,0,1-5.08,0,3.46,3.46,0,0,1,0-4.83Zm5.06,2.42a2.53,2.53,0,0,0-.71-1.82,2.4,2.4,0,0,0-1.81-.73A2.43,2.43,0,0,0,198,263a2.66,2.66,0,0,0,0,3.63,2.43,2.43,0,0,0,1.81.73,2.4,2.4,0,0,0,1.81-.73A2.51,2.51,0,0,0,202.29,264.8Z"/>
      <path class="cls-25" d="M208.09,268.21a3.42,3.42,0,0,1-2.48-1,3.34,3.34,0,0,1-1-2.46,3.25,3.25,0,0,1,1-2.43,3.37,3.37,0,0,1,2.48-1,3.94,3.94,0,0,1,2,.47v.9a3.66,3.66,0,0,0-1.84-.5,2.57,2.57,0,0,0-1.88.73,2.4,2.4,0,0,0-.74,1.82,2.45,2.45,0,0,0,.74,1.82,2.63,2.63,0,0,0,1.88.71,3.54,3.54,0,0,0,2-.57v.89A4,4,0,0,1,208.09,268.21Z"/>
      <path class="cls-25" d="M214.62,268.05h-1v-5.67h-2.36v-.85H217v.85h-2.36Z"/>
      <path class="cls-25" d="M218.81,262.38a3.69,3.69,0,0,1,5.08,0,3.46,3.46,0,0,1,0,4.83,3.72,3.72,0,0,1-5.08,0,3.46,3.46,0,0,1,0-4.83Zm5.06,2.42a2.53,2.53,0,0,0-.71-1.82,2.4,2.4,0,0,0-1.81-.73,2.43,2.43,0,0,0-1.81.73,2.66,2.66,0,0,0,0,3.63,2.43,2.43,0,0,0,1.81.73,2.4,2.4,0,0,0,1.81-.73A2.51,2.51,0,0,0,223.88,264.8Z"/>
      <path class="cls-25" d="M227.28,268.05h-1.11l1.94-2.61a2,2,0,0,1-1.22-.64,1.93,1.93,0,0,1-.42-1.29,1.83,1.83,0,0,1,.61-1.44,2.52,2.52,0,0,1,1.72-.54h3.36v6.52h-1v-2.43H229.1Zm1.67-3.28h2.24v-2.39H229a1.71,1.71,0,0,0-1.1.31,1.08,1.08,0,0,0-.38.89,1.06,1.06,0,0,0,.38.88A1.74,1.74,0,0,0,229,264.77Z"/>
      <path class="cls-25" d="M235.43,268.05h-1v-6.52h1v2.74h4v-2.74h1v6.52h-1v-2.9h-4Z"/>
      <path class="cls-25" d="M243.61,268.05h-.9v-6.52h1v5.09l4.17-5.09h.9v6.52h-1V263Z"/>
      <path class="cls-25" d="M254.17,268.21a3.64,3.64,0,0,1-2.56-1,3.18,3.18,0,0,1-1-2.46,3.45,3.45,0,0,1,.92-2.44,3.15,3.15,0,0,1,2.39-1,3,3,0,0,1,1.39.32,2.58,2.58,0,0,1,1,.83,4,4,0,0,1,.7,2.24V265h-5.36a2.31,2.31,0,0,0,.84,1.68,3,3,0,0,0,1.94.63,3.83,3.83,0,0,0,2.09-.61v.86A3.65,3.65,0,0,1,254.17,268.21Zm-2.58-4H256a2.21,2.21,0,0,0-.57-1.36,1.86,1.86,0,0,0-1.54-.62,2.21,2.21,0,0,0-1.59.59A2.13,2.13,0,0,0,251.59,264.23Z"/>
      <path class="cls-25" d="M258.6,270.1h-.78l1.08-3.44H260Z"/>
      <path class="cls-25" d="M39.81,285.46a3,3,0,0,1-2.19-.85,3.3,3.3,0,0,1-1-2.16H35v2.85H34v-6.52h1v2.79h1.62a3.19,3.19,0,0,1,1-2.12,3.09,3.09,0,0,1,2.17-.84,3,3,0,0,1,2.33,1,3.65,3.65,0,0,1,0,4.87A3,3,0,0,1,39.81,285.46Zm0-.88a2.12,2.12,0,0,0,1.66-.73,2.87,2.87,0,0,0,0-3.63,2.24,2.24,0,0,0-3.31,0,2.87,2.87,0,0,0,0,3.63A2.11,2.11,0,0,0,39.81,284.59Z"/>
      <path class="cls-25" d="M45.85,284.26V288h-1v-9.22h1v1a3,3,0,0,1,2.52-1.2,3.07,3.07,0,0,1,2.36,1,3.66,3.66,0,0,1,0,4.85,3.07,3.07,0,0,1-2.36,1A3,3,0,0,1,45.85,284.26Zm0-3.29v2.15a2.4,2.4,0,0,0,.92,1.06,2.48,2.48,0,0,0,1.38.41,2.39,2.39,0,0,0,1.8-.73,2.56,2.56,0,0,0,.72-1.82,2.51,2.51,0,0,0-.72-1.81,2.39,2.39,0,0,0-1.8-.73,2.46,2.46,0,0,0-1.36.41A2.49,2.49,0,0,0,45.85,281Z"/>
      <path class="cls-25" d="M54.37,285.3h-.9v-6.52h1v5.09l4.17-5.09h.9v6.52h-1v-5.08Z"/>
      <path class="cls-25" d="M61.89,287.23H61v-2.78h.82q1.08-1.43,1.11-4.75v-.92h4.85v5.67H69v2.78H68V285.3H61.89Zm1-2.78h3.92v-4.82h-3V280A8.44,8.44,0,0,1,62.86,284.45Z"/>
      <path class="cls-25" d="M71.46,285.3h-.9v-6.52h1v5.09l4.17-5.09h.9v6.52h-1v-5.08Z"/>
      <path class="cls-25" d="M84.21,285.3h-1V282.7a5.06,5.06,0,0,1-2,.41,2.29,2.29,0,0,1-2.65-2.69v-1.63h1v1.55a2,2,0,0,0,.42,1.47,2,2,0,0,0,1.44.42,3.92,3.92,0,0,0,1.82-.43v-3h1Z"/>
      <path class="cls-25" d="M89.62,285.46a3.64,3.64,0,0,1-2.56-1A3.18,3.18,0,0,1,86,282a3.45,3.45,0,0,1,.92-2.44,3.15,3.15,0,0,1,2.39-1,3,3,0,0,1,1.39.32,2.58,2.58,0,0,1,1,.83,4,4,0,0,1,.7,2.24v.27H87a2.31,2.31,0,0,0,.84,1.68,3,3,0,0,0,1.94.63A3.83,3.83,0,0,0,91.9,284v.86A3.65,3.65,0,0,1,89.62,285.46Zm-2.58-4H91.4a2.21,2.21,0,0,0-.57-1.36,1.86,1.86,0,0,0-1.54-.62,2.21,2.21,0,0,0-1.59.59A2.13,2.13,0,0,0,87,281.48Z"/>
      <path class="cls-25" d="M97.21,285.46a3.42,3.42,0,0,1-2.48-1,3.34,3.34,0,0,1-1-2.46,3.25,3.25,0,0,1,1-2.43,3.37,3.37,0,0,1,2.48-1,3.94,3.94,0,0,1,2,.47v.9a3.66,3.66,0,0,0-1.84-.5,2.57,2.57,0,0,0-1.88.73,2.4,2.4,0,0,0-.74,1.82,2.45,2.45,0,0,0,.74,1.82,2.63,2.63,0,0,0,1.88.71,3.54,3.54,0,0,0,2-.57v.89A4,4,0,0,1,97.21,285.46Z"/>
      <path class="cls-25" d="M101.28,278.78h1v2.69l3.11-2.69h1.32l-3.44,2.94,3.93,3.58h-1.39l-3.52-3.21v3.21h-1Z"/>
      <path class="cls-25" d="M108.82,288.06a2.2,2.2,0,0,1-1-.19V287a1.91,1.91,0,0,0,.89.22,1.32,1.32,0,0,0,1-.49,6.18,6.18,0,0,0,.9-1.63l-2.9-6.28h1.08l2.31,5.13,2.24-5.13h1.05L111.15,286Q110.28,288.06,108.82,288.06Z"/>
      <path class="cls-25" d="M121.72,285.46a3,3,0,0,1-2.19-.85,3.3,3.3,0,0,1-1-2.16h-1.61v2.85h-1v-6.52h1v2.79h1.62a3.19,3.19,0,0,1,1-2.12,3.09,3.09,0,0,1,2.17-.84,3,3,0,0,1,2.33,1,3.65,3.65,0,0,1,0,4.87A3,3,0,0,1,121.72,285.46Zm0-.88a2.12,2.12,0,0,0,1.66-.73,2.87,2.87,0,0,0,0-3.63,2.24,2.24,0,0,0-3.31,0,2.87,2.87,0,0,0,0,3.63A2.11,2.11,0,0,0,121.72,284.59Z"/>
      <path class="cls-25" d="M135.67,285.3h-1V282.7a5.06,5.06,0,0,1-2,.41,2.29,2.29,0,0,1-2.65-2.69v-1.63h1v1.55a2,2,0,0,0,.42,1.47,2,2,0,0,0,1.44.42,3.92,3.92,0,0,0,1.82-.43v-3h1Z"/>
      <path class="cls-25" d="M138.87,285.3H138v-6.52h1v5.09l4.17-5.09h.9v6.52h-1v-5.08Z"/>
      <path class="cls-25" d="M149.3,285.46a3.42,3.42,0,0,1-2.48-1,3.34,3.34,0,0,1-1-2.46,3.25,3.25,0,0,1,1-2.43,3.37,3.37,0,0,1,2.48-1,3.94,3.94,0,0,1,2,.47v.9a3.66,3.66,0,0,0-1.84-.5,2.57,2.57,0,0,0-1.88.73,2.4,2.4,0,0,0-.74,1.82,2.45,2.45,0,0,0,.74,1.82,2.63,2.63,0,0,0,1.88.71,3.54,3.54,0,0,0,2-.57v.89A4,4,0,0,1,149.3,285.46Z"/>
      <path class="cls-25" d="M155.82,285.3h-1v-5.67h-2.36v-.85h5.7v.85h-2.36Z"/>
      <path class="cls-25" d="M160,279.63a3.69,3.69,0,0,1,5.08,0,3.46,3.46,0,0,1,0,4.83,3.72,3.72,0,0,1-5.08,0,3.46,3.46,0,0,1,0-4.83Zm5.06,2.42a2.53,2.53,0,0,0-.71-1.82,2.4,2.4,0,0,0-1.81-.73,2.43,2.43,0,0,0-1.81.73,2.66,2.66,0,0,0,0,3.63,2.43,2.43,0,0,0,1.81.73,2.4,2.4,0,0,0,1.81-.73A2.51,2.51,0,0,0,165.08,282Z"/>
      <path class="cls-25" d="M170.2,285.3h-1v-5.67h-2.36v-.85h5.7v.85H170.2Z"/>
      <path class="cls-25" d="M174.43,288.06a2.2,2.2,0,0,1-1-.19V287a1.91,1.91,0,0,0,.89.22,1.32,1.32,0,0,0,1-.49,6.18,6.18,0,0,0,.9-1.63l-2.9-6.28h1.08l2.31,5.13,2.24-5.13H180L176.76,286Q175.89,288.06,174.43,288.06Z"/>
      <path class="cls-25" d="M186,285.3h-.9v-6.52h1v5.09l4.17-5.09h.9v6.52h-1v-5.08Z"/>
      <path class="cls-25" d="M200,285.46a3.42,3.42,0,0,1-2.48-1,3.34,3.34,0,0,1-1-2.46,3.25,3.25,0,0,1,1-2.43,3.37,3.37,0,0,1,2.48-1,3.94,3.94,0,0,1,2,.47v.9a3.66,3.66,0,0,0-1.84-.5,2.57,2.57,0,0,0-1.88.73,2.4,2.4,0,0,0-.74,1.82,2.45,2.45,0,0,0,.74,1.82,2.63,2.63,0,0,0,1.88.71,3.54,3.54,0,0,0,2-.57v.89A4,4,0,0,1,200,285.46Z"/>
      <path class="cls-25" d="M204.48,279.63a3.69,3.69,0,0,1,5.08,0,3.46,3.46,0,0,1,0,4.83,3.72,3.72,0,0,1-5.08,0,3.46,3.46,0,0,1,0-4.83Zm5.06,2.42a2.53,2.53,0,0,0-.71-1.82,2.4,2.4,0,0,0-1.81-.73,2.43,2.43,0,0,0-1.81.73,2.66,2.66,0,0,0,0,3.63,2.43,2.43,0,0,0,1.81.73,2.4,2.4,0,0,0,1.81-.73A2.51,2.51,0,0,0,209.54,282Z"/>
      <path class="cls-25" d="M212.86,279.63a3.69,3.69,0,0,1,5.08,0,3.46,3.46,0,0,1,0,4.83,3.72,3.72,0,0,1-5.08,0,3.46,3.46,0,0,1,0-4.83Zm5.06,2.42a2.53,2.53,0,0,0-.71-1.82,2.4,2.4,0,0,0-1.81-.73,2.43,2.43,0,0,0-1.81.73,2.66,2.66,0,0,0,0,3.63,2.43,2.43,0,0,0,1.81.73,2.4,2.4,0,0,0,1.81-.73A2.51,2.51,0,0,0,217.92,282Z"/>
      <path class="cls-25" d="M223,285.3h-1v-5.67h-2.36v-.85h5.7v.85H223Z"/>
      <path class="cls-25" d="M230.56,285.3H226.9v-6.52h3.43a2.14,2.14,0,0,1,1.45.45,1.52,1.52,0,0,1,.52,1.21,1.43,1.43,0,0,1-.81,1.43,1.75,1.75,0,0,1,.67,3A2.47,2.47,0,0,1,230.56,285.3Zm-2.69-5.67v1.92h2.19a1.56,1.56,0,0,0,.95-.25.83.83,0,0,0,.34-.71q0-1-1.28-1Zm0,2.73v2.09h2.48a1.7,1.7,0,0,0,1-.27.9.9,0,0,0,.36-.77.92.92,0,0,0-.36-.78,1.67,1.67,0,0,0-1-.28Z"/>
      <path class="cls-25" d="M237.81,285.46a3.64,3.64,0,0,1-2.56-1,3.18,3.18,0,0,1-1-2.46,3.45,3.45,0,0,1,.92-2.44,3.15,3.15,0,0,1,2.39-1,3,3,0,0,1,1.39.32,2.58,2.58,0,0,1,1,.83,4,4,0,0,1,.7,2.24v.27h-5.36a2.31,2.31,0,0,0,.84,1.68,3,3,0,0,0,1.94.63,3.83,3.83,0,0,0,2.09-.61v.86A3.65,3.65,0,0,1,237.81,285.46Zm-2.58-4h4.36a2.21,2.21,0,0,0-.57-1.36,1.86,1.86,0,0,0-1.54-.62,2.21,2.21,0,0,0-1.59.59A2.13,2.13,0,0,0,235.23,281.48Z"/>
      <path class="cls-25" d="M244.76,285.3h-1v-5.67h-2.36v-.85h5.7v.85h-2.36Z"/>
      <path class="cls-25" d="M251.45,285.46a3.42,3.42,0,0,1-2.48-1,3.34,3.34,0,0,1-1-2.46,3.25,3.25,0,0,1,1-2.43,3.37,3.37,0,0,1,2.48-1,3.94,3.94,0,0,1,2,.47v.9a3.66,3.66,0,0,0-1.84-.5,2.57,2.57,0,0,0-1.88.73A2.4,2.4,0,0,0,249,282a2.45,2.45,0,0,0,.74,1.82,2.63,2.63,0,0,0,1.88.71,3.54,3.54,0,0,0,2-.57v.89A4,4,0,0,1,251.45,285.46Z"/>
      <path class="cls-25" d="M258,285.3h-1v-5.67h-2.36v-.85h5.7v.85H258Z"/>
      <path class="cls-25" d="M265.49,285.3h-3.66v-6.52h3.43a2.14,2.14,0,0,1,1.45.45,1.52,1.52,0,0,1,.52,1.21,1.43,1.43,0,0,1-.81,1.43,1.75,1.75,0,0,1,.67,3A2.47,2.47,0,0,1,265.49,285.3Zm-2.69-5.67v1.92H265a1.56,1.56,0,0,0,.95-.25.83.83,0,0,0,.34-.71q0-1-1.28-1Zm0,2.73v2.09h2.48a1.7,1.7,0,0,0,1-.27.9.9,0,0,0,.36-.77.92.92,0,0,0-.36-.78,1.67,1.67,0,0,0-1-.28Z"/>
      <path class="cls-25" d="M270.52,285.3h-.9v-6.52h1v5.09l4.17-5.09h.9v6.52h-1v-5.08Z"/>
      <path class="cls-25" d="M281.08,285.46a3.64,3.64,0,0,1-2.56-1,3.18,3.18,0,0,1-1-2.46,3.45,3.45,0,0,1,.92-2.44,3.15,3.15,0,0,1,2.39-1,3,3,0,0,1,1.39.32,2.58,2.58,0,0,1,1,.83,4,4,0,0,1,.7,2.24v.27h-5.36a2.31,2.31,0,0,0,.84,1.68,3,3,0,0,0,1.94.63,3.83,3.83,0,0,0,2.09-.61v.86A3.65,3.65,0,0,1,281.08,285.46Zm-2.58-4h4.36a2.21,2.21,0,0,0-.57-1.36,1.86,1.86,0,0,0-1.54-.62,2.21,2.21,0,0,0-1.59.59A2.13,2.13,0,0,0,278.5,281.48Z"/>
      <path class="cls-25" d="M126.32,304.48h-.93v-1.93H119.3V296h1v5.67h3.88V296h1v5.67h1.2Z"/>
      <path class="cls-25" d="M131,302.71a3.64,3.64,0,0,1-2.56-1,3.18,3.18,0,0,1-1-2.46,3.45,3.45,0,0,1,.92-2.44,3.15,3.15,0,0,1,2.39-1,3,3,0,0,1,1.39.32,2.58,2.58,0,0,1,1,.83,4,4,0,0,1,.7,2.24v.27h-5.36a2.31,2.31,0,0,0,.84,1.68,3,3,0,0,0,1.94.63,3.83,3.83,0,0,0,2.09-.61v.86A3.65,3.65,0,0,1,131,302.71Zm-2.58-4h4.36a2.21,2.21,0,0,0-.57-1.36,1.86,1.86,0,0,0-1.54-.62,2.21,2.21,0,0,0-1.59.59A2.13,2.13,0,0,0,128.45,298.73Z"/>
      <path class="cls-25" d="M136.59,302.55h-1V296h1v2.74h4V296h1v6.52h-1v-2.9h-4Z"/>
      <path class="cls-25" d="M146.83,302.55h-3V296h1v2.19h1.94a2.66,2.66,0,0,1,1.81.59,2,2,0,0,1,.68,1.57,2,2,0,0,1-.65,1.58A2.56,2.56,0,0,1,146.83,302.55Zm-2-3.48v2.63h1.81a1.88,1.88,0,0,0,1.2-.34,1.16,1.16,0,0,0,.43-1,1.18,1.18,0,0,0-.43-1,1.88,1.88,0,0,0-1.2-.34Zm6.48,3.48h-1V296h1Z"/>
      <path class="cls-25" d="M158.15,301.51v3.74h-1V296h1v1a3,3,0,0,1,2.52-1.2,3.07,3.07,0,0,1,2.36,1,3.66,3.66,0,0,1,0,4.85,3.07,3.07,0,0,1-2.36,1A3,3,0,0,1,158.15,301.51Zm0-3.29v2.15a2.4,2.4,0,0,0,.92,1.06,2.48,2.48,0,0,0,1.38.41,2.39,2.39,0,0,0,1.8-.73,2.56,2.56,0,0,0,.72-1.82,2.51,2.51,0,0,0-.72-1.81,2.39,2.39,0,0,0-1.8-.73,2.46,2.46,0,0,0-1.36.41A2.49,2.49,0,0,0,158.15,298.22Z"/>
      <path class="cls-25" d="M168.72,302.55h-3V296h1v2.19h1.94a2.66,2.66,0,0,1,1.81.59,2,2,0,0,1,.68,1.57,2,2,0,0,1-.65,1.58A2.56,2.56,0,0,1,168.72,302.55Zm-2-3.48v2.63h1.81a1.88,1.88,0,0,0,1.2-.34,1.16,1.16,0,0,0,.43-1,1.18,1.18,0,0,0-.43-1,1.88,1.88,0,0,0-1.2-.34Zm6.48,3.48h-1V296h1Z"/>
      <path class="cls-25" d="M176.49,302.55h-1V296h1v2.74h4V296h1v6.52h-1v-2.9h-4Z"/>
      <path class="cls-25" d="M183.76,296h1v2.69l3.11-2.69h1.32L185.72,299l3.93,3.58h-1.39l-3.52-3.21v3.21h-1Z"/>
      <path class="cls-25" d="M191.29,305.31a2.2,2.2,0,0,1-1-.19v-.91a1.91,1.91,0,0,0,.89.22,1.32,1.32,0,0,0,1-.49,6.18,6.18,0,0,0,.9-1.63l-2.9-6.28h1.08l2.31,5.13L195.8,296h1.05l-3.23,7.25Q192.75,305.31,191.29,305.31Z"/>
      <path class="cls-25" d="M197.65,302.63a.69.69,0,1,1,.5-.2A.68.68,0,0,1,197.65,302.63Z"/>
    </g>
    <g>
      <path class="cls-24" d="M110.91,129.75h-4.17V121h3.79a2.76,2.76,0,0,1,1.84.57,1.93,1.93,0,0,1,.67,1.56,2.14,2.14,0,0,1-.31,1.16,1.65,1.65,0,0,1-.84.69,2.16,2.16,0,0,1,1.39.76,2.41,2.41,0,0,1,.51,1.58,2.22,2.22,0,0,1-.77,1.78A3.13,3.13,0,0,1,110.91,129.75Zm-3.25-7.91v2.86h2.71a2,2,0,0,0,1.29-.36,1.26,1.26,0,0,0,.46-1.05,1.31,1.31,0,0,0-.46-1.07,2,2,0,0,0-1.29-.37Zm0,3.67v3.4h3.09a2.29,2.29,0,0,0,1.51-.45,1.56,1.56,0,0,0,.54-1.26,1.52,1.52,0,0,0-.54-1.24,2.31,2.31,0,0,0-1.51-.44Z"/>
      <path class="cls-24" d="M119,129.75h-3.23V121h.92v3.26H119a3.23,3.23,0,0,1,2.3.76,2.56,2.56,0,0,1,.84,2,2.53,2.53,0,0,1-.84,2A3.34,3.34,0,0,1,119,129.75Zm-2.3-4.65v3.81H119a2.57,2.57,0,0,0,1.67-.49,1.72,1.72,0,0,0,.6-1.41,1.75,1.75,0,0,0-.59-1.41,2.54,2.54,0,0,0-1.68-.5Zm7.7,4.65h-.92V121h.92Z"/>
      <path class="cls-24" d="M132.21,129.9a4.29,4.29,0,0,1-2.62-.76v-1a4,4,0,0,0,2.63.88,3.34,3.34,0,0,0,2.39-.94,3.54,3.54,0,0,0,1.09-2.4h-4.1v-.84h4.06a3.4,3.4,0,0,0-1.1-2.26,3.3,3.3,0,0,0-2.31-.89,4.46,4.46,0,0,0-2.45.74v-1a4.43,4.43,0,0,1,2.42-.65,4.28,4.28,0,0,1,3.19,1.3,4.53,4.53,0,0,1-3.19,7.75Z"/>
      <path class="cls-24" d="M138.81,121h.92v3.8l4.05-3.8H145l-4.3,4,5,4.75h-1.3l-4.64-4.45v4.45h-.92Z"/>
      <path class="cls-24" d="M147.29,122.15a4.45,4.45,0,0,1,6.29,0,4.76,4.76,0,0,1,0,6.46,4.48,4.48,0,0,1-6.29,0,4.8,4.8,0,0,1,0-6.46ZM148,128a3.41,3.41,0,0,0,4.92,0,3.91,3.91,0,0,0,0-5.22,3.41,3.41,0,0,0-4.92,0,3.91,3.91,0,0,0,0,5.22Z"/>
      <path class="cls-24" d="M157.89,129.75H157V121h.92v3.64h5.2V121H164v8.75h-.92v-4.28h-5.2Z"/>
      <path class="cls-24" d="M167.36,122.15a4.45,4.45,0,0,1,6.29,0,4.76,4.76,0,0,1,0,6.46,4.48,4.48,0,0,1-6.29,0,4.8,4.8,0,0,1,0-6.46ZM168,128a3.41,3.41,0,0,0,4.92,0,3.91,3.91,0,0,0,0-5.22,3.41,3.41,0,0,0-4.92,0,3.91,3.91,0,0,0,0,5.22Z"/>
      <path class="cls-24" d="M177.95,129.75H177V121h.91l3.16,4.24,3.16-4.24h.9v8.75h-.91V122.4l-2.86,3.82h-.56l-2.89-3.82Z"/>
      <path class="cls-24" d="M188.41,129.75h-.78V121h.91v7.2L194,121h.81v8.75h-.91v-7.22Z"/>
      <path class="cls-24" d="M200.41,129.75h-.92v-7.91h-3V121h7v.84h-3Z"/>
      <path class="cls-24" d="M211.32,129.75h-6.19V121h6v.84h-5.08v2.8h4.16v.84h-4.16v3.44h5.26Z"/>
    </g>
  </g>
</svg>
